<?xml version="1.0" standalone="no"?>
<!DOCTYPE svg PUBLIC "-//W3C//DTD SVG 1.1//EN" "http://www.w3.org/Graphics/SVG/1.1/DTD/svg11.dtd" >
<svg xmlns="http://www.w3.org/2000/svg" xmlns:xlink="http://www.w3.org/1999/xlink" version="1.1">
<metadata></metadata>
<defs>
<font id="adobe_jenson_proregular" horiz-adv-x="944" >
<font-face units-per-em="2048" ascent="1475" descent="-573" />
<missing-glyph horiz-adv-x="440" />
<glyph unicode="&#xfb01;" horiz-adv-x="1028" d="M82 24.5v20.5t2 10q47 10 60.5 19.5t19.5 34.5q4 16 8 54t6 103q2 41 3 103.5t1 125v115t-2 72.5l-55 8q-10 4 -15.5 9.5t-15.5 29.5q6 6 32 22.5t42 30.5q18 16 18 33q0 80 5.5 140.5t17.5 107.5t31.5 87t48.5 77q53 66 117.5 109.5t109.5 66.5q43 23 79 30t48 7 q57 0 107.5 -21.5t74.5 -52.5q23 -23 23 -43q0 -14 -6 -24.5t-13 -18.5q-10 -12 -35.5 -27.5t-39.5 -15.5q-8 0 -17.5 5t-17.5 9q-35 31 -81 56.5t-93 25.5q-35 0 -60.5 -13t-54.5 -44q-33 -37 -50.5 -97.5t-26.5 -128t-11 -134t-2 -115.5q0 -8 10 -14.5t43 -6.5h168 q35 0 75 1t80 4t76.5 10.5t61.5 17.5q23 10 20 -18q-4 -53 -7 -118t-5 -126.5t-3 -114.5t-1 -84q0 -63 1 -115.5t5 -109.5q0 -20 4 -31.5t16.5 -18.5t36 -9t64.5 -5q10 0 10 -16v-22.5t-2 -24.5q-98 0 -194.5 -2t-194.5 -6v35q0 16 4 20t17 8q41 10 57 23.5t20 52.5 q2 31 4.5 74t4.5 89t2 92v83q0 57 -1 93t-3 56.5t-6.5 30.5t-12.5 17q-14 14 -33.5 20t-54.5 6h-227q-23 0 -30 -7t-9 -36q-4 -20 -4 -73.5v-151.5q0 -102 2 -158.5t4 -91.5t5 -54.5t17.5 -29.5t43 -16t81.5 -13q0 -6 -2 -15t-5 -19.5t-7 -17.5t-6 -7q-8 0 -26.5 -1 t-41.5 -1h-143q-47 0 -96 -2t-72 -2q-2 0 -3 9t-1 19.5z" />
<glyph unicode="&#xfb02;" horiz-adv-x="1017" d="M64.5 44q-1.5 9 1.5 15q33 6 53 13.5t30.5 15.5t13.5 20.5t5 28.5q4 31 6 81t2 126v272q0 37 -6 48.5t-16 13.5l-60 8q-20 4 -4 23l14 26q4 6 14.5 12.5t23 11.5l22.5 9t16 8q0 41 6 144q2 68 9.5 112.5t18.5 79.5t28.5 62.5t44.5 58.5q55 63 110.5 97t83.5 50 q35 16 67 24.5t60 8.5q20 0 50 -3t63 -17q8 2 26.5 11t41 21.5t43 22.5t30.5 12q8 2 15 -6q4 -4 4 -8t-2 -21q-4 -37 -8.5 -103.5t-8.5 -156.5t-7 -199.5t-3 -230.5q0 -186 2 -331.5t2 -256.5q0 -49 5 -59t30 -10q8 0 33.5 2t36.5 2q10 0 17 -8t7 -19q2 -14 2 -30.5 t-2 -24.5h-100q-74 0 -157 -5t-138 -9q-4 8 -7 20t-5 27q0 6 6 12t10 6q53 10 72.5 23.5t23.5 60.5q10 98 11 197.5t1 204.5v67.5t-2 54.5q-4 20 -17 26.5t-30 6.5h-252q-39 0 -49 -6t-14 -12q-4 -8 -7 -23.5t-4 -52.5t-2 -104.5t-1 -180.5q0 -72 1 -123t3 -75 q2 -14 5 -21.5t13 -11.5t33.5 -5t64.5 -1q6 0 12.5 -10.5t6.5 -24.5q0 -25 -3 -33t-14 -8q-72 2 -121 2h-112q-70 0 -93.5 -1t-31.5 -1q-12 0 -15 6t-5 17zM332 801q0 -14 3 -17.5t15 -3.5h330q23 0 22 6v90.5v124v123t-2 86.5q0 31 -14 45q-55 63 -154 64 q-35 0 -71.5 -19.5t-61.5 -54.5q-23 -33 -36 -82t-20 -109.5t-9 -125t-2 -127.5z" />
<glyph unicode="&#xfb03;" horiz-adv-x="1583" d="M36 48q-1 9 1 11q39 4 64.5 9.5t41 12.5t22.5 19.5t9 32.5q4 35 5 90.5t1 161.5v145.5v79t-1 33.5t-1 12q-4 10 -19.5 15.5t-62.5 15.5q-12 6 -14 10l-12 33q37 23 75.5 42.5t38.5 27.5q0 76 5.5 132t17.5 100t32.5 79t51.5 70q41 47 107.5 89t123.5 64q66 27 135 27 q61 0 119 -21.5t94 -56.5q25 29 73 61.5t95 57.5q43 20 84 30.5t68 10.5q55 0 103 -21.5t79 -50.5q16 -12 17 -37q0 -16 -5.5 -26.5t-9.5 -16.5q-10 -14 -35.5 -34.5t-42.5 -20.5q-6 0 -17 5t-19 9q-35 29 -80 57.5t-95 28.5q-27 0 -57.5 -10t-60.5 -45q-57 -63 -75 -181 t-18 -298q0 -20 39 -21h205q31 0 69 1t78 5.5t76.5 10.5t65.5 18q4 2 10 -4t4 -16q-4 -53 -7 -118t-5 -126.5t-3 -114.5t-1 -84q0 -63 1 -113.5t3 -107.5q0 -20 4 -31.5t16.5 -18.5t37 -10t65.5 -5q10 0 10 -17v-49q-100 0 -197.5 -2t-195.5 -6v31q0 29 20 30 q25 6 40.5 12.5t22.5 14.5t10 20.5t5 32.5q2 31 4 73t4 88t2 90v79v102t-2 60.5t-6 31t-10 17.5q-12 10 -35.5 15t-75.5 5h-210q-25 0 -32 -10t-12 -33q-2 -23 -3 -76t-1 -149q0 -76 1 -152.5t6 -123.5q2 -25 5 -39.5t17 -23.5t43 -15t82 -15q2 -20 -5 -40.5t-13 -20.5 q-29 0 -58.5 1t-60.5 1h-113q-57 0 -99 -3t-71 -3q-2 0 -2 8t2 19.5t5 20.5t7 11q53 16 72 28.5t23 47.5q4 25 6 71t2 148v320q0 16 -8.5 22t-44.5 6h-273q-33 -4 -40 -4t-11 -4q-4 -16 -8 -85t-4 -198q0 -106 2 -164.5t4 -109.5q0 -27 9 -37t26 -14l96 -23q12 -2 8 -14 l-14 -43q-8 0 -34 1t-62.5 1t-81.5 1t-93 1h-57t-37.5 -1t-27 -1h-21.5q-2 0 -4 8t-4 19.5t-3 20.5zM338 799q0 -18 27 -19h333q6 0 13.5 5.5t7.5 15.5q0 111 9 193.5t52 168.5q-16 25 -42.5 44.5t-56.5 32.5t-60.5 19.5t-57.5 6.5q-68 0 -114 -41q-66 -53 -88.5 -160 t-22.5 -266z" />
<glyph unicode="&#xfb04;" horiz-adv-x="1552" d="M24 46q-1 9 1 13q74 8 99.5 21.5t33.5 54.5q4 33 6 87t2 161v145.5t-1 81t-3 36.5l-4 18q-2 6 -15.5 11t-60.5 15q-12 2 -14 6l-15 39q39 20 77 36.5t38 27.5q0 74 4 127t16.5 96t33 79t52.5 70q45 51 112 93.5t132 64.5q29 10 61.5 17.5t67.5 7.5q57 0 112.5 -20.5 t90.5 -55.5q29 29 66.5 54.5t78.5 43.5q41 23 79 32t71 9q35 0 64.5 -6t58.5 -18q8 4 26.5 12t40 16.5t41 15.5t29.5 9q6 2 12 -6q4 -4 5 -7t-1 -20q-4 -37 -9 -99.5t-9 -147.5t-6 -187t-2 -215q0 -207 2 -354.5t2 -257.5q0 -47 7 -61.5t28 -12.5q10 0 30.5 -1t36.5 -1 q8 0 15.5 -8.5t7.5 -14.5q4 -14 4 -29.5t-4 -23.5h-97q-74 0 -156.5 -5t-137.5 -9q-10 18 -15 49q0 4 7.5 10t9.5 6q57 8 75.5 24.5t22.5 63.5q10 98 11 195.5t1 202.5v66.5t-2 55.5q-6 33 -45 33h-260q-39 0 -49 -5t-15 -11q-4 -8 -7 -24.5t-5 -54.5t-3 -104.5t-1 -177.5 q0 -84 2 -131t7 -70.5t11.5 -29.5t14.5 -8q14 -4 34.5 -7t63.5 -8q12 -2 13 -16q0 -20 -4.5 -33.5t-10.5 -13.5h-256q-51 0 -89 -3t-58 -3q-8 0 -9.5 8t5.5 31q2 6 3 11t5 9q61 12 83.5 26.5t26.5 49.5q4 31 5.5 81t1.5 152v297q0 10 -2.5 17.5t-12.5 11.5t-31.5 5t-58.5 1 h-227q-25 0 -34 -6t-13 -12q-2 -12 -7.5 -80t-5.5 -191q0 -109 3.5 -166t5.5 -96q2 -31 9 -45t23 -20l97 -21q10 -4 6 -14l-17 -45q-6 0 -31.5 1t-61.5 1t-81 1t-92 1q-66 0 -95.5 -1t-43.5 -1q-2 0 -4 8t-5 19.5t-4 20.5zM324 805q0 -27 26 -27h326q12 0 21.5 8.5t9.5 22.5 q0 100 8 189t45 161q-25 41 -78 73t-133 32q-63 0 -111 -41q-33 -27 -55.5 -71t-35.5 -99.5t-18 -119t-5 -128.5zM864 803q0 -16 4 -19.5t17 -3.5h334q27 0 26 17v83v123.5v125t-2 88.5q0 31 -16 47q-23 31 -64 44t-86 13q-88 0 -137 -68q-25 -35 -40 -87t-23.5 -112.5 t-10.5 -126t-2 -124.5z" />
<glyph horiz-adv-x="0" />
<glyph unicode="&#xd;" horiz-adv-x="440" />
<glyph unicode=" "  horiz-adv-x="440" />
<glyph unicode="&#x09;" horiz-adv-x="440" />
<glyph unicode="&#xa0;" horiz-adv-x="440" />
<glyph unicode="!" horiz-adv-x="446" d="M94 129q0 8 17 16q37 12 58 23.5t34 52.5q4 14 22.5 20.5t32.5 6.5h2q8 0 14 -19q6 -35 25.5 -51t44.5 -24q18 -10 23.5 -24.5t5.5 -31.5q0 -14 -13 -18q-23 -8 -36 -15.5t-21 -17.5t-14 -24.5t-17 -38.5q-8 -12 -16 -13q-29 6 -40 12.5t-15 22.5q-8 20 -16.5 32.5 t-18.5 18.5t-22.5 10.5t-28.5 8.5q-10 4 -15.5 23.5t-5.5 29.5zM117 836.5q0 17.5 6 21.5q35 18 61.5 50t44.5 61q6 8 29 8h2q16 0 21 -10q14 -31 40.5 -58.5t49.5 -50.5q8 -4 9 -22.5t-3 -22.5q-23 -25 -37 -70t-25 -94q-4 -27 -11 -70.5t-14 -88t-13.5 -79t-6.5 -40.5 q0 -2 -11 -5.5t-23.5 -5.5t-22.5 -3t-10 3q0 8 -1 37t-4 68t-7.5 84t-8.5 84q-8 59 -21.5 107t-39.5 73q-4 6 -4 23.5z" />
<glyph unicode="&#x22;" horiz-adv-x="567" d="M61 1366q0 6 7.5 14.5t35.5 22.5q35 14 57.5 19t33.5 5h2q29 0 28 -34q0 -31 -7 -79t-17.5 -101.5t-22.5 -104.5t-20 -84q-2 -6 -13.5 -11t-46.5 -16q-10 -2 -14 0t-4 19q0 94 -4 189t-15 161zM340 1368q0 6 7 13.5t36 21.5q70 25 92 24h2q27 0 27 -34q0 -25 -6 -69 t-16.5 -94t-21.5 -101.5t-24 -92.5q-4 -10 -14 -16t-47 -21q-16 -8 -17 13q0 45 -1 94t-3 96t-6 90t-8 76z" />
<glyph unicode="#" d="M59 287q-6 0 4 73q-2 23 2.5 29t12.5 6l164 -4l61 268h-192q-4 0 -3 11.5t11 48.5q8 35 15 43t32 8l168 -2l63 307q4 10 25 10q37 0 72 -10l-72 -307l211 -2l72 311h42t29 -2q10 -4 15.5 -11t1.5 -26l-68 -272l152 2q10 0 13 -9t-3 -46q-10 -37 -16.5 -46.5t-16.5 -9.5 h-160l-55 -266h158q18 0 25 -4t9 -10q0 -10 -2 -24.5t-6 -30t-8 -27.5t-8 -14h-199l-67 -361q-4 -2 -15.5 -2h-26t-26.5 2t-18 2q-8 8 -8.5 14.5t4.5 22.5l69 326h-213l-78 -344q-10 -4 -40.5 -7.5t-47.5 -3.5q-6 0 -8 8.5t-2 18.5l86 330h-158zM332 391h217l55 268h-215z " />
<glyph unicode="$" d="M80 244q2 6 12 10t20.5 6t20.5 2h12q18 -86 91 -141t159 -70l29 324q-47 12 -98.5 30.5t-93.5 47t-69.5 69.5t-27.5 103q0 78 39 120.5t96 71.5q35 18 88.5 30.5t110.5 16.5l12 150q0 16 11 16q12 0 40.5 -11t38.5 -15l-16 -146q82 -2 133 -16q10 -2 21.5 8t19.5 20 q4 4 25.5 1t25.5 -7q-2 -16 -2 -48t2 -65.5t5 -65.5t8 -50q-14 -10 -37 -15.5t-27 1.5q-10 41 -23.5 68.5t-35 46t-52 31.5t-75.5 24l-25 -287q84 -23 139.5 -43.5t92.5 -52.5q45 -37 63 -75t18 -87q0 -86 -41.5 -141.5t-107.5 -84.5q-14 -8 -41 -15t-56.5 -12t-59 -9 t-52.5 -7l-16 -170q-12 -4 -38 -8t-42 -4q-14 0 -10 21l16 161q-47 4 -89 10.5t-77 14.5q-18 4 -31 0q-4 -2 -27.5 -13.5t-31.5 -11.5q-12 0 -18.5 20.5t-6.5 33.5q-2 49 -7 100t-15 113zM285 666q0 -31 15 -54.5t38.5 -41t50.5 -29t51 -19.5l23 273q-80 2 -129 -39t-49 -90 zM479 47q37 4 74 16.5t64.5 32t45 47t17.5 62.5t-15.5 58.5t-40 39.5t-56 27.5t-64.5 21.5z" />
<glyph unicode="%" horiz-adv-x="1327" d="M96 799q0 78 22.5 141.5t76.5 116.5q12 12 34.5 26.5t48 26.5t52 20.5t49.5 8.5h2q61 0 103 -24.5t68 -64.5t37 -89.5t11 -98.5q0 -55 -9 -96t-23.5 -70.5t-29 -49t-24.5 -30.5q-16 -14 -39.5 -31.5t-50.5 -31.5t-53.5 -23.5t-46.5 -9.5q-94 0 -161 68.5t-67 210.5z M217 860q0 -84 14.5 -135t36 -80t45 -38t41.5 -9q39 0 72 27q12 10 31.5 54t19.5 146q0 135 -41 188.5t-100 53.5h-2q-39 0 -68 -31q-16 -16 -32.5 -59t-16.5 -117zM260 -4q186 297 369.5 580.5t359.5 566.5q10 14 14.5 18t14.5 4h2q4 0 24.5 -15t32.5 -30 q-82 -123 -180 -275.5t-198.5 -311t-194.5 -309t-166 -269.5q-4 -12 -21 -12q-8 0 -30.5 21.5t-26.5 31.5zM729 252q0 106 35 168.5t67 91.5q33 29 88.5 55.5t100.5 26.5h2q43 0 82 -17.5t69.5 -51t49 -85t18.5 -118.5q0 -104 -29.5 -164t-60.5 -90q-35 -33 -87 -64 t-112 -31q-61 0 -104 25t-69.5 64.5t-38 89t-11.5 100.5zM852 281q0 -84 21.5 -130.5t47 -70t50 -28.5t30.5 -5q16 0 33 9.5t29 23.5q16 14 34.5 67.5t18.5 124.5q0 41 -4 85t-18.5 81t-43 60.5t-77.5 23.5h-2q-51 0 -85 -59.5t-34 -181.5z" />
<glyph unicode="&#x26;" horiz-adv-x="1236" d="M96 225q0 55 19.5 98.5t48.5 71.5q23 23 51.5 45.5t75.5 57.5q-18 20 -40 57t-22 80q0 72 42 125t112 108q20 10 44 21.5t52 11.5h2q88 0 152.5 -54t64.5 -159q0 -33 -18 -61q-2 -8 -13.5 -22.5t-26.5 -32t-30.5 -37t-27.5 -35.5q31 -18 80 -62.5t88 -105.5 q25 27 54.5 70.5t55 90t44 87.5t20.5 61q0 14 -14.5 22.5t-49.5 20.5q8 23 18.5 39t20.5 14q20 -4 60 -9t75 -5t61.5 3t43.5 7q12 0 14 -14q4 -20 2 -37.5t-6 -17.5q-35 0 -52.5 -2.5t-27.5 -14.5q-31 -37 -61.5 -80t-61.5 -90q-74 -104 -147 -196q-10 -10 -8 -20.5t6 -18.5 q10 -23 28.5 -47.5t41 -45t47 -33t49.5 -12.5q98 0 137 121q2 2 8 5t10 -1q31 -39 23 -61q-31 -88 -89.5 -144.5t-146.5 -56.5q-76 0 -131 47t-102 125q-31 -31 -61.5 -60.5t-65.5 -54t-76 -39t-92 -14.5q-53 0 -104.5 15.5t-92.5 52.5q-47 41 -65.5 91t-18.5 95zM240 297 q0 -41 16 -77t45 -62.5t65.5 -42t79.5 -15.5h3q100 0 180 93q6 10 0 30q-14 35 -44 72t-67 68.5t-79 55t-81 36.5q-20 6 -32 -6q-35 -23 -60.5 -64t-25.5 -88zM340 715q0 -37 21.5 -70t50 -56.5t58.5 -36.5t48 -13q10 0 20.5 11t19.5 26.5t15.5 33t6.5 29.5q0 37 -14.5 66.5 t-34 51t-44 34t-45.5 12.5h-2q-41 0 -70.5 -21.5t-29.5 -66.5z" />
<glyph unicode="'" horiz-adv-x="288" d="M61 1366q0 6 7.5 14.5t35.5 22.5q35 14 57.5 19t33.5 5h2q29 0 28 -34q0 -31 -7 -79t-17.5 -101.5t-22.5 -104.5t-20 -84q-2 -6 -13.5 -11t-46.5 -16q-10 -2 -14 0t-4 19q0 94 -4 189t-15 161z" />
<glyph unicode="(" horiz-adv-x="686" d="M127 440q0 154 26.5 309.5t100.5 319.5q66 141 145.5 244.5t147.5 159.5q10 6 19 4t14 -7q4 -6 7 -22t3 -27v-2q0 -10 -19 -28q-51 -51 -109.5 -134t-108.5 -197t-82.5 -257.5t-32.5 -315.5q0 -154 26.5 -282.5t68.5 -230t94 -177.5t101 -123q23 -27 39 -36q10 -8 2 -33 q-14 -39 -28 -54q-4 -4 -14.5 -5t-16.5 1q-27 12 -61.5 42t-71.5 76t-75 106.5t-69 134.5q-51 121 -78.5 263t-27.5 271z" />
<glyph unicode=")" horiz-adv-x="686" d="M94 -432q-6 12 4 24q72 94 120 177.5t89 185.5q59 139 84 297t25 309q0 147 -25.5 270t-66.5 221.5t-92.5 172t-104.5 121.5q-29 29 -29 47q0 10 4 26.5t15 38.5q4 10 15 12.5t28 -10.5q63 -41 129.5 -125t119 -200.5t86 -261t33.5 -306.5v-2q0 -186 -32.5 -339.5 t-84 -278.5t-113.5 -220.5t-124 -164.5q-14 -18 -22.5 -23.5t-14.5 -5.5q-10 0 -24.5 13.5t-18.5 21.5z" />
<glyph unicode="*" horiz-adv-x="808" d="M88 1165v2q0 4 9 18.5t20.5 31t23 28.5t15.5 12t30.5 -16t60.5 -38.5t68.5 -47.5t57.5 -39q4 -4 9 1t3 9q-2 25 -4 59t-5 70.5t-5 72.5t-2 61q0 10 16 16q23 4 52.5 -1t43.5 -11q20 -6 13 -35q-2 -12 -8.5 -41t-12.5 -63.5t-12 -69.5t-8 -58q-4 -20 8 -16 q47 23 105.5 55.5t109.5 55.5q6 -6 23.5 -37t27.5 -51q4 -10 0 -19.5t-8 -9.5q-18 -6 -49 -13.5t-65 -15.5t-66.5 -16t-55.5 -15q-14 -4 -4 -10q12 -18 31.5 -40.5t41 -49t44 -53.5t43.5 -51q12 -14 9 -25.5t-21 -28.5q-16 -14 -40 -24t-38 -14q-10 18 -28.5 50.5t-39 69.5 l-41 74t-34.5 66l-36 -48t-51.5 -67t-53 -67.5t-40.5 -51.5q-12 -2 -37.5 13.5t-58.5 54.5q-2 4 0 12t6 10q14 14 41 38t57.5 48.5t59.5 48t47 39.5q4 4 4 8.5t-4 4.5q-20 10 -54 23t-69 27.5t-66.5 27t-46.5 22.5q-4 4 -10 7t-6 7z" />
<glyph unicode="+" horiz-adv-x="1343" d="M167 465q-1 33 3 39h444l2 426q0 29 13 28h86q14 0 17 -7t3 -25l-4 -422h420q16 0 20.5 -5t4.5 -18v-63q0 -10 -19.5 -15.5t-36.5 -5.5h-389l4 -475q0 -8 -5 -15t-11 -7q-10 0 -25.5 3t-32 6t-28.5 7t-17 6l-2 475h-442q-4 35 -5 68z" />
<glyph unicode="," horiz-adv-x="450" d="M29 -219q0 16 22 43q43 41 84 99.5t41 121.5q0 29 -16.5 53.5t-42.5 42.5q-6 4 -6 21.5t6 21.5q31 14 63.5 41t48.5 43q16 14 31 15h2q6 0 20.5 -8.5t29 -25t25.5 -39t11 -48.5q0 -55 -22.5 -111.5t-59.5 -106.5t-82 -92t-90 -69q-29 -14 -47 -14t-18 12z" />
<glyph unicode="-" horiz-adv-x="667" d="M102 340v2q0 29 11.5 51.5t31.5 32.5q16 10 69.5 30.5t115 42t119 40t79.5 26.5q10 4 17.5 1t29.5 -17q6 -2 3 -27q-12 -37 -19.5 -58.5t-13.5 -31.5t-11.5 -14t-11.5 -6q-12 -4 -64 -15.5t-118 -26t-129.5 -29.5t-93.5 -24q-14 -2 -15 23z" />
<glyph unicode="." horiz-adv-x="450" d="M78 139q0 12 12 22.5t27 14.5q20 4 33.5 8t21.5 12.5t15.5 21.5t15.5 38q10 31 55 31h2q4 0 8 -9.5t13 -39.5q4 -16 9 -27.5t12 -20t21.5 -15.5t36.5 -15q25 -6 25 -41q0 -18 -12 -21q-29 -6 -44.5 -12t-25.5 -18.5t-17 -33t-18 -57.5q-2 -6 -7 -9t-21 -3q-23 0 -34 20.5 t-34 69.5q-6 16 -19.5 25.5t-46.5 23.5q-16 6 -22 17.5t-6 17.5z" />
<glyph unicode="/" horiz-adv-x="888" d="M106 -123q68 184 135.5 365.5t136 367t139.5 377t149 393.5q4 14 10 24.5t16 10.5h2q8 0 22.5 -5t29 -12t25.5 -16.5t15 -15.5q-154 -379 -295 -758t-266 -729q-14 -51 -32 -51q-4 0 -15.5 6t-26 14.5t-26.5 16.5t-19 12z" />
<glyph unicode="0" d="M88 401q0 131 47 224.5t113 148.5q53 43 114.5 66.5t122.5 23.5h2q57 0 102.5 -13t81.5 -34.5t61.5 -47.5t41.5 -50q35 -47 58.5 -127t23.5 -158q0 -84 -19.5 -149.5t-48 -113.5t-61.5 -81t-61 -51q-47 -29 -102.5 -46.5t-108.5 -17.5q-72 0 -148 28t-135 106 q-35 45 -59.5 119.5t-24.5 172.5zM225 420q0 -70 18.5 -132.5t52.5 -108.5t82 -73.5t105 -27.5q59 0 101.5 23.5t72.5 64.5q23 35 42.5 98.5t19.5 159.5q0 66 -16.5 127t-49 108.5t-81 75t-111.5 27.5h-2q-96 0 -162 -78q-35 -41 -53.5 -109.5t-18.5 -154.5z" />
<glyph unicode="1" d="M170 -6q2 6 2 16q4 27 5 33t5 8q12 4 35 7t49.5 7.5t53 7.5t42.5 7q8 0 15 18q6 20 9 57.5t6 79t4 83.5t1 77v141.5t-6 155.5q-2 35 -10 49.5t-27 18.5q-63 10 -102 14t-68 10q0 10 5.5 34t9.5 24q90 0 227 -1t317 7q2 0 4.5 -9.5t4.5 -20.5t3 -20.5t-1 -11.5 q-66 -6 -104 -10t-56.5 -8t-23.5 -8t-7 -10q-6 -16 -10 -70.5t-4 -177.5v-334q0 -41 12 -64.5t72 -27.5l127 -6q10 0 8 -15l-16 -45q-4 -8 -9.5 -9t-21.5 -1h-41t-61.5 1t-65.5 1h-55q-86 0 -169 -3t-147 -7q-12 0 -12 2z" />
<glyph unicode="2" d="M113 33q2 6 13 21.5t23.5 31.5t24.5 29.5t19 17.5q14 8 47.5 29.5t71.5 50.5t74 58.5t58 52.5q47 47 77 106t30 113q0 82 -48 131t-132 49q-45 0 -79 -18.5t-57.5 -45t-39 -57.5t-25.5 -53q0 -2 -8 1t-17.5 8t-17.5 10t-8 10q0 14 8 36.5t20.5 48t26.5 50t29 41.5 q31 35 88 72.5t145 37.5q74 0 133.5 -34.5t89.5 -81.5q25 -41 33 -79t8 -73q0 -90 -49 -165t-106 -124q-43 -35 -91 -79t-92 -81q-4 -4 -3 -10t12 -6q39 0 81 1l84 2t79.5 4t68.5 9q25 2 37 19q27 31 56.5 72t49.5 61l21 -20q20 -16 10 -33q-8 -18 -20.5 -45t-27.5 -58.5 t-32.5 -63.5t-36.5 -59q-16 -20 -21 -24t-15 -4h-33q-16 0 -51 1t-79 2t-90 2t-86 2t-69 1h-37h-133q-2 0 -9 11.5t-5 21.5z" />
<glyph unicode="3" d="M172 -238q4 12 17.5 35t25.5 41q90 -18 175 -12t136 43q39 29 59.5 76t20.5 104q0 59 -29.5 100t-60.5 62q-41 29 -101.5 38t-113.5 9q-4 0 -7 9t3 20q31 49 49 57q25 8 61.5 21.5t72.5 40t60.5 66.5t24.5 99q0 41 -12 75t-37 52q-41 37 -108 37q-33 0 -61 -12 t-51.5 -31.5t-43 -42t-33.5 -43.5q-12 -12 -16 -4l-27 45q29 45 67 90t66 72q31 27 72 41t80 14q63 0 105 -18.5t67 -38.5q45 -37 63.5 -89t18.5 -93q0 -31 -11.5 -65t-27.5 -56q-20 -23 -53 -56.5t-64 -60.5q-8 -8 4 -20q96 -47 149.5 -107.5t53.5 -153.5q0 -59 -26.5 -111 t-61.5 -93t-72 -69t-55 -38q-72 -43 -147.5 -65.5t-147.5 -22.5h-2q-23 0 -45.5 9.5t-30.5 17.5q-12 10 -6 28z" />
<glyph unicode="4" d="M55 168q0 18 7.5 35.5t29.5 48.5q43 61 98.5 132t115 144.5t120.5 143t117 127.5q33 33 69.5 49t51.5 16q20 0 20 -39v-604q6 0 37 1t70 7q20 4 34.5 22.5t30.5 39.5q4 4 9 5t22 -11q12 -10 15 -15.5t3 -15.5q-6 -14 -24.5 -47t-26.5 -45q-16 -27 -41 -33q-16 -2 -53 -5 t-58 -3q-6 0 -11 -8.5t-5 -12.5v-327q0 -25 -4 -31t-14 -6h-35t-41.5 1t-36.5 3t-25 4q-12 2 -12 35q0 27 2 77t5 102t6.5 98t3.5 65q-72 -4 -146 -1t-147 3q-61 0 -105.5 4t-58.5 8q-23 10 -23 33zM208 235.5q5 -10.5 32 -14.5q39 -4 82 -5t81.5 -2t69.5 0t45 1q23 2 23 31 q0 20 2 79.5t5 128t5 131t2 91.5v2q0 18 -18 8q-41 -41 -91.5 -98.5t-96.5 -116.5t-84 -115.5t-56 -93.5q-6 -16 -1 -26.5z" />
<glyph unicode="5" d="M154 324.5q-2 23.5 2 33.5q4 18 23.5 70.5t49 124.5t67.5 153.5t79 155.5q8 14 18 14.5t15 -2.5q20 -10 53 -21l67.5 -22.5t68.5 -19.5t58 -10q23 -4 31 8q31 35 43 48t25 22q14 4 27.5 7t25.5 3q18 0 12 -15q-4 -6 -16 -31.5t-30.5 -56t-38 -60.5t-38.5 -48 q-14 -16 -28 -16q-12 0 -39 3t-64 7t-78 10t-79 14q-12 2 -23 -10q-55 -100 -90 -194q-4 -10 1 -17.5t9 -9.5q92 -18 158.5 -36.5t130.5 -45.5q180 -76 180 -250v-2q0 -61 -26.5 -114.5t-63.5 -94.5t-75 -69.5t-58 -42.5q-78 -51 -161 -75t-138 -28q-12 0 -21 8 q-8 4 -17 16.5t-19 22.5q-4 4 -3 7t5 3q29 6 67.5 18.5t79.5 29t79 35t62 38.5q55 45 95.5 106.5t40.5 145.5q0 45 -25 75t-62.5 47t-84 24.5t-91.5 7.5q-49 0 -95 -2t-99 -13q-8 25 -10 48.5z" />
<glyph unicode="6" d="M96 410q0 106 21.5 193t58.5 157.5t84 124t98 94.5q41 33 90.5 58.5t100.5 44t99 28.5t89 10h2q25 0 55.5 -4t47.5 -12q10 -4 2 -27q-6 -16 -10.5 -19t-8.5 -3q-117 -10 -201.5 -43t-158.5 -94q-66 -53 -110 -126t-60 -151q51 23 104.5 44.5t87.5 37.5q23 8 40.5 12 t41.5 4q37 0 72 -12t66.5 -31.5t56 -42t39.5 -43.5q27 -37 43 -94t16 -123q0 -53 -13 -99t-31.5 -83t-38 -61.5t-29.5 -36.5q-16 -16 -38 -34t-43.5 -33t-40 -26.5t-26.5 -15.5q-20 -10 -61 -19.5t-74 -9.5q-84 0 -169 41t-138 134q-29 49 -46.5 122.5t-17.5 137.5zM258 418 q0 -61 25.5 -139t68.5 -127q35 -41 81 -62.5t93 -21.5q43 0 75 15t54 36q23 23 41.5 67.5t18.5 122.5q0 68 -19.5 131.5t-66.5 116.5q-41 41 -84 56.5t-107 15.5h-2q-39 0 -79 -22.5t-60 -39.5q-16 -16 -29 -45q-4 -16 -7 -39.5t-3 -64.5z" />
<glyph unicode="7" d="M87 563q-1 4 3 17q25 80 42.5 129t27.5 76.5t17 40t11 20.5q6 14 21 8q18 -10 51 -12t102 0h234h119.5t115.5 2q12 2 20.5 -4t4.5 -19q-59 -184 -140 -356t-179 -354q-72 -135 -122 -229.5t-69 -121.5q-20 -33 -57 -32q-16 0 -43 9t-37 15q-4 4 -4 15.5t4 15.5 q43 61 96 143t131 211q43 70 86 144.5t80 144.5t65.5 130t45.5 101q6 20 1 26.5t-16 8.5q-31 4 -75.5 6t-139.5 2q-61 0 -118.5 -4t-96.5 -8q-47 -6 -62.5 -25.5t-29.5 -62.5q-4 -16 -10 -36.5t-10 -31.5q-4 -10 -17 -6q-14 6 -26.5 14.5t-16.5 8.5q-8 10 -9 14z" />
<glyph unicode="8" d="M121 254q0 49 15.5 86t44 70.5t71.5 67.5t98 75q-27 14 -58.5 38.5t-59 58.5t-46 79t-18.5 102q2 104 61 173q27 33 74 63.5t92 50.5q29 10 51.5 16.5t51.5 6.5h2q63 0 114.5 -19.5t88 -55.5t57 -83t20.5 -102q0 -49 -19.5 -92.5t-33.5 -57.5q-39 -41 -71.5 -70.5 t-63.5 -56.5q14 -12 37.5 -26.5t50.5 -32t50.5 -37t37.5 -37.5q23 -29 38 -72t15 -102q0 -63 -24.5 -111.5t-46.5 -70.5q-10 -10 -32 -25.5t-45.5 -33t-47 -32t-37.5 -20.5q-35 -16 -75 -22.5t-77 -6.5q-53 0 -120.5 20.5t-112.5 63.5q-41 39 -61.5 93.5t-20.5 101.5z M268 301q0 -92 58 -162q68 -76 182 -76h2q78 0 123 44.5t47 117.5q2 90 -62 154q-14 14 -37.5 34.5t-52 40t-59.5 37t-55 25.5q-25 -12 -51.5 -33.5t-47 -49t-34 -61.5t-13.5 -71zM303 877q-2 -82 60.5 -138.5t168.5 -99.5q53 35 83 86t30 117q0 88 -43 143 q-25 35 -60.5 56.5t-82.5 21.5h-2q-41 0 -70 -16.5t-47 -43t-27.5 -60.5t-9.5 -66z" />
<glyph unicode="9" d="M82 -250q-4 2 2 23.5t10 21.5q66 2 150 22.5t163.5 65.5t146.5 117t101 176q-35 -12 -79 -24.5t-84.5 -23.5t-72.5 -18.5t-42 -7.5q-23 0 -51.5 8.5t-61.5 26.5q-78 43 -127 126t-49 188q0 115 50 195.5t130 129.5q16 10 42 25.5t55.5 29t59.5 23.5t54 10h2q98 0 164 -42 t105 -93q39 -49 66.5 -135t27.5 -188q0 -104 -22.5 -195.5t-63.5 -163.5q-59 -104 -153.5 -177t-192.5 -106q-53 -16 -109.5 -28t-97.5 -12q-35 0 -69 8t-54 18zM240 530q0 -51 12 -95t31.5 -78.5t43 -61.5t48.5 -43q74 -53 151 -53q35 0 72 17t47 28q10 8 15.5 14t9.5 16 q8 23 10 61t2 79q0 31 -5 66.5t-15.5 71.5t-25.5 67.5t-36 56.5q-39 45 -83 67.5t-116 22.5h-2q-29 0 -49 -10.5t-39 -28.5q-20 -18 -45.5 -66.5t-25.5 -130.5z" />
<glyph unicode=":" horiz-adv-x="509" d="M113 137q0 10 12 21.5t25 15.5q20 4 33.5 8t21.5 11.5t15 21.5t16 37q10 31 55 31h2q4 0 7 -10.5t11 -39.5q8 -35 21.5 -47t58.5 -28q10 -4 16.5 -13.5t6.5 -27.5q0 -16 -11 -21q-29 -6 -44 -12t-25 -18.5t-17.5 -33t-17.5 -57.5q-2 -4 -7 -7t-22 -3q-23 0 -34 20.5 t-31 69.5q-6 16 -19.5 24.5t-46.5 22.5q-16 6 -22 17.5t-4 17.5zM117 668q0 20 10 20q47 12 68.5 28.5t35.5 51.5q16 39 54 39h2q4 0 9 -3t9 -16q8 -25 13.5 -40t15.5 -24t26.5 -16.5t45.5 -15.5q14 -4 17 -12t-1 -29q-4 -12 -9 -16l-10 -8q-29 -12 -45 -21.5t-25 -21 t-15.5 -28.5t-14.5 -48q-8 -14 -24 -14q-12 0 -26.5 8t-19.5 20q-14 47 -28.5 65.5t-54.5 35.5q-33 12 -33 45z" />
<glyph unicode=";" horiz-adv-x="509" d="M59 -225q0 14 23 41q20 20 42.5 45.5t41 54.5t30 59.5t11.5 63.5q0 29 -16.5 52.5t-43.5 41.5q-6 4 -6 21.5t6 21.5q31 14 64 41t49 43q10 10 16.5 12t14.5 2h2q6 0 20.5 -8t28.5 -24.5t25.5 -39t11.5 -48.5q0 -55 -22.5 -111.5t-59.5 -107t-82 -92.5t-90 -68 q-29 -14 -47 -15q-18 0 -19 15zM115 672q0 16 12 20q45 10 65.5 26.5t34.5 51.5q16 37 49 37h3q4 0 10 -3t10 -13q6 -25 11 -39.5t14.5 -23.5t26 -16t44.5 -16q12 -6 15.5 -13t-0.5 -26q-8 -23 -17 -24q-29 -12 -44 -21.5t-24.5 -20.5t-14.5 -28.5t-13 -46.5q-6 -12 -25 -12 q-12 0 -25.5 7t-17.5 19q-16 45 -29.5 64.5t-54.5 32.5q-31 12 -30 45z" />
<glyph unicode="&#x3c;" horiz-adv-x="1290" d="M190 469q0 23 25 41t41 29q76 45 178.5 102t211 115.5t214 113t187.5 91.5q27 12 30 -5l27 -94q-205 -92 -386 -182t-362 -197l25 -14q43 -29 131 -78t188.5 -102t198.5 -104.5t164 -84.5q18 -8 10 -32l-18 -66q-4 -16 -10.5 -19t-24.5 7q-197 109 -387.5 217t-390.5 217 q-12 6 -32 19.5t-20 25.5z" />
<glyph unicode="=" horiz-adv-x="1343" d="M178 674q-2 16 0 20t8 4l977 2q0 -12 -1 -28.5t-3 -32.5t-6 -28.5t-10 -12.5q-16 -4 -43 -4h-80h-803q-18 0 -25.5 4t-9.5 20zM180 309l987 2l-8 -82q-4 -16 -15 -20t-61 -4h-874q-12 0 -15.5 2t-5.5 8q-4 10 -6 42t-2 52z" />
<glyph unicode="&#x3e;" horiz-adv-x="1290" d="M211 68q-2 12 16 20q4 2 71 38t166 90t221 119.5t237 129.5q-162 98 -335 192.5t-360 192.5q-4 4 -10 12t-4 15l20 55q6 18 14.5 22t12.5 0q184 -104 342 -192t295 -168q14 -8 28.5 -16.5t34 -19.5t46 -26.5t65.5 -37.5q12 -10 10 -29q-2 -6 -18 -20.5t-40 -30 t-46.5 -29.5t-36.5 -23q-180 -98 -353 -198.5t-349 -196.5q-10 25 -17.5 54.5t-9.5 46.5z" />
<glyph unicode="?" horiz-adv-x="552" d="M80 128q0 9 2 11q47 16 68.5 30.5t33.5 47.5q4 12 19.5 19.5t34.5 7.5h2q8 0 16 -23q10 -29 27.5 -47t52.5 -29q12 -6 15 -25.5t5 -37.5q-29 -10 -44 -17.5t-25.5 -18.5t-18.5 -27.5t-18 -47.5q-59 6 -68 29q-12 31 -30.5 47t-61.5 33q-2 0 -5 9t-4 19.5t-1 19.5zM84 530 q0 8 9 22.5t20.5 30t21.5 27t15 11.5q16 0 37.5 1t41.5 1q37 0 73 3t63.5 12t45 24.5t17.5 42.5q0 51 -46 75.5t-149 24.5q-18 0 -34.5 25.5t-16.5 39.5q0 45 35 69t76 24h2q49 0 87 -21.5t64.5 -54.5t41 -69t14.5 -66q0 -55 -11.5 -100.5t-33.5 -90.5q-29 -59 -71 -75.5 t-73 -18.5q-20 -2 -51 -3t-41 -1q-33 0 -42 -15.5t-9 -74.5q-8 -4 -18.5 -9.5t-20.5 -9.5q-14 -6 -16 4q-2 6 -7.5 25.5t-10.5 45.5t-9 52.5t-4 48.5z" />
<glyph unicode="@" horiz-adv-x="1740" d="M119 293q0 129 30.5 238.5t85 200.5t129 164t160.5 128q111 70 230.5 104.5t261.5 34.5q137 0 248.5 -43t191.5 -119.5t125 -181t47 -227.5q2 -150 -49 -264.5t-135 -191.5t-190.5 -114.5t-217.5 -35.5q-27 2 -52.5 15t-25.5 48q0 14 4.5 42t9.5 63.5t12 73.5t13 73 q-12 -12 -37.5 -41t-58.5 -64.5t-67.5 -72.5t-65.5 -68.5t-56.5 -51t-35.5 -19.5q-18 0 -42 12t-46.5 38.5t-37.5 69.5t-15 105v2q0 106 40.5 199.5t83.5 150.5q20 27 53 58.5t71 62.5t79 58.5t78 45.5q51 27 84 27q43 0 96 -16q23 6 51.5 11t53.5 5q-49 -160 -83 -335 t-44 -331q-4 -33 6 -49t41 -16q80 0 150.5 40t121.5 107.5t81 155.5t30 184q0 117 -38 212.5t-110.5 162t-176 102t-236.5 35.5q-72 0 -142.5 -15t-136 -43t-122 -66.5t-99.5 -86.5q-96 -102 -152.5 -254.5t-54.5 -324.5q0 -131 43 -246t121 -200t189.5 -134t248.5 -49 q117 0 201 31t129 53q8 4 14 -2t6 -10q0 -14 -3 -29.5t-7 -19.5q-68 -51 -178.5 -82t-224.5 -31q-141 0 -264 47t-215.5 138t-145.5 225.5t-55 310.5zM686 274q0 -49 11.5 -88t45.5 -39h2q18 0 50 27t67 63.5t64.5 76.5t46.5 69q10 18 23.5 52t25.5 75t22.5 86t16.5 88 q-12 8 -37 14.5t-53 6.5q-53 0 -96.5 -26t-79.5 -73q-51 -68 -80 -158t-29 -174z" />
<glyph unicode="A" horiz-adv-x="1456" d="M61 63q33 8 55.5 22.5t39 35t33 49.5t36.5 68q14 29 42 92t64 147t77 182.5t80.5 196.5t77.5 190.5t69 161.5q16 41 26.5 70t20.5 53q2 12 12 17q6 4 26.5 11t35.5 7h2q10 0 15 -7t9 -24q23 -74 43.5 -133t41 -115.5t43 -115t48.5 -129.5q25 -68 65 -167.5t80 -194.5 t71.5 -171t42.5 -100q16 -37 31.5 -62.5t35 -43t49 -30t72.5 -20.5q2 0 1 -9t-4 -19.5t-7 -20.5t-6 -12q-63 0 -105.5 1t-72 1h-53h-48.5q-49 0 -88 -4t-53 -2q-12 0 -15 6q-4 10 -8 29.5t-2 23.5q39 10 62.5 19.5t34 22.5t8.5 31.5t-11 49.5q-4 14 -16 50t-28.5 77t-32 81 t-25.5 64q-4 10 -13.5 20.5t-21.5 10.5q-111 0 -230.5 -2t-211.5 -6q-18 -2 -28.5 -9t-22.5 -34q-8 -16 -22.5 -53t-29 -79t-26 -82t-11.5 -61q0 -16 4.5 -28.5t16.5 -22.5t35.5 -19t62.5 -22q2 -10 -4 -31.5t-12 -25.5q-76 2 -151.5 2h-108.5q-27 0 -48.5 -1t-27.5 1 q-12 0 -14 6q-6 10 -10.5 31.5t-0.5 25.5zM469 582q-2 -6 7 -14.5t30 -8.5h2q10 0 44 -2t103 -2q72 0 120 1t89 3q10 0 15.5 10.5t1.5 18.5q-31 82 -54.5 147.5t-44 124t-41 113.5t-45.5 117q-4 6 -12 4t-12 -13q-37 -84 -61.5 -143t-46 -112.5t-43 -110t-52.5 -133.5z" />
<glyph unicode="B" horiz-adv-x="1224" d="M88 1264l21 55q31 0 133 6q25 2 64.5 4t82.5 4l86 4t76 2q66 0 145.5 -8t159.5 -41q27 -10 56.5 -30.5t55 -50t43 -68.5t17.5 -86q0 -70 -22.5 -125.5t-81.5 -100.5q-37 -29 -65 -42t-42 -21q-8 -4 -6 -12.5t12 -10.5q55 -10 111.5 -37.5t100.5 -71.5t73 -106.5 t29 -142.5q0 -70 -22.5 -127t-62.5 -101t-95.5 -78t-118.5 -56q-31 -10 -65 -16.5t-64.5 -9.5t-55 -4t-37.5 -1q-12 0 -53 1t-91 3t-100 3t-83 1q-66 0 -115 -5t-68 -5q-2 0 -4 7t-5 16.5t-4 17.5t-1 10q8 8 28.5 17.5t35.5 17.5q20 10 32.5 18t18.5 20.5t8 29t2 44.5 q4 115 6 190t2 128v315v204t-4 140q0 18 -4 30.5t-16.5 23t-39 20.5t-73.5 25zM395 545q0 -141 1 -220t5.5 -121t13.5 -58.5t25 -32.5t29.5 -25.5t28 -13.5t32 -5t43.5 -1h2q74 0 140.5 18t117 56t79 97.5t28.5 139.5q0 66 -20.5 127t-77.5 112q-55 53 -121 65.5t-141 12.5 q-55 0 -101.5 -5t-64.5 -21q-4 -4 -7.5 -11.5t-5.5 -20.5t-4 -34.5t-2 -58.5zM406 1051q0 -78 1 -141.5t3 -86.5q4 -35 16 -44t51 -13q25 -4 56.5 -4h54.5q10 0 27.5 1t37 4t40 8t34.5 13q53 33 83 92.5t30 131.5v2q0 63 -22.5 106t-57.5 78q-35 33 -85 53.5t-128 20.5 q-12 0 -42 -3t-59 -14q-16 -4 -22 -8t-8 -18q-4 -12 -7 -52t-3 -126z" />
<glyph unicode="C" horiz-adv-x="1384" d="M86 653v2q0 53 8 113.5t27.5 123t53.5 125t87 120.5q39 43 85 74.5t95.5 54t98.5 38t94 27.5q66 16 148.5 25.5t146.5 9.5q72 0 143.5 -12.5t108.5 -28.5q20 -6 35.5 -2t48.5 18q4 2 24 -4q16 -6 20.5 -9t2.5 -7q-31 -63 -37 -144q-3 -35 -3 -70q0 -48 5 -97 q0 -4 -10.5 -6.5t-20.5 -4.5q-23 -4 -28 -3t-9 12q-6 25 -16 61.5t-20 67.5q-10 29 -22.5 47t-41.5 39q-27 18 -99.5 43.5t-176.5 25.5q-106 0 -208 -45t-186 -143q-59 -74 -100 -189.5t-41 -271.5q0 -84 26.5 -188.5t92 -196.5t178.5 -154.5t285 -62.5q113 0 180 38t115 85 q41 41 62.5 78t33.5 69q4 14 16 4q33 -18 29 -43q-8 -35 -21.5 -72.5t-27 -71.5t-26.5 -62.5t-23 -42.5t-17.5 -18.5t-19.5 -6.5q-25 0 -64 -6t-84 -12.5t-92 -11.5t-88 -5q-205 0 -350.5 62.5t-238.5 162t-136 222t-43 243.5z" />
<glyph unicode="D" horiz-adv-x="1574" d="M104 1329q57 0 113.5 2t136.5 4q104 2 171 5t141 3q55 0 129.5 -6t155.5 -25.5t163 -56t154 -100.5q113 -102 168 -225t55 -260v-2q0 -43 -10.5 -96.5t-33 -111t-59 -115.5t-92.5 -109q-55 -51 -101 -86t-87 -58.5t-81 -39t-81 -27.5t-75.5 -18.5t-72.5 -9.5t-80 -4 t-97 -1q-41 0 -95.5 1t-106.5 3t-95 3t-60 1h-37.5t-43 -1t-40 -1h-30.5q0 2 -2 10t-3.5 19.5t-1.5 20.5t3 13q72 23 93 37.5t23 42.5q4 63 6 155.5t3.5 196t1.5 210v198.5v140.5t-1.5 87t-2.5 48t-3 25.5q-2 23 -22.5 36t-91.5 24q-2 2 -5.5 7t-3.5 19zM410 739 q0 -229 5 -382.5t27 -233.5q6 -20 29 -31q35 -16 83 -24.5t95 -8.5q76 0 168 19.5t199 87.5q131 84 195.5 222t64.5 294q0 82 -17.5 151.5t-45 126t-61.5 99.5t-69 74q-53 45 -109 72.5t-111.5 43t-106.5 19.5t-90 4h-2q-29 0 -66 -4t-69.5 -10.5t-58.5 -13.5t-32 -13 q-12 -8 -14 -41q-2 -35 -5 -85t-5 -110.5t-3 -126t-1 -129.5z" />
<glyph unicode="E" horiz-adv-x="1224" d="M88 1278l4 47q0 10 10 10h72q47 0 109.5 -2t156.5 -4h199q94 0 196.5 5t180.5 7q20 0 30.5 -3t18.5 -7q14 -10 15 -15t-5 -34q-6 -35 -10 -71.5t-5 -72.5t-2 -67t-1 -51q-41 0 -51.5 4t-12.5 14q-10 55 -21 96.5t-30.5 69t-55.5 42t-95 14.5h-142q-92 0 -143 -3.5 t-68 -7.5q-20 -6 -25 -23.5t-5 -51.5q0 -109 1 -215.5t3 -215.5q0 -33 26 -32h131q135 0 213 6q45 2 73 7t43 19.5t24.5 40t19.5 70.5q6 4 31.5 7t34.5 1q-4 -45 -10.5 -107.5t-6.5 -109.5q2 -53 6 -97t9 -89q-25 -6 -48 -6q-10 -2 -18 12q-6 16 -13 38.5t-12 41.5 q-10 41 -33.5 58.5t-84.5 21.5q-35 4 -87.5 4h-129.5q-78 0 -101.5 -1t-34.5 -3q-14 -4 -20 -13q-4 -10 -11 -67.5t-7 -184.5q0 -113 2 -163t18 -74q23 -29 82 -39t186 -10q90 0 158 7t118 31.5t83.5 71.5t58.5 129q6 2 19.5 1t29.5 -3q6 -4 6 -16q-2 -35 -8 -76t-15 -80 t-19.5 -72.5t-20.5 -56.5q-14 -16 -27 -16h-27.5t-68.5 2q-47 2 -146.5 3t-228.5 1q-123 0 -244.5 -5t-244.5 -9q-4 2 -5 25.5t1 35.5q0 8 8 8q35 6 55.5 12.5t31.5 13.5t14 15t3 21q4 23 9.5 118t5.5 252v355q0 102 -2 171.5t-4.5 112.5t-5.5 64.5t-3 26.5q-2 10 -6 16 t-20 10q-16 6 -44 11.5t-65 15.5q-2 2 -2 8z" />
<glyph unicode="F" horiz-adv-x="1126" d="M104 1299.5q0 13.5 5 25.5q0 8 22 8q6 0 25.5 -1t48 -1t62.5 -1t65 -1h370q150 0 221.5 5t90.5 9q4 2 10 -6t6 -16q-2 -111 -3 -175.5t-1 -101.5q0 -8 -5 -11t-24 1q-23 4 -26.5 6t-5.5 9q-8 45 -16.5 76.5t-19.5 53t-28.5 35t-42.5 21.5q-20 6 -40.5 11t-47.5 7t-63.5 3 t-88.5 1h-66.5t-44 -2t-31.5 -4t-30 -6q-12 -4 -18 -19.5t-10 -56.5q-8 -74 -11.5 -151.5t-3.5 -143t1.5 -111.5t1.5 -56q-2 -10 3 -15.5t9 -5.5q8 0 42 -1t124 -1q84 0 131 2t94 6q16 2 26.5 5t17.5 14.5t15.5 33t18.5 60.5q2 2 12 5t20.5 5t20.5 3t12 -1q0 -45 -2 -86 t-2 -84q0 -23 2 -48.5t4 -52t4.5 -49t2.5 -34.5q-8 -4 -34 -6t-32 2q-10 37 -19.5 69.5t-33.5 46.5q-16 8 -33.5 13.5t-44.5 8.5t-67 5t-99 2h-73.5t-47 -1t-32 -2t-25.5 -1q-12 -2 -16.5 -19.5t-4.5 -62.5v-162q0 -74 3.5 -121t7.5 -73q4 -29 15 -47.5t32.5 -27.5t54.5 -13 t78 -6q10 0 14 -7.5t2 -11.5l-14 -55h-47q-63 0 -109.5 4t-109.5 4q-31 0 -64 -1t-59.5 -3t-45 -3t-20.5 -1q-18 0 -20 18q-6 23 -5 40.5t5 21.5h63q18 0 24.5 6t10.5 35q4 31 7 85t6 119.5t4 140.5t1 148v205q0 106 -1 194.5t-5 153.5q-2 31 -6 49.5t-16 30.5t-36 19.5 t-63 15.5q-2 10 -2 23.5z" />
<glyph unicode="G" horiz-adv-x="1540" d="M86 674v2q0 158 54.5 276.5t150.5 206.5q66 61 145.5 99t184.5 67q92 27 181 34t138 7q25 0 57.5 -2t68.5 -7t72 -12.5t64 -15.5q18 -8 21 0l18 31q4 4 7 5t16 1l41 -2q10 0 10 -14q4 -100 12 -175t16 -114q6 -35 3 -47q-6 -6 -23 -6h-29q-4 0 -10 3t-10 13 q-20 55 -56 104.5t-87.5 85t-120 57t-154.5 21.5t-175 -26.5t-175 -102.5q-35 -31 -72 -77t-67.5 -108.5t-51 -140t-20.5 -173.5q0 -102 36 -219t138 -218q59 -57 128 -92t135.5 -54.5t124.5 -25.5t99 -6q47 0 98.5 14.5t73.5 32.5q29 20 42.5 88t13.5 178q0 74 -2 118 t-10.5 68.5t-23.5 34t-42 13.5q-8 2 -26.5 4t-39 5t-39 5t-26.5 4q-6 4 -12.5 7.5t-10.5 7.5q-4 8 -6 18t-4 21q0 16 10 16q88 0 160 -4t137 -4q82 0 134.5 4t76.5 4q2 -2 2 -12t-1 -24.5t-2 -27t-3 -16.5q-16 -2 -35.5 -4t-44.5 -6q-4 -12 -9 -130t-5 -378q0 -29 -7 -43 t-24 -29q-14 -12 -32.5 -15t-24.5 -3q-35 0 -67.5 -1t-94.5 -5q-55 -4 -106.5 -8.5t-112.5 -4.5q-203 0 -350.5 51.5t-255.5 153.5q-90 84 -145.5 207t-55.5 285z" />
<glyph unicode="H" horiz-adv-x="1728" d="M94 1274q-2 4 1 20.5t9 30.5q2 6 13 6q55 0 104 -1t92 -1h60.5t54.5 2q25 0 52.5 3t58.5 5q4 -4 5 -32.5t-3 -32.5q-61 -8 -88 -20.5t-33 -49.5q-10 -47 -10 -128v-189q0 -63 1 -98t4 -51.5t11 -19.5t20 -3h596h83h78h62.5t34.5 2q14 2 18.5 14t4.5 60v176v81.5v55t-1 38 t-1 27.5q0 27 -6 42.5t-21.5 25.5t-45 17.5t-79.5 15.5q-2 2 -1 11t3.5 19.5t4.5 19.5t4 11q55 0 109 -1t110 -1q18 0 49 1t61 5q33 4 59.5 5t35.5 1q20 0 24 -8q6 -12 10 -27.5t4 -23.5q-43 -6 -69.5 -12t-41.5 -15.5t-21.5 -25t-8.5 -39.5q0 -16 -2 -49t-3 -77t-2 -94 t-1 -102v-368q0 -70 1 -120t2 -88t3 -70l4 -64q2 -20 6 -34.5t18.5 -24t43 -15.5t78.5 -10q2 -4 0 -14.5t-6.5 -22.5t-9.5 -21.5t-9 -9.5h-266q-86 0 -119 -3t-45 -3q-16 0 -16 6v60q76 10 102.5 21t30.5 28q6 23 9 93.5t3 201.5v165q0 29 -10 39q-4 2 -13.5 4.5t-34 4.5 t-73.5 2h-133h-303h-153.5t-90.5 -1t-48 -2t-24 -4q-23 -4 -26.5 -14t-3.5 -31q0 -119 1 -204.5t5 -155.5q2 -53 5 -74.5t13 -32.5q8 -10 30.5 -20t96.5 -25q18 -2 19 -10q0 -10 1 -33.5t-3 -27.5q-27 0 -63 2t-76 4t-81 3t-77 1q-80 -2 -114 -5t-40 -3q-10 0 -14 4 t-10.5 28.5t-4.5 28.5q41 10 66.5 18.5t39 19.5t19.5 25.5t8 37.5q2 12 3.5 32.5t2.5 57.5t2 91t1 132v375v127t-1 91t-2 65.5t-1 52.5q-2 25 -6.5 40t-17.5 25t-41 17.5t-77 13.5z" />
<glyph unicode="I" horiz-adv-x="718" d="M66 59q109 2 150.5 15.5t47.5 54.5q0 12 2 33.5t4 59.5t4 96.5t2 144.5v489q0 100 -1 158.5t-8 88.5t-21.5 40t-40.5 16q-16 2 -42 4.5t-69 4.5q-12 0 -12 12q0 10 10 31q10 18 17 21q12 2 23 1.5t30 -0.5q18 0 69.5 -1t130.5 0q39 0 83 0.5t82 1.5t66 1h36q20 0 24 -2 t6 -6l15 -49q-70 -6 -110 -12.5t-61.5 -14.5t-28.5 -18t-9 -25q-4 -14 -6 -37.5t-4 -63.5t-3 -101.5t-1 -151.5v-410q0 -92 3 -166.5t7 -128.5q4 -39 16 -50t35 -15q8 -2 22.5 -4t31 -3t31.5 -3t21 -4q23 -6 23 -13q0 -10 -6 -31.5t-10 -25.5q-125 4 -197 5h-46 q-45 0 -83 -1q-35 0 -68.5 -1t-62.5 -2t-48.5 -3t-21.5 -2q-20 0 -24 16q-10 35 -8 51z" />
<glyph unicode="J" horiz-adv-x="653" d="M-184 -369q0 20 10 35q23 25 37 37t28 25q16 12 41 -2q29 -16 70 -35t94 -19q55 0 99 39q25 23 37 62t14 114q4 111 6 231t2 224v416q0 160 -1 243.5t-3 124.5q-4 45 -9 72t-21.5 40t-50.5 18.5t-93 9.5q0 4 4 22.5t8 28.5t11 12t18 2q29 0 87 -1t103 -1q66 0 136.5 4 t113.5 4q14 0 16 -10l13 -55l-62 -8q-55 -4 -71.5 -15.5t-18.5 -38.5q-2 -18 -4 -44.5t-3 -68.5t-2 -101.5t-1 -143.5v-260v-608q0 -57 -10.5 -95.5t-28.5 -72.5q-25 -43 -60.5 -81t-76.5 -71t-84 -58.5t-82 -43.5q-23 -12 -50.5 -19.5t-49.5 -7.5q-43 0 -83 17.5t-63 37.5 q-20 20 -20 41z" />
<glyph unicode="K" horiz-adv-x="1466" d="M86 6q0 10 2 20.5t3 19.5t3 11q20 4 45 7.5t54 11.5q14 2 24 12t16.5 40t8.5 85t2 152v512q0 117 -2 185t-7.5 106t-12.5 52.5t-19 20.5q-18 14 -45 18.5t-70 8.5q0 12 5 35.5t13 27.5q51 0 102.5 -1t104.5 -1q111 2 164 5t70 3q14 0 18 -8q4 -6 6 -24.5t0 -28.5 q-49 -6 -76.5 -12.5t-50.5 -14.5q-10 -4 -15 -17t-9 -41t-5 -75t-1 -119v-270q0 -16 2 -20.5t10 -4.5q10 0 33.5 18.5t64.5 49.5q45 37 106.5 90t129 111.5t132 118t116.5 110.5q25 23 26.5 37t-8.5 14q-27 2 -54.5 4t-62.5 7l-2 55q2 12 13 14h153.5t141 2t105.5 3t48 1 q12 0 10 -14q-4 -31 -7 -40t-11 -9q-45 -6 -79 -16.5t-59.5 -23.5t-47 -27.5t-44.5 -30.5q-45 -33 -93 -69t-106.5 -84t-133 -110.5t-170.5 -146.5q-10 -8 -13.5 -18.5t7.5 -20.5q47 -51 110.5 -110.5t135 -124t144 -129t138.5 -125.5q86 -80 134 -116t81 -44q23 -4 43 -8 t37 -9q23 -6 20 -24l-16 -43l-94 4t-102.5 2h-124h-156.5l8 61q6 4 25.5 8.5t35.5 8.5q10 2 13.5 10t-11.5 21q-66 61 -147.5 137t-158.5 146.5t-136 125.5t-78 74q-45 43 -67.5 52t-28.5 9q-4 0 -8 -5t-4 -25v-183q0 -104 2 -167.5t6 -99.5t8 -50t8 -19q14 -23 50 -28.5 t96 -12.5q8 0 8 -14l-6 -55q-25 0 -49.5 1t-55 2t-70.5 2t-98 1q-25 0 -59.5 -1t-68 -2t-61.5 -2t-36 -1q-2 2 -2 12z" />
<glyph unicode="L" horiz-adv-x="1171" d="M80 1264.5q-4 7.5 0 17.5l16 37q2 10 8 10q46 0 94 -1h32q32 0 65 1q78 2 159 5t160 7q6 -4 10.5 -26.5t4.5 -34.5q-47 -6 -80 -11t-54.5 -16.5t-32.5 -31t-16 -50.5q-4 -45 -8 -140q-3 -63 -3 -140q0 -38 1 -80l2 -250q0 -121 1 -197.5t2 -121.5t2 -67.5t1 -37.5 q2 -43 39 -51q47 -16 191 -16q51 0 100 2t92 13t80 32.5t62 60.5q16 27 29.5 58.5t23.5 78.5q2 10 10 11h2q6 0 26.5 -6.5t28.5 -10.5q10 -10 7 -22q-18 -63 -35 -129t-27 -131q-6 -27 -35 -31q-16 -2 -39.5 -2h-89.5q-31 0 -69.5 1t-97 2t-146.5 2t-217 1q-84 0 -150.5 -5 t-89.5 -7q-16 -2 -25.5 -2h-13.5q-4 6 -11 29.5t-5 33.5q76 10 116 27.5t52 64.5q2 10 5 32t5 57.5t3 91t1 133.5v419q0 131 -3 213t-7 117q-2 18 -8 28.5t-23.5 16.5t-49.5 7t-87 1q-4 0 -8 7.5z" />
<glyph unicode="M" horiz-adv-x="1849" d="M69 35.5q-1 21.5 1 25.5q72 10 103.5 32t39.5 89q12 98 19.5 253t13.5 341l12 400q0 25 -4 41t-22.5 26t-55.5 15.5t-100 9.5q2 8 7 27.5t11 29.5t27 10q18 0 45 -1t55.5 -2l57 -2t49.5 -1h102q4 -25 9 -47t10 -35q37 -82 99 -205.5t133 -256t139.5 -254t115.5 -201.5 q4 -4 10 -4t10 10q53 100 116 220t125.5 243t120.5 239.5t103 212.5q8 18 13 78q39 -1 74 -1q70 0 122 3q80 4 146 4q8 -6 9 -31.5t-1 -31.5q-53 -4 -85 -10.5t-50.5 -16.5t-25.5 -25.5t-7 -37.5q-2 -53 -2 -164t4 -316v-292.5t2 -171.5q2 -53 7 -83t18.5 -45.5t41 -22.5 t76.5 -15q4 -2 7.5 -20.5t3.5 -31.5q0 -16 -11 -16h-147q-23 0 -59.5 -1t-78.5 -2t-84 -4t-77 -5l2 43q2 16 4 20t10 6q33 8 52.5 15.5t29.5 17.5t14.5 25.5t8.5 40.5q2 14 3 34.5t2 60.5t3 104.5t4 167t4 250t6 349.5q2 10 -4 10.5t-8 -3.5q-8 -14 -29.5 -59.5t-52.5 -110 t-67.5 -142.5t-74.5 -156.5t-73 -152.5t-61 -129q-78 -158 -110 -230.5t-40 -86.5q-18 -37 -26.5 -51.5t-20.5 -14.5t-25 20q-4 6 -14 27t-22.5 48.5t-26.5 58t-27 57.5q-76 158 -144.5 300t-125.5 261t-102.5 210t-73.5 146q0 -59 -1 -141t-1 -174v-188.5v-184.5 q0 -154 4 -224.5t8 -96.5q6 -25 29.5 -36t72.5 -20q23 -4 29 -8t8 -16l4 -49q-150 6 -309 6h-80q-16 0 -22 8q-4 10 -5 31.5z" />
<glyph unicode="N" horiz-adv-x="1675" d="M47 1284v53q35 -2 63.5 -3t59.5 -2t68.5 -2t93.5 -1q20 0 26 -6q6 -4 13.5 -15.5t11.5 -21.5q6 -10 20.5 -30.5t34 -45t41 -49t39.5 -41.5q45 -47 124 -124.5t184.5 -181t236.5 -230.5t285 -271q0 25 1 69t2 99.5t1 115.5v118v142.5t-2 112.5t-4.5 92t-4.5 81 q-4 27 -11 58.5t-42 41.5q-16 6 -52 10t-69 9q-10 4 -10 10l-4 57h231q59 0 119 3t107 5q14 0 18 -10l12 -43q-55 -12 -82.5 -20.5t-52.5 -24.5q-14 -8 -24.5 -27.5t-17.5 -59.5t-11 -107.5t-8 -172.5q-2 -70 -3 -132t-2 -129.5t-1 -147.5v-182q0 -98 3 -179.5t3 -107.5 q-2 -18 -41 -33q-8 -4 -14.5 -2t-14.5 12q-92 135 -228 279.5t-298 304.5q-129 129 -251 250t-249 248q-4 -86 -7 -187.5t-3 -187.5v-152t3 -158.5t7 -139t14 -91.5q12 -35 56.5 -51t107.5 -29l15 -49q2 -4 -5.5 -10t-11.5 -6q-66 0 -131 4t-129 4q-53 0 -97 -3t-71 -3 q-6 29 -16 57q49 12 76.5 23.5t42 26t19.5 32t9 41.5q4 39 14.5 175t10.5 353v228q0 80 -1 128t-5 77.5t-11.5 44t-19.5 26.5q-25 27 -55.5 41.5t-96.5 22.5q-16 6 -16 14z" />
<glyph unicode="O" horiz-adv-x="1603" d="M88 682q0 129 54.5 259t174.5 239q98 88 227.5 137t264.5 49h2q139 0 267 -52t226.5 -142.5t157 -212t58.5 -263.5q0 -96 -20.5 -178t-54.5 -150.5t-75 -124t-82 -93.5q-53 -53 -112.5 -88t-118 -57.5t-111.5 -32t-94 -9.5q-82 0 -165 17.5t-160.5 51.5t-146.5 80 t-120 105q-39 43 -70.5 97.5t-54 114.5t-35 124.5t-12.5 128.5zM299 702q0 -143 47 -264t133 -207q102 -104 199.5 -146t202.5 -42q80 0 157.5 35t139 104.5t100.5 176t39 249.5q0 139 -42 271.5t-149 248.5q-61 66 -156.5 115t-224.5 49h-2q-74 0 -150.5 -31.5 t-154.5 -117.5q-41 -47 -67.5 -103.5t-43 -115t-22.5 -115.5t-6 -107z" />
<glyph unicode="P" horiz-adv-x="1226" d="M80 1286q0 8 7 25.5t11 25.5q14 0 41 -1t58.5 -3t64.5 -3t60 -1q18 0 60 1t87 1t84 1t51 1q41 0 89 -4t99.5 -17.5t104.5 -37t104 -62.5q43 -33 72 -72.5t46.5 -78.5t23.5 -74t6 -57q0 -100 -37 -167t-102 -132q-45 -45 -102.5 -75t-122 -48.5t-130 -26.5t-125.5 -8h-98 q-6 0 -12 -8t-6 -47q0 -45 3 -106.5t9 -121.5q4 -43 17.5 -67.5t54.5 -34.5q12 -4 49 -10t84 -17q16 -2 16 -12q0 -20 -2 -32.5t-4 -18.5q-137 0 -215 1t-111 1q-66 0 -117 -2t-92 -6q-6 0 -8 2t-4 12l-6 49q41 6 69.5 12.5t46 15.5t27 25.5t13.5 45.5q4 25 7 102.5t3 220.5 v332q0 170 -4 279.5t-23 144.5q-6 12 -13 19.5t-20.5 11.5t-38 5t-63.5 1q-12 0 -12 16zM420 598q0 -20 4 -26.5t20 -10.5q18 -8 45 -13t58 -5q39 0 90 6t86 18q39 14 79 44t71.5 73t52 100.5t20.5 128.5v2q0 10 -1 40t-10 69t-30.5 81t-61.5 78t-102.5 59.5t-154.5 23.5 q-68 0 -97.5 -8.5t-35.5 -16.5q-18 -6 -21 -47q-2 -18 -3 -61t-2 -99.5t-2 -121t-2 -125t-2 -110.5t-1 -79z" />
<glyph unicode="Q" horiz-adv-x="1605" d="M86 641q0 55 8 122.5t36 140.5t80 147.5t138 146.5q39 33 93.5 62.5t115.5 53t127 38t127 14.5h2q61 0 131 -11.5t139.5 -36t135 -63t120.5 -94.5q51 -53 87 -112.5t56.5 -121t30 -122t9.5 -113.5q0 -154 -59.5 -301t-186.5 -246q-109 -82 -176.5 -112.5t-95.5 -44.5 q-6 -2 -12.5 -14.5t-2.5 -20.5q25 -55 61.5 -104.5t82 -89.5t95.5 -70.5t101 -48.5q138 -52 247 -52h19q76 2 105 7.5t35 7.5q6 0 15 -4.5t13 -14.5q4 -12 0 -18t-20 -23q-16 -6 -50 -13t-74 -13t-82 -10.5t-79 -4.5q-53 0 -109.5 7.5t-125.5 25.5q-86 20 -155 60t-134 100 q-45 41 -92 101.5t-82 111.5q-23 33 -50.5 48t-64.5 26q-25 6 -65.5 19t-88 32.5t-94.5 46t-84 59.5q-35 33 -74.5 80t-73.5 110.5t-56.5 141.5t-22.5 170zM297 659q0 -45 7 -99t21.5 -108.5t38 -106.5t54.5 -93q49 -66 108.5 -109t117.5 -69.5t108.5 -36.5t83.5 -10 q18 0 53 8t78 25.5t89 46t85 69.5q86 92 131 207t45 270q0 109 -28.5 224.5t-121.5 220.5q-84 94 -181 142t-236 48h-2q-51 0 -115 -21.5t-131 -76.5q-111 -90 -158 -220t-47 -311z" />
<glyph unicode="R" horiz-adv-x="1359" d="M88 1315q-2 8 8 14q80 2 151.5 3t137.5 7q72 4 118 6.5t87 2.5q92 0 184 -17.5t172 -75.5q72 -51 109 -121.5t37 -144.5q0 -61 -22.5 -109.5t-56.5 -86t-72 -64.5t-67 -43q-20 -10 -14 -31q8 -33 42 -114.5t99 -184.5q70 -109 155 -189.5t216 -143.5q16 -8 19.5 -14.5 t1.5 -14.5q-2 -14 -6.5 -26.5t-8.5 -12.5q-137 14 -239.5 60t-190.5 128q-66 63 -116 147.5t-103 184.5q-18 35 -32.5 57.5t-35 35t-51 16.5t-78.5 4q-45 0 -65.5 -1t-32.5 -5q-10 -4 -18 -11.5t-8 -19.5q0 -117 2 -211t6 -184q2 -43 20 -54q8 -8 26.5 -14t42 -11t47 -10.5 t42.5 -9.5q0 -8 -5 -27.5t-9 -25.5q-2 -4 -29 -4h-41t-74 1t-85 1h-75q-55 0 -85.5 -3t-47.5 -3h-25t-7 4q-8 8 -10.5 28.5t-2.5 30.5q31 6 69 16.5t48 33.5q16 25 21.5 142.5t5.5 303.5v242q0 90 -1 190t-3 174q0 25 -4.5 39t-18.5 25.5t-43 20.5t-78 22zM410 866 q0 -72 1 -111.5t3 -60t4 -25.5t6 -7q14 -6 65 -7q121 0 197 20.5t125 80.5q37 45 60.5 102t23.5 123v2q0 59 -21.5 112.5t-61.5 94.5t-96.5 65.5t-125.5 24.5q-53 0 -84 -6t-53 -17q-23 -10 -29 -36q-8 -47 -12 -130q-3 -55 -3 -137q0 -41 1 -88z" />
<glyph unicode="S" horiz-adv-x="1122" d="M82 342q-8 18 6 20l22.5 4.5t22.5 2.5q8 0 12.5 -4.5t8.5 -20.5q6 -25 18 -59.5t41 -71.5q25 -37 61.5 -68.5t80.5 -55t94.5 -38t101.5 -14.5q68 0 125 20.5t98 58.5t63.5 91t22.5 117q0 53 -24.5 97t-67.5 75q-16 12 -34.5 24t-48.5 25.5t-71 31t-102 39.5 q-106 41 -182 81t-125 98q-31 35 -53.5 94t-22.5 112q0 111 49 181.5t123 111.5q37 23 119 46.5t182 23.5q20 0 49 -2t56.5 -4t52 -5t39.5 -5q20 -4 33.5 -5.5t23.5 -1.5q23 0 49 41q16 2 31.5 1t19.5 -3q-2 -40 -2 -79q0 -43 2 -83q4 -76 17 -159q6 -16 -6 -25 q-4 -4 -19.5 -11t-27.5 -11q-6 -2 -13 10q-16 55 -34.5 105.5t-63.5 84.5q-31 33 -100.5 55.5t-147.5 22.5q-117 0 -186.5 -66.5t-69.5 -168.5q0 -49 16.5 -87t38.5 -63q18 -20 41 -36.5t52.5 -34t70.5 -34t99 -36.5q213 -78 307 -160q61 -55 84.5 -115.5t23.5 -134.5 q0 -111 -51 -191.5t-129 -123.5q-35 -18 -83 -32.5t-96 -24t-92 -13.5t-69 -4q-68 0 -133.5 9.5t-130.5 21.5q-12 4 -20.5 2t-16.5 -6q-10 -4 -20.5 -10.5t-20.5 -16.5q-14 -12 -26 -12h-3q-8 0 -18 12q-10 20 -14 74q-4 78 -13.5 154.5t-19.5 148.5z" />
<glyph unicode="T" horiz-adv-x="1456" d="M25 1110q23 45 52 116.5t64 188.5q10 2 39 -4q16 -4 19 -14q0 -51 18 -58q20 -4 94 -8q47 -2 127 -2h224q168 0 295.5 1t218.5 5q84 2 114 13q20 6 37 57q2 8 10 8t24.5 -5t29.5 -13q6 -2 0 -27q-16 -41 -24.5 -71.5t-13.5 -61.5t-8.5 -65.5t-7.5 -82.5q0 -16 -22 -16 q-16 0 -37 4q-10 4 -10 12q0 6 1 20.5t1 32t1 33t1 21.5q0 10 -7.5 21.5t-25.5 17.5q-14 6 -83 13t-179 7h-133q-14 0 -20.5 -11t-8.5 -42q0 -12 -1 -39.5t-2 -75t-2 -120t-1 -174.5v-205q0 -111 1 -185.5t3 -122t4 -73t6 -39.5q10 -55 45 -74q14 -8 37 -14t47.5 -10.5 t49 -7.5t42.5 -5q14 0 13 -8l-8 -41q-2 -6 -5.5 -9t-13.5 -3t-44 1t-78 2t-93 2t-86 1q-41 0 -88 -1t-88 -3t-71.5 -3t-37.5 -1q-23 0 -26 16l-6 45q25 4 60.5 8.5t57.5 8.5q41 8 61.5 21t26.5 48q4 23 11.5 131.5t7.5 331.5v209v225t-2 134.5t-4 65.5t-4 17h-166 q-145 0 -216 -17t-83 -26q-18 -14 -31.5 -44.5t-36.5 -94.5q0 -4 -6 -5t-12 3q-12 6 -29.5 21.5t-21.5 19.5z" />
<glyph unicode="U" horiz-adv-x="1538" d="M84 1276l2 47q2 10 8 12t29 2q16 0 43 -1t55.5 -3t55 -3t42.5 -2q70 2 133.5 5.5t135.5 3.5q12 0 12 -6t-1 -28.5t-5 -26.5q-49 -6 -82 -12.5t-53.5 -14.5t-29.5 -20t-15 -31q-4 -23 -9.5 -67t-7.5 -142q0 -43 -2 -99t-3 -117.5l-2 -123t-1 -112.5q0 -135 38 -223.5 t99 -137.5q55 -47 134 -70.5t169 -23.5q68 0 117 11t85 29.5t60.5 42t43.5 46.5q59 80 82.5 194.5t23.5 278.5v158v142.5t-2 118.5t-4 85q-4 27 -13.5 41t-31 21t-58 8.5t-94.5 1.5q-4 0 -10 8t-4 16q4 8 12 18.5t13 20.5q4 4 12 5.5t35 2.5h27.5t49 -1t55 -1.5t46.5 -0.5 h53.5t57 1.5t56 2.5t46.5 3q12 0 6 -14l-18 -53q-14 -4 -38 -7.5t-42 -7.5q-6 -2 -14.5 -10t-12.5 -24q-6 -18 -10 -52t-7 -94.5t-6 -153t-8 -227.5q-2 -88 -7 -157.5t-17.5 -128t-34 -109.5t-55.5 -102q-37 -53 -89.5 -96.5t-115 -73t-130 -46t-134.5 -16.5 q-72 0 -134.5 13.5t-113.5 34t-90 47t-64 51.5q-80 82 -107.5 181t-29.5 210q-1 52 -1 113v63q1 98 5 225q2 86 4 141.5t2 91t-2 54t-4 31.5q-8 29 -35.5 39t-99.5 18z" />
<glyph unicode="V" horiz-adv-x="1536" d="M61 1276l21 51q4 10 16 10q43 -4 108.5 -6t108.5 -2q45 0 90.5 2t90.5 2q6 0 8 -5t-2 -32q-4 -16 -6 -20t-13 -6q-57 -8 -70.5 -20.5t-2.5 -47.5q10 -29 41.5 -109.5t105.5 -250.5q33 -78 69 -160t71.5 -160t66.5 -146.5t55 -117.5q4 -8 11.5 -8t11.5 6q18 37 48 102.5 t66.5 150.5t78.5 182t83 196q31 74 51.5 124t36 89t27.5 70.5t24 66.5q6 12 -11 16t-56 9l-66 4q-4 0 -10 4t-2 12q10 35 17.5 43t23.5 8q33 0 84 -2t98 -2t85 2t73 2q16 0 20.5 -11t8.5 -40q0 -16 -19 -16l-59 -4q-12 -2 -24.5 -4.5t-22.5 -12.5q-14 -16 -42 -65.5 t-81 -159.5q-14 -29 -41 -87.5t-61.5 -134t-73.5 -163.5t-78 -175t-74 -167t-59 -141q-8 -18 -16.5 -35t-20.5 -35q-14 -23 -26.5 -50.5t-26.5 -51.5q-8 -14 -17 -15q-16 0 -27.5 3t-13.5 14q-2 4 -5 11t-11 25.5t-21.5 52t-37.5 91.5q-145 352 -247 588.5t-155 343.5 q-31 61 -48 95t-35.5 51t-45.5 23.5t-72 12.5z" />
<glyph unicode="W" horiz-adv-x="2152" d="M47 1280q0 4 8 18.5t13 20.5q8 12 28 12q14 0 37 -1t47.5 -1t48 -1t39.5 -1q53 0 107.5 2t109.5 2q8 0 13.5 -17.5t5.5 -33.5q0 -14 -12 -16q-61 -6 -86 -13.5t-21 -27.5q4 -27 21 -74q41 -113 91 -241t99 -247.5t92 -220t72 -161.5q4 -8 11 -10.5t11 5.5q23 49 60 139.5 t75.5 188.5t74.5 189.5t57 146.5q6 14 4 25.5t-6 23.5q-29 80 -48.5 133.5t-31.5 85.5q-6 18 -13.5 28.5t-20.5 16.5t-34.5 8.5t-56.5 2.5q-14 0 -15 12q4 33 13.5 45t19.5 12q37 0 88 -2t109 -2q78 0 124 3t68 3q6 -2 10.5 -12t6.5 -21.5t1 -20.5t-5 -11q-41 -4 -64.5 -8.5 t-35 -12.5t-10.5 -20.5t7 -32.5q27 -84 70 -202t92 -246t98 -252.5t90 -221.5q8 -16 19 7q18 43 48 116.5t64.5 162.5t71.5 184.5t70 184.5t56.5 162.5t31.5 116.5q4 31 -7.5 41t-29.5 13q-23 4 -49.5 4t-48.5 4q-6 4 -4 16q4 29 8 41t16 12q8 0 31.5 -1t53.5 -2t59.5 -2 t48.5 -1q49 0 93 2t56 2q35 0 37 -16l6 -45q0 -8 -8 -8q-41 0 -64.5 -5.5t-43 -28t-41 -67.5t-58.5 -125q-23 -47 -62.5 -143t-88 -216t-100.5 -251t-99 -250q-12 -29 -40 -83t-48 -105q-10 -23 -33 -23q-18 0 -27.5 10.5t-17.5 32.5q-10 29 -23.5 71t-39.5 114 q-14 43 -40 114.5t-59 158.5t-68.5 181t-72.5 183q-57 -133 -121.5 -284t-142.5 -343q-18 -47 -45 -107.5t-45 -109.5q-6 -14 -15 -17q-14 -8 -39 -8q-16 0 -22 23q-8 23 -34 94.5t-73 189.5q-47 119 -129 326t-213 516q-23 49 -36 78t-29.5 44t-39 21.5t-61.5 10.5 q-14 2 -14 12z" />
<glyph unicode="X" horiz-adv-x="1515" d="M67 38.5q1 20.5 3 24.5q43 4 77.5 17.5t67.5 48.5q45 47 106.5 115.5t123 141.5t117.5 138.5t91 106.5q8 4 8.5 16t-6.5 21q-20 27 -69 96.5t-109.5 152t-123 167.5t-111.5 147q-23 14 -47.5 18t-79.5 4q-14 0 -15 11q0 12 4.5 38.5t14.5 26.5h191.5t117.5 4q39 2 75 4 t60 2q23 0 25 -10l12 -51q4 -16 -16 -16h-92q-29 0 -33 -9.5t6 -27.5t27.5 -45t52.5 -77t93 -129t150 -200q72 92 142.5 181t138.5 182q29 39 39 57t10 31q-2 10 -16.5 17t-67.5 11q-18 2 -18 17l-8 61h47t77 -1t78.5 -1h53.5q35 2 72.5 3t66.5 1q16 0 21.5 -16.5 t11.5 -36.5q6 -16 -13 -18q-37 -4 -63.5 -9.5t-49 -16.5t-45 -30.5t-53.5 -52.5q-80 -84 -144 -157.5t-110.5 -129t-74 -91.5t-35.5 -46q-6 -10 -5 -18.5t5 -16.5q70 -96 132 -181t113.5 -152.5t88.5 -115.5t57 -73q27 -33 47.5 -52.5t42 -30.5t52 -17t79.5 -13l-2 -51 q0 -14 -14 -14q-23 0 -107 2t-192 2q-74 0 -119 -3t-61 -3q-14 0 -17.5 1t-7.5 5q-8 10 -10 27.5t-2 29.5q0 6 10 6q10 4 35.5 7.5t50.5 7.5q29 4 36 14t-11 33q-8 12 -34 49t-59.5 83t-72.5 99.5t-73 99.5l-59.5 80.5t-33.5 47.5q-45 -53 -90 -108.5t-85 -107t-73 -94.5 t-51 -73q-29 -43 -40 -65.5t-11 -35.5q0 -18 33.5 -25t76.5 -10q16 0 19 -8q2 -10 1 -34.5t-5 -28.5q-45 2 -91.5 4t-86.5 3t-69.5 1h-41.5q-29 0 -65 -1t-56 -5q-10 0 -14 10q-2 14 -1 34.5z" />
<glyph unicode="Y" horiz-adv-x="1337" d="M55 1295.5q0 17.5 2 23.5q2 16 13 16q27 0 59.5 -1l65 -2t62.5 -2t48 -1q41 0 75 2t60 4q18 2 40 3t32 1q14 0 14 -14v-2q0 -20 -5 -37.5t-9 -21.5q-18 -4 -40.5 -5.5t-41.5 -5.5q-35 -6 -20 -30q33 -59 75.5 -128t82.5 -130.5t70 -105.5t36 -52q10 -12 18 -23.5 t19 -19.5q14 -8 39 24q55 78 94 134.5t66.5 97.5t44 67.5t26.5 42.5q23 33 35 60t12 39q0 10 -22.5 19t-94.5 12l-4 53q0 20 11 20q45 0 91 -3q28 -2 60 -2q21 0 45 1q59 2 107.5 3t62.5 1q29 0 37 -8q0 -4 1 -13t2 -20.5t0 -20.5t-3 -11q-39 -2 -65.5 -7.5t-47 -16.5 t-37 -26.5t-34.5 -38.5q-61 -72 -116.5 -143.5t-101 -132.5t-77 -107.5t-43.5 -66.5q-16 -25 -25.5 -40t-14.5 -32.5t-7 -42t-2 -63.5v-129q0 -76 1 -132.5t5 -107.5q2 -37 7 -56.5t26.5 -30.5t63.5 -16t116 -12q0 -6 -6.5 -29.5t-10.5 -31.5q-6 -8 -32 -8q-37 2 -130.5 6 t-199.5 4q-43 0 -93.5 -3t-90.5 -3q-18 0 -21 8q-4 6 -6 23.5t-2 27.5q0 8 6 8q72 8 115 16.5t53 31.5q6 8 9 23t5 44t3 74t1 112v209q0 27 -2 45.5t-6 35t-14 35t-25 42.5q-84 135 -146.5 230.5t-104.5 157t-64.5 93t-28.5 39.5t-28 11q-13 1 -36 1q-18 0 -42 -1 q-12 0 -15 8q-2 10 -2 27.5z" />
<glyph unicode="Z" horiz-adv-x="1499" d="M100 965q12 47 35 116.5t46.5 137t43 120t23.5 64.5q6 16 14 16t25.5 -5t23.5 -7q-2 -43 -1 -56.5t7 -15.5q27 -2 52.5 -3t59.5 -2t81 -1h117h303q123 0 223 4t158 6h73q10 0 9 -16q-6 -23 -16.5 -44.5t-37.5 -49.5q-45 -49 -96 -104.5t-110.5 -125t-132 -155.5 t-160.5 -197q-55 -72 -109.5 -138.5t-109 -134t-110.5 -138t-116 -146.5q6 -2 22.5 -5t54.5 -5t103.5 -3t172.5 -1q152 0 242.5 5t144 16.5t79 28.5t46.5 42q29 31 57.5 90t64.5 150q2 4 9.5 8t33.5 4q16 0 15 -12q-6 -37 -17.5 -86.5t-25 -100.5t-25.5 -98t-22 -80 q-16 -53 -24.5 -75.5t-12.5 -24.5q-8 -4 -26.5 -7.5t-31.5 -3.5q0 41 -2 50.5t-18 13.5q-41 4 -136 4h-261h-197q-102 0 -177 -1t-131.5 -3t-99.5 -3t-79 -1q-10 0 -19.5 6t-23.5 29q-10 18 4 26l20.5 20.5t40 42t65.5 71.5t97 110q41 47 104.5 121t136 161t149.5 181 t148.5 180t130 158.5t95.5 120.5q8 8 1 15t-18 7q-68 6 -141.5 8t-146.5 2q-111 0 -192 -3t-146 -9q-72 -6 -115 -38t-76 -77q-18 -25 -36.5 -53.5t-34 -56t-27.5 -50t-18 -30.5l-11 2q-31 8 -37 13t-4 16z" />
<glyph unicode="[" horiz-adv-x="686" d="M210 -50.5q1 107.5 3 225.5t2 218q0 59 2 144.5t4 181.5t5 194.5t5 183.5t4.5 147.5t4.5 88.5q2 25 13 51.5t21 34.5q6 4 37 8.5t75 9.5t94 8t95 3q10 0 16.5 -16.5t10.5 -38.5q4 -16 -16 -19q-59 -4 -102.5 -8t-65.5 -8q-23 -6 -34 -14.5t-15 -28.5q-6 -37 -20.5 -272.5 t-18.5 -665.5q-2 -193 -1 -318t4 -199.5t7 -108.5t8 -44q6 -23 16.5 -30t26.5 -11q29 -4 83 -5t95 -1q6 0 8.5 -7t2.5 -13v-2q0 -2 -2.5 -10.5t-6.5 -17.5t-9 -17.5t-13 -8.5q-121 -8 -186.5 -9t-92.5 5q-23 6 -34 21.5t-17 42.5q-6 33 -8 115.5t-1 190z" />
<glyph unicode="\" horiz-adv-x="747" d="M86 1368q4 2 15.5 9t25.5 15.5t26.5 14.5t18.5 8q10 2 17.5 -1t11.5 -19q53 -182 108.5 -376t112.5 -388.5t113.5 -384t111.5 -365.5q0 -8 -11 -13t-26.5 -8t-32 -5t-28.5 -2h-2q-10 0 -18.5 15t-22.5 75q-92 330 -196.5 693t-223.5 732z" />
<glyph unicode="]" horiz-adv-x="686" d="M88 -346q14 2 38 5t50.5 6t50 6t39.5 7q33 8 44.5 19.5t15.5 40.5q2 12 7 72.5t11 160t10 232.5t4 293v547.5t-10 269.5q-2 18 -6 27.5t-20 9.5h-43h-52.5t-46 -1t-26.5 -1q-10 0 -13.5 6t-3.5 26v2q0 25 7.5 31t21.5 10q25 2 58.5 5.5t69.5 5.5t70.5 3t61.5 1 q47 0 53 -105q2 -29 1 -105.5t-2 -186t-2 -240.5t-1 -269q0 -125 -3 -259t-8 -251.5t-10 -205.5t-8 -119q-8 -57 -25.5 -75.5t-49.5 -22.5q-84 -10 -155 -12.5t-97 -2.5q-10 0 -14.5 1t-8.5 12q-4 14 -6 31.5t-2 25.5z" />
<glyph unicode="^" horiz-adv-x="1126" d="M107.5 555q-3.5 12 1.5 23q4 10 31.5 63t67.5 129t86 164t88 166t72.5 136t39.5 75q10 18 28.5 28.5t22.5 10.5h2q6 0 20 -21q104 -199 201.5 -390t183.5 -353q12 -23 12.5 -32t-14.5 -17q-23 -10 -50.5 -18.5t-49.5 -12.5q-55 117 -95 196.5t-74 148.5t-68.5 139.5 t-80.5 166.5q-80 -160 -158.5 -316.5t-154.5 -330.5q-2 -4 -15.5 -2t-30.5 7t-32.5 11t-21.5 11q-8 6 -11.5 18z" />
<glyph unicode="_" horiz-adv-x="1064" d="M0 -160h1065v-106h-1065v106z" />
<glyph unicode="`" horiz-adv-x="851" d="M147.5 1168.5q-2.5 7.5 2.5 11.5q27 31 55 56.5t45 25.5h2q18 0 70.5 -70t150.5 -209q4 -6 2 -14t-6 -11l-53 -22q-18 14 -50 41t-68 57.5t-73 60t-63 54.5q-12 12 -14.5 19.5z" />
<glyph unicode="a" horiz-adv-x="1101" d="M72 47q0 14 4 14q29 6 48 14.5t33.5 21t28 34t31.5 55.5q29 59 60.5 131t65.5 148t66.5 151.5t61.5 143.5q12 27 18.5 46t10.5 32q6 10 16 16q29 14 55 14h2q29 0 37 -20q66 -174 135.5 -350t149.5 -346q20 -41 44 -62.5t85 -32.5q8 0 8 -22q-4 -29 -8 -35t-14 -6 q-72 2 -118 3t-81 1q-49 0 -91 -3t-52 -3q-2 0 -5.5 7t-6.5 17.5t-6 18.5t-3 12q80 25 80 47q0 8 -6 27.5t-13.5 42t-15.5 42t-12 27.5q-6 12 -14.5 19.5t-24.5 7.5q-63 2 -132 3h-27q-54 0 -101 -3q-16 0 -26.5 -8t-18.5 -21q-6 -12 -12.5 -29.5t-11.5 -36t-8 -33.5t-3 -21 q0 -14 14.5 -26.5t63.5 -23.5q12 -2 12 -14q0 -4 -4 -21.5t-8 -27.5q-76 2 -131 2h-84q-16 0 -40 -1t-30 -1q-4 0 -13 16.5t-9 32.5zM391 362q-2 -8 5 -14t16 -6h2h96t108 2q8 0 12.5 6t0.5 17q-35 104 -61.5 173.5t-51.5 137.5q-35 -80 -65.5 -157t-61.5 -159z" />
<glyph unicode="b" horiz-adv-x="1011" d="M115 788q-2 6 2 19.5t8 19.5q2 10 14 11q10 2 40 2t57 2q16 2 48.5 3t71.5 3t75 3t58 1q63 0 118 -6t108 -27q18 -6 37.5 -18.5t37 -32.5t28.5 -47t11 -59q0 -39 -11 -65t-30.5 -45.5t-46 -34.5t-57.5 -30q-4 -4 -1 -9t9 -7q43 -6 81 -24.5t66.5 -48t46 -67.5t17.5 -85 v-2q0 -90 -56 -144.5t-145 -85.5q-29 -10 -74.5 -14t-78.5 -4q-8 0 -38 1t-69 1t-79.5 1t-71.5 1q-45 0 -96.5 -3t-65.5 -3q-4 4 -8 25.5t-2 29.5q6 4 26.5 10.5t30.5 10.5q25 12 34 25.5t11 51.5q4 61 5 155.5t1 209.5q0 86 -1 135t-3 70q-2 12 -4 19t-13 14.5t-31.5 16.5 t-59.5 21zM385 249q0 -52 4 -77q0 -33 6 -51.5t21 -32.5q18 -20 36.5 -24.5t47.5 -4.5q43 0 83 10.5t70.5 32t50 57.5t19.5 85v2q0 92 -58.5 138t-162.5 46q-86 0 -101 -14q-6 -4 -11 -17.5t-5 -50.5v-99zM389 577q0 -38 4 -53q4 -18 10.5 -22t18.5 -6q14 -2 30.5 -3 t39.5 -1t52 4t50 16q57 35 57 121v2q0 80 -52 118t-128 38q-61 0 -74 -27q-4 -8 -6 -29.5t-2 -62.5v-95z" />
<glyph unicode="c" horiz-adv-x="1007" d="M94 414v2q0 82 28 159.5t81 135.5q51 55 121.5 86.5t144.5 50.5q47 12 89 16t85 4q55 0 101.5 -9t80.5 -21q12 0 23 8q4 2 7 3t7 3t11.5 2t27.5 -10q12 -2 12 -10q-23 -45 -27 -110q-1 -20 -2 -39q0 -42 7 -79q2 -6 -1 -9t-18 -3q-16 0 -29.5 3t-15.5 7q-10 47 -27.5 87 t-49.5 63q-27 23 -69 34t-89 11q-57 0 -112.5 -22.5t-100.5 -76.5q-43 -47 -66.5 -119.5t-23.5 -168.5q0 -57 18.5 -122t58.5 -119t102 -90t153 -36q33 0 77.5 15.5t89.5 54.5q23 23 45.5 50.5t32.5 51.5q4 4 9.5 4t23.5 -16q14 -10 14 -21q-8 -53 -27.5 -102t-31.5 -66 q-8 -14 -15.5 -18t-17.5 -4q-31 -2 -87 -12.5t-128 -10.5q-141 0 -239.5 40t-159 103.5t-87 142.5t-26.5 157z" />
<glyph unicode="d" horiz-adv-x="1163" d="M123 59q66 14 81 27.5t17 34.5q2 29 4 81t3 115.5t1 131v129.5q0 90 -1 119.5t-3 39.5q-4 12 -21.5 21.5t-66.5 17.5q-4 0 -7 6t-5 27l-2 20q0 12 8 13h94t113 2q68 2 111 4t96 2q33 0 79 -4t98 -16.5t105.5 -36t98.5 -62.5q72 -66 107.5 -143.5t35.5 -163.5 q0 -61 -27.5 -137t-99.5 -142q-70 -61 -122 -86.5t-105 -42.5q-41 -12 -92.5 -16t-114.5 -4q-27 0 -61.5 1t-68.5 1t-60.5 1t-38.5 1q-49 0 -89 -1t-49 -1q-12 0 -12 2zM393 465q0 -135 5 -231.5t16 -135.5q2 -12 18 -20q20 -8 46 -10t52 -2q35 0 85.5 11t103.5 40 q78 43 118 130t40 187v2q0 86 -33 159t-96 118q-57 41 -118 54t-102 13q-45 0 -73.5 -7t-38.5 -13q-10 -4 -15 -25q-4 -29 -6 -104.5t-2 -165.5z" />
<glyph unicode="e" horiz-adv-x="966" d="M113 776l2 60q2 6 8 6h55q31 0 79 -1t128 -1q109 0 205 3t188 3q29 0 35 -8q4 -4 5 -9.5t-3 -23.5q-6 -47 -8 -93q-1 -23 -1 -41.5t1 -31.5q0 -8 -21 -8q-31 0 -36 5t-9 13q-8 39 -17 62.5t-28.5 37t-53.5 18.5t-91 5q-59 0 -92 -2t-45 -4q-23 -2 -23 -29q0 -66 1 -130 t1 -124q0 -10 6.5 -16t10.5 -6h90q47 0 73.5 -1t63.5 3q37 2 50 17.5t26 66.5q2 4 11 6t38 2q12 0 12 -8q-4 -23 -7 -67t-3 -74q0 -41 1 -65t5 -56q0 -4 -12.5 -5t-46.5 -6q-4 10 -10.5 31t-10.5 31q-4 23 -14 32t-39 13q-39 4 -69.5 4h-84.5q-41 0 -56 -1t-24 -5 q-4 -2 -6 -7t-3 -23.5t-2 -56.5t-1 -106t17 -94q4 -10 31.5 -17t115.5 -7q55 0 97 5t73 21.5t52.5 46t35.5 76.5q2 8 16 8q10 0 22.5 -2t16.5 -2q8 0 9 -14q-4 -63 -16.5 -118.5t-22.5 -84.5q-6 -8 -21 -8q-20 0 -56 1t-81 1t-95 1t-100 1q-92 0 -180 -3t-186 -3 q-4 4 -4 25.5v27.5q2 8 10 8q31 6 49.5 10.5t27.5 8.5t13 11t4 17q2 12 5 67.5t3 139.5v277q0 78 -2 114.5t-6 47.5q-2 4 -5 7t-13.5 6t-30.5 6t-57 9z" />
<glyph unicode="f" horiz-adv-x="907" d="M118 811.5q1 17.5 3 26.5q0 6 16 6q20 0 76.5 -1t103.5 -1h263q78 0 125 1t75 5q4 0 9.5 -5t5.5 -12q-2 -70 -3 -127t-1 -61q0 -10 -17 -12q-39 0 -43 10q-8 39 -19.5 65.5t-33 41t-59 20.5t-101.5 6q-35 0 -60.5 -1t-39.5 -3q-14 -4 -17.5 -14.5t-7.5 -26.5 q-4 -31 -5 -67.5t-1 -73.5v-71v-54t8 -21h59.5h66.5t63.5 1t48.5 3q23 4 31 16.5t18 47.5q4 10 22.5 13t30.5 3q10 0 10 -8q0 -29 -2 -55.5t-2 -52.5q0 -27 4.5 -65t4.5 -50q0 -16 -7 -19q-10 -2 -26.5 -5t-26.5 -3q-8 29 -12 41.5t-10 22.5q-10 23 -41 30t-111 7 q-47 0 -74.5 -1t-40.5 -3q-18 -4 -18 -35v-111q0 -55 4 -87t19.5 -47t47 -19.5t87.5 -6.5l-15 -57q-2 -6 -10 -6h-27q-47 0 -88 2t-94 2q-18 0 -46 -1t-52.5 -1t-44 -1t-23.5 -1q-12 0 -14 10q-2 4 -3 12.5t-1 34.5q0 6 3 9.5t-1 3.5l27 2q37 0 46 5t13 27q4 35 8 114t4 171 v160t-4 164q-2 18 -5 29.5t-12 19.5t-28.5 13t-52.5 13q-4 10 -3 27.5z" />
<glyph unicode="g" horiz-adv-x="1091" d="M96 424q0 98 35 177t94 132q41 37 93.5 62.5t107.5 42t108.5 23.5t100.5 7q39 0 84 -5t69 -11q23 -6 32 -2t20 22q0 4 4 4.5t22 -4.5l21 -6q12 -4 12 -24q0 -25 3 -53.5t6 -56t7.5 -50.5t6.5 -37q6 -20 -2 -29q-4 -2 -19.5 -6t-28.5 -4h-4q-4 0 -12 17q-39 80 -104.5 127 t-155.5 47q-53 0 -102.5 -17.5t-83.5 -46.5q-47 -39 -85 -116.5t-38 -188.5q0 -66 22.5 -145.5t91.5 -141.5q59 -51 127 -74.5t109 -23.5q31 0 59.5 10t42.5 21q16 12 27.5 49t11.5 96q0 70 -8 96.5t-45 34.5q-25 4 -52.5 7t-37.5 8q-6 2 -10 10t-15 43q0 14 11 14 q74 0 133 -3t110 -3q47 0 78 3t41 3q12 0 12 -12l-2 -64q-29 -4 -37 -10t-8 -10q-4 -47 -7 -94t-4 -87t-1 -70v-42q0 -29 -21 -43q-8 -8 -24.5 -9t-38.5 -1q-47 -2 -101.5 -8.5t-127.5 -6.5q-264 0 -404 134q-55 53 -89 131.5t-34 183.5z" />
<glyph unicode="h" horiz-adv-x="1290" d="M115 789.5q-2 7.5 2 25.5t6 23.5t12 5.5q43 0 79 -1t73 -1q59 0 106 1t90 3q2 0 4 -9.5t3.5 -20.5t2.5 -21.5t1 -12.5q-37 -6 -58.5 -14t-32 -28.5t-12.5 -60.5t-2 -112q0 -68 5 -85t18 -17q53 -2 105 -2h108q123 0 187.5 1t74.5 3t12 11t2 40v44v57.5v56t-2 41.5 q-4 33 -26.5 44t-88.5 17q0 8 1 27.5t3 30.5q2 6 9 6h194q14 0 39 1t50.5 2t48 2t34.5 1q4 0 8.5 -16.5t8.5 -38.5q-43 -10 -68 -19.5t-35 -29t-12 -56.5t-2 -102v-279q0 -72 1 -110.5t5 -69.5q4 -29 21.5 -42t76.5 -22q12 -2 13 -10q-2 -16 -6.5 -31.5t-6.5 -21.5h-213 q-43 0 -69.5 -1t-44 -1t-27.5 -1t-16 -1t-6 4v33q0 27 4 26q33 6 60.5 12.5t35.5 22.5q10 20 10 158v113q0 8 -4 14t-27 6h-288h-81h-50.5t-26.5 -1t-14 -3q-16 -4 -18.5 -20.5t-2.5 -30.5v-89t2 -83q0 -29 4 -45.5t15.5 -25.5t35 -15t64.5 -13q4 -2 4 -26.5t-2 -30.5 q0 -8 -6 -8q-51 0 -123 4q-48 3 -87 3q-19 0 -36 -1q-53 0 -81.5 -2t-37.5 -2q-8 0 -12 2q-2 4 -7 22.5t-3 36.5q66 16 82 27.5t18 32.5q4 16 6 59t2 129v234q0 78 -1 115.5t-5 64.5q-4 31 -20.5 43t-79.5 18q-4 2 -6 9.5z" />
<glyph unicode="i" horiz-adv-x="647" d="M98 59q0 8 4 9l68 2q53 0 63 41q2 6 3.5 19t3.5 39t3 65.5t1 101.5v207v101t-2 65q-4 39 -30 52t-101 13q-10 0 -11 10q0 8 4.5 23.5t8.5 21.5q4 8 9 10.5t21 2.5h75t52.5 -1t41 -1h36.5h55.5t53 1t43 1h24.5q10 0 17.5 -2t9.5 -9l4 -49q-47 -6 -73.5 -12t-41 -11 t-18.5 -11.5t-6 -12.5q-4 -18 -7 -61t-3 -142v-188q0 -78 3 -137.5t11 -102.5q2 -18 21.5 -24t90.5 -14q2 -4 4.5 -26t0.5 -32q0 -10 -21 -10q-72 2 -122 2h-97q-74 -2 -121 -3t-57 -1q-14 0 -17 18z" />
<glyph unicode="j" horiz-adv-x="612" d="M-109 -276q0 10 3.5 20t13.5 23q14 14 33.5 27t35.5 24q8 8 16.5 7t18.5 -5q16 -8 50 -26.5t65 -18.5q37 0 63 24q18 16 27.5 42t11.5 61q2 31 3 73.5t2.5 91t1.5 96.5v87v231q0 100 -2.5 156.5t-8.5 84.5t-19 35t-38 9q-23 4 -46.5 3t-33.5 1q-2 10 3 30.5t9 30.5t25 11 h24.5t38 -1t43 -1h39.5q55 0 121 4t107 4q18 0 18 -8l2 -49q0 -10 -14 -15q-53 -6 -74.5 -14t-26.5 -33q-4 -16 -7 -73.5t-3 -123.5v-163q0 -29 1 -75t1 -100.5t1 -111.5t1 -109q0 -57 -26 -104q-20 -31 -51 -59.5t-67 -53t-71 -44t-61 -31.5q-29 -12 -57.5 -19.5 t-49.5 -7.5q-61 0 -102 31q-20 12 -21 39z" />
<glyph unicode="k" horiz-adv-x="1150" d="M115 797l10 45h184q86 0 132 2t53 0q12 0 16 -6q2 -6 4 -24.5t0 -22.5q-35 -8 -55.5 -14.5t-32.5 -10.5q-18 -6 -23.5 -33.5t-5.5 -109.5v-146q0 -27 11 -26q8 0 35.5 18t58 43t60.5 49.5t42 36.5q31 27 53.5 47.5t40 36.5t32.5 30.5t32 30.5q12 10 -1 17.5t-71 15.5 l-2 58q0 6 12 6q53 0 109.5 2t105 3t82 2t41.5 1t9 -12q-4 -27 -8.5 -37.5t-8.5 -12.5q-33 -6 -56.5 -13t-43 -15t-36.5 -19.5t-38 -25.5q-20 -16 -84.5 -63.5t-181.5 -143.5q-20 -18 -12 -27q78 -92 158.5 -172t135.5 -133q41 -41 72 -63.5t62 -32.5q27 -6 46 -10.5 t29 -8.5q18 -6 15 -18q-8 -12 -15.5 -24.5t-15.5 -22.5q-8 0 -28.5 1t-47 2t-57.5 2t-60 1h-206v39q0 16 8 18q10 4 26.5 6.5t26.5 6.5q31 10 -10 47q-27 29 -59.5 62.5t-66.5 67.5t-65.5 66.5t-56.5 57.5q-32 32 -54 32h-1q-16 0 -17 -22v-94q0 -70 2 -112t6.5 -63.5 t12.5 -29.5t20 -10q10 -2 32 -4t36 -7q12 -4 10 -14l-8 -41q-6 -10 -27 -10q-16 2 -53 2t-125 2q-25 0 -53.5 -1t-53 -1t-43 -1t-22.5 -1q-12 0 -12 8v53q57 8 78.5 14.5t27.5 22.5q4 12 8.5 43t4.5 123v289v98t-5 80q-2 14 -7 23.5t-16 15.5t-31.5 9t-55.5 7q-4 0 -7 4.5 t-1 10.5z" />
<glyph unicode="l" horiz-adv-x="888" d="M94 793l17 49h163q20 0 53 1l66 2t60.5 2t38.5 1q16 0 22 -6q2 -2 6 -54q-59 -6 -84.5 -17t-29.5 -46t-4.5 -92.5t-0.5 -122.5v-209q0 -72 1 -114t5.5 -65.5t9.5 -31.5t15 -12q10 -6 44 -8t71 -2q43 0 77.5 5t62.5 21.5t49.5 47t37.5 83.5q4 12 10 13q10 0 23.5 -4.5 t19.5 -8.5q10 -4 7 -18q-14 -57 -24.5 -102.5t-21.5 -86.5q-4 -18 -20 -20q-10 -2 -25.5 -2h-56.5q-20 0 -45 1t-63.5 1t-99 1t-150.5 1q-59 0 -109.5 -6t-81.5 -8q-12 0 -14 6q-4 10 -9 28.5t-1 22.5q59 14 83.5 28.5t34.5 47.5q4 16 6.5 51t2.5 119v252v115.5t-4 66.5 q-4 27 -26 41t-104 14q-4 0 -9 5t-3 10z" />
<glyph unicode="m" horiz-adv-x="1394" d="M109 66q53 4 73.5 17t26.5 54q4 31 7 72t4 86t3 91t4 89l13 250q2 29 -17.5 36t-83.5 11q-4 0 -7 6t-1 13q6 35 9 43t10 8h27.5t43 -1t46 -1h38.5h115q4 -23 9 -43.5t15 -42.5q18 -39 49 -97.5t66 -124t72 -130t67 -113.5q8 -18 23 8q27 47 58.5 106.5t65.5 124t65.5 128 t58.5 118.5q6 12 9 31.5t7 36.5q29 0 52.5 -1t45.5 -1q14 0 40 1t53.5 2t50 2t33.5 1q14 0 20 -6v-58q-72 -4 -91.5 -15t-19.5 -38q0 -20 -1 -42.5t-1 -52.5v-71v-100q2 -109 2 -184.5t2 -116.5q2 -33 5.5 -51.5t12.5 -28.5t25.5 -14.5t45.5 -6.5q6 -2 10 -5t6 -13 q0 -8 1 -26.5t-1 -22.5h-162q-14 0 -38.5 -1t-50.5 -2t-51.5 -2t-41.5 -1q-12 -2 -14.5 2t0.5 24q2 25 4 29t6 6q51 14 62 24.5t14 43.5q4 53 7 129t4 157.5t2 162.5t1 145q-16 -33 -45 -93.5t-61.5 -128t-65.5 -135t-53 -112.5q-45 -94 -69 -141.5t-28 -59.5 q-10 -23 -19 -32t-22 -9q-10 0 -18 14q-31 66 -69 147t-80 169t-86 182t-89 186q-4 -115 -6 -206t-2 -189q0 -96 3 -141t7 -62q6 -18 22.5 -24t65.5 -17q2 0 6.5 -4t4.5 -8l2 -53q-74 4 -146 6q-36 1 -71 1t-68 -1q-4 0 -9 2t-7 6q-2 6 -4 29.5t-2 28.5z" />
<glyph unicode="n" horiz-adv-x="1236" d="M100 801v39q0 8 11 6q29 -2 50 -3t45.5 -1h56.5h79q31 0 37 -17q8 -25 80 -102q53 -57 173 -181t300 -298q2 41 4 104.5t3 131.5v44q0 44 -1 86q-2 62 -4 101q-2 18 -6 29.5t-16.5 18.5t-34 11t-58.5 8q-14 0 -14 13l-2 51h160q37 0 87 3q30 2 56 2q17 0 33 -1 q10 0 10 -6l12 -47q-43 -14 -67.5 -24.5t-38 -29t-18.5 -51.5t-9 -90q-4 -100 -6 -187t-2 -180q0 -90 2 -143t2 -63q0 -23 -22.5 -35.5t-40.5 -18.5q-14 -6 -25 15q-31 41 -58.5 74.5t-72.5 80.5q-33 33 -90.5 93.5t-122 128t-129 134t-109.5 113.5q-10 10 -16 8t-8 -12 q-2 -25 -4 -71t-2 -111v-93t1 -91t4 -78t9 -51q10 -31 43 -41.5t78 -14.5l6 -49q0 -10 -10 -10q-47 0 -96.5 2t-96.5 2q-33 0 -68.5 -2t-56.5 -2l-16 51q0 6 10 8q55 12 71.5 28.5t20.5 49.5q4 27 11.5 92.5t7.5 159.5v221q0 66 -3 93.5t-14 39.5q-10 18 -29.5 26.5 t-80.5 18.5q-14 2 -15 17z" />
<glyph unicode="o" horiz-adv-x="1132" d="M96 422q0 90 34 172t112 149q66 59 152.5 92t178.5 33h2q94 0 178.5 -33.5t148 -93t100 -138.5t36.5 -167q0 -123 -49 -211t-115 -143q-66 -59 -147.5 -85t-134.5 -26q-113 0 -213 40t-172 116q-51 55 -81 135t-30 160zM289 444q0 -92 28.5 -165.5t75.5 -124.5 q49 -53 107.5 -80t111.5 -27q41 0 83 21.5t76 64.5t55.5 107.5t21.5 148.5q0 88 -20.5 167t-86.5 146q-35 39 -85 67t-119 28h-2q-49 0 -92.5 -22.5t-75.5 -61.5q-45 -53 -61.5 -124t-16.5 -145z" />
<glyph unicode="p" horiz-adv-x="962" d="M113 797q0 31 4 43q4 4 12 4t31.5 -1t52.5 -1t57.5 -1t46.5 -1h41t54.5 1t53.5 1h36q55 0 129 -13.5t139 -62.5q49 -37 72.5 -89t23.5 -106v-2q0 -59 -24.5 -106t-65.5 -84q-53 -49 -132 -72.5t-152 -23.5q-31 0 -58.5 2t-46.5 6q0 -115 9.5 -162t45.5 -53q14 -6 86 -15 q10 -2 11 -18q0 -27 -4.5 -34t-8.5 -11q-59 0 -109 1t-102 1q-47 0 -102 -2t-80 -6q-10 -6 -16 16l-2 39q47 10 74.5 21.5t33.5 50.5q4 16 6 62t2 124v213q0 80 -2 130t-6 79t-14 39t-25 10h-30.5t-30.5 2t-10 19zM392 458v-22q0 -39 3 -55q2 -6 7.5 -11t21.5 -10 q25 -8 70 -8q94 0 144 61.5t50 159.5v2q0 90 -53 144.5t-154 54.5q-20 0 -41.5 -4t-25.5 -8t-7.5 -9t-5.5 -18q-2 -16 -3 -52t-3 -99q-2 -70 -3 -126z" />
<glyph unicode="q" horiz-adv-x="1134" d="M96 397q0 37 6.5 80t23.5 88t49 91t81 89q31 25 71 47.5t85 40t89 26.5t83 9h2q35 0 79 -7t90 -23.5t91 -43t82 -65.5q61 -66 86.5 -145.5t25.5 -157.5q0 -41 -10 -87t-30.5 -92t-51 -88t-69.5 -75q-53 -43 -96.5 -64.5t-59.5 -29.5q-6 -2 -9 -12.5t1 -22.5 q31 -82 84 -135t110 -76q45 -16 82 -23.5t62 -7.5q39 0 60.5 2t29.5 2q4 0 24 -32q8 -12 -6 -21q-29 -10 -84 -22.5t-119 -12.5q-39 0 -81.5 7.5t-83.5 22.5t-79 36.5t-67 50.5q-37 27 -77 81t-74 120q-16 23 -41 28q-12 2 -37 8.5t-55.5 18.5t-66.5 32.5t-71 51.5 q-20 18 -42.5 51t-42 74t-32 89t-12.5 97zM287 418q0 -74 17.5 -143.5t57.5 -120.5q53 -66 117 -96.5t111 -30.5q18 0 66.5 16t93.5 63q49 51 75.5 126t26.5 182q0 70 -11.5 141.5t-64.5 130.5q-47 53 -101 81t-120 28h-2q-84 0 -143 -54q-66 -51 -94.5 -131t-28.5 -192z " />
<glyph unicode="r" horiz-adv-x="1077" d="M119 842q66 2 116 2t91 2q41 4 90 7t92 3q68 0 137.5 -14.5t116.5 -48.5q39 -29 62.5 -72t23.5 -96q0 -37 -14.5 -67t-35 -54.5t-42 -42t-35.5 -25.5q-4 -4 -9 -10t-3 -10q41 -102 97 -185.5t132 -142.5q35 -27 64.5 -42t46.5 -21q4 -2 5 -8.5t1 -24.5q0 -16 -2 -19.5 t-13 -3.5q-190 6 -305 107q-53 43 -90 101.5t-72 119.5q-16 31 -40.5 45t-77.5 14q-47 0 -56.5 -7t-9.5 -17q0 -119 3 -176.5t14 -65.5q6 -4 19 -8t29.5 -7t35 -7.5t30.5 -6.5v-18q-4 -33 -7 -39t-13 -6h-34t-54.5 1t-65.5 1h-65q-43 0 -79 -2t-55 -2q-10 0 -14 5t-8 26 q-4 18 -2 22t4 6q57 10 75.5 23.5t22.5 48.5q2 37 4 89t2 140v158v110.5t-4 88.5q0 18 -5 31.5t-21 17.5l-31.5 7t-30.5 7q-16 2 -18 17zM391 446q0 -16 9.5 -21t50.5 -5q33 0 73.5 4t69.5 16q35 18 58.5 59.5t23.5 96.5v2q0 96 -54.5 145.5t-134.5 49.5q-18 0 -37.5 -3.5 t-35.5 -11.5q-6 -6 -9.5 -10t-5.5 -14q-6 -66 -7 -133.5t-1 -174.5z" />
<glyph unicode="s" horiz-adv-x="888" d="M102 256q4 4 18.5 8t24.5 4q14 0 21 -14q29 -102 108.5 -158.5t165.5 -56.5q82 0 138 39q54 38 53 107v5q0 35 -20.5 62t-52.5 48.5t-70.5 36.5t-75.5 28q-70 25 -130.5 56.5t-91.5 65.5q-23 25 -37 60t-14 86q0 72 36 118t81 68q47 23 106.5 34t114.5 11q33 0 73 -3 t75 -9q27 -6 34 8q2 20 13 17q39 -4 46 -5.5t7 -5.5q-4 -16 -4 -45.5t2 -63.5t6 -68t8 -58l-43 -23q-10 -4 -14 13q-12 41 -29.5 71.5t-42.5 52.5q-27 25 -68.5 40.5t-95.5 15.5q-70 0 -113.5 -38t-43.5 -87q0 -70 57 -105.5t143 -64.5q76 -25 136.5 -52.5t89.5 -54.5 q45 -37 61.5 -77.5t16.5 -92.5v-2q0 -80 -38 -130t-94 -77q-55 -25 -122.5 -35t-108.5 -10q-45 0 -100.5 6.5t-89.5 12.5q-20 4 -28.5 1t-31.5 -18q-8 -10 -31 -10q-4 0 -11 6.5t-7 14.5q-4 76 -11 133t-16 135z" />
<glyph unicode="t" horiz-adv-x="1069" d="M70 659q0 6 3 16.5t7 20.5q18 43 32.5 90.5t24.5 83.5q8 41 15 41l20 -2q29 -4 31 -12q2 -45 18 -49q6 -2 20.5 -3t49.5 -2t97.5 -1h162.5h152.5t98.5 1t58.5 2t36.5 5q14 4 21.5 19.5t15.5 31.5q12 2 24.5 0t24.5 -6q14 -6 4 -29q-8 -25 -13 -46t-8 -45.5t-6.5 -57.5 t-5.5 -80q0 -12 -16 -12q-51 0 -51 6v96q0 16 -21 23q-12 6 -37.5 10t-55.5 5t-57.5 2t-43.5 1q-29 0 -38 -6t-9 -14q-4 -27 -4 -82.5v-163.5v-133q0 -121 2 -172.5t6 -73.5q6 -29 33.5 -44.5t111.5 -19.5q8 -4 6 -18l-2 -37l-6 -6t-8 -2t-29.5 1t-56.5 1t-66.5 1t-60.5 1 q-35 0 -72 -1t-67.5 -1t-53 -1t-26.5 -1q-16 0 -19 8l-2 49q41 6 65.5 12.5t38 12.5t18.5 13t7 18q4 16 10.5 83.5t6.5 192.5v127v137.5t-4 100.5q0 18 -31 18q-53 0 -91 -1t-65.5 -4t-47 -7t-34.5 -8q-10 -4 -22 -37t-23 -76q-8 -20 -22 -14q-51 25 -47 38z" />
<glyph unicode="u" horiz-adv-x="1173" d="M115 791.5v35.5q0 14 24 15h37t47.5 -1t45 -1h32.5q23 0 43.5 1t44 2t53 2t70.5 1q6 0 8 -4t0 -21q-2 -23 -5 -28t-11 -7q-59 -10 -86 -23t-33 -52q-2 -18 -5 -47t-5 -73t-3 -108.5t-1 -154.5q0 -78 23.5 -126t62.5 -79q35 -29 79 -39t97 -10q76 0 123 31.5t69 60.5 q33 41 44.5 113.5t11.5 166.5q0 82 -2 160t-11 127q-4 23 -28.5 30t-102.5 11q-4 0 -8 5t-2 1q0 14 6 30.5t12 23.5q6 10 19 10h30.5t47 -1t49 -1h39.5q31 0 76 2t75 2q8 0 9 -23q-12 -41 -19 -43q-14 -2 -33.5 -7t-29.5 -9q-16 -8 -21 -31q-4 -18 -10 -82.5t-10 -214.5 q-4 -115 -19.5 -189.5t-64.5 -135.5q-29 -35 -67 -60.5t-80 -43t-85 -27t-82 -9.5h-2q-74 0 -145.5 20.5t-118.5 65.5q-59 55 -77.5 129t-20.5 142v108.5t4 132.5q3 53 3 89q0 18 -1 31q-2 40 -6 61q-4 14 -26.5 21t-59.5 11q-4 2 -4 9.5z" />
<glyph unicode="v" horiz-adv-x="1105" d="M74 799l20 35q10 12 19 10q25 -2 53.5 -3t55 -1h48h31.5h72t69 -2q6 2 4 -21l-6 -37l-49 -14q-23 -6 -12 -35q18 -47 46 -114.5t57.5 -138t58 -134t47.5 -102.5q14 -35 24 -29q20 39 52 114.5t65 158.5t59.5 157t36.5 111q2 10 -3 11t-27 3l-58 4q-12 0 -8 16 q10 37 15.5 45.5t19.5 8.5q18 0 67.5 -1t86.5 -1q35 0 65.5 1t42.5 1q16 0 23 -8q2 -8 3 -16.5t3 -31.5q0 -8 -11 -10h-24q-53 0 -75.5 -32.5t-57.5 -102.5q-12 -29 -43 -97.5t-68 -150.5t-72.5 -165t-60.5 -140q-2 -6 -10 -20.5t-17.5 -31t-17.5 -31.5t-12 -23t-9.5 -11.5 t-19.5 -3.5q-35 0 -41 13q-2 4 -13 28.5t-36 87.5q-86 221 -152.5 369.5t-95.5 210.5q-14 27 -25.5 45t-25.5 30.5t-33.5 19.5t-46.5 11q-18 0 -14 17z" />
<glyph unicode="w" horiz-adv-x="1564" d="M72 797q14 47 28 47h25.5t40 -1t47.5 -1h45h184q4 0 8.5 -18.5t4.5 -35.5q0 -8 -15 -10q-35 -4 -48 -8t-13 -16q0 -24 20 -86q31 -96 74 -212t90 -227q4 -10 7 -9t10 5q16 31 38.5 81t46 106.5t47 112t40.5 96.5q8 16 0 34l-37 99q-8 20 -101 28l7 45q2 10 9 13.5t13 3.5 q23 0 55.5 -1t79.5 -1h54.5t57.5 1t52.5 1h38.5q6 -14 4 -33.5t-6 -28.5q-35 -4 -54.5 -8t-28.5 -8t-10 -9t1 -12q16 -51 39.5 -116.5t49 -135t52.5 -136t49 -117.5q4 -14 12.5 -12.5t12.5 12.5q14 33 43 104.5t58.5 150t53 150.5t27.5 105q2 10 -8 16t-21 8q-33 8 -61 10 q-10 2 -10 13q2 23 3 32t3 13q2 6 10 6t26.5 -1t39 -3t42 -2h38.5q39 0 73.5 1t69.5 1q16 0 16 -10l6 -50q-35 -2 -55 -8t-35.5 -19.5t-28 -38t-30.5 -65.5q-16 -31 -42 -89t-56.5 -131t-63.5 -151.5t-61 -150.5q-10 -25 -26.5 -62.5t-35.5 -80.5q-4 -10 -18.5 -13.5 t-30.5 -3.5q-20 0 -27 23q-8 16 -18 44t-27 73q-10 27 -26.5 72.5t-38 102t-46 120t-48.5 122.5q-27 -59 -75 -169.5t-108 -241.5q-12 -29 -24 -59.5t-29 -65.5q-14 -23 -18 -23q-10 -2 -43 -2q-12 0 -15 15q-4 14 -21.5 62t-45.5 120q-29 72 -76 198.5t-119 296.5 q-16 37 -27.5 59.5t-25.5 36t-33.5 19.5t-52.5 12q-14 2 -12 11z" />
<glyph unicode="x" horiz-adv-x="1130" d="M88 6v53q39 4 77 19.5t71 50.5q25 27 54 59.5t62 68.5t63.5 73t59.5 69q4 4 4 13.5t-2 13.5q-20 29 -52 72t-64.5 87t-62.5 84t-46 60q-39 45 -64 47q-16 0 -33.5 -1t-27.5 -3q-10 0 -10 10q0 6 1 25.5t5 23.5q0 10 12 11q63 -2 119.5 -2t116.5 4q51 2 78.5 3t37.5 1 q16 0 17 -6l12 -54q4 -10 -16 -10h-60q-14 0 -14 -11t10 -28q4 -10 12.5 -22t24.5 -37t45 -63.5t76 -100.5q6 8 27.5 35t46 58.5t49 63.5t39.5 50q23 31 9.5 38t-69.5 11l-2 57q0 8 13 11h134t74 2q20 0 45 1t35 1q16 0 21 -6q8 -14 14 -45q0 -8 -10 -13q-59 -8 -89 -20 t-67 -53q-82 -84 -139 -151t-74 -91q-4 -4 -3 -13.5t5 -17.5q86 -119 145.5 -196.5t82.5 -106.5q16 -18 30.5 -29.5t29.5 -18.5t33.5 -11t43.5 -6q12 -2 12 -15v-45q-2 -10 -12 -10q-6 0 -62.5 1t-134.5 1q-84 0 -132 -1t-60 -1t-19 8q-4 8 -5 24.5t-1 22.5q0 12 10 12 q72 6 85.5 13.5t-3.5 32.5l-38.5 55t-50 70.5t-47 66.5t-30.5 41q-27 -31 -59.5 -71t-62 -77.5t-49 -67.5t-19.5 -38q0 -10 14.5 -16t63.5 -11q2 -2 4 -11t2 -19.5t-1 -19.5t-1 -11q-2 -4 -14 -4q-70 4 -134.5 4h-80.5q-18 0 -46 -1t-45 -1q-14 0 -14 8z" />
<glyph unicode="y" horiz-adv-x="1019" d="M73 805.5q1 23.5 1 28.5q6 8 12 8q61 0 104 -2q22 -1 41 -1t37 1q45 0 89 4t77 4q8 0 8 -10q0 -45 -10 -60l-49 -8q-12 -4 -15 -11t5 -24q12 -23 34.5 -58.5t45 -72.5t44 -68.5t31.5 -46.5q16 -14 27 0q10 14 39 51.5t58.5 79.5t52 76.5t22.5 44.5t-11 17.5t-57 13.5 l-6 49q0 16 9 17h21h38.5h46.5h43q37 2 80 3t59 1t19 -4q4 -4 4 -29v-29q-61 -6 -91 -27.5t-67 -64.5q-53 -66 -106.5 -127t-106.5 -133q-18 -27 -22.5 -42t-4.5 -58q0 -72 1.5 -112t5.5 -75q4 -31 9 -44t19 -17q10 -4 33 -8t70 -11q10 -2 11 -6t1 -12q-4 -18 -5 -31.5 t-5 -17.5q-39 2 -107.5 4t-144.5 2q-18 0 -45 -1t-51.5 -1t-44 -1t-25.5 -1q-14 0 -16 6q-4 4 -5.5 20.5t-1.5 34.5q51 6 79 12.5t41.5 20.5t15.5 41t2 74v153q0 20 -15 48q-16 31 -44.5 78.5t-62.5 99t-67 97.5t-53 73q-8 10 -24.5 14t-57.5 4q-8 0 -14 6q-2 4 -1 27.5z " />
<glyph unicode="z" horiz-adv-x="1110" d="M98 47q0 8 4 12l15.5 15.5t27 26t43 44t64.5 70.5q27 27 66.5 71t86 95t94.5 105.5t91 103.5t76.5 89t50.5 60q10 12 8 20.5t-12 8.5h-140q-72 0 -138 -5t-97 -11q-59 -10 -96 -61.5t-80 -149.5q-2 -12 -31 -2q-18 4 -24.5 8t-6.5 12q12 51 28.5 104.5t32 99.5t28 81 t18.5 47q2 12 12 12q8 0 20.5 -3t22.5 -7q4 -2 5 -9t1 -12q0 -10 3 -16t20 -8q33 -6 211 -6h151q109 0 197 6q66 4 110 4h27q6 0 4 -14q-2 -18 -7 -31.5t-9 -22.5q-8 -8 -16.5 -17t-20.5 -19q-25 -25 -54.5 -55.5t-67.5 -72.5t-85 -96.5t-108 -124.5q-59 -68 -99.5 -113.5 t-69 -77.5t-47 -54.5t-34.5 -40.5q-25 -25 2 -33q18 -4 60 -6t143 -2q76 0 125 3t81.5 10t52 18.5t33.5 25.5q23 29 45.5 66.5t42.5 89.5q4 6 16.5 11t43.5 7q6 0 4 -14q-14 -80 -34.5 -157t-45.5 -155q-4 -16 -7 -21t-7 -5t-19.5 2t-27.5 8q-2 31 -19 33q-10 4 -67.5 5 t-135.5 1h-157q-61 0 -122 -1t-111 -2t-84.5 -2t-43.5 -1q-23 0 -39 37q-4 8 -4 16z" />
<glyph unicode="{" horiz-adv-x="686" d="M59 545q0 16 9 16q61 12 100 34.5t60.5 50.5t29.5 57.5t8 58.5q0 27 -6 80t-14 109.5t-14.5 104.5t-6.5 66q0 70 29 142.5t108 126.5q66 43 124.5 57t101.5 14q12 0 12 -10q0 -20 -4 -28.5t-8 -12.5q-14 -10 -49 -20q-88 -18 -136.5 -79t-48.5 -147q0 -45 8.5 -93 t17.5 -95t17.5 -93t8.5 -85t-16.5 -76t-44.5 -71t-64.5 -61.5t-79.5 -47.5q63 -31 103 -64t62.5 -69.5t31 -77.5t8.5 -86q0 -31 -7.5 -74t-16.5 -84t-18.5 -74.5t-11.5 -48.5q-10 -49 -12 -73.5t-2 -59.5q0 -43 25.5 -81t63.5 -66.5t79 -46t72 -19.5q10 0 17 -6t7 -12 q0 -10 -16.5 -25.5t-28.5 -15.5h-2q-162 0 -251 76.5t-89 236.5q0 31 8 84t17.5 110.5t17.5 110.5t8 84q0 100 -33.5 147.5t-117.5 75.5q-29 10 -42.5 30t-13.5 30z" />
<glyph unicode="|" horiz-adv-x="569" d="M215 -532v2129h137v-2129h-137z" />
<glyph unicode="}" horiz-adv-x="686" d="M86 1421q0 10 16.5 25.5t26.5 15.5h2q162 0 252 -75.5t90 -235.5q0 -33 -8 -86t-17.5 -110.5t-17.5 -110.5t-8 -84q0 -100 33.5 -148.5t117.5 -74.5q29 -10 42.5 -30t13.5 -30q0 -14 -8 -14q-61 -14 -100.5 -37t-61 -50.5t-29.5 -57t-8 -58.5q0 -27 6 -80t14.5 -109.5 t14.5 -104.5t6 -66q0 -70 -28.5 -142.5t-106.5 -126.5q-66 -43 -124.5 -57t-103.5 -14q-12 0 -12 10q0 35 12 43q8 4 19.5 9t30.5 9q92 18 139 78t47 148q0 45 -8.5 93t-17.5 96t-17 92t-8 85q0 39 16 76t44 70.5t66 61.5t78 48q-63 31 -103 65t-62.5 69.5t-30.5 76.5t-8 88 q0 31 7 73t16 83t17.5 74.5t10.5 48.5q10 49 13 73.5t3 59.5q0 45 -23.5 84t-59.5 67.5t-79 45t-79 16.5q-10 0 -17.5 7t-7.5 11z" />
<glyph unicode="~" horiz-adv-x="1267" d="M170 315q0 57 11.5 117t41 109t78.5 79.5t123 30.5h2q47 0 86 -14t72.5 -36.5t65.5 -49.5t63 -53q41 -35 69.5 -54.5t50 -30t37 -13.5t29.5 -3q49 0 72.5 56.5t23.5 177.5q0 10 17.5 9t87.5 -26q2 -72 -10.5 -133t-40 -107t-72.5 -72t-111 -26q-57 0 -123.5 47.5 t-146.5 120.5q-59 51 -104.5 72t-81.5 21q-41 0 -67 -20.5t-41 -53.5t-21.5 -75t-6.5 -85q-4 -4 -18 -8t-68 -4q-18 0 -18 24z" />
<glyph unicode="&#xa1;" horiz-adv-x="446" d="M69 9.5q-1 17.5 3 23.5q23 25 37 69.5t24 94.5q4 27 11.5 70.5t14.5 87.5t13 79t6 41q0 2 11.5 5t23.5 6t22.5 3t10.5 -2q0 -8 2 -37.5t5 -68.5t6 -84t7 -84q8 -61 21.5 -108.5t40.5 -73.5q4 -4 4 -21.5t-6 -21.5q-35 -18 -61.5 -49t-45.5 -60q-6 -10 -29 -10h-2 q-14 0 -22 10q-12 29 -39 57.5t-51 51.5q-6 4 -7 21.5zM76 748q0 12 14 16q23 8 35 16t20.5 17.5t14.5 25t16 39.5q8 10 19 10q29 -4 39 -9t16 -25q8 -20 16 -31.5t18.5 -18t22.5 -10.5t29 -10q10 -4 15 -22.5t5 -32.5v-2q0 -6 -16 -13q-37 -10 -59.5 -22t-34.5 -51 q-4 -16 -21.5 -23.5t-31.5 -7.5q-12 0 -17 22q-6 33 -25.5 50.5t-46.5 25.5q-16 6 -22 22.5t-6 33.5z" />
<glyph unicode="&#xa2;" d="M113 338q0 84 18.5 142.5t43 98t49 61.5t36.5 32q23 18 57.5 38.5t72.5 39t74 34t60 23.5l15 174q2 12 10 16q12 4 37.5 -9t36.5 -17l-13 -146q14 2 26.5 2h25.5q18 0 42.5 -4t47 -12t41 -21.5t28.5 -29.5q12 -27 -6 -66q-12 -20 -33.5 -33.5t-29.5 -13.5t-17.5 4 t-25.5 21q-16 10 -46 24.5t-65 22.5l-53 -608q80 0 138 29.5t126 72.5q4 4 14.5 -4t10.5 -19q0 -12 -4.5 -26t-16.5 -27q-51 -41 -126 -83t-152 -54l-17 -190q-2 -6 -30.5 -10.5t-36.5 -4.5q-14 0 -19.5 7.5t-5.5 17.5l20 180q-66 4 -130 30.5t-105 67.5t-69.5 108.5 t-28.5 131.5zM281 391q0 -86 49 -162.5t133 -103.5q16 150 28.5 303.5t22.5 294.5q-45 -4 -84 -23.5t-68 -42.5q-31 -29 -56 -100.5t-25 -163.5v-2z" />
<glyph unicode="&#xa3;" d="M31 27q0 14 16 33.5t66 60.5q23 18 47 42.5t42.5 58.5t31 77t10.5 98q0 14 -1 30.5t-5 31.5h-183q-4 0 -11 8t-3 18q10 23 30.5 36.5t41.5 17.5q6 2 41.5 3t74.5 3q-2 23 -5 52.5t-5 76.5q0 37 7 78t42 88q41 57 88 99t101 73q47 29 94 41t78 12q49 0 89 -21.5t42 -54.5 q0 -18 -11.5 -40.5t-15.5 -30.5q-12 -12 -20 -15q-8 -2 -25 10q-27 16 -64.5 30.5t-78.5 14.5q-45 0 -77 -18t-51.5 -48t-27.5 -68t-6 -79q2 -51 8 -102t10 -82q0 -14 23 -14h194q37 0 55.5 4t24.5 8q4 0 10.5 -6t4.5 -14q-8 -23 -25.5 -52.5t-50.5 -29.5l-231 2 q4 -102 -42.5 -175t-105.5 -124q-4 -8 -3 -15.5t7 -5.5q33 6 88.5 8.5t124.5 -20.5q96 -33 172 -33q66 0 108 44t60 114q10 23 29 22q16 0 33.5 -13t17.5 -28q0 -25 -19.5 -59.5t-46 -67t-55.5 -61.5t-49 -41q-33 -23 -67.5 -34t-82.5 -11q-47 0 -99 14.5t-132 55.5 q-39 23 -70.5 26.5t-58.5 3.5q-29 0 -51.5 -14t-50.5 -53q-14 -16 -33 -17q-18 4 -33.5 17.5t-15.5 34.5z" />
<glyph unicode="&#xa4;" horiz-adv-x="1003" d="M57 174q4 12 24.5 38t43 52.5t43 49t27.5 30.5q-35 41 -53.5 104.5t-18.5 135.5q2 72 25.5 148.5t97.5 154.5q-35 41 -75 83t-75 83q-8 6 -8 26v2q0 6 8 11q2 2 13.5 8t26 14t29.5 15.5t25 9.5q10 -12 33 -39t48.5 -55.5t47 -54t27.5 -34.5q41 29 94.5 46.5t91.5 17.5 q43 0 88.5 -10.5t88.5 -38.5q35 41 71.5 86t71.5 84q94 -63 82 -76q-39 -43 -81 -91t-62 -71q27 -35 56.5 -97.5t29.5 -139.5q0 -88 -20.5 -163t-76.5 -136q14 -16 36 -40t43.5 -48.5t42 -48t34.5 -40.5q4 -6 -4 -16t-23.5 -23.5t-36 -29t-38.5 -27.5q-6 8 -26 36 t-43.5 58.5t-43 58t-25.5 36.5q-41 -35 -103.5 -56.5t-121.5 -21.5q-119 0 -192 61q-12 -12 -33 -36.5t-41.5 -50t-37.5 -47t-22 -28.5q-27 10 -56.5 31t-31.5 39zM252 612q0 -68 19.5 -123t55 -93t83 -58.5t102.5 -18.5q39 0 78 12.5t74 47.5q43 41 65.5 108.5t22.5 147.5 q0 55 -16.5 106.5t-48.5 89t-78 60t-105 22.5h-2q-45 0 -81 -15t-65 -38q-55 -43 -79.5 -106.5t-24.5 -141.5z" />
<glyph unicode="&#xa5;" d="M36 990q-1 9 1 20.5t5 21.5t7 15q23 0 56.5 -4.5t87.5 -2.5q43 2 94 4.5t92 2.5q6 0 8 -9.5t1 -21.5t-5 -22.5t-8 -12.5q-59 -16 -51 -29q27 -57 69.5 -137t95.5 -176q18 31 42 71t48.5 82t47 82.5t39.5 71.5q6 16 -5.5 22.5t-52.5 16.5q-4 16 3 37.5t22 24.5 q25 0 56.5 -3.5t62.5 -3.5q37 0 75.5 3.5t61.5 3.5q2 0 5 -9.5t4 -20.5t-2 -20.5t-9 -11.5q-27 -10 -45.5 -16t-34.5 -16.5t-32.5 -27t-39.5 -46.5q-12 -18 -36.5 -53t-53.5 -79.5t-58.5 -92.5t-54.5 -89h248l-8 -65q-4 -8 -10 -10.5t-25 -2.5l-215 2v-122h254q2 0 7 -5.5 t5 -9.5l-18 -59h-248q0 -39 1 -87t3 -79q4 -23 18.5 -35t61.5 -22q12 -2 26.5 -3t31.5 -1v-58q0 -8 -13 -8h-25.5t-51 1t-61.5 1h-52q-29 0 -65 -1t-70.5 -3t-62 -4t-38.5 -2q-2 6 -2 16v21q2 10 3 13t5 9q39 6 65 12.5t39 12.5t19 15t8 24q6 35 9.5 91t3.5 85h-242 q-10 0 -12 12q-8 27 -3 45.5t11 18.5h248v125l-236 -3q-8 6 -10 9.5t-2 13.5l-2 39q-2 12 12 16l232 -2q-16 31 -42 77t-56.5 97.5t-62.5 102.5t-58 92q-14 25 -42 34t-67 13q-6 0 -7 9z" />
<glyph unicode="&#xa6;" horiz-adv-x="569" d="M215 -371v746h137v-746h-137zM215 694v746h137v-746h-137z" />
<glyph unicode="&#xa7;" horiz-adv-x="903" d="M100 555q0 86 39 162t86 139q-4 12 -4 35q0 33 14.5 66.5t37 63.5t50 55.5t52.5 41.5q33 23 73.5 44.5t88.5 21.5h2q20 0 45.5 -6.5t48 -17.5t38 -25.5t15.5 -32.5q0 -4 -3 -14.5t-7 -21.5t-10.5 -22.5t-14.5 -13.5q-8 -6 -21.5 -5t-25.5 7q-18 14 -53 29.5t-86 15.5 q-37 0 -63.5 -13t-44 -33.5t-25.5 -42t-10 -40.5q0 -16 7 -35.5t25 -40.5q84 -86 143.5 -146t99.5 -105.5t65.5 -79t44.5 -62.5q29 -43 51 -105.5t22 -129.5q0 -39 -8 -81t-20.5 -83t-28.5 -78t-33 -61q-45 -72 -101.5 -142.5t-121.5 -117.5q-43 -31 -80 -44.5t-65 -13.5 q-57 0 -104.5 26.5t-47.5 59.5q0 23 11.5 46.5t21.5 33.5q14 14 33 4q20 -14 60 -31.5t79 -17.5q55 0 94 24.5t55 47.5t17 47q0 31 -41 71q-10 10 -34 38t-55.5 65t-67.5 80t-73 84q-31 33 -61.5 73.5t-54 86t-39 94.5t-15.5 100zM199 639q0 -53 19.5 -105.5t50 -100.5 t65.5 -91t65 -76q66 -72 106 -120t63.5 -81.5t34.5 -59t18 -50.5q61 80 61 174v2q0 68 -20.5 137.5t-73.5 147.5q-33 45 -90.5 107.5t-137.5 144.5q-41 41 -65.5 68.5t-42.5 56.5q-20 -18 -36.5 -59.5t-16.5 -94.5z" />
<glyph unicode="&#xa8;" horiz-adv-x="851" d="M136 1071q-1 10 0 20.5t7 16.5q31 20 45.5 32.5t26.5 51.5q8 8 41 8h2q18 0 23 -6q16 -25 27 -39t46 -25q4 0 6 -9t2 -20t-2 -20.5t-6 -11.5q-33 -18 -45 -34.5t-28 -57.5q-2 -10 -26 -10t-30 10q-16 31 -31.5 47t-43.5 20q-4 0 -8.5 8.5t-5.5 18.5zM477 1089.5 q0 10.5 2 18.5t6 10q37 16 50.5 28.5t29.5 49.5q2 4 12.5 5t22.5 1h2q8 0 16.5 -1t10.5 -3q14 -29 28.5 -43t47.5 -27q6 -2 8 -11t2 -20.5t-3 -20.5t-7 -11q-37 -16 -50.5 -36.5t-23.5 -57.5q-2 -4 -11.5 -5t-20.5 1t-21.5 6t-12.5 12q-10 29 -25.5 41t-52.5 35q-4 2 -7 10 t-3 18.5z" />
<glyph unicode="&#xa9;" horiz-adv-x="1558" d="M94 662q0 147 52.5 272t144.5 216t218 142t273 51h2q147 0 273.5 -52t216.5 -144t141 -217t51 -268q0 -141 -51 -265.5t-142 -216.5t-217 -145t-276 -53q-154 0 -280.5 52t-216.5 144t-139.5 216t-49.5 268zM178 664q0 -127 45 -240t125 -197t191.5 -132t244.5 -48 q131 0 241 48t189.5 132t123.5 197t44 240q0 129 -44 240.5t-123.5 194.5t-190.5 130t-242 47h-2q-131 0 -241.5 -47t-190.5 -129t-125 -194.5t-45 -241.5zM410 655v2q0 66 22.5 130.5t75.5 117.5q39 39 96.5 67.5t97.5 39.5q43 10 85 15t77 5q37 0 75 -6t52 -10 q23 -10 37 6q4 4 12.5 5t30.5 -7q12 -4 14 -7t0 -7q-23 -45 -22.5 -99.5t2.5 -103.5q0 -4 -8 -4t-18.5 2t-18.5 4t-10 4q-25 82 -66 121t-131 39q-33 0 -74 -18.5t-77.5 -56.5t-62.5 -96.5t-26 -138.5q0 -53 15.5 -106t47.5 -96t80 -70t111 -27q78 0 135.5 45.5t92.5 110.5 q10 -6 25.5 -15t13.5 -16q-6 -33 -17.5 -64.5t-23 -57t-21.5 -41t-12 -15.5q-47 0 -94 -7t-103 -7q-111 0 -188.5 31.5t-127.5 83t-73.5 117t-23.5 130.5z" />
<glyph unicode="&#xaa;" horiz-adv-x="657" d="M66 696v2q0 31 17 52.5t48 37.5q53 27 120.5 45.5t141.5 32.5q4 63 2 99t-22 59q-8 8 -28.5 15.5t-45.5 7.5q-29 0 -40 -2.5t-17 -4.5q-6 -4 -9.5 -16t-3.5 -47q0 -14 -10 -19l-80 -24q-25 -8 -35 -8q-4 0 -11 6t-7 16q0 23 23 51q14 16 34.5 34t42 33t41 25.5t31.5 14.5 q23 10 51.5 16t52.5 6q29 0 55.5 -11t48 -29.5t35 -44t13.5 -56.5q0 -66 -5 -131t-5 -135q0 -90 41 -90q25 0 46 8t32 12q4 2 11 -5t7 -11q-2 -12 -6 -30.5t-8 -20.5q-10 -4 -29.5 -11.5t-43.5 -15.5t-48.5 -13t-42.5 -5q-31 0 -49.5 14t-32.5 65q-16 -6 -40 -18 t-50.5 -24.5t-52 -21.5t-43.5 -9q-57 0 -93 42t-36 109zM197 721q0 -29 17 -55.5t56 -26.5q27 0 64 18.5t51 34.5l4 113q-66 -8 -98.5 -17.5t-61.5 -25.5q-33 -12 -32 -41z" />
<glyph unicode="&#xab;" horiz-adv-x="927" d="M111 377q-10 18 6 37q55 72 119.5 151.5t134.5 167.5q6 4 9 7t11 3h2q4 0 32 -15t42 -30q4 -6 2 -15t-6 -13q-66 -74 -125 -141.5t-119 -141.5q25 -29 54.5 -64.5t60.5 -73.5t59.5 -73t50.5 -61q4 -4 3 -15.5t-5 -15.5l-51 -39q-12 -10 -18 -8t-17 10q-18 25 -53 69 t-71.5 93t-69.5 95t-51 73zM428 375.5q2 13.5 25 38.5q66 78 137.5 160.5t142.5 166.5q10 8 21 9h2q10 0 32.5 -19.5t28.5 -32.5q6 -27 2 -30q-74 -74 -146.5 -148t-131.5 -141q72 -82 138 -155.5t107 -121.5q2 -4 3.5 -12t-3.5 -14q-4 -4 -14 -13.5t-22.5 -17.5t-22.5 -14 t-16 -6q-74 86 -143.5 165.5t-137.5 165.5q-4 6 -2 19.5z" />
<glyph unicode="&#xac;" horiz-adv-x="1343" d="M163 705q3 8 11 8l858 -2q47 0 76 -3t29 -22l6 -602q0 -23 -17 -23l-102 -6l2 484q0 47 -25.5 57t-74.5 10l-727 -4q-16 0 -21.5 5t-9.5 26l-4 41q-4 23 -1 31z" />
<glyph unicode="&#xad;" horiz-adv-x="667" d="M102 340v2q0 29 11.5 51.5t31.5 32.5q16 10 69.5 30.5t115 42t119 40t79.5 26.5q10 4 17.5 1t29.5 -17q6 -2 3 -27q-12 -37 -19.5 -58.5t-13.5 -31.5t-11.5 -14t-11.5 -6q-12 -4 -64 -15.5t-118 -26t-129.5 -29.5t-93.5 -24q-14 -2 -15 23z" />
<glyph unicode="&#xae;" horiz-adv-x="665" d="M63 1096q0 57 21.5 107t59.5 88t88.5 59.5t107.5 21.5h2q55 0 104.5 -20.5t86 -57.5t58 -87t21.5 -111q0 -59 -21.5 -109.5t-59 -87.5t-88 -58.5t-105.5 -21.5q-57 0 -107.5 21.5t-87.5 58.5t-58.5 87t-21.5 110zM117 1096q0 -100 63.5 -164t157.5 -64q98 0 159.5 63.5 t61.5 164.5q0 100 -62.5 163.5t-160.5 63.5h-2q-92 0 -154.5 -63.5t-62.5 -163.5zM213 1227q0 6 4 6q35 0 51.5 1t30.5 3q12 2 19.5 2h15.5q41 0 73.5 -14.5t32.5 -59.5q0 -27 -15 -42t-30 -23q14 -35 37 -70t51 -41q2 -2 2 -12t-4 -10h-27.5t-27.5 4q-35 10 -52.5 35.5 t-31.5 54.5q-6 14 -16.5 17t-26.5 3v-59q4 -8 7 -11t26 -7q8 -2 4 -13l-4 -14h-56h-47h-10l-2 10q-2 14 0 17q27 4 29 22q2 31 2 80t-2 78q0 10 -4 14t-21 8q-6 0 -6 6zM299 1110q23 -2 41 1t25 11q10 10 12 18.5t2 18.5v2q0 18 -13.5 34.5t-41.5 14.5q-10 0 -15 -2 q-6 -6 -6 -8q0 -10 -2 -23.5t-2 -29.5v-37z" />
<glyph unicode="&#xaf;" horiz-adv-x="851" d="M205 1122q0 18 14 19h424q4 -10 5 -43t1 -56q0 -14 -7 -17t-26 -3l-372 -2q-16 0 -23.5 7t-9.5 34z" />
<glyph unicode="&#xb0;" horiz-adv-x="622" d="M70 1061q0 92 47 158q14 18 38.5 38.5t54.5 36t60.5 25.5t59.5 10h4q94 0 155.5 -66.5t61.5 -166.5q0 -78 -31 -129.5t-74 -81.5q-39 -27 -83 -40.5t-66 -13.5q-98 0 -162.5 63.5t-64.5 166.5zM172 1102q0 -35 11.5 -68t33 -58.5t51 -40.5t64.5 -15q59 0 88 47t29 102 q0 33 -11.5 64.5t-31 56t-48 40t-61.5 15.5h-2q-59 0 -91 -42t-32 -101z" />
<glyph unicode="&#xb1;" horiz-adv-x="1343" d="M176 -78l4 90q0 12 5 15.5t16 3.5h968q4 -4 1 -37t-13 -74zM180 670q0 14 23 14h420l-2 410q0 27 12 26h86q16 0 18 -4t2 -26l-4 -406h412q12 0 15 -4t5 -21l2 -79h-168l-266 -2q2 -106 2 -218v-225q0 -4 -20.5 -4t-40.5 4l-29 4q-16 4 -21 11.5t-5 21.5l2 406h-435 q-4 29 -6 50t-2 42z" />
<glyph unicode="&#xb2;" horiz-adv-x="675" d="M80 784q16 43 27.5 61.5t21.5 26.5q47 31 101.5 73t100.5 90t76.5 102.5t30.5 109.5t-29.5 94t-97.5 39q-47 0 -78.5 -22.5t-54.5 -61.5q-4 -10 -13 -13t-32 -3q-14 0 -17 2t-1 8q10 31 29.5 75t35.5 56q10 8 26.5 20.5t39 25t50.5 20.5t58 8h2q92 0 154.5 -58.5 t62.5 -154.5q0 -53 -16 -95t-51 -83q-10 -12 -39 -40t-64.5 -58.5t-69.5 -60.5t-52 -44q-8 -6 -3 -11t15 -5q8 0 40 2t67.5 4t68.5 4t45 2q23 2 36 17.5t32 56.5q4 10 10 6q6 -2 23.5 -19.5t15.5 -25.5q-4 -6 -17.5 -33t-29 -56.5t-28.5 -53t-17 -23.5q-78 2 -196 5t-251 3 q-6 0 -11 3t-1 7z" />
<glyph unicode="&#xb3;" horiz-adv-x="675" d="M96 741q4 6 13.5 16.5t13.5 14.5q43 0 98 8t104.5 29.5t82 58.5t32.5 97q0 51 -43 76.5t-100 25.5q-37 0 -82 -10q-12 -4 -12 8q0 27 21.5 49.5t43.5 30.5q25 12 51.5 26.5t48 32t36 38t14.5 46.5q0 41 -29 68.5t-78 27.5q-59 0 -94 -34.5t-63 -77.5q-8 4 -18.5 13 t-10.5 28q0 6 3 18t9 23q31 53 89.5 97t129.5 44h2q78 0 130.5 -49t52.5 -127q0 -27 -10.5 -47.5t-29 -39t-42 -36.5t-49.5 -41q82 -23 133 -63.5t51 -114.5q0 -76 -49 -134.5t-113 -88.5q-57 -29 -121.5 -40.5t-124.5 -11.5q-16 0 -41.5 8.5t-35.5 14.5q-12 8 -13 16z" />
<glyph unicode="&#xb4;" horiz-adv-x="851" d="M349.5 990.5q0.5 6.5 4.5 15.5q12 20 39 54t55.5 67.5t54 63.5t38.5 40q20 18 45 18h2q23 0 52.5 -18.5t51.5 -38.5q6 -6 5 -14.5t-15 -16.5q-12 -6 -55 -37.5t-90.5 -68.5t-88 -71t-53.5 -42q-6 -4 -10 -2t-20 21q-16 23 -15.5 29.5z" />
<glyph unicode="&#xb5;" horiz-adv-x="1007" d="M100 -539q14 190 27.5 366.5t15.5 375.5q0 43 1 120.5t2 164.5t0 167t-5 125q14 6 35 12.5t43.5 10.5t44 7t35.5 3q16 0 16 -20q0 -23 -3 -58t-7 -92q-4 -35 -6 -83l-4 -96t-3 -89t-1 -64q0 -123 55 -168q23 -18 61.5 -25t73.5 -7q20 0 46 8t51.5 24.5t47 38t36.5 49.5 q16 33 21 78t5 115v78v64.5t-1 68.5t-3 90q0 31 2 53.5t12 24.5h31t46.5 -2t43 -4t23.5 -4q2 -33 1 -84.5t-3 -104.5t-4 -103t-2 -83v-156q0 -27 1 -54.5t6 -51t16 -39t32 -15.5q18 0 39.5 17.5t52.5 64.5q10 -2 21.5 -16t9.5 -27q-4 -20 -20.5 -50t-42 -57.5t-61.5 -47 t-75 -19.5q-59 0 -91 53.5t-40 137.5q-18 -20 -44 -47t-53.5 -51.5t-52 -44t-40.5 -27.5q-18 -10 -40 -14.5t-34 -4.5h-2q-61 0 -94 23.5t-62 70.5q-2 -96 -2 -174.5v-146.5v-129.5v-118.5q-12 -10 -32.5 -19.5t-43 -18.5t-41 -14t-26.5 -5q-6 0 -11.5 7t-3.5 17z" />
<glyph unicode="&#xb6;" horiz-adv-x="1269" d="M86 610v2q0 154 53.5 277t141.5 215q45 47 109.5 90t149.5 76t191.5 52t235.5 19q23 0 51.5 -1t55 -2t49 -4t34.5 -5q29 -8 8 -45q-16 -23 -33.5 -26t-39.5 -3h-82.5t-96.5 2q-37 0 -39 -38q-2 -23 -4 -56t-4 -85t-4 -132t-3 -195.5t-2 -275.5t-1 -373q0 -59 5 -82.5 t20 -27.5q23 -4 79 -6t127 0q35 2 52.5 -2t17.5 -21q0 -16 -24.5 -28.5t-59.5 -16.5q-41 -6 -67.5 -7t-61.5 -1q-80 0 -163 8t-161.5 27.5t-150.5 51.5t-133 79q-117 88 -183.5 225t-66.5 309zM524 627q0 -219 24.5 -359.5t67.5 -189.5q25 -29 61 -47.5t60 -22.5 q14 -4 20.5 6.5t6.5 24.5q0 18 1 96t2 185.5t1 232.5t1 239.5t0 206t-1 131.5q-2 74 -6 93.5t-19 19.5q-16 0 -36.5 -5t-42.5 -19q-27 -14 -50.5 -46t-38.5 -75q-16 -45 -33.5 -159t-17.5 -310v-2z" />
<glyph unicode="&#xb7;" horiz-adv-x="450" d="M66 410q0 10 14 21t29 15q43 8 57 21.5t31 60.5q10 31 55 31h2q4 0 9 -9t16 -42q4 -16 8 -27.5t12 -19.5t22.5 -16.5t38.5 -16.5q10 -4 17.5 -12t7.5 -31q0 -14 -12 -20q-29 -6 -45.5 -11.5t-27.5 -17.5t-18.5 -34.5t-17.5 -61.5q-4 -10 -28 -11q-25 0 -37.5 19.5 t-32.5 73.5q-8 16 -21.5 26t-48.5 23q-16 6 -23 18t-7 21z" />
<glyph unicode="&#xb8;" horiz-adv-x="851" d="M287 -430q27 14 54.5 33.5t51 39t37.5 38t14 32.5q0 33 -24.5 47.5t-87.5 30.5q-18 4 -23.5 7t-5.5 12q0 6 2 13t12 17q4 4 21.5 25.5t39 49.5t43 56.5t36.5 46.5h82l-88 -129q55 -18 91 -48.5t36 -84.5q0 -45 -32 -85t-73 -70.5t-84 -51t-63 -26.5z" />
<glyph unicode="&#xb9;" horiz-adv-x="675" d="M143 1374q33 12 76 30.5t83 36t69.5 32t40.5 20.5q8 4 18 -6t8 -19q0 -10 -2 -37.5t-4 -69.5t-4 -94.5t-2 -107.5q0 -123 5 -196.5t9 -92.5q2 -16 6.5 -20t10.5 -4h100q0 -4 -1 -15.5t-3 -23.5t-5 -21.5t-7 -9.5q-98 0 -188.5 -2t-182.5 -18q-8 0 -14 10t-2 14 q8 12 16 20.5t18.5 13.5t27.5 9t46 11q8 0 15.5 5t10.5 29.5t5 76.5t2 149v106.5t-1 65t-2 37t-1 22.5q-4 12 -8 16.5t-17 1.5q-10 -2 -25.5 -4t-31.5 -5t-30.5 -5t-22.5 -2q-31 39 -13 47z" />
<glyph unicode="&#xba;" horiz-adv-x="722" d="M66 821q0 86 40.5 152.5t108.5 101.5q45 23 88 36t84 13h4q39 0 86 -17t87 -53t66.5 -90.5t26.5 -125.5q0 -53 -15 -93t-34.5 -69t-40 -46.5t-30.5 -23.5q-18 -10 -42 -21.5t-50.5 -19.5t-51 -13t-45.5 -5q-47 0 -114.5 25.5t-114.5 84.5q-23 31 -38 78t-15 86zM213 862 q0 -59 18.5 -108t47.5 -80q31 -31 61.5 -42t52.5 -11q31 0 53.5 15t39 39.5t24.5 56.5t8 63q0 51 -17.5 113.5t-62.5 101.5q-18 16 -49 29.5t-59 13.5h-2q-31 0 -53.5 -18.5t-36 -47.5t-19.5 -61.5t-6 -63.5z" />
<glyph unicode="&#xbb;" horiz-adv-x="927" d="M111 104q74 78 146.5 151t129.5 140q-70 82 -136.5 156t-107.5 121q-2 4 -3 13t3 15q4 4 14.5 12.5t21.5 16.5t22.5 14.5t15.5 6.5q74 -86 144.5 -166t136.5 -166q4 -6 3 -19.5t-24 -38.5q-68 -78 -139.5 -160.5t-144.5 -164.5q-8 -10 -19 -10h-2q-4 0 -13 6t-18.5 13 t-17.5 16.5t-10 15.5q-6 25 -2 28zM461 91q2 9 6 13q66 74 125 142.5t119 142.5q-25 27 -55.5 63.5t-61.5 74.5t-59.5 74t-51.5 61q-4 4 -3 15t5 15l52 37q12 10 19 9t17 -11q18 -25 52 -69t71 -93t70 -95t51 -73q12 -16 -6 -35q-53 -72 -117.5 -151.5t-136.5 -169.5l-7 -7 t-11 -3h-2q-2 0 -11.5 4t-21.5 10t-23.5 14.5t-17.5 16.5q-4 6 -2 15z" />
<glyph unicode="&#xbc;" horiz-adv-x="1609" d="M158 1169q33 14 75.5 33t82.5 36t71 30.5t41 19.5q6 4 16.5 -6t8.5 -16q-2 -20 -7.5 -109.5t-5.5 -202.5q0 -123 5.5 -196.5t9.5 -91.5q2 -16 6 -20.5t12 -4.5h98q0 -4 -1 -15.5t-3 -23.5t-6 -21.5t-6 -9.5q-98 0 -188.5 -2t-182.5 -18q-8 0 -14 10t-2 14q8 12 15 20.5 t18.5 13.5t28 9.5t44.5 8.5q10 2 17.5 7t11.5 29.5t5 77t1 148.5v106.5t-1 65t-2 37t-1 22.5q-2 20 -24 19q-18 -4 -56.5 -10.5t-56.5 -6.5q-29 41 -10 47zM338 -27q217 350 425 676t406 649q10 16 15.5 20.5t15.5 4.5h2q2 0 11.5 -5t19.5 -12.5t20.5 -16.5t14.5 -15 q-92 -139 -205 -312.5t-226.5 -355.5t-219 -357t-183.5 -317q-10 -16 -22 -16q-4 0 -16.5 7t-25 16.5t-21.5 18.5t-11 15zM817 203q0 6 2 29.5t6 31.5q12 14 41 47t66 74t77 85t74.5 82t61 65.5t35.5 33.5q10 10 26.5 22.5t33.5 24t33.5 19.5t26.5 8q12 0 14.5 -28.5 t0.5 -94.5q0 -84 -1 -167t-3 -148q29 0 47 1t30.5 4t22.5 10t25 20q2 0 8 -2.5t14 -5.5t13.5 -7t5.5 -8q-6 -16 -14.5 -35.5t-19.5 -37t-24.5 -30t-29.5 -12.5h-80q0 -12 1 -34.5t2 -51t2 -61.5t1 -64q-4 -4 -22.5 -9t-41 -10t-42 -9t-23.5 -4t-12.5 10t-6.5 20l9 217z M950 287h236l14 293q-37 -39 -75 -81t-71.5 -81t-60 -73t-43.5 -58z" />
<glyph unicode="&#xbd;" horiz-adv-x="1609" d="M158 1169q33 14 75.5 33t82.5 36t71 30.5t41 19.5q6 4 16.5 -6t8.5 -16q-2 -20 -7.5 -109.5t-5.5 -202.5q0 -123 5.5 -196.5t9.5 -91.5q2 -16 6 -20.5t10 -4.5h100q0 -4 -1 -15.5t-3 -23.5t-5 -21.5t-7 -9.5q-98 0 -188.5 -2t-182.5 -18q-8 0 -14 10t-2 14q8 12 15 20.5 t18.5 13.5t28 9.5t44.5 8.5q10 2 17.5 7t11.5 29.5t5 77t1 148.5v106.5t-1 65t-2 37t-1 22.5q-2 20 -24 19q-10 -2 -24.5 -4t-31 -5.5t-32 -5.5t-23.5 -2q-31 39 -12 47zM326 -27q217 350 422.5 676t406.5 649q10 16 16.5 20.5t14.5 4.5h2q6 0 31.5 -17.5t35.5 -31.5 q-92 -139 -205.5 -312.5t-228 -355.5t-220 -357t-183.5 -317q-4 -10 -10.5 -13t-10.5 -3t-15 7t-23.5 16.5t-21.5 18.5t-11 15zM913 12q16 41 27.5 59.5t22.5 28.5q47 31 101 72t101 89t78 101.5t31 108.5t-31 95t-98 40q-47 0 -78 -22.5t-53 -63.5q-8 -14 -45 -14 q-16 0 -19.5 2t-1.5 6q10 33 29.5 76t36.5 55q20 18 65 47t111 29h2q92 0 153.5 -59.5t61.5 -153.5q0 -53 -17.5 -96t-52.5 -84q-8 -10 -36.5 -38t-64.5 -58.5t-69.5 -60.5t-52.5 -44q-8 -6 -3 -10t15 -4q8 0 40 1t68 3t68.5 4t45.5 2q23 2 36 17.5t29 54.5q4 16 12 8 q6 -2 24.5 -19.5t16.5 -23.5q-4 -6 -18 -33t-29.5 -57.5t-30 -54t-16.5 -23.5q-78 2 -196.5 5t-249.5 3q-16 0 -13 12z" />
<glyph unicode="&#xbe;" horiz-adv-x="1609" d="M137 537q4 6 13.5 16t15.5 14q43 0 97 8.5t102.5 30t82 58t33.5 96.5q0 51 -43 76.5t-102 25.5q-39 0 -80 -10q-12 -4 -12 8q0 27 21.5 49.5t43.5 30.5q25 12 51.5 26.5t48 32t36 38t14.5 46.5q0 41 -29 69t-78 28q-59 0 -94 -35t-63 -78q-8 4 -18.5 13.5t-10.5 27.5 q0 6 3 18.5t9 22.5q31 53 89.5 97t129.5 44h2q78 0 131.5 -49t53.5 -127q0 -27 -10.5 -47t-29 -38.5t-43 -37t-50.5 -41.5q82 -23 133 -63.5t51 -114.5q0 -76 -49 -134t-113 -89q-55 -29 -119.5 -40t-126.5 -11q-14 0 -40.5 8t-36.5 14q-12 8 -13 17zM344 -27 q219 350 426 676t406 649q10 16 15 20.5t15 4.5h2q6 0 32 -17.5t36 -31.5q-92 -139 -206 -312.5t-228.5 -355.5t-220 -357t-181.5 -317q-10 -16 -20 -16q-6 0 -17.5 7t-23.5 16.5t-22.5 18.5t-12.5 15zM815 203q0 6 2 29.5t6 31.5q12 14 41 47t66 74t77 85t74.5 82t61 65.5 t35.5 35.5q10 8 26.5 21.5t33.5 24t33.5 18.5t26.5 8q12 0 14.5 -28.5t0.5 -94.5q0 -84 -1 -167t-3 -148q31 0 49 1t30.5 4t22.5 10t23 20q2 0 8 -2.5t14 -5.5t13.5 -7t5.5 -8q-6 -16 -14.5 -35.5t-19.5 -37t-24.5 -30t-30.5 -12.5h-79q0 -12 1 -34.5t2 -51t2 -61.5t1 -64 q-4 -4 -22.5 -9t-41 -10t-42 -9t-23.5 -4t-12.5 10t-6.5 20l9 217zM948 287h236l14 291q-37 -39 -75 -80t-71.5 -80t-60 -73t-43.5 -58z" />
<glyph unicode="&#xbf;" horiz-adv-x="552" d="M66 88q0 55 10 99t35 92q29 57 70.5 73.5t72.5 18.5q20 2 51 3t41 1q33 0 43 15.5t8 74.5q8 4 19.5 9t19.5 9q14 6 17 -4q2 -6 7 -24.5t11 -44t10 -53t4 -48.5q0 -8 -9 -23.5t-20.5 -29.5t-21.5 -25.5t-14 -11.5q-16 0 -38 -1t-42 -1q-37 0 -73 -3t-63.5 -12t-45 -24.5 t-17.5 -42.5q0 -53 46 -76.5t147 -23.5q18 0 34.5 -25.5t16.5 -42.5q0 -43 -35 -66.5t-76 -23.5h-2q-47 0 -86 21.5t-65.5 53.5t-40.5 68.5t-14 67.5zM213 756q27 10 43 17t26.5 18.5t17.5 29t17 47.5q59 -6 70 -30q10 -29 29.5 -45.5t60.5 -32.5q2 0 4 -9.5t4 -20.5 t2 -20.5t-2 -11.5q-47 -14 -68.5 -29.5t-31.5 -47.5q-4 -12 -20.5 -19.5t-32.5 -7.5h-2q-10 0 -19 22q-10 29 -27.5 47.5t-52.5 28.5q-10 4 -13 24.5t-5 39.5z" />
<glyph unicode="&#xc0;" horiz-adv-x="1456" d="M61 63q33 8 55.5 22.5t39 35t33 49.5t36.5 68q14 29 42 92t64 147t77 182.5t80.5 196.5t77.5 190.5t69 161.5q16 41 26.5 70t20.5 53q2 12 12 17q6 4 26.5 11t35.5 7h2q10 0 15 -7t9 -24q23 -74 43.5 -133t41 -115.5t43 -115t48.5 -129.5q25 -68 65 -167.5t80 -194.5 t71.5 -171t42.5 -100q16 -37 31.5 -62.5t35 -43t49 -30t72.5 -20.5q2 0 1 -9t-4 -19.5t-7 -20.5t-6 -12q-63 0 -105.5 1t-72 1h-53h-48.5q-49 0 -88 -4t-53 -2q-12 0 -15 6q-4 10 -8 29.5t-2 23.5q39 10 62.5 19.5t34 22.5t8.5 31.5t-11 49.5q-4 14 -16 50t-28.5 77t-32 81 t-25.5 64q-4 10 -13.5 20.5t-21.5 10.5q-111 0 -230.5 -2t-211.5 -6q-18 -2 -28.5 -9t-22.5 -34q-8 -16 -22.5 -53t-29 -79t-26 -82t-11.5 -61q0 -16 4.5 -28.5t16.5 -22.5t35.5 -19t62.5 -22q2 -10 -4 -31.5t-12 -25.5q-76 2 -151.5 2h-108.5q-27 0 -48.5 -1t-27.5 1 q-12 0 -14 6q-6 10 -10.5 31.5t-0.5 25.5zM455 1622q6 10 20 24.5t30.5 27t32 21.5t23.5 9h2q10 0 49 -33t84 -75t83 -79.5t48 -48.5q2 -4 -5 -10t-16 -13t-20.5 -14.5t-17.5 -11.5q-25 12 -67 33t-87 45.5t-88 47t-67 38.5q-18 10 -4 39zM469 582q-2 -6 7 -14.5t30 -8.5h2 q10 0 44 -2t103 -2q72 0 120 1t89 3q10 0 15.5 10.5t1.5 18.5q-31 82 -54.5 147.5t-44 124t-41 113.5t-45.5 117q-4 6 -12 4t-12 -13q-37 -84 -61.5 -143t-46 -112.5t-43 -110t-52.5 -133.5z" />
<glyph unicode="&#xc1;" horiz-adv-x="1456" d="M61 63q33 8 55.5 22.5t39 35t33 49.5t36.5 68q14 29 42 92t64 147t77 182.5t80.5 196.5t77.5 190.5t69 161.5q16 41 26.5 70t20.5 53q2 12 12 17q6 4 26.5 11t35.5 7h2q10 0 15 -7t9 -24q23 -74 43.5 -133t41 -115.5t43 -115t48.5 -129.5q25 -68 65 -167.5t80 -194.5 t71.5 -171t42.5 -100q16 -37 31.5 -62.5t35 -43t49 -30t72.5 -20.5q2 0 1 -9t-4 -19.5t-7 -20.5t-6 -12q-63 0 -105.5 1t-72 1h-53h-48.5q-49 0 -88 -4t-53 -2q-12 0 -15 6q-4 10 -8 29.5t-2 23.5q39 10 62.5 19.5t34 22.5t8.5 31.5t-11 49.5q-4 14 -16 50t-28.5 77t-32 81 t-25.5 64q-4 10 -13.5 20.5t-21.5 10.5q-111 0 -230.5 -2t-211.5 -6q-18 -2 -28.5 -9t-22.5 -34q-8 -16 -22.5 -53t-29 -79t-26 -82t-11.5 -61q0 -16 4.5 -28.5t16.5 -22.5t35.5 -19t62.5 -22q2 -10 -4 -31.5t-12 -25.5q-76 2 -151.5 2h-108.5q-27 0 -48.5 -1t-27.5 1 q-12 0 -14 6q-6 10 -10.5 31.5t-0.5 25.5zM469 582q-2 -6 7 -14.5t30 -8.5h2q10 0 44 -2t103 -2q72 0 120 1t89 3q10 0 15.5 10.5t1.5 18.5q-31 82 -54.5 147.5t-44 124t-41 113.5t-45.5 117q-4 6 -12 4t-12 -13q-37 -84 -61.5 -143t-46 -112.5t-43 -110t-52.5 -133.5z M629 1481q37 31 80 63.5t79.5 59t64.5 46t34 25.5q10 4 20.5 7.5t22.5 3.5h2q23 0 56.5 -29t51.5 -53q4 -4 4 -11.5t-6 -11.5q-18 -10 -71.5 -33.5t-113.5 -51.5t-114.5 -51.5t-72.5 -29.5q-4 2 -10.5 12.5t-13.5 20.5t-11 19.5t-2 13.5z" />
<glyph unicode="&#xc2;" horiz-adv-x="1456" d="M61 63q33 8 55.5 22.5t39 35t33 49.5t36.5 68q14 29 42 92t64 147t77 182.5t80.5 196.5t77.5 190.5t69 161.5q16 41 26.5 70t20.5 53q2 12 12 17q6 4 26.5 11t35.5 7h2q10 0 15 -7t9 -24q23 -74 43.5 -133t41 -115.5t43 -115t48.5 -129.5q25 -68 65 -167.5t80 -194.5 t71.5 -171t42.5 -100q16 -37 31.5 -62.5t35 -43t49 -30t72.5 -20.5q2 0 1 -9t-4 -19.5t-7 -20.5t-6 -12q-63 0 -105.5 1t-72 1h-53h-48.5q-49 0 -88 -4t-53 -2q-12 0 -15 6q-4 10 -8 29.5t-2 23.5q39 10 62.5 19.5t34 22.5t8.5 31.5t-11 49.5q-4 14 -16 50t-28.5 77t-32 81 t-25.5 64q-4 10 -13.5 20.5t-21.5 10.5q-111 0 -230.5 -2t-211.5 -6q-18 -2 -28.5 -9t-22.5 -34q-8 -16 -22.5 -53t-29 -79t-26 -82t-11.5 -61q0 -16 4.5 -28.5t16.5 -22.5t35.5 -19t62.5 -22q2 -10 -4 -31.5t-12 -25.5q-76 2 -151.5 2h-108.5q-27 0 -48.5 -1t-27.5 1 q-12 0 -14 6q-6 10 -10.5 31.5t-0.5 25.5zM458 1473.5q1 5.5 5 9.5q8 8 37.5 32.5t63.5 53t66 55.5t46 37q23 16 43 29.5t37 13.5h2q6 0 27.5 -18.5t54 -49t73.5 -70.5t84 -83q10 -8 -10 -29q-14 -8 -36.5 -16t-32.5 -13q-14 10 -39 30t-51.5 41.5t-50 40.5t-38.5 30 q-10 -6 -38.5 -27.5t-59.5 -44t-56.5 -40t-31.5 -17.5q-16 0 -43 7t-49 21q-4 2 -3 7.5zM469 582q-2 -6 7 -14.5t30 -8.5h2q10 0 44 -2t103 -2q72 0 120 1t89 3q10 0 15.5 10.5t1.5 18.5q-31 82 -54.5 147.5t-44 124t-41 113.5t-45.5 117q-4 6 -12 4t-12 -13 q-37 -84 -61.5 -143t-46 -112.5t-43 -110t-52.5 -133.5z" />
<glyph unicode="&#xc3;" horiz-adv-x="1456" d="M61 63q33 8 55.5 22.5t39 35t33 49.5t36.5 68q14 29 42 92t64 147t77 182.5t80.5 196.5t77.5 190.5t69 161.5q16 41 26.5 70t20.5 53q2 12 12 17q6 4 26.5 11t35.5 7h2q10 0 15 -7t9 -24q23 -74 43.5 -133t41 -115.5t43 -115t48.5 -129.5q25 -68 65 -167.5t80 -194.5 t71.5 -171t42.5 -100q16 -37 31.5 -62.5t35 -43t49 -30t72.5 -20.5q2 0 1 -9t-4 -19.5t-7 -20.5t-6 -12q-63 0 -105.5 1t-72 1h-53h-48.5q-49 0 -88 -4t-53 -2q-12 0 -15 6q-4 10 -8 29.5t-2 23.5q39 10 62.5 19.5t34 22.5t8.5 31.5t-11 49.5q-4 14 -16 50t-28.5 77t-32 81 t-25.5 64q-4 10 -13.5 20.5t-21.5 10.5q-111 0 -230.5 -2t-211.5 -6q-18 -2 -28.5 -9t-22.5 -34q-8 -16 -22.5 -53t-29 -79t-26 -82t-11.5 -61q0 -16 4.5 -28.5t16.5 -22.5t35.5 -19t62.5 -22q2 -10 -4 -31.5t-12 -25.5q-76 2 -151.5 2h-108.5q-27 0 -48.5 -1t-27.5 1 q-12 0 -14 6q-6 10 -10.5 31.5t-0.5 25.5zM469 582q-2 -6 7 -14.5t30 -8.5h2q10 0 44 -2t103 -2q72 0 120 1t89 3q10 0 15.5 10.5t1.5 18.5q-31 82 -54.5 147.5t-44 124t-41 113.5t-45.5 117q-4 6 -12 4t-12 -13q-37 -84 -61.5 -143t-46 -112.5t-43 -110t-52.5 -133.5z M481.5 1425q-2.5 2 3.5 17q12 33 26.5 66.5t35 61t50.5 46t73 18.5h2q20 0 40.5 -5t41.5 -11q23 -8 43 -13.5t39 -5.5q29 0 55.5 24t58.5 60q2 -2 10.5 -7t17.5 -12t14 -13t1 -13q-6 -10 -20.5 -29.5t-33.5 -42t-40.5 -43t-38.5 -28.5q-20 -10 -48 -14t-62 6q-23 6 -60 15 t-61 9q-16 0 -29.5 -10t-24 -24.5t-17.5 -28.5t-9 -23q-10 -2 -49 -2q-16 0 -18.5 2z" />
<glyph unicode="&#xc4;" horiz-adv-x="1456" d="M61 63q33 8 55.5 22.5t39 35t33 49.5t36.5 68q14 29 42 92t64 147t77 182.5t80.5 196.5t77.5 190.5t69 161.5q16 41 26.5 70t20.5 53q2 12 12 17q6 4 26.5 11t35.5 7h2q10 0 15 -7t9 -24q23 -74 43.5 -133t41 -115.5t43 -115t48.5 -129.5q25 -68 65 -167.5t80 -194.5 t71.5 -171t42.5 -100q16 -37 31.5 -62.5t35 -43t49 -30t72.5 -20.5q2 0 1 -9t-4 -19.5t-7 -20.5t-6 -12q-63 0 -105.5 1t-72 1h-53h-48.5q-49 0 -88 -4t-53 -2q-12 0 -15 6q-4 10 -8 29.5t-2 23.5q39 10 62.5 19.5t34 22.5t8.5 31.5t-11 49.5q-4 14 -16 50t-28.5 77t-32 81 t-25.5 64q-4 10 -13.5 20.5t-21.5 10.5q-111 0 -230.5 -2t-211.5 -6q-18 -2 -28.5 -9t-22.5 -34q-8 -16 -22.5 -53t-29 -79t-26 -82t-11.5 -61q0 -16 4.5 -28.5t16.5 -22.5t35.5 -19t62.5 -22q2 -10 -4 -31.5t-12 -25.5q-76 2 -151.5 2h-108.5q-27 0 -48.5 -1t-27.5 1 q-12 0 -14 6q-6 10 -10.5 31.5t-0.5 25.5zM417 1569q1 10 7 16q31 20 46 33.5t32 50.5q4 10 39 10h2q20 0 22 -8q20 -31 31.5 -43t42.5 -22q6 0 8 -8.5t2 -19.5t-3 -21.5t-7 -14.5q-33 -16 -44 -32.5t-30 -57.5q-4 -10 -27.5 -10t-27.5 10q-16 29 -33.5 46.5t-46.5 21.5 q-4 0 -7 8t-5 19.5t-1 21.5zM469 582q-2 -6 7 -14.5t30 -8.5h2q10 0 44 -2t103 -2q72 0 120 1t89 3q10 0 15.5 10.5t1.5 18.5q-31 82 -54.5 147.5t-44 124t-41 113.5t-45.5 117q-4 6 -12 4t-12 -13q-37 -84 -61.5 -143t-46 -112.5t-43 -110t-52.5 -133.5zM799 1564.5 q0 10.5 2 18.5t6 10q37 16 50 30.5t30 49.5q2 4 13 6t22 2h2q10 0 19 -1t9 -3q16 -31 29.5 -44t46.5 -27q6 -4 9 -13.5t3 -20.5t-3 -20.5t-9 -11.5q-37 -16 -50 -36.5t-24 -57.5q-2 -4 -11 -5t-20.5 0t-22.5 6t-13 15q-10 27 -25.5 41.5t-52.5 30.5q-4 2 -7 11t-3 19.5z" />
<glyph unicode="&#xc5;" horiz-adv-x="1456" d="M61 63q33 8 55.5 22.5t39 35t33 49.5t36.5 68q14 29 42 92t64 147t77 182.5t80.5 196.5t77.5 190.5t69 161.5q16 41 26.5 70t20.5 53q2 12 12 17q6 4 26.5 11t35.5 7h2q10 0 15 -7t9 -24q23 -74 43.5 -133t41 -115.5t43 -115t48.5 -129.5q25 -68 65 -167.5t80 -194.5 t71.5 -171t42.5 -100q16 -37 31.5 -62.5t35 -43t49 -30t72.5 -20.5q2 0 1 -9t-4 -19.5t-7 -20.5t-6 -12q-63 0 -105.5 1t-72 1h-53h-48.5q-49 0 -88 -4t-53 -2q-12 0 -15 6q-4 10 -8 29.5t-2 23.5q39 10 62.5 19.5t34 22.5t8.5 31.5t-11 49.5q-4 14 -16 50t-28.5 77t-32 81 t-25.5 64q-4 10 -13.5 20.5t-21.5 10.5q-111 0 -230.5 -2t-211.5 -6q-18 -2 -28.5 -9t-22.5 -34q-8 -16 -22.5 -53t-29 -79t-26 -82t-11.5 -61q0 -16 4.5 -28.5t16.5 -22.5t35.5 -19t62.5 -22q2 -10 -4 -31.5t-12 -25.5q-76 2 -151.5 2h-108.5q-27 0 -48.5 -1t-27.5 1 q-12 0 -14 6q-6 10 -10.5 31.5t-0.5 25.5zM469 582q-2 -6 7 -14.5t30 -8.5h2q10 0 44 -2t103 -2q72 0 120 1t89 3q10 0 15.5 10.5t1.5 18.5q-31 82 -54.5 147.5t-44 124t-41 113.5t-45.5 117q-4 6 -12 4t-12 -13q-37 -84 -61.5 -143t-46 -112.5t-43 -110t-52.5 -133.5z M547 1569q0 66 32.5 108.5t94.5 71.5q27 10 41 15t26 5h2q72 0 120 -49t48 -121q0 -61 -25.5 -95t-74.5 -60q-35 -23 -56.5 -29t-39.5 -6q-66 0 -117 44t-51 116zM637 1604q0 -61 29.5 -88t76.5 -29q41 -2 60.5 27.5t19.5 66.5q0 53 -30.5 82t-67.5 29h-2q-33 0 -59.5 -26 t-26.5 -62z" />
<glyph unicode="&#xc6;" horiz-adv-x="1968" d="M45 74q35 4 58.5 11t44 24.5t43 47t53.5 79.5q72 117 148.5 241.5t154.5 251.5t154.5 254t148.5 244q14 31 -10 30q-86 2 -142 7q-16 2 -21 7t-5 9l6 55q88 -2 166 -4t180 -2h360q92 0 185.5 6t187.5 8q39 0 51 -10q14 -10 13 -35q-16 -96 -18.5 -163.5t-2.5 -108.5 q0 -14 -28 -10q-20 2 -25.5 5t-7.5 13q-10 57 -20.5 98.5t-30 69t-56.5 40.5t-98 13h-141q-92 0 -140.5 -2t-64.5 -6q-20 -2 -25.5 -17.5t-5.5 -62.5q0 -104 -1 -214.5t1 -245.5q0 -16 2 -24.5t19 -8.5h133q70 0 119 1t71 3q51 2 83 7t50.5 18.5t27.5 40t19 71.5q4 6 15.5 8 t23.5 6q18 0 23.5 -3t5.5 -13q-8 -55 -12 -101t-4 -91.5t4 -92.5t10 -104q-14 -4 -27.5 -6t-21.5 -2q-14 0 -21 18q-4 16 -9 39t-9 41q-10 39 -35 53.5t-86 18.5q-35 4 -87 4h-130t-105.5 -1t-41.5 -3q-8 -2 -15.5 -66.5t-7.5 -193.5q0 -49 1 -83t3 -56.5t7 -38t14 -29.5 q6 -10 20 -18.5t43 -13.5t75 -8t120 -3q117 0 188.5 10t115.5 37t68.5 74t46.5 118h20.5t29.5 -2q6 -4 6 -18q-2 -37 -8.5 -77t-14.5 -78t-18 -71.5t-19 -56.5q-14 -16 -26 -16h-97q-49 2 -148 3t-228 1q-131 0 -260 -3t-236 -7q-4 10 -4 28.5t2 28.5q4 10 10 10 q35 6 55.5 12.5t30.5 15.5t14.5 20.5t6.5 27.5q2 39 4 92.5t4 110.5t2 113.5v105.5q0 23 -3 26t-20 5q-82 6 -180 5t-168 -1q-16 0 -31.5 -9.5t-29.5 -33.5q-63 -106 -103.5 -181t-68.5 -139q-18 -41 -23.5 -68.5t6 -47t43 -29.5t88.5 -14q2 -2 4.5 -13.5t2.5 -24 t-4.5 -22.5t-14.5 -10q-43 0 -88 1t-86 1h-73.5h-47.5q-29 0 -64.5 -1t-45.5 -1q-4 0 -10.5 2t-8.5 6q-4 8 -7 35t-1 33zM641 707q-6 -10 1 -21.5t24 -11.5h295q14 0 15 9t3 38l12 508q0 23 -12 21.5t-18 -13.5q-72 -111 -152 -241t-168 -289z" />
<glyph unicode="&#xc7;" horiz-adv-x="1384" d="M86 653q0 109 36 238t140 244q78 86 180.5 129t192.5 67q33 8 71.5 14.5t77.5 11.5t77 7t71 2q70 0 141.5 -12.5t108.5 -28.5q20 -6 35.5 -2t48.5 18q4 2 24 -4q16 -6 20.5 -9t2.5 -7q-31 -63 -37 -144t2 -167q0 -4 -10.5 -6.5t-20.5 -4.5q-23 -4 -28 -3t-9 10 q-6 27 -16 63.5t-20 67.5q-10 29 -22.5 46t-41.5 36q-27 16 -99.5 42.5t-176.5 26.5q-106 0 -208 -44t-186 -142q-59 -72 -100 -187.5t-41 -269.5q0 -84 26.5 -187.5t93 -194.5t179.5 -152.5t285 -61.5q111 0 179 35t114 80q41 41 62.5 79t33.5 68q4 16 18 4q29 -23 27 -43 q-8 -35 -20.5 -72.5t-27 -71.5t-27.5 -62.5t-23 -42.5t-17.5 -18.5t-19.5 -4.5q-20 0 -55 -4t-77 -10t-86 -11.5t-83 -7.5l-58 -78q53 -16 88 -47.5t35 -83.5q0 -43 -30.5 -81.5t-70.5 -69.5t-81 -50.5t-59 -25.5l-39 43q27 14 54.5 32.5t49 39t34.5 39t13 30.5 q0 33 -23.5 47.5t-82.5 30.5q-16 4 -21.5 8t-5.5 9q0 6 2 14t10 18q6 10 40 50t63 77q-190 8 -325.5 72.5t-221.5 162t-126 215.5t-40 234z" />
<glyph unicode="&#xc8;" horiz-adv-x="1224" d="M88 1278l4 47q0 10 10 10h72q47 0 109.5 -2t156.5 -4h199q94 0 196.5 5t180.5 7q20 0 30.5 -3t18.5 -7q14 -10 15 -15t-5 -34q-6 -35 -10 -71.5t-5 -72.5t-2 -67t-1 -51q-41 0 -51.5 4t-12.5 14q-10 55 -21 96.5t-30.5 69t-55.5 42t-95 14.5h-142q-92 0 -143 -3.5 t-68 -7.5q-20 -6 -25 -23.5t-5 -51.5q0 -109 1 -215.5t3 -215.5q0 -33 26 -32h131q135 0 213 6q45 2 73 7t43 19.5t24.5 40t19.5 70.5q6 4 31.5 7t34.5 1q-4 -45 -10.5 -107.5t-6.5 -109.5q2 -53 6 -97t9 -89q-25 -6 -48 -6q-10 -2 -18 12q-6 16 -13 38.5t-12 41.5 q-10 41 -33.5 58.5t-84.5 21.5q-35 4 -87.5 4h-129.5q-78 0 -101.5 -1t-34.5 -3q-14 -4 -20 -13q-4 -10 -11 -67.5t-7 -184.5q0 -113 2 -163t18 -74q23 -29 82 -39t186 -10q90 0 158 7t118 31.5t83.5 71.5t58.5 129q6 2 19.5 1t29.5 -3q6 -4 6 -16q-2 -35 -8 -76t-15 -80 t-19.5 -72.5t-20.5 -56.5q-14 -16 -27 -16h-27.5t-68.5 2q-47 2 -146.5 3t-228.5 1q-123 0 -244.5 -5t-244.5 -9q-4 2 -5 25.5t1 35.5q0 8 8 8q35 6 55.5 12.5t31.5 13.5t14 15t3 21q4 23 9.5 118t5.5 252v355q0 102 -2 171.5t-4.5 112.5t-5.5 64.5t-3 26.5q-2 10 -6 16 t-20 10q-16 6 -44 11.5t-65 15.5q-2 2 -2 8zM365 1618q6 10 20 24.5t30.5 26.5t32 21.5t23.5 9.5h2q10 0 49 -33t84 -75t83 -79.5t48 -48.5q2 -4 -5 -10t-16 -13t-20.5 -14.5t-17.5 -11.5q-25 12 -67 32.5t-87 45.5t-88 47.5t-67 38.5q-18 10 -4 39z" />
<glyph unicode="&#xc9;" horiz-adv-x="1224" d="M88 1278l4 47q0 10 10 10h72q47 0 109.5 -2t156.5 -4h199q94 0 196.5 5t180.5 7q20 0 30.5 -3t18.5 -7q14 -10 15 -15t-5 -34q-6 -35 -10 -71.5t-5 -72.5t-2 -67t-1 -51q-41 0 -51.5 4t-12.5 14q-10 55 -21 96.5t-30.5 69t-55.5 42t-95 14.5h-142q-92 0 -143 -3.5 t-68 -7.5q-20 -6 -25 -23.5t-5 -51.5q0 -109 1 -215.5t3 -215.5q0 -33 26 -32h131q135 0 213 6q45 2 73 7t43 19.5t24.5 40t19.5 70.5q6 4 31.5 7t34.5 1q-4 -45 -10.5 -107.5t-6.5 -109.5q2 -53 6 -97t9 -89q-25 -6 -48 -6q-10 -2 -18 12q-6 16 -13 38.5t-12 41.5 q-10 41 -33.5 58.5t-84.5 21.5q-35 4 -87.5 4h-129.5q-78 0 -101.5 -1t-34.5 -3q-14 -4 -20 -13q-4 -10 -11 -67.5t-7 -184.5q0 -113 2 -163t18 -74q23 -29 82 -39t186 -10q90 0 158 7t118 31.5t83.5 71.5t58.5 129q6 2 19.5 1t29.5 -3q6 -4 6 -16q-2 -35 -8 -76t-15 -80 t-19.5 -72.5t-20.5 -56.5q-14 -16 -27 -16h-27.5t-68.5 2q-47 2 -146.5 3t-228.5 1q-123 0 -244.5 -5t-244.5 -9q-4 2 -5 25.5t1 35.5q0 8 8 8q35 6 55.5 12.5t31.5 13.5t14 15t3 21q4 23 9.5 118t5.5 252v355q0 102 -2 171.5t-4.5 112.5t-5.5 64.5t-3 26.5q-2 10 -6 16 t-20 10q-16 6 -44 11.5t-65 15.5q-2 2 -2 8zM516 1477q37 31 80 63.5t80 59t64.5 46t33.5 25.5q10 4 20.5 7t22.5 3h2q23 0 56.5 -28.5t52.5 -53.5q4 -4 4 -11t-6 -11q-18 -10 -71.5 -33.5t-114 -51.5t-115 -51.5t-72.5 -29.5q-4 2 -10 12.5t-13.5 20.5t-11.5 19.5t-2 13.5z " />
<glyph unicode="&#xca;" horiz-adv-x="1224" d="M88 1278l4 47q0 10 10 10h72q47 0 109.5 -2t156.5 -4h199q94 0 196.5 5t180.5 7q20 0 30.5 -3t18.5 -7q14 -10 15 -15t-5 -34q-6 -35 -10 -71.5t-5 -72.5t-2 -67t-1 -51q-41 0 -51.5 4t-12.5 14q-10 55 -21 96.5t-30.5 69t-55.5 42t-95 14.5h-142q-92 0 -143 -3.5 t-68 -7.5q-20 -6 -25 -23.5t-5 -51.5q0 -109 1 -215.5t3 -215.5q0 -33 26 -32h131q135 0 213 6q45 2 73 7t43 19.5t24.5 40t19.5 70.5q6 4 31.5 7t34.5 1q-4 -45 -10.5 -107.5t-6.5 -109.5q2 -53 6 -97t9 -89q-25 -6 -48 -6q-10 -2 -18 12q-6 16 -13 38.5t-12 41.5 q-10 41 -33.5 58.5t-84.5 21.5q-35 4 -87.5 4h-129.5q-78 0 -101.5 -1t-34.5 -3q-14 -4 -20 -13q-4 -10 -11 -67.5t-7 -184.5q0 -113 2 -163t18 -74q23 -29 82 -39t186 -10q90 0 158 7t118 31.5t83.5 71.5t58.5 129q6 2 19.5 1t29.5 -3q6 -4 6 -16q-2 -35 -8 -76t-15 -80 t-19.5 -72.5t-20.5 -56.5q-14 -16 -27 -16h-27.5t-68.5 2q-47 2 -146.5 3t-228.5 1q-123 0 -244.5 -5t-244.5 -9q-4 2 -5 25.5t1 35.5q0 8 8 8q35 6 55.5 12.5t31.5 13.5t14 15t3 21q4 23 9.5 118t5.5 252v355q0 102 -2 171.5t-4.5 112.5t-5.5 64.5t-3 26.5q-2 10 -6 16 t-20 10q-16 6 -44 11.5t-65 15.5q-2 2 -2 8zM361.5 1471.5q0.5 5.5 5.5 9.5q8 8 37.5 32.5t63.5 53t65.5 55.5t46.5 37q23 16 43 29.5t36 13.5h3q6 0 27.5 -18.5t54 -49t73.5 -70.5t84 -83q10 -8 -10 -29q-14 -8 -37 -16.5t-33 -12.5q-14 10 -38.5 30t-51 41.5t-50.5 40.5 t-38 30q-10 -6 -39 -27.5t-59.5 -44.5t-56 -40t-31.5 -17q-16 0 -43 7t-49 21q-4 2 -3.5 7.5z" />
<glyph unicode="&#xcb;" horiz-adv-x="1224" d="M88 1278l4 47q0 10 10 10h72q47 0 109.5 -2t156.5 -4h199q94 0 196.5 5t180.5 7q20 0 30.5 -3t18.5 -7q14 -10 15 -15t-5 -34q-6 -35 -10 -71.5t-5 -72.5t-2 -67t-1 -51q-41 0 -51.5 4t-12.5 14q-10 55 -21 96.5t-30.5 69t-55.5 42t-95 14.5h-142q-92 0 -143 -3.5 t-68 -7.5q-20 -6 -25 -23.5t-5 -51.5q0 -109 1 -215.5t3 -215.5q0 -33 26 -32h131q135 0 213 6q45 2 73 7t43 19.5t24.5 40t19.5 70.5q6 4 31.5 7t34.5 1q-4 -45 -10.5 -107.5t-6.5 -109.5q2 -53 6 -97t9 -89q-25 -6 -48 -6q-10 -2 -18 12q-6 16 -13 38.5t-12 41.5 q-10 41 -33.5 58.5t-84.5 21.5q-35 4 -87.5 4h-129.5q-78 0 -101.5 -1t-34.5 -3q-14 -4 -20 -13q-4 -10 -11 -67.5t-7 -184.5q0 -113 2 -163t18 -74q23 -29 82 -39t186 -10q90 0 158 7t118 31.5t83.5 71.5t58.5 129q6 2 19.5 1t29.5 -3q6 -4 6 -16q-2 -35 -8 -76t-15 -80 t-19.5 -72.5t-20.5 -56.5q-14 -16 -27 -16h-27.5t-68.5 2q-47 2 -146.5 3t-228.5 1q-123 0 -244.5 -5t-244.5 -9q-4 2 -5 25.5t1 35.5q0 8 8 8q35 6 55.5 12.5t31.5 13.5t14 15t3 21q4 23 9.5 118t5.5 252v355q0 102 -2 171.5t-4.5 112.5t-5.5 64.5t-3 26.5q-2 10 -6 16 t-20 10q-16 6 -44 11.5t-65 15.5q-2 2 -2 8zM316 1548.5q1 10.5 8 16.5q31 20 46 33.5t31 50.5q4 10 39 10h2q20 0 23 -8q20 -31 31.5 -43.5t42.5 -22.5q6 0 8 -8t2 -19.5t-3 -21.5t-7 -14q-33 -16 -44.5 -32.5t-29.5 -57.5q-4 -10 -27.5 -10.5t-27.5 10.5q-16 29 -34 46 t-46 21q-4 0 -7.5 8.5t-5.5 19.5t-1 21.5zM698 1544q0 10 2 18.5t7 10.5q37 16 50 30.5t29 49.5q2 4 13.5 6t21.5 2h2q10 0 19.5 -1t9.5 -3q16 -31 29.5 -44.5t46.5 -27.5q6 -4 9 -13t3 -20.5t-3 -20.5t-9 -11q-37 -16 -50.5 -37t-23.5 -58q-2 -4 -11 -5t-20.5 0t-23 6.5 t-13.5 15.5q-10 27 -25.5 41t-51.5 30q-4 2 -7.5 11.5t-3.5 19.5z" />
<glyph unicode="&#xcc;" horiz-adv-x="718" d="M66 59q109 2 150.5 15.5t47.5 54.5q0 12 2 33.5t4 59.5t4 96.5t2 144.5v489q0 100 -1 158.5t-8 88.5t-21.5 40t-40.5 16q-16 2 -42 4.5t-69 4.5q-12 0 -12 12q0 10 10 31q10 18 17 20q12 2 23 2h30q18 0 69.5 -1t130.5 -1q39 0 83 1t82 2t66 1h36q20 0 24 -2t6 -6l15 -49 q-70 -6 -110 -12.5t-61.5 -14.5t-28.5 -18t-9 -25q-4 -14 -6 -37.5t-4 -63.5t-3 -101.5t-1 -151.5v-410q0 -92 3 -166.5t7 -128.5q4 -39 16 -50t35 -15q8 -2 22.5 -4t31 -3t31.5 -3t21 -4q23 -6 23 -13q0 -10 -6 -31.5t-10 -25.5q-125 4 -197 5t-129 -1q-35 0 -68.5 -1 t-62.5 -2t-48.5 -3t-21.5 -2q-20 0 -24 16q-10 35 -8 51zM86 1610q6 10 20.5 24.5t31 26.5t31.5 21.5t24 9.5h2q10 0 49 -33t84 -75t83 -80l48 -48q2 -4 -5.5 -10t-16.5 -13.5t-20 -14.5t-18 -11q-25 12 -66.5 32.5t-86.5 45t-88 47t-68 39.5q-18 10 -4 39z" />
<glyph unicode="&#xcd;" horiz-adv-x="718" d="M66 59q109 2 150.5 15.5t47.5 54.5q0 12 2 33.5t4 59.5t4 96.5t2 144.5v489q0 100 -1 158.5t-8 88.5t-21.5 40t-40.5 16q-16 2 -42 4.5t-69 4.5q-12 0 -12 12q0 10 10 31q10 18 17 20q12 2 23 2h30q18 0 69.5 -1t130.5 -1q39 0 83 1t82 2t66 1h36q20 0 24 -2t6 -6l15 -49 q-70 -6 -110 -12.5t-61.5 -14.5t-28.5 -18t-9 -25q-4 -14 -6 -37.5t-4 -63.5t-3 -101.5t-1 -151.5v-410q0 -92 3 -166.5t7 -128.5q4 -39 16 -50t35 -15q8 -2 22.5 -4t31 -3t31.5 -3t21 -4q23 -6 23 -13q0 -10 -6 -31.5t-10 -25.5q-125 4 -197 5t-129 -1q-35 0 -68.5 -1 t-62.5 -2t-48.5 -3t-21.5 -2q-20 0 -24 16q-10 35 -8 51zM272 1481q37 31 80 63.5t80 59t64.5 46t33.5 25.5q10 4 20.5 7.5t22.5 3.5h2q23 0 57 -29t52 -53q4 -4 4 -11.5t-6 -11.5q-18 -10 -71.5 -33.5t-114 -51.5t-114.5 -51.5t-73 -29.5q-4 2 -10 12.5t-13 20.5 t-11.5 19.5t-2.5 13.5z" />
<glyph unicode="&#xce;" horiz-adv-x="718" d="M66 59q109 2 150.5 15.5t47.5 54.5q0 12 2 33.5t4 59.5t4 96.5t2 144.5v489q0 100 -1 158.5t-8 88.5t-21.5 40t-40.5 16q-16 2 -42 4.5t-69 4.5q-12 0 -12 12q0 10 10 31q10 18 17 20q12 2 23 2h30q18 0 69.5 -1t130.5 -1q39 0 83 1t82 2t66 1h36q20 0 24 -2t6 -6l15 -49 q-70 -6 -110 -12.5t-61.5 -14.5t-28.5 -18t-9 -25q-4 -14 -6 -37.5t-4 -63.5t-3 -101.5t-1 -151.5v-410q0 -92 3 -166.5t7 -128.5q4 -39 16 -50t35 -15q8 -2 22.5 -4t31 -3t31.5 -3t21 -4q23 -6 23 -13q0 -10 -6 -31.5t-10 -25.5q-125 4 -197 5t-129 -1q-35 0 -68.5 -1 t-62.5 -2t-48.5 -3t-21.5 -2q-20 0 -24 16q-10 35 -8 51zM89 1473.5q1 5.5 5 9.5q8 8 38 32.5t63.5 53t65.5 55.5t46 37q23 16 43.5 29.5t36.5 13.5h2q6 0 27.5 -18.5t54.5 -49t74 -70.5t84 -83q10 -8 -11 -29q-14 -8 -36.5 -16t-32.5 -13q-14 10 -39 30t-51.5 41.5 t-50 40.5t-37.5 30q-10 -6 -39 -27.5t-59.5 -44t-56.5 -40t-32 -17.5q-16 0 -42.5 7t-49.5 21q-4 2 -3 7.5z" />
<glyph unicode="&#xcf;" horiz-adv-x="718" d="M48 1560.5q1 10.5 7 16.5q31 20 46.5 33.5t31.5 50.5q4 10 39 10h2q20 0 23 -8q20 -31 31.5 -43t41.5 -23q6 0 8.5 -8t2.5 -19t-3.5 -21.5t-7.5 -14.5q-33 -16 -44 -32.5t-29 -57.5q-4 -10 -28 -10t-28 10q-16 29 -33.5 46t-46.5 21q-4 0 -7 8.5t-5 19.5t-1 21.5zM66 59 q109 2 150.5 15.5t47.5 54.5q0 12 2 33.5t4 59.5t4 96.5t2 144.5v489q0 100 -1 158.5t-8 88.5t-21.5 40t-40.5 16q-16 2 -42 4.5t-69 4.5q-12 0 -12 12q0 10 10 31q10 18 17 20q12 2 23 2h30q18 0 69.5 -1t130.5 -1q39 0 83 1t82 2t66 1h36q20 0 24 -2t6 -6l15 -49 q-70 -6 -110 -12.5t-61.5 -14.5t-28.5 -18t-9 -25q-4 -14 -6 -37.5t-4 -63.5t-3 -101.5t-1 -151.5v-410q0 -92 3 -166.5t7 -128.5q4 -39 16 -50t35 -15q8 -2 22.5 -4t31 -3t31.5 -3t21 -4q23 -6 23 -13q0 -10 -6 -31.5t-10 -25.5q-125 4 -197 5t-129 -1q-35 0 -68.5 -1 t-62.5 -2t-48.5 -3t-21.5 -2q-20 0 -24 16q-10 35 -8 51zM430 1556.5q0 10.5 2 18.5t6 10q37 16 50.5 30.5t29.5 49.5q2 4 13.5 6t21.5 2h2q10 0 19.5 -1t9.5 -3q16 -31 29.5 -44t45.5 -28q6 -4 9.5 -13t3.5 -20.5t-3 -20.5t-10 -11q-37 -16 -50 -36.5t-23 -57.5 q-2 -4 -11.5 -5t-20.5 0t-22.5 6t-13.5 15q-10 27 -25.5 41t-52.5 31q-4 2 -7 11t-3 19.5z" />
<glyph unicode="&#xd0;" horiz-adv-x="1622" d="M82 710.5q0 10.5 4 10.5h197v211t-1 140t-2 84t-4 46q-4 20 -22 34.5t-84 25.5q-12 2 -15 6t-3 16l-2 45q59 0 117.5 2t131.5 4q53 0 96.5 2t79 3t69.5 2t69 1q55 0 130 -6t155.5 -25.5t163.5 -57t153 -101.5q113 -102 168 -224t55 -261q0 -43 -10 -97.5t-32.5 -112 t-59.5 -115.5t-93 -110q-55 -51 -101 -85.5t-88 -58t-81 -38t-82 -26.5q-39 -12 -74.5 -18.5t-72.5 -9.5t-79 -4t-95 -1q-41 0 -95.5 1t-106.5 3t-95 3t-62 1h-37.5t-43 -1t-40 -1h-30.5q-2 2 -3 10t-2 19.5t-1 20.5t2 13q72 23 93 38.5t23 43.5q2 49 4.5 114t4.5 132.5 t2 132v111.5h-138q-29 0 -39 1t-14 9q-2 4 -4 16.5t-4 26.5t-2 24.5zM455 635q2 -190 7 -314t21 -196q6 -20 29 -31q37 -14 86 -22.5t96 -8.5q76 0 169 19.5t200 87.5q133 86 196.5 221t63.5 289q0 80 -16.5 148.5t-44 125t-62.5 100.5t-70 74q-53 45 -109 73t-111.5 43.5 t-106.5 19.5t-90 4q-31 0 -68 -4t-70.5 -9.5t-58 -12.5t-33.5 -13q-12 -10 -12 -43q-4 -35 -7 -86t-5 -112.5t-3 -129t-1 -137.5h329q39 0 47.5 -5t12.5 -18q6 -29 8 -41t0 -16q-8 -4 -31.5 -5t-93.5 -1h-272z" />
<glyph unicode="&#xd1;" horiz-adv-x="1675" d="M47 1284v53q35 -2 63.5 -3t59.5 -2t68.5 -2t93.5 -1q20 0 26 -6q6 -4 13.5 -15.5t11.5 -21.5q6 -10 20.5 -30.5t34 -45t41 -49t39.5 -41.5q45 -47 124 -124.5t184.5 -181t236.5 -230.5t285 -271q0 25 1 69t2 99.5t1 115.5v118v142.5t-2 112.5t-4.5 92t-4.5 81 q-4 27 -11 58.5t-42 41.5q-16 6 -52 10t-69 9q-10 4 -10 10l-4 57h231q59 0 119 3t107 5q14 0 18 -10l12 -43q-55 -12 -82.5 -20.5t-52.5 -24.5q-14 -8 -24.5 -27.5t-17.5 -59.5t-11 -107.5t-8 -172.5q-2 -70 -3 -132t-2 -129.5t-1 -147.5v-182q0 -98 3 -179.5t3 -107.5 q-2 -18 -41 -33q-8 -4 -14.5 -2t-14.5 12q-92 135 -228 279.5t-298 304.5q-129 129 -251 250t-249 248q-4 -86 -7 -187.5t-3 -187.5v-152t3 -158.5t7 -139t14 -91.5q12 -35 56.5 -51t107.5 -29l15 -49q2 -4 -5.5 -10t-11.5 -6q-33 0 -64.5 1t-66.5 3q-33 2 -64.5 3t-64.5 1 q-27 0 -51.5 -1t-46.5 -1q-23 -2 -39 -3t-31 -1q-6 29 -16 57q49 12 76.5 23.5t42 26t19.5 32t9 41.5q4 39 14.5 175t10.5 353v228q0 80 -1 128t-5 77.5t-11.5 44t-19.5 26.5q-25 27 -55.5 41.5t-96.5 22.5q-16 6 -16 14zM596 1425q-2 2 4 17q12 33 26.5 66.5t35 61t50 46 t72.5 18.5h2q20 0 41 -5t41 -11q23 -8 43.5 -13.5t38.5 -5.5q29 0 55.5 24t59.5 60q2 -2 10 -7t17.5 -12t14.5 -13t1 -13q-6 -10 -20.5 -29.5t-34 -42t-41 -43t-37.5 -28.5q-20 -10 -48 -14t-63 6q-23 6 -59.5 15t-61.5 9q-16 0 -29.5 -10t-23.5 -24.5t-17 -28.5t-9 -23 q-10 -2 -50 -2q-16 0 -18 2z" />
<glyph unicode="&#xd2;" horiz-adv-x="1603" d="M88 682q0 129 54.5 259t174.5 239q98 88 227.5 137t264.5 49h2q139 0 267 -52t226.5 -142.5t157 -212t58.5 -263.5q0 -96 -20.5 -178t-54.5 -150.5t-75 -124t-82 -93.5q-53 -53 -112.5 -88t-118 -57.5t-111.5 -32t-94 -9.5q-82 0 -165 17.5t-160.5 51.5t-146.5 80 t-120 105q-39 43 -70.5 97.5t-54 114.5t-35 124.5t-12.5 128.5zM299 702q0 -143 47 -264t133 -207q102 -104 199.5 -146t202.5 -42q80 0 157.5 35t139 104.5t100.5 176t39 249.5q0 139 -42 271.5t-149 248.5q-61 66 -156.5 115t-224.5 49h-2q-74 0 -150.5 -31.5 t-154.5 -117.5q-41 -47 -67.5 -103.5t-43 -115t-22.5 -115.5t-6 -107zM532 1622q6 10 20.5 24.5t31 27t32 21.5t23.5 9h2q10 0 49 -33t84 -75t83 -79.5t48 -48.5q2 -4 -5 -10t-16.5 -13t-20.5 -14.5t-17 -11.5q-25 12 -67 33t-87 45.5t-88 47t-67 38.5q-18 10 -5 39z" />
<glyph unicode="&#xd3;" horiz-adv-x="1603" d="M88 682q0 129 54.5 259t174.5 239q98 88 227.5 137t264.5 49h2q139 0 267 -52t226.5 -142.5t157 -212t58.5 -263.5q0 -96 -20.5 -178t-54.5 -150.5t-75 -124t-82 -93.5q-53 -53 -112.5 -88t-118 -57.5t-111.5 -32t-94 -9.5q-82 0 -165 17.5t-160.5 51.5t-146.5 80 t-120 105q-39 43 -70.5 97.5t-54 114.5t-35 124.5t-12.5 128.5zM299 702q0 -143 47 -264t133 -207q102 -104 199.5 -146t202.5 -42q80 0 157.5 35t139 104.5t100.5 176t39 249.5q0 139 -42 271.5t-149 248.5q-61 66 -156.5 115t-224.5 49h-2q-74 0 -150.5 -31.5 t-154.5 -117.5q-41 -47 -67.5 -103.5t-43 -115t-22.5 -115.5t-6 -107zM700 1497q37 31 80 63.5t80 59.5t64.5 46.5t33.5 25.5q10 4 20.5 7t22.5 3h3q23 0 56.5 -28.5t51.5 -53.5q4 -4 4 -11t-6 -12q-18 -10 -71.5 -33.5t-114 -51t-114.5 -51t-73 -29.5q-4 2 -10 12t-13 20.5 t-11.5 19.5t-2.5 13z" />
<glyph unicode="&#xd4;" horiz-adv-x="1603" d="M88 682q0 129 54.5 259t174.5 239q98 88 227.5 137t264.5 49h2q139 0 267 -52t226.5 -142.5t157 -212t58.5 -263.5q0 -96 -20.5 -178t-54.5 -150.5t-75 -124t-82 -93.5q-53 -53 -112.5 -88t-118 -57.5t-111.5 -32t-94 -9.5q-82 0 -165 17.5t-160.5 51.5t-146.5 80 t-120 105q-39 43 -70.5 97.5t-54 114.5t-35 124.5t-12.5 128.5zM299 702q0 -143 47 -264t133 -207q102 -104 199.5 -146t202.5 -42q80 0 157.5 35t139 104.5t100.5 176t39 249.5q0 139 -42 271.5t-149 248.5q-61 66 -156.5 115t-224.5 49h-2q-74 0 -150.5 -31.5 t-154.5 -117.5q-41 -47 -67.5 -103.5t-43 -115t-22.5 -115.5t-6 -107zM534 1473.5q1 5.5 5 9.5q8 8 37.5 32.5t63.5 53t65.5 55.5t46.5 37q23 16 43 29.5t36 13.5h3q6 0 27.5 -18.5t54 -49t73.5 -70.5t84 -83q10 -8 -10 -29q-14 -8 -36.5 -16t-33.5 -13q-14 10 -38.5 30 t-51 41.5t-50.5 40.5t-38 30q-10 -6 -38.5 -27.5t-59.5 -44t-56.5 -40t-31.5 -17.5q-16 0 -43 7t-49 21q-4 2 -3 7.5z" />
<glyph unicode="&#xd5;" horiz-adv-x="1603" d="M88 682q0 129 54.5 259t174.5 239q98 88 227.5 137t264.5 49h2q139 0 267 -52t226.5 -142.5t157 -212t58.5 -263.5q0 -96 -20.5 -178t-54.5 -150.5t-75 -124t-82 -93.5q-53 -53 -112.5 -88t-118 -57.5t-111.5 -32t-94 -9.5q-82 0 -165 17.5t-160.5 51.5t-146.5 80 t-120 105q-39 43 -70.5 97.5t-54 114.5t-35 124.5t-12.5 128.5zM299 702q0 -143 47 -264t133 -207q102 -104 199.5 -146t202.5 -42q80 0 157.5 35t139 104.5t100.5 176t39 249.5q0 139 -42 271.5t-149 248.5q-61 66 -156.5 115t-224.5 49h-2q-74 0 -150.5 -31.5 t-154.5 -117.5q-41 -47 -67.5 -103.5t-43 -115t-22.5 -115.5t-6 -107zM557 1438q-2 2 4 16q12 33 26.5 66.5t35 61.5t50 46.5t72.5 18.5h3q20 0 40.5 -5.5t40.5 -11.5q23 -8 43.5 -13t38.5 -5q29 0 55.5 23.5t59.5 60.5q2 -2 10 -7.5t17.5 -12.5t14.5 -13t1 -12 q-6 -10 -20.5 -29.5t-34 -42.5t-41 -43t-37.5 -29q-20 -10 -48 -14t-63 6q-23 6 -59.5 15.5t-60.5 9.5q-16 0 -29.5 -10.5t-24 -24.5t-17.5 -28.5t-9 -22.5q-10 -2 -50 -2q-16 0 -18 2z" />
<glyph unicode="&#xd6;" horiz-adv-x="1603" d="M88 682q0 129 54.5 259t174.5 239q98 88 227.5 137t264.5 49h2q139 0 267 -52t226.5 -142.5t157 -212t58.5 -263.5q0 -96 -20.5 -178t-54.5 -150.5t-75 -124t-82 -93.5q-53 -53 -112.5 -88t-118 -57.5t-111.5 -32t-94 -9.5q-82 0 -165 17.5t-160.5 51.5t-146.5 80 t-120 105q-39 43 -70.5 97.5t-54 114.5t-35 124.5t-12.5 128.5zM299 702q0 -143 47 -264t133 -207q102 -104 199.5 -146t202.5 -42q80 0 157.5 35t139 104.5t100.5 176t39 249.5q0 139 -42 271.5t-149 248.5q-61 66 -156.5 115t-224.5 49h-2q-74 0 -150.5 -31.5 t-154.5 -117.5q-41 -47 -67.5 -103.5t-43 -115t-22.5 -115.5t-6 -107zM490.5 1573q1.5 10 7.5 16q31 20 46 33.5t31 50.5q4 10 39 10h2q20 0 23 -8q20 -31 31.5 -43t42.5 -22q6 0 8 -8.5t2 -19.5t-3 -21.5t-7 -14.5q-33 -16 -44.5 -32.5t-29.5 -57.5q-4 -10 -27.5 -10 t-27.5 10q-16 29 -34 46.5t-46 21.5q-4 0 -7 8t-5.5 19.5t-1 21.5zM872 1569q0 10 2.5 18t6.5 10q37 16 50 30.5t30 49.5q2 4 13 6.5t21 2.5h2q10 0 19.5 -1.5t9.5 -3.5q16 -31 29.5 -44t46.5 -27q6 -4 9 -13.5t3 -20.5t-3 -20.5t-9 -11.5q-37 -16 -50.5 -36.5t-23.5 -57.5 q-2 -4 -11 -5t-20.5 0t-22.5 6t-13 15q-10 27 -25.5 41.5t-52.5 30.5q-4 2 -7.5 11.5t-3.5 19.5z" />
<glyph unicode="&#xd7;" horiz-adv-x="1343" d="M207 809q0 8 4 16l51 60q14 12 27 2q14 -8 62 -56.5t105.5 -107.5t113 -117.5t85.5 -87.5q86 86 175.5 177t187.5 190q18 16 32.5 17t24.5 -7q18 -10 36.5 -24.5t29.5 -24.5q-117 -109 -218.5 -208t-197.5 -198q8 -8 43 -41.5t84 -84t108.5 -110t118.5 -120.5 q23 -23 15 -43q-6 -10 -24.5 -34.5t-31.5 -29.5l-18 -8q-39 39 -88 90.5t-100.5 104.5t-101.5 103t-91 89q-59 -63 -147.5 -156.5t-194.5 -211.5q-16 -18 -31 -6q-10 8 -20 21t-19.5 24.5t-14.5 20.5t-3 13q18 20 50 53t69 71t76.5 77t73.5 73t58.5 60.5t32.5 36.5 q-10 16 -46 54t-85 87.5t-107.5 105.5t-115.5 112q-8 10 -8 18z" />
<glyph unicode="&#xd8;" horiz-adv-x="1603" d="M86 682q0 129 54.5 259t176.5 239q98 88 228.5 137t261.5 49q109 0 207 -29.5t190 -89.5l119 144q4 6 12 6t39 -11q29 -10 34 -13t1 -9l-135 -170q115 -94 180.5 -220t65.5 -278q0 -94 -21.5 -177t-55.5 -151.5t-75 -124t-82 -96.5q-49 -49 -106.5 -83.5t-115.5 -57 t-113.5 -33t-100.5 -10.5h-2q-111 0 -224.5 34t-217.5 93l-142 -188q-4 -4 -11 -1t-26 23q-20 23 -23 32t1 15l133 174q-61 45 -107.5 107.5t-79 134.5t-49 147.5t-16.5 147.5zM291 698q0 -123 38 -230.5t107 -195.5l682 867q-63 66 -152 107.5t-210 41.5q-31 0 -70 -6 t-82 -23.5t-87 -46t-83 -71.5q-43 -47 -70.5 -104.5t-44 -117t-22.5 -117t-6 -102.5v-2zM494 205q100 -92 194 -128t189 -36q80 0 158.5 39t141 111.5t102.5 178t40 238.5v2q0 117 -33 237t-117 224z" />
<glyph unicode="&#xd9;" horiz-adv-x="1538" d="M84 1276l2 47q2 10 8 12t29 2q16 0 43 -1t55 -3q29 -2 55.5 -3t42.5 -1q35 2 68 3t66 1q35 2 67.5 3t67.5 1q12 0 12 -6t-1 -28.5t-5 -26.5q-49 -6 -82 -12.5t-53.5 -14.5t-29.5 -20t-15 -31q-4 -23 -9.5 -67t-7.5 -142q0 -43 -2 -99t-3 -117.5l-2 -123t-1 -112.5 q0 -135 38 -223.5t99 -137.5q55 -47 134 -70.5t169 -23.5q68 0 117 11t85 29.5t60.5 42t43.5 46.5q59 80 82.5 194.5t23.5 278.5v158v142.5t-2 118.5t-4 85q-4 27 -13.5 41t-31 21t-58 8.5t-94.5 1.5q-4 0 -10 8t-4 16q4 8 12 18.5t13 20.5q4 4 12 6t35 2h27.5t49 -1t55 -1 h46.5h53.5t57 1t56 2t46.5 3q12 0 6 -14l-18 -53q-14 -4 -38 -7.5t-42 -7.5q-6 -2 -14.5 -10t-12.5 -24q-6 -18 -10 -52t-7 -94.5t-6.5 -153t-7.5 -227.5q-2 -88 -7 -157.5t-17.5 -128t-34 -109.5t-55.5 -102q-37 -53 -89.5 -96.5t-115 -73t-130 -46t-134.5 -16.5 q-72 0 -134.5 13.5t-113.5 34t-90 47t-64 51.5q-80 82 -107.5 181t-29.5 210q-2 78 -1 176t5 225q2 86 4 141.5t2 91t-2 54t-4 31.5q-8 29 -35.5 39t-99.5 18zM545 1610q6 10 20.5 24.5t30.5 26.5t31.5 21.5t23.5 9.5h2q10 0 49 -33t84 -75t83 -80t49 -48q2 -4 -5.5 -10 t-16.5 -13.5t-20.5 -14.5t-17.5 -11q-25 12 -66.5 32.5t-87 45t-88.5 47t-67 39.5q-18 10 -4 39z" />
<glyph unicode="&#xda;" horiz-adv-x="1538" d="M84 1276l2 47q2 10 8 12t29 2q16 0 43 -1t55 -3q29 -2 55.5 -3t42.5 -1q35 2 68 3t66 1q35 2 67.5 3t67.5 1q12 0 12 -6t-1 -28.5t-5 -26.5q-49 -6 -82 -12.5t-53.5 -14.5t-29.5 -20t-15 -31q-4 -23 -9.5 -67t-7.5 -142q0 -43 -2 -99t-3 -117.5l-2 -123t-1 -112.5 q0 -135 38 -223.5t99 -137.5q55 -47 134 -70.5t169 -23.5q68 0 117 11t85 29.5t60.5 42t43.5 46.5q59 80 82.5 194.5t23.5 278.5v158v142.5t-2 118.5t-4 85q-4 27 -13.5 41t-31 21t-58 8.5t-94.5 1.5q-4 0 -10 8t-4 16q4 8 12 18.5t13 20.5q4 4 12 6t35 2h27.5t49 -1t55 -1 h46.5h53.5t57 1t56 2t46.5 3q12 0 6 -14l-18 -53q-14 -4 -38 -7.5t-42 -7.5q-6 -2 -14.5 -10t-12.5 -24q-6 -18 -10 -52t-7 -94.5t-6.5 -153t-7.5 -227.5q-2 -88 -7 -157.5t-17.5 -128t-34 -109.5t-55.5 -102q-37 -53 -89.5 -96.5t-115 -73t-130 -46t-134.5 -16.5 q-72 0 -134.5 13.5t-113.5 34t-90 47t-64 51.5q-80 82 -107.5 181t-29.5 210q-2 78 -1 176t5 225q2 86 4 141.5t2 91t-2 54t-4 31.5q-8 29 -35.5 39t-99.5 18zM692 1481q37 31 80 63.5t80 59t64.5 46t33.5 25.5q10 4 20.5 7.5t22.5 3.5h2q23 0 56.5 -29t52.5 -53 q4 -4 4 -11.5t-6 -11.5q-18 -10 -71.5 -33.5t-114 -51.5t-114.5 -51.5t-73 -29.5q-4 2 -10 12.5t-13.5 20.5t-11.5 19.5t-2 13.5z" />
<glyph unicode="&#xdb;" horiz-adv-x="1538" d="M84 1276l2 47q2 10 8 12t29 2q16 0 43 -1t55 -3q29 -2 55.5 -3t42.5 -1q35 2 68 3t66 1q35 2 67.5 3t67.5 1q12 0 12 -6t-1 -28.5t-5 -26.5q-49 -6 -82 -12.5t-53.5 -14.5t-29.5 -20t-15 -31q-4 -23 -9.5 -67t-7.5 -142q0 -43 -2 -99t-3 -117.5l-2 -123t-1 -112.5 q0 -135 38 -223.5t99 -137.5q55 -47 134 -70.5t169 -23.5q68 0 117 11t85 29.5t60.5 42t43.5 46.5q59 80 82.5 194.5t23.5 278.5v158v142.5t-2 118.5t-4 85q-4 27 -13.5 41t-31 21t-58 8.5t-94.5 1.5q-4 0 -10 8t-4 16q4 8 12 18.5t13 20.5q4 4 12 6t35 2h27.5t49 -1t55 -1 h46.5h53.5t57 1t56 2t46.5 3q12 0 6 -14l-18 -53q-14 -4 -38 -7.5t-42 -7.5q-6 -2 -14.5 -10t-12.5 -24q-6 -18 -10 -52t-7 -94.5t-6.5 -153t-7.5 -227.5q-2 -88 -7 -157.5t-17.5 -128t-34 -109.5t-55.5 -102q-37 -53 -89.5 -96.5t-115 -73t-130 -46t-134.5 -16.5 q-72 0 -134.5 13.5t-113.5 34t-90 47t-64 51.5q-80 82 -107.5 181t-29.5 210q-2 78 -1 176t5 225q2 86 4 141.5t2 91t-2 54t-4 31.5q-8 29 -35.5 39t-99.5 18zM527 1473.5q1 5.5 5 9.5q8 8 38 32.5t64 53t65.5 55.5t45.5 37q23 16 43.5 29.5t36.5 13.5h2q6 0 28 -18.5 t54.5 -49t73.5 -70.5t84 -83q10 -8 -10 -29q-14 -8 -37 -16t-33 -13q-14 10 -38.5 30t-51.5 41.5t-50.5 40.5t-37.5 30q-10 -6 -39 -27.5t-59.5 -44t-56 -40t-31.5 -17.5q-16 0 -43 7t-50 21q-4 2 -3 7.5z" />
<glyph unicode="&#xdc;" horiz-adv-x="1538" d="M84 1276l2 47q2 10 8 12t29 2q16 0 43 -1t55 -3q29 -2 55.5 -3t42.5 -1q35 2 68 3t66 1q35 2 67.5 3t67.5 1q12 0 12 -6t-1 -28.5t-5 -26.5q-49 -6 -82 -12.5t-53.5 -14.5t-29.5 -20t-15 -31q-4 -23 -9.5 -67t-7.5 -142q0 -43 -2 -99t-3 -117.5l-2 -123t-1 -112.5 q0 -135 38 -223.5t99 -137.5q55 -47 134 -70.5t169 -23.5q68 0 117 11t85 29.5t60.5 42t43.5 46.5q59 80 82.5 194.5t23.5 278.5v158v142.5t-2 118.5t-4 85q-4 27 -13.5 41t-31 21t-58 8.5t-94.5 1.5q-4 0 -10 8t-4 16q4 8 12 18.5t13 20.5q4 4 12 6t35 2h27.5t49 -1t55 -1 h46.5h53.5t57 1t56 2t46.5 3q12 0 6 -14l-18 -53q-14 -4 -38 -7.5t-42 -7.5q-6 -2 -14.5 -10t-12.5 -24q-6 -18 -10 -52t-7 -94.5t-6.5 -153t-7.5 -227.5q-2 -88 -7 -157.5t-17.5 -128t-34 -109.5t-55.5 -102q-37 -53 -89.5 -96.5t-115 -73t-130 -46t-134.5 -16.5 q-72 0 -134.5 13.5t-113.5 34t-90 47t-64 51.5q-80 82 -107.5 181t-29.5 210q-2 78 -1 176t5 225q2 86 4 141.5t2 91t-2 54t-4 31.5q-8 29 -35.5 39t-99.5 18zM497 1587q1 10 7 17q31 20 46 33.5t32 50.5q4 10 39 10h2q20 0 22 -8q20 -31 31.5 -43.5t42.5 -22.5q6 0 8 -8 t2 -19.5t-3 -21.5t-7 -14q-33 -16 -44 -33t-30 -58q-4 -10 -27.5 -10t-27.5 10q-16 29 -33.5 46.5t-46.5 21.5q-4 0 -7 8t-5 19.5t-1 21.5zM879 1583q0 10 2 18.5t6 10.5q37 16 50 30.5t30 49.5q2 4 13 6t21 2h3q10 0 19 -1t9 -3q16 -31 29.5 -44.5t46.5 -27.5q6 -4 9 -13 t3 -20.5t-3 -20.5t-9 -11q-37 -16 -50.5 -37t-23.5 -58q-2 -4 -11 -5t-20.5 0t-22.5 6t-13 16q-10 27 -25.5 41t-52.5 30q-4 2 -7 11.5t-3 19.5z" />
<glyph unicode="&#xdd;" horiz-adv-x="1337" d="M55 1295.5q0 17.5 2 23.5q2 16 13 16q27 0 59.5 -1t65.5 -1q33 -2 62.5 -3t47.5 -1q41 0 75 2t60 4q18 2 40 3t32 1q14 0 14 -14v-2q0 -20 -5 -37.5t-9 -21.5q-18 -4 -40.5 -5.5t-41.5 -5.5q-35 -6 -20 -30q33 -59 75.5 -128t82.5 -130.5t70 -105.5t36 -52 q10 -12 18 -23.5t19 -19.5q14 -8 39 24q55 78 94 134.5t66.5 97.5t44 67.5t26.5 42.5q23 33 35 60t12 39q0 10 -22.5 19t-94.5 12l-4 53q0 20 11 20q45 0 91 -3t105 -1t107.5 3t62.5 1q29 0 37 -8q0 -4 1 -13t2 -20.5t0 -20.5t-3 -11q-39 -2 -65.5 -7.5t-47 -16.5t-37 -26.5 t-34.5 -38.5q-61 -72 -116.5 -143.5t-101 -132.5t-77 -107.5t-43.5 -66.5q-16 -25 -25.5 -40t-14.5 -32.5t-7 -42t-2 -63.5v-129q0 -76 1 -132.5t5 -107.5q2 -37 7 -56.5t26.5 -30.5t63.5 -16t116 -12q0 -6 -6.5 -29.5t-10.5 -31.5q-6 -8 -32 -8q-18 2 -52 3t-80 3 q-43 2 -94 3t-104 1q-43 0 -93.5 -3t-90.5 -3q-18 0 -21 8q-4 6 -6 23.5t-2 27.5q0 8 6 8q72 8 115 16.5t53 31.5q6 8 9 23t5 44t3 74t1 112v209q0 27 -2 45.5t-6 35t-14 35t-25 42.5q-84 135 -146.5 230.5t-104.5 157t-64.5 93t-28.5 39.5t-28.5 10.5t-77.5 0.5 q-12 0 -15 8q-2 10 -2 27.5zM614 1448q37 31 80 63.5t80 59t64.5 46t33.5 25.5q10 4 20.5 7.5t22.5 3.5h3q23 0 56.5 -29t51.5 -53q4 -4 4 -11.5t-6 -11.5q-18 -10 -71.5 -33.5t-114 -51t-114.5 -51t-73 -30.5q-4 2 -10 12.5t-13 20.5t-11.5 19.5t-2.5 13.5z" />
<glyph unicode="&#xde;" horiz-adv-x="1185" d="M90 1282q0 4 4 22.5t8 24.5q2 8 13 8q25 0 97.5 -4t152.5 -4q49 0 102 3t100 7q16 0 19 -6q2 -10 3 -32.5t-3 -26.5q-53 -4 -83 -12.5t-45.5 -30t-18.5 -60t-3 -104.5h154q94 0 191.5 -21.5t183.5 -82.5q76 -55 104.5 -128t28.5 -135q0 -84 -33 -146t-94 -122 q-84 -80 -195.5 -110.5t-222.5 -30.5q-31 0 -59.5 2t-57.5 4q0 -80 4 -125t26.5 -67.5t70 -28.5t133.5 -13q4 -2 1 -26.5t-7 -32.5q0 -4 -19 -4q-125 0 -196.5 1t-118.5 1q-68 0 -121 -3t-90 -7q-10 0 -17 26l-4 35q49 6 81 11.5t49.5 14.5t23.5 24.5t8 39.5q4 33 5 113 t1 221v326q0 170 -1 276.5t-11 149.5q-4 18 -17.5 25.5t-33.5 9.5q-10 2 -42 2t-50 2q-20 2 -21 14zM432 613.5q0 -76.5 2 -181.5q0 -18 4 -26.5t11 -16.5q8 -8 45.5 -15t97.5 -7q35 0 64.5 3t54.5 13q72 33 127 109.5t55 209.5v3q0 16 -9.5 63t-41 98.5t-96 90t-175.5 38.5 q-37 0 -65.5 -6t-46.5 -14q-10 -4 -15.5 -10.5t-7.5 -26.5q-2 -43 -3 -88t-1 -102.5v-134z" />
<glyph unicode="&#xdf;" horiz-adv-x="985" d="M41 59q41 10 64.5 16.5t36 12.5t15.5 12t5 17q2 14 5 39.5t5 85t3 165t1 281.5q-41 4 -60.5 7t-27.5 5t-13 20.5t-3 33.5q45 20 64.5 27t29.5 12q10 4 14 11t4 25v97q0 135 26 217t71 135q41 51 105.5 92t115.5 62q29 12 59.5 18t71.5 6q53 0 106.5 -17.5t94.5 -56.5 q31 -31 56 -80t25 -108q0 -61 -20.5 -107.5t-52.5 -85.5q-31 -37 -71 -79.5t-87 -96.5q-31 -37 -31 -67q0 -20 14.5 -36.5t30.5 -33.5q98 -80 168 -163t70 -183q0 -82 -32 -143.5t-91 -102.5q-57 -41 -99 -65.5t-81 -42.5q-18 -8 -32.5 -13.5t-35.5 -5.5q-16 0 -36.5 5.5 t-41.5 15.5q-12 6 -18 19.5t-2 23.5t15.5 35.5t19.5 37.5q12 14 19 17.5t20 -0.5q27 -14 57.5 -23.5t54.5 -9.5q27 0 56.5 8t48.5 27q14 16 26.5 52t12.5 91q0 53 -26 101.5t-65.5 90.5t-87 78.5t-90.5 67.5q-16 12 -30.5 30.5t-14.5 31.5q0 23 6 51q4 10 12.5 24.5 t20.5 22.5q49 41 96.5 86t86.5 94q41 53 58 112.5t17 100.5t-14 80t-42 69.5t-68 49t-91 18.5q-57 0 -92 -20.5t-55 -52.5q-61 -94 -75.5 -247t-14.5 -388v-381q0 -72 2 -111t9 -60.5t22.5 -30.5t44.5 -17q4 -2 6 -8.5t-9 -36.5q-4 -14 -9 -18.5t-17 -4.5q-45 0 -91 1t-91 1 q-35 0 -75 -2t-61 -2q-4 0 -8 11t-10 50z" />
<glyph unicode="&#xe0;" horiz-adv-x="1101" d="M72 47q0 14 4 14q29 6 48 14.5t33.5 21t28 34t31.5 55.5q29 59 60.5 131t65.5 148t66.5 151.5t61.5 143.5q12 27 18.5 46t10.5 32q6 10 16 16q29 14 55 14h2q29 0 37 -20q66 -174 135.5 -350t149.5 -346q20 -41 44 -62.5t85 -32.5q8 0 8 -22q-4 -29 -8 -35t-14 -6 q-72 2 -118 3t-81 1q-25 0 -48.5 -1t-41.5 -1q-20 -2 -33.5 -3t-19.5 -1q-2 0 -5.5 7t-6.5 17.5t-6 18.5t-3 12q80 25 80 47q0 8 -6 27.5t-13.5 42t-15.5 42t-12 27.5q-6 12 -14.5 19.5t-24.5 7.5q-63 2 -132 3t-128 -3q-16 0 -26.5 -8t-18.5 -21q-6 -12 -12.5 -29.5 t-11.5 -36t-8 -33.5t-3 -21q0 -14 14.5 -26.5t63.5 -23.5q12 -2 12 -14q0 -4 -4 -21.5t-8 -27.5q-76 2 -131 2h-84q-16 0 -40 -1t-30 -1q-4 0 -13 16.5t-9 32.5zM307.5 1199q-2.5 7 1.5 11q27 31 55.5 56.5t45.5 25.5h2q18 0 70.5 -69.5t150.5 -208.5q4 -6 2 -14.5t-6 -10.5 l-54 -22q-18 14 -49.5 40.5t-67.5 57.5t-73 60.5t-63 54.5q-12 12 -14.5 19zM391 362q-2 -8 5 -14t16 -6h2h96t108 2q8 0 12.5 6t0.5 17q-35 104 -61.5 173.5t-51.5 137.5q-35 -80 -65.5 -157t-61.5 -159z" />
<glyph unicode="&#xe1;" horiz-adv-x="1101" d="M72 47q0 14 4 14q29 6 48 14.5t33.5 21t28 34t31.5 55.5q29 59 60.5 131t65.5 148t66.5 151.5t61.5 143.5q12 27 18.5 46t10.5 32q6 10 16 16q29 14 55 14h2q29 0 37 -20q66 -174 135.5 -350t149.5 -346q20 -41 44 -62.5t85 -32.5q8 0 8 -22q-4 -29 -8 -35t-14 -6 q-72 2 -118 3t-81 1q-25 0 -48.5 -1t-41.5 -1q-20 -2 -33.5 -3t-19.5 -1q-2 0 -5.5 7t-6.5 17.5t-6 18.5t-3 12q80 25 80 47q0 8 -6 27.5t-13.5 42t-15.5 42t-12 27.5q-6 12 -14.5 19.5t-24.5 7.5q-63 2 -132 3t-128 -3q-16 0 -26.5 -8t-18.5 -21q-6 -12 -12.5 -29.5 t-11.5 -36t-8 -33.5t-3 -21q0 -14 14.5 -26.5t63.5 -23.5q12 -2 12 -14q0 -4 -4 -21.5t-8 -27.5q-76 2 -131 2h-84q-16 0 -40 -1t-30 -1q-4 0 -13 16.5t-9 32.5zM391 362q-2 -8 5 -14t16 -6h2h96t108 2q8 0 12.5 6t0.5 17q-35 104 -61.5 173.5t-51.5 137.5 q-35 -80 -65.5 -157t-61.5 -159zM448 1021q1 7 5 15q12 20 38.5 54t55 68t54.5 63.5t38 40.5q20 18 45 18h2q23 0 52.5 -18.5t52.5 -38.5q6 -6 5 -14.5t-16 -16.5q-12 -6 -55 -38t-90 -68.5t-88 -70.5t-53 -42q-6 -4 -10.5 -2t-20.5 20q-16 23 -15 30z" />
<glyph unicode="&#xe2;" horiz-adv-x="1101" d="M72 47q0 14 4 14q29 6 48 14.5t33.5 21t28 34t31.5 55.5q29 59 60.5 131t65.5 148t66.5 151.5t61.5 143.5q12 27 18.5 46t10.5 32q6 10 16 16q29 14 55 14h2q29 0 37 -20q66 -174 135.5 -350t149.5 -346q20 -41 44 -62.5t85 -32.5q8 0 8 -22q-4 -29 -8 -35t-14 -6 q-72 2 -118 3t-81 1q-25 0 -48.5 -1t-41.5 -1q-20 -2 -33.5 -3t-19.5 -1q-2 0 -5.5 7t-6.5 17.5t-6 18.5t-3 12q80 25 80 47q0 8 -6 27.5t-13.5 42t-15.5 42t-12 27.5q-6 12 -14.5 19.5t-24.5 7.5q-63 2 -132 3t-128 -3q-16 0 -26.5 -8t-18.5 -21q-6 -12 -12.5 -29.5 t-11.5 -36t-8 -33.5t-3 -21q0 -14 14.5 -26.5t63.5 -23.5q12 -2 12 -14q0 -4 -4 -21.5t-8 -27.5q-76 2 -131 2h-84q-16 0 -40 -1t-30 -1q-4 0 -13 16.5t-9 32.5zM316.5 1007.5q-1.5 8.5 2.5 16.5q8 8 35 37t57.5 62.5t57.5 63.5t35 40q47 47 63 47h2q4 0 18.5 -12.5 t24.5 -28.5q6 -6 17.5 -19.5t30 -38t46 -61.5t70.5 -90q10 -10 8 -17.5t-8 -11.5q-10 -8 -33.5 -18t-35.5 -10q-2 0 -22.5 21.5t-45.5 49t-49.5 54t-36.5 38.5q-10 -12 -32.5 -36.5t-46 -50t-43 -45t-23.5 -19.5q-43 0 -86 18q-4 2 -5.5 10.5zM391 362q-2 -8 5 -14t16 -6h2 h96t108 2q8 0 12.5 6t0.5 17q-35 104 -61.5 173.5t-51.5 137.5q-35 -80 -65.5 -157t-61.5 -159z" />
<glyph unicode="&#xe3;" horiz-adv-x="1101" d="M72 47q0 14 4 14q29 6 48 14.5t33.5 21t28 34t31.5 55.5q29 59 60.5 131t65.5 148t66.5 151.5t61.5 143.5q12 27 18.5 46t10.5 32q6 10 16 16q29 14 55 14h2q29 0 37 -20q66 -174 135.5 -350t149.5 -346q20 -41 44 -62.5t85 -32.5q8 0 8 -22q-4 -29 -8 -35t-14 -6 q-72 2 -118 3t-81 1q-25 0 -48.5 -1t-41.5 -1q-20 -2 -33.5 -3t-19.5 -1q-2 0 -5.5 7t-6.5 17.5t-6 18.5t-3 12q80 25 80 47q0 8 -6 27.5t-13.5 42t-15.5 42t-12 27.5q-6 12 -14.5 19.5t-24.5 7.5q-63 2 -132 3t-128 -3q-16 0 -26.5 -8t-18.5 -21q-6 -12 -12.5 -29.5 t-11.5 -36t-8 -33.5t-3 -21q0 -14 14.5 -26.5t63.5 -23.5q12 -2 12 -14q0 -4 -4 -21.5t-8 -27.5q-76 2 -131 2h-84q-16 0 -40 -1t-30 -1q-4 0 -13 16.5t-9 32.5zM321.5 983q-2.5 2 2.5 14q12 31 25 63t31.5 57.5t46.5 43t69 17.5h2q18 0 37.5 -5.5t37.5 -11.5q20 -6 39 -11 t37 -5q27 0 51.5 20.5t53.5 55.5q10 -6 28.5 -18.5t14.5 -20.5q-6 -10 -20.5 -28.5t-33 -40t-37 -41t-32.5 -28.5q-43 -23 -105 -8q-23 4 -56.5 15.5t-55.5 11.5q-14 0 -26.5 -10.5t-23 -23.5t-16.5 -26.5t-8 -19.5q-10 -2 -43 -2q-16 0 -18.5 2zM391 362q-2 -8 5 -14t16 -6 h2h96t108 2q8 0 12.5 6t0.5 17q-35 104 -61.5 173.5t-51.5 137.5q-35 -80 -65.5 -157t-61.5 -159z" />
<glyph unicode="&#xe4;" horiz-adv-x="1101" d="M72 47q0 14 4 14q29 6 48 14.5t33.5 21t28 34t31.5 55.5q29 59 60.5 131t65.5 148t66.5 151.5t61.5 143.5q12 27 18.5 46t10.5 32q6 10 16 16q29 14 55 14h2q29 0 37 -20q66 -174 135.5 -350t149.5 -346q20 -41 44 -62.5t85 -32.5q8 0 8 -22q-4 -29 -8 -35t-14 -6 q-72 2 -118 3t-81 1q-25 0 -48.5 -1t-41.5 -1q-20 -2 -33.5 -3t-19.5 -1q-2 0 -5.5 7t-6.5 17.5t-6 18.5t-3 12q80 25 80 47q0 8 -6 27.5t-13.5 42t-15.5 42t-12 27.5q-6 12 -14.5 19.5t-24.5 7.5q-63 2 -132 3t-128 -3q-16 0 -26.5 -8t-18.5 -21q-6 -12 -12.5 -29.5 t-11.5 -36t-8 -33.5t-3 -21q0 -14 14.5 -26.5t63.5 -23.5q12 -2 12 -14q0 -4 -4 -21.5t-8 -27.5q-76 2 -131 2h-84q-16 0 -40 -1t-30 -1q-4 0 -13 16.5t-9 32.5zM255 1067q-1 10 0 20.5t7 16.5q31 20 45.5 32.5t26.5 51.5q8 8 41 8h2q18 0 22 -6q16 -25 27.5 -39t46.5 -25 q4 0 6 -9t2 -20.5t-2 -20.5t-6 -11q-33 -18 -45 -34.5t-29 -57.5q-2 -10 -25.5 -10t-29.5 10q-16 31 -31.5 47t-44.5 20q-4 0 -8 8.5t-5 18.5zM391 362q-2 -8 5 -14t16 -6h2h96t108 2q8 0 12.5 6t0.5 17q-35 104 -61.5 173.5t-51.5 137.5q-35 -80 -65.5 -157t-61.5 -159z M596 1085.5q0 10.5 2 18.5t6 10q37 16 50.5 28.5t29.5 49.5q2 4 12.5 5t22.5 1h2q8 0 16 -1t11 -3q14 -29 28.5 -43t46.5 -27q6 -2 8.5 -11t2.5 -20.5t-3.5 -20.5t-7.5 -11q-37 -16 -50 -36.5t-23 -57.5q-2 -4 -11.5 -5t-20.5 1t-21.5 6t-12.5 12q-10 29 -25.5 41t-52.5 35 q-4 2 -7 10t-3 18.5z" />
<glyph unicode="&#xe5;" horiz-adv-x="1101" d="M72 47q0 14 4 14q29 6 48 14.5t33.5 21t28 34t31.5 55.5q29 59 60.5 131t65.5 148t66.5 151.5t61.5 143.5q12 27 18.5 46t10.5 32q6 10 16 16q29 14 55 14h2q29 0 37 -20q66 -174 135.5 -350t149.5 -346q20 -41 44 -62.5t85 -32.5q8 0 8 -22q-4 -29 -8 -35t-14 -6 q-72 2 -118 3t-81 1q-25 0 -48.5 -1t-41.5 -1q-20 -2 -33.5 -3t-19.5 -1q-2 0 -5.5 7t-6.5 17.5t-6 18.5t-3 12q80 25 80 47q0 8 -6 27.5t-13.5 42t-15.5 42t-12 27.5q-6 12 -14.5 19.5t-24.5 7.5q-63 2 -132 3t-128 -3q-16 0 -26.5 -8t-18.5 -21q-6 -12 -12.5 -29.5 t-11.5 -36t-8 -33.5t-3 -21q0 -14 14.5 -26.5t63.5 -23.5q12 -2 12 -14q0 -4 -4 -21.5t-8 -27.5q-76 2 -131 2h-84q-16 0 -40 -1t-30 -1q-4 0 -13 16.5t-9 32.5zM373 1083q0 125 123 177q23 10 38 14t25 4h2q70 0 116 -47t46 -117q0 -59 -24.5 -93t-71.5 -58 q-33 -23 -54.5 -29t-37.5 -6q-63 0 -112.5 43t-49.5 112zM391 362q-2 -8 5 -14t16 -6h2h96t108 2q8 0 12.5 6t0.5 17q-35 104 -61.5 173.5t-51.5 137.5q-35 -80 -65.5 -157t-61.5 -159zM461 1118q0 -59 28.5 -84.5t71.5 -27.5q41 -2 59.5 25.5t18.5 64.5q0 51 -29.5 78.5 t-66.5 27.5h-2q-31 0 -55.5 -23.5t-24.5 -60.5z" />
<glyph unicode="&#xe6;" horiz-adv-x="1447" d="M70 37.5q-2 21.5 0 25.5q29 4 48 12.5t35.5 23t31 34t30.5 43.5q43 66 92 139.5t98.5 147.5t95.5 143.5t83 126.5q20 33 -6 35q-18 2 -41 4t-50 6q-2 0 -3 10.5t0 22.5t3 22.5t5 10.5q59 0 128.5 -2t118.5 -4h68t65 2q98 0 198.5 3t201.5 3q10 0 18 -8q8 -12 6 -17 q-10 -66 -12 -109.5t0 -70.5q0 -8 -18 -8q-29 0 -36 5t-11 15q-18 72 -50 95.5t-116 23.5h-110t-54 -4q-20 -6 -21 -53l2 -236q0 -27 21 -26h67h70t72 2q45 2 59.5 19.5t32.5 70.5q2 4 11 6t38 2q10 0 10 -10q-10 -70 -10 -130.5t6 -131.5q-2 -2 -16 -4.5t-25 -2.5 q-16 0 -18 5q-4 12 -11.5 28.5t-11.5 30.5q-8 16 -20 24.5t-47 12.5q-25 2 -50.5 2h-82.5q-47 0 -62.5 -1t-21.5 -5q-4 -4 -8.5 -42t-4.5 -130q0 -31 2 -59.5t13 -41.5q6 -8 13 -14t24.5 -10t47 -6t81.5 -2q45 0 83.5 5t70.5 21.5t55.5 45t39.5 77.5q0 8 21 8q8 0 16 -1 t13 -1q6 -4 6 -14q-4 -66 -16.5 -120t-24.5 -83q-2 -10 -17 -10q-20 0 -57 1t-82 1t-94 1t-92 1q-82 0 -140.5 -1t-100.5 -2t-71.5 -2t-54.5 -1q-4 2 -4 26.5t2 30.5q2 8 16 12q53 6 72 15.5t19 27.5q4 53 6 116t2 134q0 18 -17 19q-53 4 -110.5 3t-118.5 -1q-20 0 -37 -19 q-39 -63 -66.5 -108t-45.5 -82q-29 -57 -16 -76.5t73 -28.5q10 -2 11 -4t1 -8q0 -16 -1 -32.5t-5 -18.5q-55 2 -114.5 2h-90.5q-18 0 -48 -1t-40 -1q-12 0 -16 8q-4 10 -6 31.5zM487 446h213q16 6 17 33l6 279q0 8 -13.5 9t-19.5 -9q-43 -59 -92 -133t-111 -179z" />
<glyph unicode="&#xe7;" horiz-adv-x="1013" d="M98 414q0 84 28 161.5t81 135.5q53 55 122.5 86.5t143.5 50.5q45 12 88 16t86 4q53 0 100.5 -9t79.5 -21q12 0 23 8q4 2 7 3t7 3t11.5 2t27.5 -10q12 -2 12 -8q-23 -47 -27.5 -112t5.5 -118q2 -6 -1 -9t-18 -3q-16 0 -29.5 3t-15.5 7q-10 47 -26.5 87t-48.5 61 q-27 23 -70 35t-88 12q-57 0 -112.5 -23.5t-100.5 -75.5q-43 -49 -66.5 -120.5t-23.5 -167.5q0 -57 18.5 -122t57.5 -119t101 -90t153 -36q35 0 80 16.5t88 55.5q25 20 46 48t31 52q4 4 9.5 4t23.5 -16q14 -10 14 -21q-8 -53 -27.5 -102t-31.5 -66q-8 -14 -14 -18t-17 -4 q-27 -2 -73.5 -10.5t-108.5 -10.5l-51 -77q47 -14 77.5 -44t30.5 -71t-26.5 -76t-62.5 -62.5t-71.5 -46t-54.5 -24.5l-36 41q25 12 49 29.5t42.5 36t31 35t12.5 28.5q0 29 -20.5 40t-76.5 28q-16 4 -19 7t-3 9q0 10 10 27q6 10 36 45.5t58 74.5q-131 6 -221 47t-145.5 103.5 t-80 138.5t-24.5 152z" />
<glyph unicode="&#xe8;" horiz-adv-x="966" d="M113 776l2 60q2 6 8 6h55h80q25 -2 55.5 -2h71.5q53 0 104.5 1t100.5 3q49 0 96 1t92 1q29 0 35 -8q4 -4 5 -9.5t-3 -23.5q-6 -47 -8 -93t0 -73q0 -8 -21 -8q-31 0 -36 5t-9 13q-8 39 -17 62.5t-28.5 37t-53.5 18.5t-91 5q-59 0 -92 -2t-45 -4q-23 -2 -23 -29 q0 -66 1 -130t1 -124q0 -10 6.5 -16t10.5 -6h90q47 0 73.5 -1t63.5 3q37 2 50 17.5t26 66.5q2 4 11 6t38 2q12 0 12 -8q-4 -23 -7 -67t-3 -74q0 -41 1 -65t5 -56q0 -4 -12.5 -5t-46.5 -6q-4 10 -10.5 31t-10.5 31q-4 23 -14 32t-39 13q-39 4 -69.5 4h-84.5q-41 0 -56 -1 t-24 -5q-4 -2 -6 -7t-3 -23.5t-2 -56.5t-1 -106t17 -94q4 -10 31.5 -17t115.5 -7q55 0 97 5t73 21.5t52.5 46t35.5 76.5q2 8 16 8q10 0 22.5 -2t16.5 -2q8 0 9 -14q-4 -63 -16.5 -118.5t-22.5 -84.5q-6 -8 -21 -8q-20 0 -56 1t-81 1t-95 1t-100 1q-92 0 -180 -3t-186 -3 q-4 4 -4 25.5v27.5q2 8 10 8q31 6 49.5 10.5t27.5 8.5t13 11t4 17q2 12 5 67.5t3 139.5v277q0 78 -2 114.5t-6 47.5q-2 4 -5 7t-13.5 6t-30.5 6t-57 9zM240 1193q-2 7 2 11q27 31 55.5 56.5t44.5 25.5h2q18 0 70.5 -69.5t150.5 -208.5q4 -6 2 -14.5t-6 -10.5l-53 -22 q-18 14 -50 40.5t-68 57.5t-72.5 60.5t-63.5 54.5q-12 12 -14 19z" />
<glyph unicode="&#xe9;" horiz-adv-x="966" d="M113 776l2 60q2 6 8 6h55h80q25 -2 55.5 -2h71.5q53 0 104.5 1t100.5 3q49 0 96 1t92 1q29 0 35 -8q4 -4 5 -9.5t-3 -23.5q-6 -47 -8 -93t0 -73q0 -8 -21 -8q-31 0 -36 5t-9 13q-8 39 -17 62.5t-28.5 37t-53.5 18.5t-91 5q-59 0 -92 -2t-45 -4q-23 -2 -23 -29 q0 -66 1 -130t1 -124q0 -10 6.5 -16t10.5 -6h90q47 0 73.5 -1t63.5 3q37 2 50 17.5t26 66.5q2 4 11 6t38 2q12 0 12 -8q-4 -23 -7 -67t-3 -74q0 -41 1 -65t5 -56q0 -4 -12.5 -5t-46.5 -6q-4 10 -10.5 31t-10.5 31q-4 23 -14 32t-39 13q-39 4 -69.5 4h-84.5q-41 0 -56 -1 t-24 -5q-4 -2 -6 -7t-3 -23.5t-2 -56.5t-1 -106t17 -94q4 -10 31.5 -17t115.5 -7q55 0 97 5t73 21.5t52.5 46t35.5 76.5q2 8 16 8q10 0 22.5 -2t16.5 -2q8 0 9 -14q-4 -63 -16.5 -118.5t-22.5 -84.5q-6 -8 -21 -8q-20 0 -56 1t-81 1t-95 1t-100 1q-92 0 -180 -3t-186 -3 q-4 4 -4 25.5v27.5q2 8 10 8q31 6 49.5 10.5t27.5 8.5t13 11t4 17q2 12 5 67.5t3 139.5v277q0 78 -2 114.5t-6 47.5q-2 4 -5 7t-13.5 6t-30.5 6t-57 9zM421 1015q1 7 5 15q12 20 39 54t55.5 68t54 63.5t37.5 39.5q20 18 45 19h2q23 0 52.5 -18.5t52.5 -38.5q6 -6 5 -14.5 t-15 -16.5q-12 -6 -55.5 -38t-90.5 -69t-88 -70.5t-53 -41.5q-6 -4 -10 -2t-21 20q-16 23 -15 30z" />
<glyph unicode="&#xea;" horiz-adv-x="966" d="M113 776l2 60q2 6 8 6h55h80q25 -2 55.5 -2h71.5q53 0 104.5 1t100.5 3q49 0 96 1t92 1q29 0 35 -8q4 -4 5 -9.5t-3 -23.5q-6 -47 -8 -93t0 -73q0 -8 -21 -8q-31 0 -36 5t-9 13q-8 39 -17 62.5t-28.5 37t-53.5 18.5t-91 5q-59 0 -92 -2t-45 -4q-23 -2 -23 -29 q0 -66 1 -130t1 -124q0 -10 6.5 -16t10.5 -6h90q47 0 73.5 -1t63.5 3q37 2 50 17.5t26 66.5q2 4 11 6t38 2q12 0 12 -8q-4 -23 -7 -67t-3 -74q0 -41 1 -65t5 -56q0 -4 -12.5 -5t-46.5 -6q-4 10 -10.5 31t-10.5 31q-4 23 -14 32t-39 13q-39 4 -69.5 4h-84.5q-41 0 -56 -1 t-24 -5q-4 -2 -6 -7t-3 -23.5t-2 -56.5t-1 -106t17 -94q4 -10 31.5 -17t115.5 -7q55 0 97 5t73 21.5t52.5 46t35.5 76.5q2 8 16 8q10 0 22.5 -2t16.5 -2q8 0 9 -14q-4 -63 -16.5 -118.5t-22.5 -84.5q-6 -8 -21 -8q-20 0 -56 1t-81 1t-95 1t-100 1q-92 0 -180 -3t-186 -3 q-4 4 -4 25.5v27.5q2 8 10 8q31 6 49.5 10.5t27.5 8.5t13 11t4 17q2 12 5 67.5t3 139.5v277q0 78 -2 114.5t-6 47.5q-2 4 -5 7t-13.5 6t-30.5 6t-57 9zM251 1022q-1 8 3 16q8 8 34.5 37t57.5 62.5t57.5 63.5t34.5 40q47 47 64 47h2q4 0 18.5 -12t24.5 -29q6 -6 17 -19.5 t29.5 -38t46.5 -61t71 -90.5q10 -10 8 -17t-8 -11q-10 -8 -34 -18.5t-36 -10.5q-2 0 -22.5 21.5t-45 49t-49 54.5t-37.5 39q-10 -12 -32.5 -37t-46 -50.5t-43 -45t-23.5 -19.5q-43 0 -86 19q-4 2 -5 10z" />
<glyph unicode="&#xeb;" horiz-adv-x="966" d="M113 776l2 60q2 6 8 6h55h80q25 -2 55.5 -2h71.5q53 0 104.5 1t100.5 3q49 0 96 1t92 1q29 0 35 -8q4 -4 5 -9.5t-3 -23.5q-6 -47 -8 -93t0 -73q0 -8 -21 -8q-31 0 -36 5t-9 13q-8 39 -17 62.5t-28.5 37t-53.5 18.5t-91 5q-59 0 -92 -2t-45 -4q-23 -2 -23 -29 q0 -66 1 -130t1 -124q0 -10 6.5 -16t10.5 -6h90q47 0 73.5 -1t63.5 3q37 2 50 17.5t26 66.5q2 4 11 6t38 2q12 0 12 -8q-4 -23 -7 -67t-3 -74q0 -41 1 -65t5 -56q0 -4 -12.5 -5t-46.5 -6q-4 10 -10.5 31t-10.5 31q-4 23 -14 32t-39 13q-39 4 -69.5 4h-84.5q-41 0 -56 -1 t-24 -5q-4 -2 -6 -7t-3 -23.5t-2 -56.5t-1 -106t17 -94q4 -10 31.5 -17t115.5 -7q55 0 97 5t73 21.5t52.5 46t35.5 76.5q2 8 16 8q10 0 22.5 -2t16.5 -2q8 0 9 -14q-4 -63 -16.5 -118.5t-22.5 -84.5q-6 -8 -21 -8q-20 0 -56 1t-81 1t-95 1t-100 1q-92 0 -180 -3t-186 -3 q-4 4 -4 25.5v27.5q2 8 10 8q31 6 49.5 10.5t27.5 8.5t13 11t4 17q2 12 5 67.5t3 139.5v277q0 78 -2 114.5t-6 47.5q-2 4 -5 7t-13.5 6t-30.5 6t-57 9zM194 1085.5q-1 10.5 0 20.5t7 16q31 20 45 32.5t26 51.5q8 8 41 8h2q18 0 23 -6q16 -25 27.5 -39t46.5 -24q4 0 6 -9.5 t2 -20.5t-2 -20.5t-6 -11.5q-33 -18 -45.5 -34.5t-28.5 -57.5q-2 -10 -25.5 -10t-29.5 10q-16 31 -31.5 47.5t-44.5 20.5q-4 0 -8 8t-5 18.5zM535 1104q0 10 2 18t6 11q37 16 50 28.5t30 48.5q2 4 12 5.5t22 1.5h2q8 0 16.5 -1.5t10.5 -3.5q14 -29 28.5 -43t47.5 -26 q6 -2 8 -11.5t2 -20.5t-3 -20.5t-7 -11.5q-37 -16 -50.5 -36.5t-23.5 -57.5q-2 -4 -11 -5t-20.5 1t-21.5 6t-12 12q-10 29 -25.5 41.5t-52.5 34.5q-4 2 -7 10.5t-3 18.5z" />
<glyph unicode="&#xec;" horiz-adv-x="647" d="M98 59q0 8 4 9l68 2q53 0 63 41q2 6 3.5 19t3.5 39t3 65.5t1 101.5v207v101t-2 65q-4 39 -30 52t-101 13q-10 0 -11 10q0 8 4.5 23.5t8.5 21.5q4 8 9 10.5t21 2.5h75t52.5 -1t41 -1h36.5h55.5t53 1t43 1h24.5q10 0 17.5 -2t9.5 -9l4 -49q-47 -6 -73.5 -12t-41 -11 t-18.5 -11.5t-6 -12.5q-4 -18 -7 -61t-3 -142v-188q0 -78 3 -137.5t11 -102.5q2 -18 21.5 -24t90.5 -14q2 -4 4.5 -26t0.5 -32q0 -10 -21 -10q-72 2 -122 2h-97q-74 -2 -121 -3t-57 -1q-14 0 -17 18zM100.5 1195q-2.5 7 1.5 11q27 31 55.5 56.5t45.5 25.5h2q18 0 70.5 -69.5 t150.5 -208.5q4 -6 2 -14.5t-6 -10.5l-53 -22q-18 14 -50 40.5t-68 57.5t-73 60.5t-63 54.5q-12 12 -14.5 19z" />
<glyph unicode="&#xed;" horiz-adv-x="647" d="M98 59q0 8 4 9l68 2q53 0 63 41q2 6 3.5 19t3.5 39t3 65.5t1 101.5v207v101t-2 65q-4 39 -30 52t-101 13q-10 0 -11 10q0 8 4.5 23.5t8.5 21.5q4 8 9 10.5t21 2.5h75t52.5 -1t41 -1h36.5h55.5t53 1t43 1h24.5q10 0 17.5 -2t9.5 -9l4 -49q-47 -6 -73.5 -12t-41 -11 t-18.5 -11.5t-6 -12.5q-4 -18 -7 -61t-3 -142v-188q0 -78 3 -137.5t11 -102.5q2 -18 21.5 -24t90.5 -14q2 -4 4.5 -26t0.5 -32q0 -10 -21 -10q-72 2 -122 2h-97q-74 -2 -121 -3t-57 -1q-14 0 -17 18zM237 988q1 7 5 16q12 20 38.5 54t55.5 67.5t54.5 63.5t37.5 40 q20 18 45 18h2q23 0 52.5 -18.5t52.5 -38.5q6 -6 5 -14.5t-16 -16.5q-12 -6 -55 -37.5t-90 -68.5t-88 -71t-53 -42q-6 -4 -10.5 -2t-20.5 20q-16 23 -15 30z" />
<glyph unicode="&#xee;" horiz-adv-x="647" d="M93 995.5q-1 8.5 3 16.5q8 8 35 36.5t57.5 62.5t57 63.5t35.5 39.5q47 47 63 48h2q4 0 18.5 -12.5t24.5 -28.5q6 -6 17.5 -19.5t30 -38t46 -61.5t70.5 -90q10 -10 8 -17.5t-8 -11.5q-10 -8 -33.5 -18.5t-36.5 -10.5q-2 0 -22.5 21.5t-45 49.5t-49 54.5t-36.5 38.5 q-10 -12 -33 -36.5t-46.5 -50t-43 -45t-23.5 -19.5q-43 0 -86 18q-4 2 -5 10.5zM98 59q0 8 4 9l68 2q53 0 63 41q2 6 3.5 19t3.5 39t3 65.5t1 101.5v207v101t-2 65q-4 39 -30 52t-101 13q-10 0 -11 10q0 8 4.5 23.5t8.5 21.5q4 8 9 10.5t21 2.5h75t52.5 -1t41 -1h36.5h55.5 t53 1t43 1h24.5q10 0 17.5 -2t9.5 -9l4 -49q-47 -6 -73.5 -12t-41 -11t-18.5 -11.5t-6 -12.5q-4 -18 -7 -61t-3 -142v-188q0 -78 3 -137.5t11 -102.5q2 -18 21.5 -24t90.5 -14q2 -4 4.5 -26t0.5 -32q0 -10 -21 -10q-72 2 -122 2h-97q-74 -2 -121 -3t-57 -1q-14 0 -17 18z " />
<glyph unicode="&#xef;" horiz-adv-x="647" d="M34 1083.5q-1 10.5 0 20.5t7 16q31 20 45 32.5t27 51.5q8 8 41 8h2q18 0 22 -6q16 -25 27.5 -39t46.5 -24q4 0 6 -9.5t2 -20.5t-2 -20.5t-6 -11.5q-33 -18 -45 -34.5t-29 -57.5q-2 -10 -25.5 -10t-29.5 10q-16 31 -31.5 47.5t-44.5 20.5q-4 0 -8 8t-5 18.5zM98 59 q0 8 4 9l68 2q53 0 63 41q2 6 3.5 19t3.5 39t3 65.5t1 101.5v207v101t-2 65q-4 39 -30 52t-101 13q-10 0 -11 10q0 8 4.5 23.5t8.5 21.5q4 8 9 10.5t21 2.5h75t52.5 -1t41 -1h36.5h55.5t53 1t43 1h24.5q10 0 17.5 -2t9.5 -9l4 -49q-47 -6 -73.5 -12t-41 -11t-18.5 -11.5 t-6 -12.5q-4 -18 -7 -61t-3 -142v-188q0 -78 3 -137.5t11 -102.5q2 -18 21.5 -24t90.5 -14q2 -4 4.5 -26t0.5 -32q0 -10 -21 -10q-72 2 -122 2h-97q-74 -2 -121 -3t-57 -1q-14 0 -17 18zM375 1102q0 10 2 18t6 10q37 16 50 28.5t30 49.5q2 4 12 5t23 1h2q8 0 16 -1t10 -3 q14 -29 28.5 -43t47.5 -26q6 -2 8 -11.5t2 -20.5t-3 -20.5t-7 -11.5q-37 -16 -50 -36.5t-24 -57.5q-2 -4 -11 -5t-20.5 1t-21.5 6t-12 12q-10 29 -25.5 41.5t-52.5 34.5q-4 2 -7 10.5t-3 18.5z" />
<glyph unicode="&#xf0;" horiz-adv-x="1187" d="M88 471q0 10 2 10h164v128t-1 75t-2 38t-1 17q-4 12 -22.5 19.5t-65.5 15.5q-4 0 -7 6t-5 29l-3 20q-2 12 7 13h95t111 2q68 2 111 4t96 2q33 0 80 -4t98.5 -16.5t104.5 -36t98 -62.5q72 -66 108 -144.5t36 -164.5q0 -59 -29 -135t-96 -142q-70 -61 -122 -86.5 t-106 -42.5q-41 -12 -92 -16t-112 -4q-27 0 -63 1t-69.5 1t-61.5 1t-40 1q-47 0 -88 -1t-49 -1q-10 0 -10 2l-11 59q68 16 84.5 29.5t18.5 34.5q2 20 4 55t3 74t1 78v69h-141q-10 0 -17 7q-2 2 -4 14t-3 26.5t-1 24.5zM416 399q0 -106 4 -186t10 -115q4 -10 19 -20 q25 -8 50 -10t52 -2q35 0 83 10t107 43q78 41 117 125t39 188q0 86 -34 161t-95 118q-59 43 -119.5 56t-101.5 13t-71 -6t-40 -12q-12 -6 -14 -21q-4 -35 -5 -108.5t-1 -153.5h205q27 0 32.5 -3t10.5 -15l8 -39q4 -10 -4 -14q-6 -4 -49.5 -6.5t-143.5 -2.5h-59z" />
<glyph unicode="&#xf1;" horiz-adv-x="1236" d="M100 801v39q0 8 11 6q29 -2 50 -3t45.5 -1h56.5h79q31 0 37 -17q8 -25 80 -102q53 -57 173 -181t300 -298q2 41 4 104.5t3 131t-1 130t-4 101.5q-2 18 -6 29.5t-16.5 18.5t-34 11t-58.5 8q-14 0 -14 13l-2 51h160q37 0 87 3t89 1q10 0 10 -6l12 -47q-43 -14 -67.5 -24.5 t-38 -29t-18.5 -51.5t-9 -90q-4 -100 -6 -187t-2 -180q0 -90 2 -143t2 -63q0 -23 -22.5 -35.5t-40.5 -18.5q-14 -6 -25 15q-31 41 -58.5 74.5t-72.5 80.5q-33 33 -90.5 93.5t-122 128t-129 134t-109.5 113.5q-10 10 -16 8t-8 -12q-2 -25 -4 -71t-2 -111v-93t1 -91t4 -78 t9 -51q10 -31 43 -41.5t78 -14.5l6 -49q0 -10 -10 -10q-47 0 -96.5 2t-96.5 2q-33 0 -68.5 -2t-56.5 -2l-16 51q0 6 10 8q55 12 71.5 28.5t20.5 49.5q4 27 11.5 92.5t7.5 159.5v221q0 66 -3 93.5t-14 39.5q-10 18 -29.5 26.5t-80.5 18.5q-14 2 -15 17zM405.5 958.5 q-2.5 2.5 2.5 14.5q12 31 25 62.5t31.5 57t46.5 43t69 17.5h2q18 0 37.5 -5t37.5 -11q20 -6 39 -11.5t37 -5.5q27 0 51.5 20.5t53.5 55.5q10 -6 28.5 -18.5t14.5 -20.5q-6 -10 -20.5 -28.5t-33 -40t-37 -41t-32.5 -27.5q-43 -23 -105 -8q-23 4 -56.5 15t-55.5 11 q-14 0 -26.5 -10t-23 -23.5t-16.5 -26.5t-8 -20q-10 -2 -43 -2q-16 0 -18.5 2.5z" />
<glyph unicode="&#xf2;" horiz-adv-x="1132" d="M96 422q0 90 34 172t112 149q66 59 152.5 92t178.5 33h2q94 0 178.5 -33.5t148 -93t100 -138.5t36.5 -167q0 -123 -49 -211t-115 -143q-66 -59 -147.5 -85t-134.5 -26q-113 0 -213 40t-172 116q-51 55 -81 135t-30 160zM289 444q0 -92 28.5 -165.5t75.5 -124.5 q49 -53 107.5 -80t111.5 -27q41 0 83 21.5t76 64.5t55.5 107.5t21.5 148.5q0 88 -20.5 167t-86.5 146q-35 39 -85 67t-119 28h-2q-49 0 -92.5 -22.5t-75.5 -61.5q-45 -53 -61.5 -124t-16.5 -145zM291 1209.5q-2 7.5 2 11.5q27 31 55.5 56.5t44.5 25.5h2q18 0 70.5 -70 t150.5 -209q4 -6 2 -14.5t-6 -10.5l-53 -22q-18 14 -50 40.5t-67.5 57.5t-72.5 60.5t-64 54.5q-12 12 -14 19.5z" />
<glyph unicode="&#xf3;" horiz-adv-x="1132" d="M96 422q0 90 34 172t112 149q66 59 152.5 92t178.5 33h2q94 0 178.5 -33.5t148 -93t100 -138.5t36.5 -167q0 -123 -49 -211t-115 -143q-66 -59 -147.5 -85t-134.5 -26q-113 0 -213 40t-172 116q-51 55 -81 135t-30 160zM289 444q0 -92 28.5 -165.5t75.5 -124.5 q49 -53 107.5 -80t111.5 -27q41 0 83 21.5t76 64.5t55.5 107.5t21.5 148.5q0 88 -20.5 167t-86.5 146q-35 39 -85 67t-119 28h-2q-49 0 -92.5 -22.5t-75.5 -61.5q-45 -53 -61.5 -124t-16.5 -145zM476.5 1025q0.5 7 4.5 15q12 20 39 54t55.5 68t54 63.5t38.5 40.5 q20 18 45 18h2q23 0 52.5 -18.5t51.5 -38.5q6 -6 5 -14.5t-15 -16.5q-12 -6 -55 -38t-90.5 -68.5t-88 -70.5t-53.5 -42q-6 -4 -10 -2t-20 20q-16 23 -15.5 30z" />
<glyph unicode="&#xf4;" horiz-adv-x="1132" d="M96 422q0 90 34 172t112 149q66 59 152.5 92t178.5 33h2q94 0 178.5 -33.5t148 -93t100 -138.5t36.5 -167q0 -123 -49 -211t-115 -143q-66 -59 -147.5 -85t-134.5 -26q-113 0 -213 40t-172 116q-51 55 -81 135t-30 160zM289 444q0 -92 28.5 -165.5t75.5 -124.5 q49 -53 107.5 -80t111.5 -27q41 0 83 21.5t76 64.5t55.5 107.5t21.5 148.5q0 88 -20.5 167t-86.5 146q-35 39 -85 67t-119 28h-2q-49 0 -92.5 -22.5t-75.5 -61.5q-45 -53 -61.5 -124t-16.5 -145zM325 1022q-1 8 3 16q8 8 34.5 37t57.5 62.5t57.5 63.5t34.5 40q47 47 63 47h3 q4 0 18 -12t25 -29q6 -6 17 -19.5t29.5 -38t46 -61t70.5 -90.5q10 -10 8.5 -17t-8.5 -11q-10 -8 -33.5 -18.5t-35.5 -10.5q-2 0 -22.5 21.5t-45 49t-49.5 54.5t-37 39q-10 -12 -32.5 -37t-46 -50.5t-43 -45t-23.5 -19.5q-43 0 -86 19q-4 2 -5 10z" />
<glyph unicode="&#xf5;" horiz-adv-x="1132" d="M96 422q0 90 34 172t112 149q66 59 152.5 92t178.5 33h2q94 0 178.5 -33.5t148 -93t100 -138.5t36.5 -167q0 -123 -49 -211t-115 -143q-66 -59 -147.5 -85t-134.5 -26q-113 0 -213 40t-172 116q-51 55 -81 135t-30 160zM289 444q0 -92 28.5 -165.5t75.5 -124.5 q49 -53 107.5 -80t111.5 -27q41 0 83 21.5t76 64.5t55.5 107.5t21.5 148.5q0 88 -20.5 167t-86.5 146q-35 39 -85 67t-119 28h-2q-49 0 -92.5 -22.5t-75.5 -61.5q-45 -53 -61.5 -124t-16.5 -145zM328 958.5q-2 2.5 2 14.5q12 31 25.5 62.5t32 57t46 43t68.5 17.5h2 q18 0 37.5 -5t38.5 -11q20 -6 38.5 -11.5t36.5 -5.5q27 0 51.5 20.5t53.5 55.5q10 -6 28.5 -18.5t14.5 -20.5q-6 -10 -20.5 -28.5t-33 -40t-37 -41t-32.5 -27.5q-43 -23 -105 -8q-23 4 -56.5 15t-55.5 11q-14 0 -26.5 -10t-23 -23.5t-16.5 -26.5t-8 -20q-10 -2 -43 -2 q-16 0 -18 2.5z" />
<glyph unicode="&#xf6;" horiz-adv-x="1132" d="M96 422q0 90 34 172t112 149q66 59 152.5 92t178.5 33h2q94 0 178.5 -33.5t148 -93t100 -138.5t36.5 -167q0 -123 -49 -211t-115 -143q-66 -59 -147.5 -85t-134.5 -26q-113 0 -213 40t-172 116q-51 55 -81 135t-30 160zM277.5 1071q-1.5 10 0 20.5t7.5 16.5 q31 20 45 32.5t26 51.5q8 8 41 8h2q18 0 23 -6q16 -25 27.5 -39t46.5 -25q4 0 6 -9t2 -20t-2 -20.5t-6 -11.5q-33 -18 -45.5 -34.5t-28.5 -57.5q-2 -10 -25.5 -10t-29.5 10q-16 31 -32 47t-44 20q-4 0 -8 8.5t-5.5 18.5zM289 444q0 -92 28.5 -165.5t75.5 -124.5 q49 -53 107.5 -80t111.5 -27q41 0 83 21.5t76 64.5t55.5 107.5t21.5 148.5q0 88 -20.5 167t-86.5 146q-35 39 -85 67t-119 28h-2q-49 0 -92.5 -22.5t-75.5 -61.5q-45 -53 -61.5 -124t-16.5 -145zM618 1089.5q0 10.5 2.5 18.5t6.5 10q37 16 50 28.5t30 49.5q2 4 12 5t22 1h2 q8 0 16.5 -1t10.5 -3q14 -29 28.5 -43t47.5 -27q6 -2 8 -11t2 -20.5t-3 -20.5t-7 -11q-37 -16 -50.5 -36.5t-23.5 -57.5q-2 -4 -11 -5t-20.5 1t-21.5 6t-12 12q-10 29 -25.5 41t-52.5 35q-4 2 -7.5 10t-3.5 18.5z" />
<glyph unicode="&#xf7;" horiz-adv-x="1343" d="M170 414.5q0 15.5 4 81.5q2 6 6 8t27 2h956q10 0 12.5 -6t0.5 -21l-5 -47q-4 -20 -9 -26.5t-21 -6.5h-961q-10 0 -10 15.5zM526 784q33 14 51.5 24.5t27.5 20t12.5 21.5t5.5 29q6 18 29.5 26t25.5 4q18 -29 30.5 -45t23.5 -26.5t25.5 -15.5t39.5 -7q0 -2 1 -11t0 -20.5 t-6.5 -21.5t-13.5 -14q-35 -18 -51 -42t-31 -53q-4 -6 -11 -9t-13 -3h-2q-20 0 -25 8q-14 25 -23.5 38t-17.5 19.5t-20.5 10.5t-32.5 10q-18 8 -23.5 30.5t-1.5 26.5zM530 135q53 27 73 45.5t30 52.5q4 8 28.5 10.5t32.5 -12.5q20 -47 39 -61t62 -29q2 0 1 -19.5t-3 -23.5 q-41 -23 -60.5 -46t-36.5 -75q-4 -6 -20 -6h-2q-27 0 -31 11q-18 47 -45 68.5t-61 37.5q-4 2 -6.5 24.5t-0.5 22.5z" />
<glyph unicode="&#xf8;" horiz-adv-x="1136" d="M96 424q0 88 34 170t106 147q72 63 159.5 95t177.5 32q70 0 136.5 -18.5t119.5 -52.5l103 129q10 -4 26.5 -18.5t22.5 -24.5q8 -18 -6 -29l-84 -100q72 -59 111.5 -140.5t39.5 -173.5q0 -123 -49 -212t-114 -146q-70 -61 -151 -86t-136 -25q-74 0 -146.5 17.5 t-134.5 56.5l-92 -115q-4 -4 -12 -8t-19 0q-10 8 -21 13.5t-22 13.5q-8 6 0 20l103 123q-72 59 -112 146.5t-40 185.5zM281 442q0 -70 17 -130t48 -105l406 495q-33 37 -84.5 67t-122.5 30q-53 0 -101.5 -24.5t-83.5 -63.5q-47 -55 -63 -128t-16 -141zM395 147 q45 -47 99.5 -74.5t119.5 -27.5q43 0 86 21.5t78 64.5t57.5 107.5t22.5 152.5q0 66 -12 129.5t-47 120.5z" />
<glyph unicode="&#xf9;" horiz-adv-x="1173" d="M115 791.5v35.5q0 14 24 15h37t47.5 -1t45 -1h32.5q23 0 43.5 1t44 2t53 2t70.5 1q6 0 8 -4t0 -21q-2 -23 -5 -28t-11 -7q-59 -10 -86 -23t-33 -52q-2 -18 -5 -47t-5 -73t-3 -108.5t-1 -154.5q0 -78 23.5 -126t62.5 -79q35 -29 79 -39t97 -10q76 0 123 31.5t69 60.5 q33 41 44.5 113.5t11.5 166.5q0 82 -2 160t-11 127q-4 23 -28.5 30t-102.5 11q-4 0 -8 5t-2 1q0 14 6 30.5t12 23.5q6 10 19 10h30.5t47 -1t49 -1h39.5q31 0 76 2t75 2q8 0 9 -23q-12 -41 -19 -43q-14 -2 -33.5 -7t-29.5 -9q-16 -8 -21 -31q-4 -18 -10 -82.5t-10 -214.5 q-4 -115 -19.5 -189.5t-64.5 -135.5q-29 -35 -67 -60.5t-80 -43t-85 -27t-82 -9.5h-2q-74 0 -145.5 20.5t-118.5 65.5q-59 55 -77.5 129t-20.5 142v108.5t4 132.5q4 80 2 120t-6 61q-4 14 -26.5 21t-59.5 11q-4 2 -4 9.5zM401.5 1193q-2.5 7 1.5 11q27 31 55.5 56.5 t45.5 25.5h2q18 0 70.5 -69.5t150.5 -208.5q4 -6 2 -14.5t-6 -10.5l-53 -22q-18 14 -50 40.5t-68 57.5t-73 60.5t-63 54.5q-12 12 -14.5 19z" />
<glyph unicode="&#xfa;" horiz-adv-x="1173" d="M115 791.5v35.5q0 14 24 15h37t47.5 -1t45 -1h32.5q23 0 43.5 1t44 2t53 2t70.5 1q6 0 8 -4t0 -21q-2 -23 -5 -28t-11 -7q-59 -10 -86 -23t-33 -52q-2 -18 -5 -47t-5 -73t-3 -108.5t-1 -154.5q0 -78 23.5 -126t62.5 -79q35 -29 79 -39t97 -10q76 0 123 31.5t69 60.5 q33 41 44.5 113.5t11.5 166.5q0 82 -2 160t-11 127q-4 23 -28.5 30t-102.5 11q-4 0 -8 5t-2 1q0 14 6 30.5t12 23.5q6 10 19 10h30.5t47 -1t49 -1h39.5q31 0 76 2t75 2q8 0 9 -23q-12 -41 -19 -43q-14 -2 -33.5 -7t-29.5 -9q-16 -8 -21 -31q-4 -18 -10 -82.5t-10 -214.5 q-4 -115 -19.5 -189.5t-64.5 -135.5q-29 -35 -67 -60.5t-80 -43t-85 -27t-82 -9.5h-2q-74 0 -145.5 20.5t-118.5 65.5q-59 55 -77.5 129t-20.5 142v108.5t4 132.5q4 80 2 120t-6 61q-4 14 -26.5 21t-59.5 11q-4 2 -4 9.5zM531.5 988q0.5 7 5.5 16q12 20 38.5 54t55 67.5 t54.5 63.5t38 40q20 18 45 18h2q23 0 52.5 -18.5t51.5 -38.5q6 -6 5.5 -14.5t-15.5 -16.5q-12 -6 -55 -37.5t-90 -68.5t-88 -71t-53 -42q-6 -4 -10.5 -2t-20.5 20q-16 23 -15.5 30z" />
<glyph unicode="&#xfb;" horiz-adv-x="1173" d="M115 791.5v35.5q0 14 24 15h37t47.5 -1t45 -1h32.5q23 0 43.5 1t44 2t53 2t70.5 1q6 0 8 -4t0 -21q-2 -23 -5 -28t-11 -7q-59 -10 -86 -23t-33 -52q-2 -18 -5 -47t-5 -73t-3 -108.5t-1 -154.5q0 -78 23.5 -126t62.5 -79q35 -29 79 -39t97 -10q76 0 123 31.5t69 60.5 q33 41 44.5 113.5t11.5 166.5q0 82 -2 160t-11 127q-4 23 -28.5 30t-102.5 11q-4 0 -8 5t-2 1q0 14 6 30.5t12 23.5q6 10 19 10h30.5t47 -1t49 -1h39.5q31 0 76 2t75 2q8 0 9 -23q-12 -41 -19 -43q-14 -2 -33.5 -7t-29.5 -9q-16 -8 -21 -31q-4 -18 -10 -82.5t-10 -214.5 q-4 -115 -19.5 -189.5t-64.5 -135.5q-29 -35 -67 -60.5t-80 -43t-85 -27t-82 -9.5h-2q-74 0 -145.5 20.5t-118.5 65.5q-59 55 -77.5 129t-20.5 142v108.5t4 132.5q4 80 2 120t-6 61q-4 14 -26.5 21t-59.5 11q-4 2 -4 9.5zM372 1009.5q-1 8.5 3 16.5q8 8 34.5 37t57.5 62.5 t57.5 63.5t34.5 40q47 47 64 47h2q4 0 18 -12.5t25 -28.5q6 -6 17 -19.5t29.5 -38t46 -61.5t70.5 -90q10 -10 8.5 -17.5t-8.5 -11.5q-10 -8 -33.5 -18t-35.5 -10q-2 0 -22.5 21.5t-45 49t-49 54t-37.5 39.5q-10 -12 -32.5 -37t-46 -50.5t-43 -45t-23.5 -19.5q-43 0 -86 18 q-4 2 -5 10.5z" />
<glyph unicode="&#xfc;" horiz-adv-x="1173" d="M115 791.5v35.5q0 14 24 15h37t47.5 -1t45 -1h32.5q23 0 43.5 1t44 2t53 2t70.5 1q6 0 8 -4t0 -21q-2 -23 -5 -28t-11 -7q-59 -10 -86 -23t-33 -52q-2 -18 -5 -47t-5 -73t-3 -108.5t-1 -154.5q0 -78 23.5 -126t62.5 -79q35 -29 79 -39t97 -10q76 0 123 31.5t69 60.5 q33 41 44.5 113.5t11.5 166.5q0 82 -2 160t-11 127q-4 23 -28.5 30t-102.5 11q-4 0 -8 5t-2 1q0 14 6 30.5t12 23.5q6 10 19 10h30.5t47 -1t49 -1h39.5q31 0 76 2t75 2q8 0 9 -23q-12 -41 -19 -43q-14 -2 -33.5 -7t-29.5 -9q-16 -8 -21 -31q-4 -18 -10 -82.5t-10 -214.5 q-4 -115 -19.5 -189.5t-64.5 -135.5q-29 -35 -67 -60.5t-80 -43t-85 -27t-82 -9.5h-2q-74 0 -145.5 20.5t-118.5 65.5q-59 55 -77.5 129t-20.5 142v108.5t4 132.5q4 80 2 120t-6 61q-4 14 -26.5 21t-59.5 11q-4 2 -4 9.5zM318 1067q-1 10 0 20.5t8 16.5q31 20 45 32.5 t26 51.5q8 8 41 8h2q18 0 23 -6q16 -25 27.5 -39t46.5 -25q4 0 6 -9t2 -20.5t-2 -20.5t-6 -11q-33 -18 -45.5 -34.5t-28.5 -57.5q-2 -10 -25.5 -10t-29.5 10q-16 31 -32 47t-44 20q-4 0 -8.5 8.5t-5.5 18.5zM659 1085.5q0 10.5 2.5 18.5t6.5 10q37 16 50 28.5t30 49.5 q2 4 12 5t22 1h2q8 0 16.5 -1t10.5 -3q14 -29 28.5 -43t47.5 -27q6 -2 8 -11t2 -20.5t-3 -20.5t-7 -11q-37 -16 -50.5 -36.5t-23.5 -57.5q-2 -4 -11 -5t-20.5 1t-21.5 6t-12 12q-10 29 -25.5 41t-52.5 35q-4 2 -7.5 10t-3.5 18.5z" />
<glyph unicode="&#xfd;" horiz-adv-x="1019" d="M73 805.5q1 23.5 1 28.5q6 8 12 8q61 0 104 -2t78 0q45 0 89 4t77 4q8 0 8 -10q0 -45 -10 -60l-49 -8q-12 -4 -15 -11t5 -24q12 -23 34.5 -58.5t45 -72.5t44 -68.5t31.5 -46.5q16 -14 27 0q10 14 39 51.5t58.5 79.5t52 76.5t22.5 44.5t-11 17.5t-57 13.5l-6 49q0 16 9 17 h21h38.5h46.5h43q37 2 80 3t59 1t19 -4q4 -4 4 -29v-29q-61 -6 -91 -27.5t-67 -64.5q-53 -66 -106.5 -127t-106.5 -133q-18 -27 -22.5 -42t-4.5 -58q0 -72 1.5 -112t5.5 -75q4 -31 9 -44t19 -17q10 -4 33 -8t70 -11q10 -2 11 -6t1 -12q-4 -18 -5 -31.5t-5 -17.5 q-39 2 -107.5 4t-144.5 2q-18 0 -45 -1t-51.5 -1t-44 -1t-25.5 -1q-14 0 -16 6q-4 4 -5.5 20.5t-1.5 34.5q51 6 79 12.5t41.5 20.5t15.5 41t2 74v153q0 20 -15 48q-16 31 -44.5 78.5t-62.5 99t-67 97.5t-53 73q-8 10 -24.5 14t-57.5 4q-8 0 -14 6q-2 4 -1 27.5zM454 988 q1 7 5 16q12 20 38.5 54t55.5 67.5t54.5 63.5t37.5 40q20 18 45 18h2q23 0 52.5 -18.5t52.5 -38.5q6 -6 5 -14.5t-16 -16.5q-12 -6 -55 -37.5t-90 -68.5t-88 -71t-53 -42q-6 -4 -10.5 -2t-20.5 20q-16 23 -15 30z" />
<glyph unicode="&#xfe;" horiz-adv-x="952" d="M117 780v8q0 9 1 19t2 19.5t3 11.5q6 6 10 6q43 0 96.5 -3t96.5 -3q35 0 71.5 2t94.5 6q23 2 22 -6q0 -4 1 -13.5t1 -35.5q-37 -6 -59.5 -11.5t-33.5 -17.5t-14 -32.5t-3 -53.5q20 2 47.5 3t64.5 1q84 0 152.5 -20.5t109.5 -53.5q74 -61 74 -155v-2q0 -59 -19.5 -101.5 t-64.5 -79.5q-51 -43 -135 -64.5t-158 -21.5q-23 0 -45 3t-33 5q0 -41 3.5 -64.5t16.5 -35.5t40.5 -19.5t75.5 -13.5q4 -2 6 -7t2 -21q0 -27 -6 -31h-34t-68 1t-85 1h-88q-41 0 -71.5 -3t-49.5 -3q-10 0 -13 6t-5 14q-2 14 -2 27.5t2 13.5q63 10 85.5 24.5t29.5 59.5 q2 18 3 51t1 111v354q0 41 -2 63.5t-14.5 34t-38 16.5t-70.5 11zM397 433q0 -77 2 -154q2 -4 4.5 -7.5t8.5 -7.5q10 -6 33.5 -9t46.5 -3q78 0 133 46t55 144v2q0 84 -53.5 126t-139.5 42q-16 0 -34.5 -3t-34.5 -7q-14 -2 -17 -18q-4 -74 -4 -151z" />
<glyph unicode="&#xff;" horiz-adv-x="1019" d="M73 805.5q1 23.5 1 28.5q6 8 12 8q61 0 104 -2t78 0q45 0 89 4t77 4q8 0 8 -10q0 -45 -10 -60l-49 -8q-12 -4 -15 -11t5 -24q12 -23 34.5 -58.5t45 -72.5t44 -68.5t31.5 -46.5q16 -14 27 0q10 14 39 51.5t58.5 79.5t52 76.5t22.5 44.5t-11 17.5t-57 13.5l-6 49q0 16 9 17 h21h38.5h46.5h43q37 2 80 3t59 1t19 -4q4 -4 4 -29v-29q-61 -6 -91 -27.5t-67 -64.5q-53 -66 -106.5 -127t-106.5 -133q-18 -27 -22.5 -42t-4.5 -58q0 -72 1.5 -112t5.5 -75q4 -31 9 -44t19 -17q10 -4 33 -8t70 -11q10 -2 11 -6t1 -12q-4 -18 -5 -31.5t-5 -17.5 q-39 2 -107.5 4t-144.5 2q-18 0 -45 -1t-51.5 -1t-44 -1t-25.5 -1q-14 0 -16 6q-4 4 -5.5 20.5t-1.5 34.5q51 6 79 12.5t41.5 20.5t15.5 41t2 74v153q0 20 -15 48q-16 31 -44.5 78.5t-62.5 99t-67 97.5t-53 73q-8 10 -24.5 14t-57.5 4q-8 0 -14 6q-2 4 -1 27.5zM241 1102 q-1 10 0 20.5t7 16.5q31 20 45 32.5t26 51.5q8 8 41 8h2q18 0 23 -6q16 -25 27.5 -39.5t46.5 -24.5q4 0 6 -9t2 -20.5t-2 -20.5t-6 -11q-33 -18 -45.5 -34.5t-28.5 -57.5q-2 -10 -25.5 -10.5t-29.5 10.5q-16 31 -31.5 47t-44.5 20q-4 0 -8 8.5t-5 18.5zM582 1120 q0 10 2 18.5t6 10.5q37 16 50 28.5t30 49.5q2 4 12 5t23 1h2q8 0 16 -1t10 -3q14 -29 28.5 -43.5t47.5 -26.5q6 -2 8 -11t2 -20.5t-3 -20.5t-7 -11q-37 -16 -50.5 -37t-23.5 -58q-2 -4 -11 -5t-20.5 1t-21.5 6.5t-12 12.5q-10 29 -25.5 41t-52.5 35q-4 2 -7 10t-3 18z" />
<glyph unicode="&#x152;" horiz-adv-x="2304" d="M86 680q0 131 54.5 260t176.5 238q98 88 227.5 137t262.5 49q158 0 291 -68.5t227 -191.5q-2 66 -5 114t-1 76q0 41 18 41q29 0 70 -3t121 -3h196q94 0 186.5 6t184.5 6q23 0 31 -1t18 -9q12 -10 14.5 -14t-1.5 -27q-16 -92 -18.5 -157.5t-2.5 -104.5q0 -10 -6 -11t-21 1 q-23 0 -28.5 3t-7.5 13q-8 70 -19.5 113t-32 67.5t-55.5 32.5t-92 8h-145q-90 0 -135.5 -1t-61.5 -5q-25 -6 -32 -23.5t-9 -49.5q-6 -100 -7 -212t1 -216q0 -37 28 -37h163t163 4q53 4 84 9t48.5 17.5t25.5 37t18 65.5q2 12 12.5 14t32.5 2q12 0 17.5 -1t3.5 -11 q-6 -53 -9.5 -98t-3.5 -93q0 -45 2.5 -93t8.5 -109q-10 -4 -23.5 -5t-21.5 -1q-16 0 -25 34q-8 45 -16 72t-22.5 41t-38 19.5t-60.5 9.5q-35 4 -87 4h-134h-111t-39 -4q-6 -6 -13 -69.5t-7 -203.5q0 -59 1 -98t4 -63.5t7 -40t12 -29.5q8 -10 21.5 -19.5t42 -15.5t76 -9 t120.5 -3q119 0 191 11t116 38t68.5 73t46.5 117h23.5t25.5 -2q6 -4 7 -16q-2 -37 -7.5 -78t-13.5 -79t-18.5 -71.5t-22.5 -56.5q-10 -16 -24 -16q-27 0 -146 3t-328 3q-45 0 -95 -2t-98 -4t-87 -5t-64 -3q-8 0 -14 22.5t-4 54.5q4 35 3 65t1 79q-43 -57 -100.5 -102.5 t-123 -76t-134 -47t-136.5 -16.5q-76 0 -154.5 17.5t-154.5 50.5t-144.5 79t-119.5 105q-78 86 -125 204t-47 259zM297 700q0 -139 46 -263t130 -208q104 -104 201.5 -145t193.5 -41q82 0 163 37t144.5 108.5t103.5 177t40 242.5q0 72 -9.5 144.5t-29.5 140.5t-54 130 t-85 112q-72 70 -162 112.5t-225 42.5h-2q-29 0 -66 -7t-78 -23.5t-85 -45t-83 -71.5q-43 -47 -70.5 -102.5t-44 -113t-22.5 -115.5t-6 -112z" />
<glyph unicode="&#x153;" horiz-adv-x="1599" d="M98 410q0 102 35 187t107 151q66 59 150.5 89.5t168.5 30.5q92 0 172 -35.5t137 -105.5q-2 37 -2 58.5v37.5q2 10 6.5 15.5t16.5 5.5q29 0 59.5 -2t63.5 -2q111 -2 208 2t189 4q27 0 33 -8q8 -8 2 -31q-8 -55 -9 -98t1 -68q0 -8 -19 -8q-29 0 -35 4t-8 14q-8 35 -17 58.5 t-28.5 37t-53.5 19.5t-91 6q-63 0 -94 -2t-48 -6q-25 -2 -24 -53q0 -47 1 -106.5t1 -117.5q0 -16 4 -20t16 -4h88h73t59 2q20 2 33.5 5t22.5 11t15 23.5t17 42.5q2 4 11 6t34 2q14 0 12 -12q-10 -66 -11 -129.5t5 -134.5q-4 -4 -13.5 -4.5t-17.5 -0.5q-18 0 -22 7 q-8 10 -14.5 25.5t-10.5 27.5q-6 16 -15.5 26.5t-27.5 15.5t-49 7t-78 2q-70 0 -88.5 -1t-24.5 -3q-4 -2 -8 -8t-7 -24.5t-4 -54.5t-1 -97q0 -29 1 -58.5t9 -44.5q4 -8 12.5 -13t25.5 -8t45 -5t73 -2q57 0 101 5t76 20t53.5 45t35.5 79q4 4 8 6t17 2h13t11 -2q6 0 6 -14 q-4 -66 -15 -121t-22 -84q-4 -4 -11 -6t-11 -2q-18 0 -54 1t-81 1t-95.5 1t-99.5 1q-86 0 -140 -1t-95 -1q-10 -2 -14.5 17.5t-2.5 90.5q-68 -78 -151.5 -105.5t-155.5 -27.5q-43 0 -90 9.5t-93 28t-88 45t-73 61.5q-53 59 -84 137t-31 158zM291 422q0 -78 29.5 -153.5 t76.5 -123.5q98 -98 205 -98q45 0 93 20.5t87 63.5t63.5 109.5t24.5 158.5q0 86 -16 167t-86 147q-45 43 -92 62.5t-105 19.5h-2q-49 0 -100 -23.5t-98 -77.5q-47 -59 -63.5 -124.5t-16.5 -147.5z" />
<glyph unicode="&#x178;" horiz-adv-x="1337" d="M55 1295.5q0 17.5 2 23.5q2 16 13 16q27 0 59.5 -1t65.5 -1q33 -2 62.5 -3t47.5 -1q41 0 75 2t60 4q18 2 40 3t32 1q14 0 14 -14v-2q0 -20 -5 -37.5t-9 -21.5q-18 -4 -40.5 -5.5t-41.5 -5.5q-35 -6 -20 -30q33 -59 75.5 -128t82.5 -130.5t70 -105.5t36 -52 q10 -12 18 -23.5t19 -19.5q14 -8 39 24q55 78 94 134.5t66.5 97.5t44 67.5t26.5 42.5q23 33 35 60t12 39q0 10 -22.5 19t-94.5 12l-4 53q0 20 11 20q45 0 91 -3t105 -1t107.5 3t62.5 1q29 0 37 -8q0 -4 1 -13t2 -20.5t0 -20.5t-3 -11q-39 -2 -65.5 -7.5t-47 -16.5t-37 -26.5 t-34.5 -38.5q-61 -72 -116.5 -143.5t-101 -132.5t-77 -107.5t-43.5 -66.5q-16 -25 -25.5 -40t-14.5 -32.5t-7 -42t-2 -63.5v-129q0 -76 1 -132.5t5 -107.5q2 -37 7 -56.5t26.5 -30.5t63.5 -16t116 -12q0 -6 -6.5 -29.5t-10.5 -31.5q-6 -8 -32 -8q-18 2 -52 3t-80 3 q-43 2 -94 3t-104 1q-43 0 -93.5 -3t-90.5 -3q-18 0 -21 8q-4 6 -6 23.5t-2 27.5q0 8 6 8q72 8 115 16.5t53 31.5q6 8 9 23t5 44t3 74t1 112v209q0 27 -2 45.5t-6 35t-14 35t-25 42.5q-84 135 -146.5 230.5t-104.5 157t-64.5 93t-28.5 39.5t-28.5 10.5t-77.5 0.5 q-12 0 -15 8q-2 10 -2 27.5zM396 1542q1 10 7 17q31 20 46.5 33.5t31.5 49.5q4 10 39 11h2q20 0 23 -8q20 -31 31.5 -43.5t41.5 -22.5q6 0 8.5 -8t2.5 -19.5t-3 -21.5t-8 -14q-33 -16 -44 -33t-29 -58q-4 -10 -27.5 -10t-28.5 10q-16 29 -33.5 46.5t-45.5 21.5q-4 0 -7.5 8 t-5.5 19.5t-1 21.5zM778 1538q0 10 2 18.5t6 10.5q37 16 50.5 30.5t29.5 49.5q2 4 13.5 6t21.5 2h2q10 0 19.5 -1t9.5 -3q16 -31 29.5 -44.5t46.5 -27.5q6 -4 9 -13.5t3 -20.5t-3 -20t-9 -12q-37 -16 -50.5 -36.5t-23.5 -57.5q-2 -4 -11.5 -5t-20.5 0t-22.5 6t-13.5 16 q-10 27 -25.5 41t-52.5 30q-4 2 -7 11.5t-3 19.5z" />
<glyph unicode="&#x2c6;" horiz-adv-x="851" d="M191.5 987q-1.5 8 3.5 17q8 8 34.5 36.5t57 62.5t57.5 63.5t35 39.5q47 47 63 47h2q4 0 18.5 -12t24.5 -29q6 -6 17.5 -19t30 -38t46 -61.5t70.5 -89.5q10 -10 8 -17.5t-8 -11.5q-10 -8 -33.5 -18.5t-35.5 -10.5q-2 0 -22.5 21.5t-45.5 49t-49.5 54.5t-36.5 39 q-10 -12 -32.5 -36.5t-46 -50.5t-43 -45.5t-23.5 -19.5q-43 0 -86 19q-4 2 -5.5 10z" />
<glyph unicode="&#x2dc;" horiz-adv-x="851" d="M195 973q-2 2 2 14q12 31 25.5 62.5t31.5 57.5t46 43t69 17h2q37 0 75.5 -16t75.5 -16q27 0 51.5 20.5t53.5 54.5q10 -6 28.5 -18t14.5 -21q-6 -10 -20.5 -28.5t-33 -40t-37 -41t-32.5 -27.5q-43 -23 -105 -8q-23 4 -56.5 15.5t-55.5 11.5q-14 0 -26.5 -10.5t-23 -23.5 t-16.5 -26.5t-8 -19.5q-10 -2 -43 -2q-16 0 -18 2z" />
<glyph unicode="&#x2000;" horiz-adv-x="884" />
<glyph unicode="&#x2001;" horiz-adv-x="1769" />
<glyph unicode="&#x2002;" horiz-adv-x="884" />
<glyph unicode="&#x2003;" horiz-adv-x="1769" />
<glyph unicode="&#x2004;" horiz-adv-x="589" />
<glyph unicode="&#x2005;" horiz-adv-x="442" />
<glyph unicode="&#x2006;" horiz-adv-x="294" />
<glyph unicode="&#x2007;" horiz-adv-x="294" />
<glyph unicode="&#x2008;" horiz-adv-x="221" />
<glyph unicode="&#x2009;" horiz-adv-x="353" />
<glyph unicode="&#x200a;" horiz-adv-x="98" />
<glyph unicode="&#x2010;" horiz-adv-x="667" d="M102 340v2q0 29 11.5 51.5t31.5 32.5q16 10 69.5 30.5t115 42t119 40t79.5 26.5q10 4 17.5 1t29.5 -17q6 -2 3 -27q-12 -37 -19.5 -58.5t-13.5 -31.5t-11.5 -14t-11.5 -6q-12 -4 -64 -15.5t-118 -26t-129.5 -29.5t-93.5 -24q-14 -2 -15 23z" />
<glyph unicode="&#x2011;" horiz-adv-x="667" d="M102 340v2q0 29 11.5 51.5t31.5 32.5q16 10 69.5 30.5t115 42t119 40t79.5 26.5q10 4 17.5 1t29.5 -17q6 -2 3 -27q-12 -37 -19.5 -58.5t-13.5 -31.5t-11.5 -14t-11.5 -6q-12 -4 -64 -15.5t-118 -26t-129.5 -29.5t-93.5 -24q-14 -2 -15 23z" />
<glyph unicode="&#x2012;" horiz-adv-x="667" d="M102 340v2q0 29 11.5 51.5t31.5 32.5q16 10 69.5 30.5t115 42t119 40t79.5 26.5q10 4 17.5 1t29.5 -17q6 -2 3 -27q-12 -37 -19.5 -58.5t-13.5 -31.5t-11.5 -14t-11.5 -6q-12 -4 -64 -15.5t-118 -26t-129.5 -29.5t-93.5 -24q-14 -2 -15 23z" />
<glyph unicode="&#x2013;" horiz-adv-x="1185" d="M100 403l19 91l944 -2q23 0 22 -17q0 -2 -2 -17.5t-6 -31.5t-8 -30.5t-8 -14.5l-948 4q-16 0 -13 18z" />
<glyph unicode="&#x2014;" horiz-adv-x="2050" d="M96 403l17 91l1814 -2q23 0 23 -17q0 -2 -2 -17.5t-6.5 -31.5t-8.5 -30.5t-8 -14.5l-1816 4q-16 0 -13 18z" />
<glyph unicode="&#x2018;" horiz-adv-x="329" d="M57 1126q0 49 21.5 97.5t52.5 88.5t65.5 70.5t61.5 47.5q8 4 20.5 6t32.5 -2q8 0 8 -9q-43 -53 -73.5 -102t-30.5 -100q0 -47 43 -80q14 -14 8 -29q-2 -16 -18 -22q-27 -10 -44.5 -30t-29.5 -42q-12 -20 -29 -21h-2q-33 0 -59.5 40t-26.5 87z" />
<glyph unicode="&#x2019;" horiz-adv-x="329" d="M13 996q-3 3 1 8q41 55 73 106t30 98q-2 49 -43 80q-12 12 -8 29q4 20 20 22q27 10 43 30t33 42q8 18 26 19h2q33 0 58.5 -38t25.5 -94q0 -47 -21.5 -94t-52 -87t-64.5 -71.5t-60 -48.5q-8 -4 -22.5 -6t-33.5 2q-4 0 -7 3z" />
<glyph unicode="&#x201a;" horiz-adv-x="335" d="M2 -180q0 4 2 6q41 57 76 106.5t33 102.5q-2 47 -45 80q-12 10 -9 28q4 18 21 25q29 10 45 29.5t33 42.5q10 18 26 18h2q35 0 61.5 -38t26.5 -91q0 -49 -22.5 -97t-55 -90t-68.5 -74t-62 -48q-8 -4 -22.5 -6t-35.5 2q-6 0 -6 4z" />
<glyph unicode="&#x201c;" horiz-adv-x="647" d="M57 1126q0 49 21.5 97.5t52.5 88.5t65.5 70.5t61.5 47.5q8 4 20.5 6t34.5 -2q4 0 6.5 -3.5t-0.5 -5.5q-41 -53 -72.5 -102t-31.5 -100q0 -45 43 -82q14 -12 8 -27q-2 -16 -18 -22q-27 -10 -44.5 -30t-29.5 -42q-12 -20 -29 -21h-2q-33 0 -59.5 40t-26.5 87zM375 1130 q0 47 21.5 94.5t52 87.5t65.5 71.5t59 48.5q8 4 23.5 6t32.5 -2q4 0 7 -4.5t-1 -6.5q-41 -53 -73 -105t-30 -99t46 -80q8 -8 8 -29q-4 -16 -21 -20q-29 -10 -44 -30t-32 -42q-10 -20 -28 -21h-2q-33 0 -58.5 38t-25.5 93z" />
<glyph unicode="&#x201d;" horiz-adv-x="647" d="M13 996q-3 3 1 8q41 55 73 106t30 98q-2 49 -43 80q-12 12 -8 29q4 20 20 22q27 10 43 30t33 42q8 18 26 19h2q33 0 58.5 -38t25.5 -94q0 -47 -21.5 -94t-52 -87t-64.5 -71.5t-60 -48.5q-8 -4 -22.5 -6t-33.5 2q-4 0 -7 3zM332 1004q41 53 72.5 103t31.5 99 q0 27 -12 45.5t-35 36.5q-8 14 -6 27q4 20 20 24q27 10 43.5 30t28.5 42q12 18 31 19h2q33 0 58.5 -39t25.5 -88t-21.5 -97.5t-52.5 -88.5t-65.5 -70.5t-59.5 -47.5q-10 -4 -23.5 -6t-33.5 2q-8 0 -4 9z" />
<glyph unicode="&#x201e;" horiz-adv-x="641" d="M2 -180q0 4 2 6q41 57 76 106.5t33 102.5q-2 47 -45 80q-12 10 -9 28q4 18 21 25q29 10 45 29.5t33 42.5q10 18 26 18h2q35 0 61.5 -38t26.5 -91q0 -49 -22.5 -97t-55 -90t-68.5 -74t-62 -48q-8 -4 -22.5 -6t-35.5 2q-6 0 -6 4zM307 -174q43 57 78 105.5t35 101.5 q0 47 -47 82q-10 10 -6 28q4 20 20 25q27 10 43 29.5t33 42.5q12 18 29 18h2q35 0 61.5 -39t26.5 -86q0 -51 -23.5 -100t-56.5 -91t-69 -73t-62 -47q-10 -4 -22.5 -6t-35.5 2q-6 -4 -6 2v6z" />
<glyph unicode="&#x2022;" horiz-adv-x="813" d="M143 438q0 18 23.5 38t48.5 24q35 8 57.5 15t38 19.5t25.5 34t22 56.5q10 31 35 47t53 16h3q10 0 19 -9t13 -20q8 -39 14.5 -57t10.5 -35q4 -18 10 -30.5t18.5 -21.5t33 -18.5t53.5 -21.5q27 -10 39 -25.5t12 -50.5q0 -27 -29 -32q-45 -12 -70.5 -22.5t-42 -30t-29 -55.5 t-28.5 -97q-6 -10 -14 -17.5t-35 -7.5q-20 0 -34.5 7.5t-27 25.5t-23.5 48t-28 75q-14 29 -36.5 45t-79.5 37q-27 10 -39.5 29.5t-12.5 33.5z" />
<glyph unicode="&#x2026;" horiz-adv-x="1859" d="M119 147q0 10 13 21.5t30 15.5q20 4 33.5 8.5t22.5 12.5t16.5 22.5t15.5 38.5q10 31 55 31h2q4 0 9.5 -9t15.5 -42q8 -35 20.5 -48.5t61.5 -31.5q10 -4 16 -12.5t6 -30.5q0 -16 -10 -21q-29 -6 -46.5 -12t-27.5 -18.5t-18 -34t-19 -60.5q-4 -12 -26 -12q-27 0 -38 20.5 t-32 73.5q-8 16 -22.5 26.5t-46.5 23.5q-16 6 -23.5 17t-7.5 21zM739 147q0 10 14.5 21.5t28.5 15.5q20 4 33.5 8.5t23 12.5t16.5 22.5t15 38.5q10 31 58 31h2q4 0 8 -9t14 -42q4 -16 8.5 -27.5t12.5 -20t22.5 -16.5t38.5 -16q10 -4 17.5 -12.5t7.5 -30.5q0 -18 -12 -21 q-29 -6 -45.5 -12t-27.5 -18.5t-18.5 -34t-17.5 -60.5q-2 -6 -7 -9t-22 -3q-25 0 -36 20.5t-33 73.5q-8 16 -21.5 26.5t-48.5 23.5q-14 6 -22.5 17t-8.5 21zM1360 147q0 10 13 21.5t28 15.5q20 4 34.5 8.5t23.5 12.5t16.5 22.5t15.5 38.5q10 31 55 31h2q4 0 8.5 -9t14.5 -42 q4 -16 8 -27.5t13.5 -20t23.5 -16.5t39 -16q10 -4 16 -12.5t6 -30.5q0 -16 -10 -21q-29 -6 -46 -12t-27.5 -18.5t-18.5 -34t-19 -60.5q-4 -12 -26 -12q-27 0 -38 20.5t-34 73.5q-8 16 -21.5 26.5t-47.5 23.5q-14 6 -21.5 17t-7.5 21z" />
<glyph unicode="&#x202f;" horiz-adv-x="353" />
<glyph unicode="&#x2039;" horiz-adv-x="606" d="M107 379.5q2 11.5 24 36.5q72 80 141.5 160.5t141.5 164.5q10 8 18 9h2q10 0 34 -19.5t28 -32.5q6 -25 0 -30q-72 -74 -143.5 -148t-131.5 -141q70 -78 135.5 -149.5t98.5 -112.5q25 -27 12 -39q-4 -4 -14.5 -13.5t-23.5 -18.5t-24.5 -15t-17.5 -2q-72 84 -139.5 163.5 t-130.5 161.5q-12 14 -10 25.5z" />
<glyph unicode="&#x203a;" horiz-adv-x="606" d="M109 104q76 78 148.5 151t129.5 140q-70 84 -136.5 157t-107.5 120q-2 4 -3 13t3 15q4 4 14.5 12.5t21.5 16.5t22.5 14.5t15.5 6.5q74 -86 143.5 -166t135.5 -166q4 -6 3 -19.5t-24 -38.5q-66 -78 -137.5 -160.5t-144.5 -164.5q-8 -10 -19 -10h-2q-10 0 -32.5 19 t-28.5 34q-6 23 -2 26z" />
<glyph unicode="&#x205f;" horiz-adv-x="442" />
<glyph unicode="&#x20ac;" d="M23 416q-4 10 8 30.5t16 26.5h92q-4 20 -2 53t4 56h-24q-31 0 -43.5 3t-16.5 11q-8 8 -2 31.5t15 23.5h84q33 137 117.5 239.5t226.5 149.5q39 14 71.5 19.5t73.5 5.5q59 0 97 -11.5t67 -23.5q16 -4 24.5 -3t32.5 15q2 2 13 0q14 -8 18 -10t2 -4q-10 -20 -15 -48 t-7.5 -56.5t-2.5 -56t2 -48.5q0 -4 -8 -7t-16 -5q-14 -4 -19.5 -3t-9.5 9q-4 16 -8 28.5t-14 39.5q-18 45 -49 63q-10 8 -21.5 16.5t-28 14.5t-40 10t-60.5 4q-59 0 -103 -26.5t-78 -72.5t-56.5 -106.5t-34.5 -128.5l460 9q41 0 50.5 -4.5t3.5 -18.5q-8 -35 -19 -47 q-8 -4 -37.5 -5t-107.5 -1l-361 -2q-4 -23 -6 -56.5t2 -54.5l414 4q41 0 49 -5t4 -19q-4 -20 -9 -30.5t-9 -16.5q-8 -6 -31.5 -8.5t-95.5 -0.5l-313 2q6 -49 24.5 -109.5t54 -112.5t91 -87t137.5 -35q61 0 96 26t57 46q29 31 44.5 52.5t21.5 35.5q8 12 14 8q35 -16 31 -32 q-10 -49 -32.5 -98.5t-45.5 -74.5q-18 -18 -29 -16q-31 -6 -74.5 -17.5t-107.5 -11.5q-119 0 -202 35t-137 94.5t-81.5 136t-38.5 160.5h-59q-33 0 -45 3.5t-18 11.5z" />
<glyph unicode="&#x2122;" horiz-adv-x="978" d="M53 1217v2q0 2 5 14t11.5 28.5t11.5 32t7 23.5q2 0 12.5 -2t14.5 -4q4 -14 9 -16.5t15 -4.5q14 -2 46 -2h55q53 0 76.5 1t39.5 3q16 0 22.5 2t12.5 17q0 2 21 2q8 0 20 -2q-10 -27 -12 -45.5t-2 -59.5q0 -2 -7.5 -2h-15.5t-20 2q6 33 -6 35q-14 4 -35 5t-31 1t-11 -3 l-3 -9q-4 -20 -4 -133q0 -37 1 -58.5t7 -32t18.5 -13.5t36.5 -5q2 0 0 -18.5t-4 -18.5q-6 0 -39 1t-51 1q-29 0 -59.5 -1t-38.5 -1q-4 0 -5 16.5t1 16.5q23 4 35 8t17 15.5t6 33t1 62.5q0 35 -1 69.5t-5 65.5q-4 0 -18.5 1t-30 0t-28.5 -3t-19 -8q-4 -4 -9.5 -16.5 t-13.5 -16.5q-2 0 -17.5 6t-15.5 11zM462 978.5q1 20.5 3 20.5q23 2 28 7.5t9 19.5q6 86 6 213q0 14 -6 18.5t-29 8.5q0 4 2 16t4 16q12 0 41 -1t80 -1q4 -16 16.5 -44.5t27.5 -60.5t32.5 -64.5t30.5 -53.5q12 20 30.5 52t36 65t31.5 61.5t18 44.5h109q4 0 4 -16t-4 -16 q-35 0 -35 -27q0 -12 -1 -40t-1 -58.5t1 -59t1 -41.5q-2 -29 7 -34t32 -9q2 0 4 -18.5t-2 -18.5h-76q-4 0 -25.5 -1t-37.5 -3q-6 -2 -7 2.5t-1 24.5q0 10 6 10q18 4 22 10.5t6 16.5q0 6 1 14t1 28.5v55.5v92q0 4 -6 2q-10 -18 -25.5 -50t-31.5 -65.5t-32.5 -66.5l-26.5 -53 q-6 -16 -15 -17q-8 0 -10 7q-12 20 -28.5 53t-33 68.5t-33 70.5t-28.5 62q-2 2 -6 2v-48v-65t1 -60.5t5 -37.5q0 -4 6 -8.5t29 -8.5q2 0 3 -6t1 -12v-19q-35 2 -67.5 2h-63.5q-4 0 -3 20.5z" />
<glyph unicode="&#x25fc;" horiz-adv-x="849" d="M0 0v850h850v-850h-850z" />
</font>
</defs>
</svg>
