<?xml version="1.0" standalone="no"?>
<!DOCTYPE svg PUBLIC "-//W3C//DTD SVG 1.1//EN" "http://www.w3.org/Graphics/SVG/1.1/DTD/svg11.dtd" >
<svg xmlns="http://www.w3.org/2000/svg" xmlns:xlink="http://www.w3.org/1999/xlink" version="1.1">
<metadata></metadata>
<defs>
<font id="webfontregular" horiz-adv-x="500" >
<font-face units-per-em="1000" ascent="750" descent="-250" />
<missing-glyph horiz-adv-x="221" />
<glyph unicode="ff" horiz-adv-x="670" d="M102 314h-71v112h71v123q0 83 38.5 124.5t113.5 41.5q36 0 62 -10t49 -30l-56 -97q-5 6 -14.5 11t-22.5 5q-16 0 -25.5 -10t-9.5 -33v-125h153v143q0 166 157 166q45 0 76.5 -13.5t54.5 -40.5l-73 -90q-7 9 -17.5 16t-25.5 7q-17 0 -27 -10t-10 -33v-145h115v-112h-115 v-314h-135v314h-153v-314h-135v314z" />
<glyph unicode="fi" horiz-adv-x="583" d="M458 497q-35 0 -60.5 23.5t-25.5 61.5q0 37 25.5 60.5t60.5 23.5t60 -23.5t25 -60.5q0 -38 -25 -61.5t-60 -23.5zM102 314h-71v112h71v143q0 166 157 166q40 0 65 -10t47 -29l-63 -95q-6 5 -15 9t-21 4q-16 0 -25.5 -10t-9.5 -33v-145h288v-426h-135v314h-153v-314h-135 v314z" />
<glyph unicode="fl" horiz-adv-x="583" d="M102 314h-71v112h71v96q0 52 16.5 91.5t45 66.5t67 41t82.5 14t82.5 -12.5t67.5 -38t45.5 -63.5t16.5 -88v-533h-135v526q0 51 -22.5 69.5t-54.5 18.5t-54 -19.5t-22 -68.5v-100h99v-112h-99v-314h-135v314z" />
<glyph unicode="ffi" horiz-adv-x="871" d="M746 497q-35 0 -60.5 23.5t-25.5 61.5q0 37 25.5 60.5t60.5 23.5t60 -23.5t25 -60.5q0 -38 -25 -61.5t-60 -23.5zM102 314h-71v112h71v123q0 83 38.5 124.5t113.5 41.5q36 0 62 -10t49 -30l-56 -97q-5 6 -15 11t-22 5q-16 0 -25.5 -10t-9.5 -33v-125h153v143 q0 166 157 166q40 0 65 -10t47 -29l-63 -95q-6 5 -15 9t-21 4q-16 0 -25.5 -10t-9.5 -33v-145h288v-426h-135v314h-153v-314h-135v314h-153v-314h-135v314z" />
<glyph unicode="ffl" horiz-adv-x="871" d="M102 314h-71v112h71v123q0 83 38.5 124.5t113.5 41.5q36 0 62 -10t49 -30l-56 -97q-5 6 -14.5 11t-22.5 5q-16 0 -25.5 -10t-9.5 -33v-125h153v96q0 52 16.5 91.5t45 66.5t67 41t82.5 14t82.5 -12.5t67.5 -38t45.5 -63.5t16.5 -88v-533h-135v526q0 51 -22.5 69.5 t-54.5 18.5t-54 -19.5t-22 -68.5v-100h99v-112h-99v-314h-135v314h-153v-314h-135v314z" />
<glyph unicode="fffl" horiz-adv-x="1159" d="M237 314v-314h-135v314h-71v112h71v123q0 83 38.5 124.5t113.5 41.5q36 0 62 -10t49 -30l-56 -97q-5 6 -14.5 11t-22.5 5q-16 0 -25.5 -10t-9.5 -33v-125h153v133q0 83 38.5 124.5t113.5 41.5q36 0 62 -10t49 -30l-56 -97q-5 6 -14.5 11t-22.5 5q-16 0 -25.5 -10 t-9.5 -33v-135h153v96q0 52 16.5 91.5t45 66.5t67 41t82.5 14t82.5 -12.5t67.5 -38t45.5 -63.5t16.5 -88v-533h-135v526q0 51 -22.5 69.5t-54.5 18.5t-54 -19.5t-22 -68.5v-100h99v-112h-99v-314h-135v314h-153v-314h-135v314h-153z" />
<glyph unicode="fffi" horiz-adv-x="1159" d="M1034 497q-35 0 -60.5 23.5t-25.5 61.5q0 37 25.5 60.5t60.5 23.5t60 -23.5t25 -60.5q0 -38 -25 -61.5t-60 -23.5zM237 314v-314h-135v314h-71v112h71v123q0 83 38.5 124.5t113.5 41.5q36 0 62 -10t49 -30l-56 -97q-5 6 -14.5 11t-22.5 5q-16 0 -25.5 -10t-9.5 -33v-125 h153v133q0 83 38.5 124.5t113.5 41.5q36 0 62 -10t49 -30l-56 -97q-5 6 -14.5 11t-22.5 5q-16 0 -25.5 -10t-9.5 -33v-135h153v143q0 166 157 166q40 0 65 -10t47 -29l-63 -95q-6 5 -15 9t-21 4q-16 0 -25.5 -10t-9.5 -33v-145h288v-426h-135v314h-153v-314h-135v314h-153 v-314h-135v314h-153z" />
<glyph unicode="ff&#xef;" horiz-adv-x="871" d="M851 481q-30 0 -52.5 21t-22.5 51t22.5 51t52.5 21q29 0 50.5 -21t21.5 -51t-21.5 -51t-50.5 -21zM667 481q-28 0 -50 21t-22 51t22 51t50 21q30 0 52.5 -21t22.5 -51t-22.5 -51t-52.5 -21zM102 314h-71v112h71v123q0 83 38.5 124.5t113.5 41.5q36 0 62 -10t49 -30 l-56 -97q-5 6 -14.5 11t-22.5 5q-16 0 -25.5 -10t-9.5 -33v-125h153v143q0 166 157 166q31 0 56 -7t48 -25l-67 -96q-10 7 -24 7q-16 0 -25.5 -10t-9.5 -33v-145h288v-426h-135v314h-153v-314h-135v314h-153v-314h-135v314z" />
<glyph unicode="ff&#xee;" horiz-adv-x="871" d="M102 314h-71v112h71v123q0 83 38.5 124.5t113.5 41.5q36 0 62 -10t49 -30l-56 -97q-5 6 -14.5 11t-22.5 5q-16 0 -25.5 -10t-9.5 -33v-125h153v143q0 166 157 166q40 0 65 -10t47 -29l-63 -95q-6 5 -15 9t-21 4q-16 0 -25.5 -10t-9.5 -33v-145h288v-426h-135v314h-153 v-314h-135v314h-153v-314h-135v314zM739 716h11l159 -216h-108l-56 65l-57 -65h-108z" />
<glyph unicode="ff&#xed;" horiz-adv-x="871" d="M102 314h-71v112h71v123q0 83 38.5 124.5t113.5 41.5q36 0 62 -10t49 -30l-56 -97q-5 6 -14.5 11t-22.5 5q-16 0 -25.5 -10t-9.5 -33v-125h153v143q0 166 157 166q40 0 65 -10t47 -29l-63 -95q-6 5 -15 9t-21 4q-16 0 -25.5 -10t-9.5 -33v-145h288v-426h-135v314h-153 v-314h-135v314h-153v-314h-135v314zM742 688h154l-104 -188h-102z" />
<glyph unicode="f&#xef;" horiz-adv-x="583" d="M563 481q-30 0 -52.5 21t-22.5 51t22.5 51t52.5 21q29 0 50.5 -21t21.5 -51t-21.5 -51t-50.5 -21zM379 481q-28 0 -50 21t-22 51t22 51t50 21q30 0 52.5 -21t22.5 -51t-22.5 -51t-52.5 -21zM102 314h-71v112h71v143q0 166 157 166q31 0 55.5 -7t48.5 -25l-67 -96 q-9 7 -24 7q-16 0 -25.5 -10t-9.5 -33v-145h288v-426h-135v314h-153v-314h-135v314z" />
<glyph unicode="f&#xee;" horiz-adv-x="583" d="M102 314h-71v112h71v143q0 166 157 166q40 0 65 -10t47 -29l-63 -95q-6 5 -15 9t-21 4q-16 0 -25.5 -10t-9.5 -33v-145h288v-426h-135v314h-153v-314h-135v314zM451 716h11l159 -216h-108l-56 65l-57 -65h-108z" />
<glyph unicode="f&#xed;" horiz-adv-x="583" d="M102 314h-71v112h71v143q0 166 157 166q40 0 65 -10t47 -29l-63 -95q-6 5 -15 9t-21 4q-16 0 -25.5 -10t-9.5 -33v-145h288v-426h-135v314h-153v-314h-135v314zM454 688h154l-104 -188h-102z" />
<glyph unicode="ffk" horiz-adv-x="1119" d="M390 522q0 52 16.5 91.5t45 66.5t67 41t82.5 14t82.5 -12.5t67.5 -38t45.5 -63.5t16.5 -88v-179q0 -24 -2 -48t-5 -44l140 164h150l-151 -174l167 -252h-157l-106 161l-36 -38v-123h-135v526q0 51 -22.5 69.5t-54.5 18.5t-54 -19.5t-22 -68.5v-100h99v-112h-99v-314h-135 v314h-153v-314h-135v314h-71v112h71v123q0 83 38.5 124.5t113.5 41.5q36 0 62 -10t49 -30l-56 -97q-5 6 -14.5 11t-22.5 5q-16 0 -25.5 -10t-9.5 -33v-125h153v96z" />
<glyph unicode="ffh" horiz-adv-x="1155" d="M390 522q0 52 16.5 91.5t45 66.5t67 41t82.5 14t82.5 -12.5t67.5 -38t45.5 -63.5t16.5 -88v-174q20 37 53.5 56.5t78.5 19.5q70 0 115 -49t45 -140v-246h-135v237q0 36 -17.5 55.5t-53.5 19.5q-41 0 -63.5 -21.5t-22.5 -62.5v-228h-135v526q0 51 -22.5 69.5t-54.5 18.5 t-54 -19.5t-22 -68.5v-100h99v-112h-99v-314h-135v314h-153v-314h-135v314h-71v112h71v123q0 83 38.5 124.5t113.5 41.5q36 0 62 -10t49 -30l-56 -97q-6 7 -15.5 11.5t-21.5 4.5q-16 0 -25.5 -10t-9.5 -33v-125h153v96z" />
<glyph unicode="ffb" horiz-adv-x="1176" d="M624 426v-112h-99v-314h-135v314h-153v-314h-135v314h-71v112h71v123q0 83 38.5 124.5t113.5 41.5q36 0 62 -10t49 -30l-56 -97q-5 6 -14 11t-23 5q-16 0 -25.5 -10t-9.5 -33v-125h153v96q0 52 16.5 91.5t45 66.5t67 41t82.5 14t82.5 -12.5t67.5 -38t45.5 -63.5t16.5 -88 v-167q21 32 53 50.5t81 18.5q39 0 73.5 -16t60.5 -45.5t41 -70t15 -89.5t-15.5 -90t-42 -70.5t-61.5 -46t-74 -16.5q-49 0 -82.5 18.5t-51.5 52.5l3 -62h-135v526q0 51 -22.5 69.5t-54.5 18.5t-54 -19.5t-22 -68.5v-100h99zM905 109q43 0 68 27t25 78q0 48 -25 75t-68 27 q-44 0 -70 -27t-26 -75q0 -51 26 -78t70 -27z" />
<glyph unicode="fft" horiz-adv-x="966" d="M826 -11q-32 0 -59.5 8.5t-47 29t-30.5 53t-11 80.5v154h-153v-314h-135v314h-153v-314h-135v314h-71v112h71v123q0 83 38.5 124.5t113.5 41.5q36 0 62 -10t49 -30l-56 -97q-5 6 -14.5 11t-22.5 5q-16 0 -25.5 -10t-9.5 -33v-125h153v143q0 166 157 166q40 0 65 -10 t47 -29l-63 -95q-6 5 -15 9t-21 4q-16 0 -25.5 -10.5t-9.5 -32.5v-145h153v222h134v-222h109v-112h-109v-158q0 -32 9.5 -42t25.5 -10q14 0 26.5 6t20.5 12l51 -94q-16 -13 -44 -26t-75 -13z" />
<glyph unicode="ffj" horiz-adv-x="871" d="M746 497q-35 0 -60.5 23.5t-25.5 61.5q0 37 25.5 60.5t60.5 23.5t60 -23.5t25 -60.5q0 -38 -25 -61.5t-60 -23.5zM660 -222q-38 0 -68 16t-45 35l67 80q18 -16 33 -16q31 0 31 34v387h-153v-314h-135v314h-153v-314h-135v314h-71v112h71v123q0 83 38.5 124.5t113.5 41.5 q36 0 62 -10t49 -30l-56 -97q-5 6 -14.5 11t-22.5 5q-16 0 -25.5 -10t-9.5 -33v-125h153v143q0 166 157 166q40 0 65 -10t47 -29l-63 -95q-6 5 -15 9t-21 4q-16 0 -25.5 -10t-9.5 -33v-145h288v-494q0 -74 -39 -114t-114 -40z" />
<glyph unicode="fff" horiz-adv-x="958" d="M525 314v-314h-135v314h-153v-314h-135v314h-71v112h71v123q0 83 38.5 124.5t113.5 41.5q36 0 62 -10t49 -30l-56 -97q-5 6 -14.5 11t-22.5 5q-16 0 -25.5 -10.5t-9.5 -32.5v-125h153v133q0 83 38.5 124.5t113.5 41.5q36 0 62 -10t49 -30l-56 -97q-5 6 -14.5 11t-22.5 5 q-16 0 -25.5 -10.5t-9.5 -32.5v-135h153v143q0 166 157 166q45 0 76.5 -13.5t54.5 -40.5l-73 -90q-8 10 -18.5 16.5t-24.5 6.5q-17 0 -27 -10t-10 -33v-145h115v-112h-115v-314h-135v314h-153z" />
<glyph unicode="fk" horiz-adv-x="831" d="M525 0h-135v526q0 51 -22.5 69.5t-54.5 18.5t-54 -19.5t-22 -68.5v-100h99v-112h-99v-314h-135v314h-71v112h71v96q0 52 16.5 91.5t45 66.5t67 41t82.5 14t82.5 -12.5t67.5 -38t45.5 -63.5t16.5 -88v-179q0 -24 -2 -48t-5 -44l140 164h150l-151 -174l167 -252h-157 l-106 161l-36 -38v-123z" />
<glyph unicode="fh" horiz-adv-x="867" d="M102 314h-71v112h71v96q0 52 16.5 91.5t45 66.5t67 41t82.5 14t82.5 -12.5t67.5 -38t45.5 -63.5t16.5 -88v-174q20 37 53.5 56.5t78.5 19.5q70 0 115 -49t45 -140v-246h-135v237q0 36 -17.5 55.5t-53.5 19.5q-41 0 -63.5 -21.5t-22.5 -62.5v-228h-135v526 q0 51 -22.5 69.5t-54.5 18.5t-54 -19.5t-22 -68.5v-100h99v-112h-99v-314h-135v314z" />
<glyph unicode="fb" horiz-adv-x="888" d="M656 -9q-49 0 -82.5 18.5t-51.5 52.5l3 -62h-135v526q0 51 -22.5 69.5t-54.5 18.5t-54 -19.5t-22 -68.5v-100h99v-112h-99v-314h-135v314h-71v112h71v96q0 52 16.5 91.5t45 66.5t67 41t82.5 14t82.5 -12.5t67.5 -38t45.5 -63.5t16.5 -88v-167q21 32 53 50.5t81 18.5 q39 0 73.5 -16t60.5 -45.5t41 -70t15 -89.5t-15.5 -90t-42 -70.5t-61.5 -46t-74 -16.5zM617 109q43 0 68 27t25 78q0 48 -25 75t-68 27q-44 0 -70 -27t-26 -75q0 -51 26 -78t70 -27z" />
<glyph unicode="ft" horiz-adv-x="678" d="M538 -11q-32 0 -59.5 8.5t-47 29t-30.5 53t-11 80.5v154h-153v-314h-135v314h-71v112h71v143q0 166 157 166q40 0 65 -10t47 -29l-63 -95q-6 5 -15 9t-21 4q-16 0 -25.5 -10t-9.5 -33v-145h153v222h134v-222h109v-112h-109v-158q0 -32 9.5 -42t25.5 -10q14 0 26 5.5 t21 12.5l51 -94q-16 -13 -44 -26t-75 -13z" />
<glyph unicode="fj" horiz-adv-x="583" d="M458 497q-35 0 -60.5 23.5t-25.5 61.5q0 37 25.5 60.5t60.5 23.5t60 -23.5t25 -60.5q0 -38 -25 -61.5t-60 -23.5zM372 -222q-38 0 -68 16t-45 35l67 80q18 -16 33 -16q31 0 31 34v387h-153v-314h-135v314h-71v112h71v143q0 166 157 166q40 0 65 -10t47 -29l-63 -95 q-6 5 -15 9t-21 4q-16 0 -25.5 -10t-9.5 -33v-145h288v-494q0 -74 -39 -114t-114 -40z" />
<glyph unicode=" "  horiz-adv-x="221" />
<glyph unicode="&#x09;" horiz-adv-x="221" />
<glyph unicode="&#xa0;" horiz-adv-x="221" />
<glyph unicode="!" horiz-adv-x="283" d="M66 680h151l-22 -449h-107zM142 -6q-35 0 -60 23.5t-25 61.5q0 37 25 60.5t60 23.5q34 0 59 -23.5t25 -60.5q0 -38 -25 -61.5t-59 -23.5z" />
<glyph unicode="&#x22;" horiz-adv-x="408" d="M227 680h145l-15 -247h-114zM36 680h144l-15 -247h-114z" />
<glyph unicode="#" horiz-adv-x="526" d="M86 243h-54v102h79l19 75h-54v102h79l25 97h105l-25 -97h75l25 97h105l-24 -97h53v-102h-78l-19 -75h53v-102h-79l-25 -101h-105l25 101h-75l-25 -101h-105zM292 345l19 75h-75l-19 -75h75z" />
<glyph unicode="$" horiz-adv-x="502" d="M218 -7q-44 4 -77.5 16t-58.5 29t-41.5 37t-26.5 40l99 56q14 -25 37.5 -45.5t67.5 -27.5v115q-95 22 -134.5 64.5t-39.5 98.5q0 28 10 54.5t31.5 48t54.5 35t78 16.5v101h67v-103q57 -9 95 -35.5t58 -52.5l-87 -66q-8 12 -24 26.5t-42 22.5v-100q92 -21 139 -63t47 -105 q0 -74 -45 -116t-141 -47v-108h-67v109zM218 429q-29 -3 -40.5 -14.5t-11.5 -27.5q0 -17 9 -28t43 -20v90zM285 96q38 5 49.5 17.5t11.5 27.5q0 17 -11.5 31.5t-49.5 25.5v-102z" />
<glyph unicode="%" horiz-adv-x="855" d="M189 217q-34 0 -63.5 11.5t-52 32.5t-35.5 49.5t-13 63.5q0 34 13 63t35.5 50t52 32.5t63.5 11.5q33 0 63 -11.5t52 -32.5t35 -50t13 -63q0 -35 -13 -63.5t-35 -49.5t-52 -32.5t-63 -11.5zM526 522h133l-330 -522h-133zM667 -9q-34 0 -63.5 11.5t-52 32.5t-35.5 49.5 t-13 63.5q0 34 13 63t35.5 50t52 32.5t63.5 11.5q33 0 63 -11.5t52 -32.5t35 -50t13 -63q0 -35 -13 -63.5t-35 -49.5t-52 -32.5t-63 -11.5zM189 318q20 0 36 15t16 41t-16 41t-36 15t-36 -15t-16 -41t16 -41t36 -15zM667 92q20 0 36 15t16 41t-16 41t-36 15t-36 -15t-16 -41 t16 -41t36 -15z" />
<glyph unicode="&#x26;" horiz-adv-x="695" d="M485 234q11 26 17.5 57.5t6.5 69.5h126q0 -69 -17.5 -126.5t-49.5 -103.5l106 -131h-165l-34 42q-38 -25 -82.5 -38t-92.5 -13q-63 0 -112.5 15t-83 41.5t-51 63t-17.5 80.5q0 37 9.5 65.5t29 52t49 43.5t69.5 40q-26 35 -36.5 67.5t-10.5 67.5q0 33 12 62.5t35.5 51 t57 34.5t75.5 13q40 0 73 -11.5t55.5 -32t35 -49.5t12.5 -65q0 -49 -29.5 -89t-94.5 -74zM312 448q38 21 53 40.5t15 42.5t-14.5 36t-37.5 13t-38.5 -14t-15.5 -37q0 -26 11 -43.5t27 -37.5zM256 313q-44 -24 -59 -51t-15 -60q0 -43 28 -66.5t90 -23.5q54 0 99 24z" />
<glyph unicode="'" horiz-adv-x="216" d="M36 680h144l-15 -247h-114z" />
<glyph unicode="(" horiz-adv-x="344" d="M238 -67q-33 32 -66.5 71t-61 88t-44.5 109t-17 135q0 74 17 134.5t44.5 109.5t61 88t66.5 71l81 -65q-30 -36 -54 -73t-40.5 -78t-25 -87t-8.5 -100t8.5 -100t25 -86.5t40.5 -78t54 -73.5l-81 -65v0z" />
<glyph unicode=")" horiz-adv-x="344" d="M25 -2q30 36 53.5 73.5t40 78t25.5 86.5t9 100t-9 100t-25.5 87t-40 78t-53.5 73l81 65q33 -32 66.5 -71t61 -88t44.5 -109.5t17 -134.5q0 -75 -17 -135t-44.5 -109t-61 -88t-66.5 -71z" />
<glyph unicode="*" horiz-adv-x="425" d="M182 471l-82 -82l-58 100l113 31l-113 31l58 100l82 -82l-29 111h118l-29 -111l82 82l59 -100l-116 -31l116 -31l-59 -100l-82 82l29 -111h-118z" />
<glyph unicode="+" horiz-adv-x="411" d="M145 207h-106v118h106v110h121v-110h106v-118h-106v-110h-121v110z" />
<glyph unicode="," horiz-adv-x="249" d="M90 5q-23 11 -36.5 30t-13.5 46q0 18 7 33t18.5 26t27 17t32.5 6q34 0 59 -23.5t25 -60.5q0 -25 -9.5 -45t-20.5 -40l-59 -109h-68z" />
<glyph unicode="-" horiz-adv-x="302" d="M36 302h230v-120h-230v120z" />
<glyph unicode="." horiz-adv-x="249" d="M125 -6q-35 0 -60 23.5t-25 61.5q0 37 25 60.5t60 23.5q34 0 59 -23.5t25 -60.5q0 -38 -25 -61.5t-59 -23.5z" />
<glyph unicode="/" horiz-adv-x="404" d="M263 722h132l-279 -850h-132z" />
<glyph unicode="0" horiz-adv-x="572" d="M286 -9q-52 0 -97.5 19.5t-79 55t-53 85.5t-19.5 110q0 61 19.5 110.5t53 85t79 55t97.5 19.5t97 -19.5t79 -55t53.5 -85t19.5 -110.5q0 -60 -19.5 -110t-53.5 -85.5t-79 -55t-97 -19.5zM286 111q51 0 79.5 38.5t28.5 111.5t-28.5 111.5t-79.5 38.5t-79.5 -38.5 t-28.5 -111.5t28.5 -111.5t79.5 -38.5z" />
<glyph unicode="1" horiz-adv-x="339" d="M141 404h-105v118h241v-522h-136v404z" />
<glyph unicode="2" horiz-adv-x="471" d="M12 11l212 220q37 38 54 66.5t17 55.5q0 24 -15.5 39.5t-44.5 15.5q-55 0 -85 -75l-123 34q20 77 75.5 120.5t137.5 43.5q44 0 80 -12.5t61.5 -35.5t39 -54.5t13.5 -69.5q0 -45 -24.5 -87.5t-68.5 -88.5l-32 -34q-6 -7 -19 -17t-28 -20q17 2 32 3t25 1h115v-116h-422v11z " />
<glyph unicode="3" horiz-adv-x="488" d="M239 -9q-84 0 -140 36.5t-81 95.5l116 54q13 -29 35.5 -47t64.5 -18q36 0 57 20t21 50t-22 52t-67 22q-26 0 -46 -4.5t-31 -9.5l-6 9l73 108q5 7 16 19.5t32 32.5q-21 -3 -43.5 -5t-34.5 -2h-120v118h384v-11l-84 -123q-8 -12 -20 -24t-26 -21q28 -6 52.5 -20t43 -35.5 t29 -50.5t10.5 -64q0 -46 -17.5 -80t-47 -56.5t-68 -34t-80.5 -11.5z" />
<glyph unicode="4" horiz-adv-x="531" d="M282 65h-248v105l374 357h11v-355h74v-107h-74v-65h-137v65zM156 162q24 3 39 4t26 1h66v51q0 12 1 29.5t4 44.5q-13 -18 -25 -32.5t-23 -24.5l-36 -33q-9 -8 -22 -18.5t-30 -21.5z" />
<glyph unicode="5" horiz-adv-x="477" d="M233 -9q-43 0 -77.5 10.5t-61.5 28t-46 38.5t-30 42l113 62q14 -25 37 -42.5t58 -17.5q33 0 54.5 18t21.5 47q0 32 -24.5 50.5t-72.5 18.5q-39 0 -73.5 -12t-57.5 -25l-8 4v309h329v-117h-214v-61q11 5 27 7t30 2q97 0 150 -49.5t53 -129.5q0 -42 -15 -75.5t-42 -57.5 t-65.5 -37t-85.5 -13z" />
<glyph unicode="6" horiz-adv-x="501" d="M252 -9q-47 0 -86 15t-67.5 41.5t-44 61.5t-15.5 75q0 39 14 73t41 75l129 190h153l-74 -107q-18 -24 -32.5 -37.5t-24.5 -21.5q8 2 18.5 3.5t17.5 1.5q38 0 72 -12.5t59 -36t39.5 -56.5t14.5 -73q0 -39 -15.5 -74t-43.5 -61.5t-67.5 -41.5t-87.5 -15zM251 110 q40 0 58 23.5t18 51.5q0 30 -17 52.5t-59 22.5q-37 0 -57 -22t-20 -53q0 -28 20 -51.5t57 -23.5z" />
<glyph unicode="7" horiz-adv-x="487" d="M269 404h-231v118h427v-11l-245 -511h-146z" />
<glyph unicode="8" horiz-adv-x="495" d="M247 -9q-45 0 -84.5 12t-68 33.5t-45 52t-16.5 67.5q0 45 24.5 77t68.5 51q-64 35 -64 102q0 30 12 56.5t35 46t58 31t80 11.5q46 0 80.5 -11.5t57.5 -31t34.5 -46t11.5 -56.5q0 -68 -63 -102q43 -19 67 -51t24 -77q0 -37 -16 -67.5t-44.5 -52t-67 -33.5t-84.5 -12z M247 107q34 0 55 17t21 47q0 32 -21 50t-55 18q-35 0 -56.5 -18t-21.5 -50q0 -30 21.5 -47t56.5 -17zM249 330q23 0 38 13.5t15 36.5q0 24 -16.5 36.5t-39.5 12.5q-24 0 -39.5 -12.5t-15.5 -36.5q0 -23 17 -36.5t41 -13.5z" />
<glyph unicode="9" horiz-adv-x="503" d="M197 107q12 16 27 31t31 28q-7 -2 -16.5 -3.5t-16.5 -1.5q-38 0 -72 12.5t-59.5 36t-40.5 56t-15 73.5q0 39 15.5 74t44 61.5t68.5 41.5t88 15q47 0 86 -15t67.5 -41.5t44 -61.5t15.5 -75q0 -39 -16 -78t-44 -76l-139 -184h-151zM252 262q37 0 57 22t20 53q0 28 -20 51.5 t-57 23.5q-41 0 -59.5 -23.5t-18.5 -51.5q0 -30 18 -52.5t60 -22.5z" />
<glyph unicode=":" horiz-adv-x="259" d="M130 224q-35 0 -60 23.5t-25 61.5q0 37 25 60.5t60 23.5q34 0 59 -23.5t25 -60.5q0 -38 -25 -61.5t-59 -23.5zM130 -6q-35 0 -60 23.5t-25 61.5q0 37 25 60.5t60 23.5q34 0 59 -23.5t25 -60.5q0 -38 -25 -61.5t-59 -23.5z" />
<glyph unicode=";" horiz-adv-x="259" d="M130 224q-35 0 -60 23.5t-25 61.5q0 37 25 60.5t60 23.5q34 0 59 -23.5t25 -60.5q0 -38 -25 -61.5t-59 -23.5zM95 5q-23 11 -36.5 30t-13.5 46q0 18 7 33t18.5 26t27 17t32.5 6q34 0 59 -23.5t25 -60.5q0 -25 -9.5 -45t-20.5 -40l-59 -109h-68z" />
<glyph unicode="&#x3c;" horiz-adv-x="358" d="M23 239v10l298 165v-117l-107 -54l107 -54v-117z" />
<glyph unicode="=" horiz-adv-x="411" d="M39 406h333v-115h-333v115zM39 242h333v-115h-333v115z" />
<glyph unicode="&#x3e;" horiz-adv-x="358" d="M37 189l107 54l-107 54v117l298 -167v-10l-298 -165v117z" />
<glyph unicode="?" horiz-adv-x="513" d="M174 390h46q61 0 86.5 28.5t25.5 66.5q0 16 -6 31t-16.5 27t-26.5 19t-35 7q-42 0 -65 -17.5t-41 -47.5l-108 63q27 60 81 91t133 31q54 0 95 -17t69.5 -45.5t43 -65.5t14.5 -76q0 -81 -43.5 -132t-126.5 -63v-59h-126v159zM236 -6q-35 0 -60 23.5t-25 61.5q0 37 25 60.5 t60 23.5q34 0 59 -23.5t25 -60.5q0 -38 -25 -61.5t-59 -23.5z" />
<glyph unicode="@" horiz-adv-x="925" d="M477 -207q-94 0 -174 27.5t-138.5 79.5t-92 127t-33.5 170q0 93 35.5 168.5t95 129.5t137.5 83.5t164 29.5q93 0 169.5 -26.5t131 -75.5t84.5 -117.5t30 -152.5q0 -118 -48 -179.5t-137 -61.5q-50 0 -85.5 16.5t-53.5 60.5q-22 -43 -57 -62t-79 -19q-37 0 -69 14.5 t-55.5 40.5t-37 63t-13.5 81t13.5 81t36.5 63.5t55 41.5t68 15q42 0 67.5 -16.5t40.5 -43.5l-2 50h130v-225q0 -33 10.5 -48t35.5 -15q32 0 49 33t17 108q0 71 -21 122.5t-60.5 84.5t-95 49t-124.5 16t-125.5 -22t-97.5 -62.5t-63.5 -97t-22.5 -126.5q0 -69 20.5 -125 t60 -95.5t98 -61t134.5 -21.5q42 0 82.5 7.5t76.5 20.5l42 -94q-47 -19 -93 -27.5t-106 -8.5zM464 100q30 0 49.5 26t19.5 64t-19.5 64t-49.5 26q-35 0 -55 -24.5t-20 -65.5t20 -65.5t55 -24.5z" />
<glyph unicode="A" horiz-adv-x="664" d="M320 686h12l311 -686h-147l-38 92h-264l-38 -92h-135zM408 209l-43 103q-7 17 -14 37t-13 38t-14 46q-8 -28 -13.5 -45.5t-12.5 -37.5t-14 -38l-43 -103h167z" />
<glyph unicode="B" horiz-adv-x="605" d="M71 680h259q52 0 91 -14t65 -38.5t39 -57.5t13 -72q0 -50 -28 -88.5t-76 -50.5q60 -15 96.5 -53.5t36.5 -110.5q0 -42 -15 -77.5t-43 -61.5t-69.5 -41t-93.5 -15h-275v680zM340 123q38 0 62 23.5t24 61.5t-25 61t-69 23h-121v-169h129zM313 411q43 0 65 19t22 54t-19 54 t-61 19h-109v-146h102z" />
<glyph unicode="C" horiz-adv-x="715" d="M398 -9q-73 0 -137 26.5t-111 73t-74.5 110.5t-27.5 139t27.5 139t74.5 110.5t111 72.5t137 26q93 0 159.5 -33.5t112.5 -105.5l-107 -76q-24 39 -65 64t-100 25q-46 0 -84 -17t-65 -46.5t-42 -70t-15 -88.5t15 -89t42 -71t65 -47t84 -17q66 0 106 28t69 72l109 -75 q-45 -69 -115 -109.5t-169 -40.5z" />
<glyph unicode="D" horiz-adv-x="685" d="M71 680h209q78 0 144 -25t113.5 -70t74 -107.5t26.5 -137.5t-26.5 -137.5t-74 -107.5t-113 -70t-144.5 -25h-209v680zM273 123q57 0 98.5 16t68.5 45t40 68.5t13 87.5t-13 87.5t-40 68.5t-68.5 45t-98.5 16h-62v-434h62z" />
<glyph unicode="E" horiz-adv-x="594" d="M71 680h450v-123h-310v-156h273v-120h-273v-158h324v-123h-464v680z" />
<glyph unicode="F" horiz-adv-x="556" d="M71 680h438v-123h-298v-177h271v-125h-271v-255h-140v680z" />
<glyph unicode="G" horiz-adv-x="739" d="M417 -9q-83 0 -151 26.5t-116.5 73t-75 110.5t-26.5 139t25.5 139t71 110.5t109.5 72.5t141 26q165 0 247 -94l-95 -94q-13 13 -27 24.5t-32 19.5t-40.5 13t-52.5 5q-46 0 -83.5 -17t-64 -46.5t-41 -70t-14.5 -88.5t15 -89t44 -71t70.5 -47t95.5 -17q33 0 70 6t63 19v100 h-164v123h292v-294q-15 -12 -40 -26t-58.5 -25.5t-75 -19.5t-87.5 -8z" />
<glyph unicode="H" horiz-adv-x="713" d="M71 680h140v-288h291v288h140v-680h-140v267h-291v-267h-140v680z" />
<glyph unicode="I" horiz-adv-x="287" d="M74 680h140v-680h-140v680z" />
<glyph unicode="J" horiz-adv-x="496" d="M223 -9q-42 0 -75.5 10t-59 27.5t-44.5 41t-31 49.5l114 69q16 -32 36.5 -52t53.5 -20q17 0 31 4t23.5 14t15 27t5.5 43v476h140v-478q0 -54 -15 -94t-43 -66t-66.5 -38.5t-84.5 -12.5z" />
<glyph unicode="K" horiz-adv-x="645" d="M71 680h140v-225q0 -25 -3 -56.5t-6 -57.5q12 27 27 55t33 51l182 233h159l-232 -298l256 -382h-169l-181 277l-66 -79v-198h-140v680z" />
<glyph unicode="L" horiz-adv-x="561" d="M71 680h140v-557h308v-123h-448v680z" />
<glyph unicode="M" horiz-adv-x="830" d="M71 687h11l335 -368l330 368h12v-687h-135v255q0 17 0.5 34t1.5 35q1 21 3 50q-13 -18 -25 -35q-11 -15 -23.5 -31t-24.5 -30l-135 -151h-13l-135 151q-12 14 -24.5 30t-23.5 31q-13 17 -25 35q2 -27 3 -48q1 -18 1.5 -36t0.5 -35v-255h-134v687z" />
<glyph unicode="N" horiz-adv-x="701" d="M273 316q-13 12 -27 28t-26 30q-14 17 -28 35q3 -24 5 -44q2 -19 3.5 -40.5t1.5 -39.5v-285h-131v686h14l343 -322q12 -12 26 -27.5t26 -30.5q14 -17 28 -35q-3 27 -5 49q-2 19 -3 38t-1 37v285h131v-686h-14z" />
<glyph unicode="O" horiz-adv-x="800" d="M400 -9q-74 0 -138 26.5t-111.5 73t-75 110.5t-27.5 139t27.5 139t75 110.5t111.5 73t138 26.5q73 0 137.5 -26.5t112 -73t75 -110.5t27.5 -139t-27.5 -139t-75 -110.5t-112 -73t-137.5 -26.5zM400 116q46 0 84.5 17t66 47t42.5 71t15 89t-15 89t-42.5 71t-66 47 t-84.5 17q-47 0 -85 -17t-65.5 -47t-42.5 -71t-15 -89t15 -89t42.5 -71t65.5 -47t85 -17z" />
<glyph unicode="P" horiz-adv-x="601" d="M71 680h239q52 0 98 -13.5t80.5 -41t54.5 -70.5t20 -103t-20 -103t-54.5 -71t-80.5 -41.5t-98 -13.5h-99v-223h-140v680zM306 346q52 0 82.5 24.5t30.5 81.5t-31 81t-82 24h-95v-211h95z" />
<glyph unicode="Q" horiz-adv-x="800" d="M751 -13l-93 -77l-101 116q-35 -17 -74.5 -26t-82.5 -9q-74 0 -138 26.5t-111.5 73t-75 110.5t-27.5 139t27.5 139t75 110.5t111.5 73t138 26.5q73 0 137.5 -26.5t112 -73t75 -110.5t27.5 -139q0 -73 -25.5 -135t-70.5 -109zM388 219l94 77l86 -99q40 57 40 143 q0 48 -15 89t-42.5 71t-66 47t-84.5 17q-47 0 -85 -17t-65.5 -47t-42.5 -71t-15 -89t15 -89t42.5 -71t65.5 -47t85 -17q39 0 69 10z" />
<glyph unicode="R" horiz-adv-x="629" d="M71 680h252q52 0 98 -12.5t80.5 -39.5t54.5 -69.5t20 -102.5q0 -78 -36.5 -127t-96.5 -72l155 -257h-160l-138 236h-89v-236h-140v680zM319 354q52 0 82.5 22.5t30.5 79.5t-31 79t-82 22h-108v-203h108z" />
<glyph unicode="S" horiz-adv-x="537" d="M267 -9q-49 0 -89 11t-72 30t-55.5 45.5t-38.5 56.5l114 66q23 -37 54.5 -61t83.5 -24q44 0 69.5 19.5t25.5 49.5q0 36 -27 54t-75 39l-35 15q-38 16 -69 35t-53 44t-34 57t-12 75q0 39 14.5 73t41 59t64.5 39t85 14q67 0 115.5 -25.5t83.5 -86.5l-109 -70q-18 32 -39 46 t-51 14q-31 0 -49 -17t-18 -43q0 -32 20.5 -48.5t65.5 -36.5l35 -15q45 -19 79.5 -39.5t58 -46t36 -58t12.5 -76.5q0 -47 -17.5 -83.5t-48.5 -61.5t-73.5 -37.5t-92.5 -12.5z" />
<glyph unicode="T" horiz-adv-x="592" d="M226 557h-194v123h528v-123h-194v-557h-140v557z" />
<glyph unicode="U" horiz-adv-x="686" d="M344 -9q-59 0 -109.5 15.5t-87.5 47.5t-58 79.5t-21 112.5v434h140v-426q0 -75 33 -106t103 -31q69 0 101.5 31t32.5 106v426h140v-434q0 -65 -21 -112.5t-58 -79.5t-87 -47.5t-108 -15.5z" />
<glyph unicode="V" horiz-adv-x="664" d="M21 680h150l117 -262q10 -22 19 -48t17 -51q9 -27 17 -55q7 27 16 55q8 24 17 50t19 49l114 262h136l-298 -686h-14z" />
<glyph unicode="W" horiz-adv-x="958" d="M22 680h148l99 -273q6 -17 12.5 -38t11.5 -40q6 -21 12 -45q6 22 13 45q6 19 13.5 40t15.5 38l131 279h14l133 -279q8 -17 15.5 -38t13.5 -40q7 -22 13 -45q6 23 12 45q5 19 11 39t13 39l98 273h136l-247 -686h-14l-153 328q-7 16 -14 33.5t-12 31.5l-12 36 q-7 -20 -13 -37q-6 -16 -12.5 -33t-13.5 -31l-159 -328h-14z" />
<glyph unicode="X" horiz-adv-x="660" d="M249 374l-185 306h159l69 -117q8 -13 15.5 -28.5t14.5 -30.5q8 -17 15 -34q6 16 12 33q5 14 12 30t15 30l66 117h149l-182 -307l226 -373h-160l-107 181q-8 13 -16 29t-15 31l-16 36q-6 -17 -13 -34q-6 -15 -13.5 -31.5t-15.5 -30.5l-105 -181h-147z" />
<glyph unicode="Y" horiz-adv-x="637" d="M256 249l-236 431h157l96 -185q9 -18 19 -40t18.5 -43t17.5 -45q9 25 16.5 44t17 42t19.5 42l92 185h144l-220 -421v-259h-141v249z" />
<glyph unicode="Z" horiz-adv-x="590" d="M27 12l312 545h-257v123h473v-12l-311 -545h294v-123h-511v12z" />
<glyph unicode="[" horiz-adv-x="337" d="M60 732h247v-114h-112v-566h112v-114h-247v794z" />
<glyph unicode="\" horiz-adv-x="404" d="M9 722h132l279 -850h-132z" />
<glyph unicode="]" horiz-adv-x="337" d="M30 52h112v566h-112v114h247v-794h-247v114z" />
<glyph unicode="^" horiz-adv-x="439" d="M214 687h11l160 -240h-108l-58 71l-57 -71h-108z" />
<glyph unicode="_" horiz-adv-x="283" d="M-2 -8h287v-120h-287v120z" />
<glyph unicode="`" d="M94 688h154l52 -188h-102z" />
<glyph unicode="a" horiz-adv-x="540" d="M264 528h11l246 -528h-141l-25 59h-179l-25 -59h-132zM322 151l-15 34q-8 18 -15.5 37t-13 34.5t-11.5 37.5q-6 -21 -11.5 -36.5t-12.5 -34.5t-15 -38l-15 -34h109z" />
<glyph unicode="b" horiz-adv-x="505" d="M56 522h219q40 0 70.5 -11t51.5 -29.5t32 -43t11 -51.5q0 -80 -74 -108q48 -14 74 -47t26 -86q0 -70 -49.5 -108t-130.5 -38h-230v522zM278 111q25 0 40 15.5t15 38.5t-15 39t-40 16h-91v-109h91zM264 320q20 0 33 12t13 35q0 22 -13 33.5t-33 11.5h-77v-92h77z" />
<glyph unicode="c" horiz-adv-x="588" d="M318 -9q-64 0 -115 20.5t-86.5 57t-54.5 86t-19 106.5q0 58 19.5 107.5t55.5 85.5t86 56.5t110 20.5q78 0 133 -29.5t90 -84.5l-108 -72q-17 28 -43.5 47t-71.5 19q-31 0 -55.5 -11t-41.5 -31t-26 -47.5t-9 -60.5q0 -32 9 -59.5t26.5 -47.5t42.5 -31.5t57 -11.5 q49 0 79.5 21t46.5 53l110 -63q-29 -60 -89 -95.5t-146 -35.5z" />
<glyph unicode="d" horiz-adv-x="559" d="M56 522h188q58 0 107.5 -18t86 -52t57.5 -82.5t21 -108.5t-20.5 -108t-57 -82t-86.5 -52.5t-108 -18.5h-188v522zM237 118q73 0 106.5 38.5t33.5 104.5t-33.5 104.5t-106.5 38.5h-45v-286h45z" />
<glyph unicode="e" horiz-adv-x="480" d="M56 522h371v-117h-235v-87h196v-111h-196v-90h245v-117h-381v522z" />
<glyph unicode="f" horiz-adv-x="459" d="M56 522h363v-119h-227v-117h203v-119h-203v-167h-136v522z" />
<glyph unicode="g" horiz-adv-x="585" d="M331 -9q-67 0 -120.5 20t-90.5 56t-57 85.5t-20 108.5q0 60 21.5 110t58.5 85.5t87 55t108 19.5q79 0 125 -23.5t75 -54.5l-87 -90q-16 18 -41.5 33t-71.5 15q-32 0 -57.5 -12t-43 -32t-26.5 -47.5t-9 -58.5q0 -32 7.5 -60t25 -49t46 -33.5t70.5 -12.5q23 0 44.5 4 t36.5 10v60h-106v109h230v-246q-25 -17 -79 -34.5t-126 -17.5z" />
<glyph unicode="h" horiz-adv-x="577" d="M56 522h136v-203h193v203h136v-522h-136v198h-193v-198h-136v522z" />
<glyph unicode="i" horiz-adv-x="252" d="M58 522h136v-522h-136v522z" />
<glyph unicode="j" horiz-adv-x="424" d="M191 -9q-71 0 -114 32t-64 79l110 62q14 -28 28 -41.5t37 -13.5t35 13.5t12 44.5v355h136v-359q0 -46 -13.5 -78.5t-37.5 -53.5t-57 -30.5t-72 -9.5z" />
<glyph unicode="k" horiz-adv-x="546" d="M56 522h136v-127q0 -16 -1 -34.5t-4.5 -50.5t-5.5 -46q6 12 14.5 27.5t18.5 32.5t20 32.5t19 27.5l108 138h149l-179 -224l203 -298h-161l-135 203l-46 -53v-150h-136v522z" />
<glyph unicode="l" horiz-adv-x="462" d="M56 522h136v-404h230v-118h-366v522z" />
<glyph unicode="m" horiz-adv-x="656" d="M56 529h10l264 -280l259 280h10v-529h-131v159q0 16 2 45t5 57q-17 -26 -36 -50.5t-32 -38.5l-74 -81h-10l-76 81q-14 15 -32 38.5t-35 50.5q4 -35 5.5 -60.5t1.5 -41.5v-159h-131v529z" />
<glyph unicode="n" horiz-adv-x="556" d="M246 202q-15 13 -36.5 35t-38.5 43q5 -34 7.5 -64t2.5 -46v-170h-125v529h11l241 -208q16 -14 35.5 -34t39.5 -45q-4 35 -6 64.5t-2 46.5v169h125v-530h-11z" />
<glyph unicode="o" horiz-adv-x="648" d="M324 -9q-57 0 -108.5 20t-89.5 56t-60.5 85.5t-22.5 108.5q0 60 22.5 109.5t60.5 85.5t89.5 55.5t108.5 19.5t108.5 -19.5t89.5 -55.5t60.5 -85.5t22.5 -109.5q0 -59 -22.5 -108.5t-60.5 -85.5t-89.5 -56t-108.5 -20zM324 111q31 0 57.5 11t45 30.5t29 47t10.5 61.5 q0 33 -10.5 60.5t-29 47.5t-45 31t-57.5 11q-32 0 -58 -11t-44.5 -31t-29 -47.5t-10.5 -60.5q0 -34 10.5 -61.5t29 -47t44.5 -30.5t58 -11z" />
<glyph unicode="p" horiz-adv-x="505" d="M56 522h198q48 0 87.5 -10.5t68 -33t44.5 -57.5t16 -83t-16 -83t-44.5 -57.5t-68 -33.5t-87.5 -11h-62v-153h-136v522zM251 268q42 0 60.5 19t18.5 51t-20 50t-59 18h-59v-138h59z" />
<glyph unicode="q" horiz-adv-x="648" d="M433 11q-52 -20 -109 -20t-108.5 20t-89.5 56t-60.5 85.5t-22.5 108.5q0 60 22.5 109.5t60.5 85.5t89.5 55.5t108.5 19.5t108.5 -19.5t89.5 -55.5t60.5 -85.5t22.5 -109.5q0 -57 -20.5 -105t-56.5 -83l68 -79l-88 -71zM324 107q7 0 13 0.5t13 1.5l-56 65l88 71l63 -74 q21 36 21 90q0 33 -10.5 60.5t-29 47.5t-45 31t-57.5 11q-32 0 -58 -11t-44.5 -31t-29 -47.5t-10.5 -60.5q0 -34 10.5 -62t29 -48.5t44.5 -32t58 -11.5z" />
<glyph unicode="r" horiz-adv-x="521" d="M56 522h203q48 0 87.5 -10.5t68 -33t44.5 -57.5t16 -83q0 -58 -26.5 -95.5t-71.5 -57.5l115 -185h-153l-98 164h-49v-164h-136v522zM256 271q42 0 60.5 17.5t18.5 49.5t-20 50t-59 18h-64v-135h64z" />
<glyph unicode="s" horiz-adv-x="459" d="M230 -9q-80 0 -135.5 34t-81.5 87l106 62q17 -30 43.5 -49t65.5 -19q28 0 46 10t18 28q0 19 -16 30t-55 27l-22 9q-32 13 -58.5 28t-45.5 35t-29.5 46t-10.5 61q0 34 12.5 62t35 47.5t54 30.5t69.5 11q57 0 97.5 -19.5t72.5 -70.5l-103 -59q-14 22 -28.5 29.5t-34.5 7.5 t-32.5 -10t-12.5 -27q0 -21 15.5 -31t38.5 -20l22 -9q36 -15 66.5 -30.5t52.5 -35.5t34.5 -47t12.5 -64q0 -73 -52 -113.5t-145 -40.5z" />
<glyph unicode="t" horiz-adv-x="505" d="M184 404h-148v118h433v-118h-148v-404h-137v404z" />
<glyph unicode="u" horiz-adv-x="556" d="M279 -9q-50 0 -91.5 14t-71.5 41t-46.5 67t-16.5 93v316h136v-314q0 -96 89 -96t89 96v314h136v-316q0 -53 -16.5 -93t-46.5 -67t-71 -41t-90 -14z" />
<glyph unicode="v" horiz-adv-x="542" d="M17 522h150l67 -152q10 -23 21 -55t22 -75q10 39 21 72t22 58l67 152h138l-247 -529h-12z" />
<glyph unicode="w" horiz-adv-x="750" d="M17 522h146l59 -161q7 -20 16 -49.5t17 -65.5q6 27 17.5 61t21.5 55l79 166h11l82 -166q11 -22 23 -55.5t18 -60.5q6 27 15.5 60.5t17.5 54.5l58 161h135l-200 -529h-12l-101 199q-9 18 -19.5 45.5t-21.5 63.5q-11 -39 -21.5 -65.5t-19.5 -43.5l-106 -199h-12z" />
<glyph unicode="x" horiz-adv-x="567" d="M198 289l-147 233h152l43 -73q9 -15 19.5 -39t18.5 -54q10 30 20.5 54t18.5 39l41 73h145l-145 -234l183 -288h-154l-65 104q-11 18 -25 46t-25 59q-14 -38 -26 -63t-22 -42l-63 -104h-147z" />
<glyph unicode="y" horiz-adv-x="521" d="M196 191l-181 331h155l50 -100q10 -19 18.5 -41t14.5 -41t15 -49q8 29 14 48t14.5 41.5t18.5 41.5l47 100h144l-174 -329v-193h-136v191z" />
<glyph unicode="z" horiz-adv-x="496" d="M32 11l223 394h-184v117h391v-11l-223 -394h207v-117h-414v11z" />
<glyph unicode="{" horiz-adv-x="414" d="M299 -62q-30 0 -58.5 6.5t-50.5 23t-35.5 44.5t-13.5 70v125q0 35 -14 50.5t-43 15.5h-58v114h58q29 0 43 15.5t14 50.5v135q0 42 13.5 70t35.5 44.5t50.5 23t58.5 6.5h85v-114h-73q-21 0 -27.5 -8.5t-6.5 -25.5v-148q0 -54 -26 -76.5t-67 -29.5q41 -7 67 -29.5t26 -76.5 v-138q0 -17 6.5 -25.5t27.5 -8.5h73v-114h-85v0z" />
<glyph unicode="|" horiz-adv-x="278" d="M74 722h130v-850h-130v850z" />
<glyph unicode="}" horiz-adv-x="414" d="M30 52h73q21 0 27.5 8.5t6.5 25.5v138q0 54 26 76.5t67 29.5q-41 7 -67 29.5t-26 76.5v148q0 17 -6.5 25.5t-27.5 8.5h-73v114h85q30 0 58.5 -6.5t50.5 -23t35.5 -44.5t13.5 -70v-135q0 -35 14 -50.5t43 -15.5h58v-114h-58q-29 0 -43 -15.5t-14 -50.5v-125 q0 -42 -13.5 -70t-35.5 -44.5t-50.5 -23t-58.5 -6.5h-85v114z" />
<glyph unicode="~" horiz-adv-x="408" d="M33 214q4 71 35 105.5t76 34.5q20 0 35.5 -6t27.5 -14q17 -11 28 -18t20 -7q14 0 20.5 11t8.5 34l91 -9q-4 -71 -35 -105.5t-76 -34.5q-20 0 -35.5 6t-27.5 14q-17 11 -27.5 18t-20.5 7q-25 0 -29 -45z" />
<glyph unicode="&#xa1;" horiz-adv-x="283" d="M141 686q35 0 60 -23.5t25 -61.5q0 -37 -25 -60.5t-60 -23.5q-34 0 -59 23.5t-25 60.5q0 38 25 61.5t59 23.5zM217 0h-151l22 449h107z" />
<glyph unicode="&#xa2;" horiz-adv-x="444" d="M221 -7q-40 5 -74 22t-58.5 42.5t-38.5 59.5t-14 74t14 74.5t38.5 60.5t58.5 42.5t74 21.5v100h67v-100q48 -6 81 -26t53 -47l-87 -75q-9 14 -20 22.5t-27 13.5v-174q19 5 31 13.5t22 19.5l84 -77q-24 -26 -56.5 -44t-80.5 -23v-109h-67v109zM221 276q-24 -9 -38 -31 t-14 -54q0 -65 52 -84v169z" />
<glyph unicode="&#xa3;" horiz-adv-x="539" d="M74 213v88h51q-7 17 -11 35t-4 38q0 34 12 62.5t35.5 49.5t57.5 33t79 12q39 0 68.5 -8t51.5 -22t38.5 -32t28.5 -37l-108 -65q-26 48 -71 48q-23 0 -38 -13.5t-15 -39.5q0 -14 5 -29t12 -32h149v-88h-113q9 -29 9 -61q0 -7 -0.5 -13.5t-1.5 -13.5q17 -6 33.5 -9.5 t33.5 -3.5q22 0 41.5 10.5t33.5 27.5l81 -87q-31 -40 -65 -56t-85 -16q-38 0 -67 13t-53 30q-23 -20 -53.5 -31.5t-69.5 -11.5q-51 0 -81.5 27t-30.5 69t28.5 69t76.5 27q14 0 27 -2t27 -6q-3 10 -7 19t-9 19h-96zM184 94q-23 15 -43 15q-14 0 -21 -6.5t-7 -15.5t7 -15.5 t21 -6.5q29 0 43 29z" />
<glyph unicode="&#xa4;" horiz-adv-x="588" d="M294 44q-69 0 -123 31l-83 -83l-80 80l83 83q-25 47 -25 103q0 55 25 102l-83 84l80 80l82 -83q27 16 58 24.5t66 8.5t66 -8.5t57 -24.5l83 83l80 -80l-84 -84q25 -47 25 -102q0 -57 -25 -102l84 -84l-80 -80l-84 83q-54 -31 -122 -31zM294 151q45 0 70.5 29.5t25.5 77.5 t-25.5 77.5t-70.5 29.5t-71 -29.5t-26 -77.5t26 -77.5t71 -29.5z" />
<glyph unicode="&#xa5;" horiz-adv-x="557" d="M212 73h-152v87h152v11l-13 24h-139v87h91q-9 17 -20 37q-9 17 -21 38.5t-24 44.5l-66 120h153l61 -124q10 -20 18.5 -44t16 -47.5t13.5 -47.5q7 24 15.5 47.5t17.5 47.5t19 44l62 124h141l-130 -240h93v-87h-140l-12 -23v-12h152v-87h-152v-73h-136v73z" />
<glyph unicode="&#xa6;" horiz-adv-x="278" d="M74 362v360h130v-360h-130zM204 232v-360h-130v360h130z" />
<glyph unicode="&#xa7;" horiz-adv-x="486" d="M108 290q-42 39 -42 100q0 31 12.5 56.5t36 44.5t56 29.5t71.5 10.5q37 0 64.5 -7.5t47.5 -19t33.5 -25t22.5 -26.5l-99 -65q-10 14 -26.5 24t-40.5 10t-33 -9.5t-9 -20.5t5.5 -18t22.5 -14l121 -46q104 -40 104 -133q0 -31 -20.5 -55t-51.5 -39q19 -17 30.5 -39.5 t11.5 -49.5q0 -35 -13.5 -62t-38.5 -45.5t-59 -28t-76 -9.5q-78 0 -130 27t-77 64l102 71q14 -20 39 -36t58 -16q31 0 42.5 9t11.5 20q0 10 -6 17t-21 13l-125 48q-47 18 -73.5 47t-26.5 70t22.5 66t53.5 37zM301 133q30 9 30 35q0 25 -35 38l-117 45q-27 -9 -27 -32 q0 -14 8 -24t28 -18z" />
<glyph unicode="&#xa8;" d="M354 506q-15 0 -28.5 6t-24 16.5t-17 24t-6.5 29.5t6.5 29.5t17 24t24 16.5t28.5 6q30 0 53 -22t23 -54t-23 -54t-53 -22zM146 506q-15 0 -28.5 6t-24 16.5t-17 24t-6.5 29.5t6.5 29.5t17 24t24 16.5t28.5 6q30 0 53 -22t23 -54t-23 -54t-53 -22z" />
<glyph unicode="&#xa9;" horiz-adv-x="594" d="M299 -5q-54 0 -103 20t-86 56t-59 85t-22 107t22 107t59 85t86 56t103 20q53 0 101.5 -20t85 -56t58 -85t21.5 -107t-21.5 -107t-58 -85t-85 -56t-101.5 -20zM299 54q42 0 79 15t64.5 42t44 65.5t16.5 86.5t-16.5 86.5t-44 65.5t-64.5 42t-79 15q-43 0 -80.5 -15t-66 -42 t-45 -65.5t-16.5 -86.5t16.5 -86.5t45 -65.5t66 -42t80.5 -15zM304 116q-34 0 -62 11t-48.5 30.5t-32 46.5t-11.5 59q0 33 11.5 60t31.5 47t47.5 31t59.5 11q43 0 74.5 -17t49.5 -37l-71 -66q-17 22 -44 22q-22 0 -33.5 -14t-11.5 -37q0 -21 12 -36t35 -15q16 0 27 6.5 t16 14.5l72 -63q-20 -24 -50 -39t-72 -15z" />
<glyph unicode="&#xaa;" horiz-adv-x="428" d="M260 376q-2 29 -16.5 42t-40.5 13q-29 0 -49 -10t-32 -23l-73 69q11 11 25.5 22.5t34.5 20.5t46.5 15t62.5 6q33 0 62.5 -9.5t52 -29t36 -50.5t13.5 -73v-207h-122l3 45q-17 -26 -43 -40t-60 -14q-26 0 -49.5 7t-41 21t-28 35t-10.5 50q0 56 41.5 83t104.5 27h83z M188 304q-20 0 -28 -8.5t-8 -20.5q0 -11 9.5 -19.5t31.5 -8.5q36 0 51.5 14t15.5 33v10h-72z" />
<glyph unicode="&#xab;" horiz-adv-x="504" d="M247 200v8l95 165h130l-98 -169l98 -172h-130zM32 200v8l95 165h130l-98 -169l98 -172h-130z" />
<glyph unicode="&#xac;" horiz-adv-x="411" d="M39 247v118h333v-208h-126v90h-207z" />
<glyph unicode="&#xae;" horiz-adv-x="503" d="M166 580h95q44 0 67 -21.5t23 -53.5q0 -47 -38 -66l41 -76h-69l-33 66h-20v-66h-66v217zM250 253q-46 0 -86 16t-70 45t-47.5 69t-17.5 88t17.5 88t47.5 69t70 45t86 16t87 -16t71.5 -45t48 -69t17.5 -88t-17.5 -88t-48 -69t-71.5 -45t-87 -16zM250 301q37 0 68 11.5 t54 33.5t36 53t13 70q0 41 -13 73t-36 54t-54 33.5t-68 11.5q-36 0 -67 -11.5t-53.5 -33.5t-35 -54t-12.5 -73q0 -39 12.5 -70t35 -53t53.5 -33.5t67 -11.5zM263 477q9 0 16 5.5t7 19.5q0 12 -7 16.5t-16 4.5h-31v-46h31z" />
<glyph unicode="&#xaf;" d="M118 615h264v-99h-264v99z" />
<glyph unicode="&#xb0;" horiz-adv-x="332" d="M166 268q-29 0 -54 10.5t-44.5 28.5t-30.5 42t-11 51q0 28 11 52t30.5 41.5t44.5 27.5t54 10t54.5 -10t44.5 -27.5t30 -41.5t11 -52q0 -27 -11 -51t-30 -42t-44.5 -28.5t-54.5 -10.5zM166 348q22 0 36 14.5t14 37.5t-14 37t-36 14t-36 -14t-14 -37t14 -37.5t36 -14.5z " />
<glyph unicode="&#xb1;" horiz-adv-x="411" d="M145 250h-96v118h96v100h121v-100h96v-118h-96v-100h-121v100zM39 0v108h333v-108h-333z" />
<glyph unicode="&#xb2;" horiz-adv-x="378" d="M11 285l177 180q28 28 36.5 47t8.5 37q0 19 -13.5 30t-35.5 11q-45 0 -69 -55l-97 34q20 55 62 86.5t105 31.5q73 0 115 -37.5t42 -99.5q0 -32 -17.5 -64t-49.5 -64l-20 -21q-7 -8 -15.5 -14.5t-16.5 -11.5q-10 -6 -19 -12q10 1 21 2q9 1 20 2t20 1h74v-93h-328v10z" />
<glyph unicode="&#xb3;" horiz-adv-x="367" d="M176 268q-66 0 -106.5 26.5t-60.5 73.5l95 43q8 -20 24.5 -33.5t46.5 -13.5q26 0 42 14.5t16 39.5q0 54 -61 54q-21 0 -34 -2t-23 -5l-6 11l55 79q2 3 8 9.5t12 12.5q7 7 14 16q-11 -1 -21 -2q-8 -1 -17 -1.5t-14 -0.5h-93v91h290v-9l-70 -100q-6 -8 -11.5 -14t-10.5 -10 l-10 -8q43 -8 72.5 -40.5t29.5 -86.5q0 -36 -13.5 -63t-37 -45t-53.5 -27t-63 -9z" />
<glyph unicode="&#xb4;" d="M252 688h154l-104 -188h-102z" />
<glyph unicode="&#xb6;" horiz-adv-x="708" d="M305 243h-33q-59 0 -104 17t-75 46.5t-45.5 68.5t-15.5 83q0 43 15.5 83t45.5 71t75 49.5t104 18.5h365v-680h-133v563h-66v-563h-133v243zM305 360v203h-29q-39 0 -67.5 -24t-28.5 -77q0 -54 28.5 -78t67.5 -24h29z" />
<glyph unicode="&#xb7;" horiz-adv-x="249" d="M125 173q-35 0 -60 23.5t-25 61.5q0 37 25 60.5t60 23.5q34 0 59 -23.5t25 -60.5q0 -38 -25 -61.5t-59 -23.5z" />
<glyph unicode="&#xb8;" d="M259 -240q-47 0 -75 17t-43 43l64 39q6 -11 16 -19.5t27 -8.5q14 0 25 8.5t11 25.5t-11.5 25.5t-29.5 8.5h-34v101h69v-39q17 -3 33 -11t28.5 -21t20 -31t7.5 -41t-9.5 -40.5t-24.5 -30.5t-34.5 -19.5t-39.5 -6.5z" />
<glyph unicode="&#xb9;" horiz-adv-x="265" d="M105 584h-84v96h192v-405h-108v309z" />
<glyph unicode="&#xba;" horiz-adv-x="479" d="M240 152q-42 0 -78.5 14t-64 39.5t-43 60.5t-15.5 76q0 40 15.5 75t43 60t64 39.5t78.5 14.5t78.5 -14.5t63.5 -39.5t42.5 -60t15.5 -75q0 -41 -15.5 -76t-42.5 -60.5t-63.5 -39.5t-78.5 -14zM240 255q35 0 55 23.5t20 63.5q0 38 -20 61.5t-55 23.5t-54.5 -23.5 t-19.5 -61.5q0 -40 19.5 -63.5t54.5 -23.5z" />
<glyph unicode="&#xbb;" horiz-adv-x="504" d="M345 201l-98 172h130l95 -168v-8l-95 -165h-130zM130 201l-98 172h130l95 -168v-8l-95 -165h-130z" />
<glyph unicode="&#xbc;" horiz-adv-x="1066" d="M124 567h-99v113h226v-477h-127v364zM644 680h134l-402 -680h-134zM857 58h-234v98l347 329h10v-331h62v-96h-62v-58h-123v58zM745 150q23 2 41.5 3t29.5 1h41v44q0 11 1.5 32.5t2.5 32.5q-12 -16 -23 -29t-24 -25l-18 -17q-10 -9 -25 -21.5t-26 -20.5z" />
<glyph unicode="&#xbd;" horiz-adv-x="1131" d="M124 567h-99v113h226v-477h-127v364zM644 680h134l-402 -680h-134zM699 13l208 212q32 33 42.5 55t10.5 43q0 22 -15.5 35.5t-41.5 13.5q-54 0 -82 -65l-114 40q24 65 73.5 102t123.5 37q43 0 77 -11.5t58 -33t36.5 -51t12.5 -65.5q0 -38 -20.5 -75.5t-57.5 -75.5 l-24 -25q-8 -8 -23.5 -20t-36.5 -24q19 2 40 3.5t32 1.5h87v-109h-386v12z" />
<glyph unicode="&#xbe;" horiz-adv-x="1157" d="M207 195q-77 0 -125 31t-71 86l111 51q10 -25 30.5 -40t53.5 -15q30 0 49 17t19 46q-2 64 -72 64q-24 0 -39.5 -2.5t-27.5 -6.5l-7 13l65 93q7 9 17 20t23 25q-17 -2 -34 -3.5t-27 -1.5h-110v108h342v-11l-83 -118q-7 -10 -17 -20t-21 -17q25 -5 47 -17t38.5 -31t26 -45 t9.5 -57q0 -42 -16.5 -74t-43.5 -53t-62.5 -31.5t-74.5 -10.5zM734 680h134l-402 -680h-134zM947 58h-234v98l347 329h10v-331h62v-96h-62v-58h-123v58zM835 150q23 2 41.5 3t29.5 1h41v44q0 11 1.5 32.5t2.5 32.5q-12 -16 -23 -29t-24 -25l-18 -17q-10 -9 -25 -21.5 t-26 -20.5z" />
<glyph unicode="&#xbf;" horiz-adv-x="513" d="M277 686q35 0 60 -23.5t25 -61.5q0 -37 -25 -60.5t-60 -23.5q-34 0 -59 23.5t-25 60.5q0 38 25 61.5t59 23.5zM339 290h-46q-31 0 -52 -8t-34.5 -21t-19.5 -30t-6 -36q0 -16 6 -31t16.5 -27t26 -19t35.5 -7q40 0 64 17t42 48l108 -63q-27 -60 -81 -91t-133 -31 q-54 0 -95 17t-69.5 45.5t-43 65.5t-14.5 76q0 81 43.5 132t126.5 63v59h126v-159z" />
<glyph unicode="&#xc0;" horiz-adv-x="664" d="M320 686h12l311 -686h-147l-38 92h-264l-38 -92h-135zM408 209l-43 103q-7 17 -14 37t-13 38t-14 46q-8 -28 -13.5 -45.5t-12.5 -37.5t-14 -38l-43 -103h167zM173 926h154l52 -188h-102z" />
<glyph unicode="&#xc1;" horiz-adv-x="664" d="M320 686h12l311 -686h-147l-38 92h-264l-38 -92h-135zM408 209l-43 103q-7 17 -14 37t-13 38t-14 46q-8 -28 -13.5 -45.5t-12.5 -37.5t-14 -38l-43 -103h167zM327 926h154l-104 -188h-102z" />
<glyph unicode="&#xc2;" horiz-adv-x="664" d="M320 686h12l311 -686h-147l-38 92h-264l-38 -92h-135zM408 209l-43 103q-7 17 -14 37t-13 38t-14 46q-8 -28 -13.5 -45.5t-12.5 -37.5t-14 -38l-43 -103h167zM319 954h11l159 -216h-108l-56 65l-57 -65h-108z" />
<glyph unicode="&#xc3;" horiz-adv-x="664" d="M320 686h12l311 -686h-147l-38 92h-264l-38 -92h-135zM408 209l-43 103q-7 17 -14 37t-13 38t-14 46q-8 -28 -13.5 -45.5t-12.5 -37.5t-14 -38l-43 -103h167zM134 751q5 71 39.5 105.5t83.5 34.5q23 0 40 -5.5t33 -15t29 -17t27 -7.5q15 0 22 11t10 34l96 -9 q-5 -71 -39 -105.5t-84 -34.5q-22 0 -41.5 5.5t-35.5 15t-28 17t-24 7.5q-26 0 -32 -45z" />
<glyph unicode="&#xc4;" horiz-adv-x="664" d="M320 686h12l311 -686h-147l-38 92h-264l-38 -92h-135zM408 209l-43 103q-7 17 -14 37t-13 38t-14 46q-8 -28 -13.5 -45.5t-12.5 -37.5t-14 -38l-43 -103h167zM430 739q-15 0 -28.5 6t-24 16.5t-17 24t-6.5 29.5t6.5 29.5t17 24t24 16.5t28.5 6q30 0 53 -22t23 -54 t-23 -54t-53 -22zM222 739q-15 0 -28.5 6t-24 16.5t-17 24t-6.5 29.5t6.5 29.5t17 24t24 16.5t28.5 6q30 0 53 -22t23 -54t-23 -54t-53 -22z" />
<glyph unicode="&#xc5;" horiz-adv-x="664" d="M320 686h12l311 -686h-147l-38 92h-264l-38 -92h-135zM408 209l-43 103q-7 17 -14 37t-13 38t-14 46q-8 -28 -13.5 -45.5t-12.5 -37.5t-14 -38l-43 -103h167zM326 732q-27 0 -51 9.5t-41 26t-27 38t-10 45.5t10 46t27 38t41 25.5t51 9.5t51 -9.5t41 -25.5t27 -38t10 -46 t-10 -45.5t-27 -38t-41 -26t-51 -9.5zM326 806q18 0 30.5 11.5t12.5 33.5t-12.5 33.5t-30.5 11.5t-30.5 -11.5t-12.5 -33.5t12.5 -33.5t30.5 -11.5z" />
<glyph unicode="&#xc6;" horiz-adv-x="990" d="M482 680h435v-123h-310v-156h273v-120h-273v-158h324v-123h-464v94h-242l-62 -94h-148zM467 212v180q0 13 1.5 30.5t3 29.5t4.5 34q-8 -20 -14 -33t-13.5 -26.5t-14.5 -24.5l-128 -190h161z" />
<glyph unicode="&#xc7;" horiz-adv-x="726" d="M377 -240q-44 0 -73.5 17t-44.5 43l64 39q6 -12 16.5 -20t26.5 -8q14 0 25 8.5t11 25.5t-11.5 25.5t-29.5 8.5h-34v99q-60 12 -111.5 42t-88.5 74.5t-58 102t-21 123.5q0 75 27.5 139t74.5 110.5t111 72.5t137 26q93 0 159.5 -33.5t112.5 -105.5l-107 -76q-24 39 -65 64 t-100 25q-46 0 -84 -17t-65 -46.5t-42 -70t-15 -88.5t15 -89t42 -71t65 -47t84 -17q66 0 106 28t69 72l109 -75q-45 -69 -115 -109.5t-169 -40.5h-2v-30q17 -3 33 -11t28.5 -21t20 -31t7.5 -41t-9.5 -40.5t-24.5 -30.5t-34.5 -19.5t-39.5 -6.5z" />
<glyph unicode="&#xc8;" horiz-adv-x="594" d="M71 680h450v-123h-310v-156h273v-120h-273v-158h324v-123h-464v680zM149 926h154l52 -188h-102z" />
<glyph unicode="&#xc9;" horiz-adv-x="594" d="M71 680h450v-123h-310v-156h273v-120h-273v-158h324v-123h-464v680zM303 926h154l-104 -188h-102z" />
<glyph unicode="&#xca;" horiz-adv-x="594" d="M71 680h450v-123h-310v-156h273v-120h-273v-158h324v-123h-464v680zM295 954h11l159 -216h-108l-56 65l-57 -65h-108z" />
<glyph unicode="&#xcb;" horiz-adv-x="594" d="M71 680h450v-123h-310v-156h273v-120h-273v-158h324v-123h-464v680zM406 739q-15 0 -28.5 6t-24 16.5t-17 24t-6.5 29.5t6.5 29.5t17 24t24 16.5t28.5 6q30 0 53 -22t23 -54t-23 -54t-53 -22zM198 739q-15 0 -28.5 6t-24 16.5t-17 24t-6.5 29.5t6.5 29.5t17 24t24 16.5 t28.5 6q30 0 53 -22t23 -54t-23 -54t-53 -22z" />
<glyph unicode="&#xcc;" horiz-adv-x="287" d="M74 680h140v-680h-140v680zM-9 926h154l52 -188h-102z" />
<glyph unicode="&#xcd;" horiz-adv-x="287" d="M74 680h140v-680h-140v680zM145 926h154l-104 -188h-102z" />
<glyph unicode="&#xce;" horiz-adv-x="287" d="M74 680h140v-680h-140v680zM137 954h11l159 -216h-108l-56 65l-57 -65h-108z" />
<glyph unicode="&#xcf;" horiz-adv-x="287" d="M74 680h140v-680h-140v680zM248 739q-15 0 -28.5 6t-24 16.5t-17 24t-6.5 29.5t6.5 29.5t17 24t24 16.5t28.5 6q30 0 53 -22t23 -54t-23 -54t-53 -22zM40 739q-15 0 -28.5 6t-24 16.5t-17 24t-6.5 29.5t6.5 29.5t17 24t24 16.5t28.5 6q30 0 53 -22t23 -54t-23 -54 t-53 -22z" />
<glyph unicode="&#xd0;" horiz-adv-x="685" d="M71 278h-59v121h59v281h209q78 0 144 -25t113.5 -70t74 -107.5t26.5 -137.5t-26.5 -137.5t-74 -107.5t-113 -70t-144.5 -25h-209v278zM273 123q57 0 98.5 16t68.5 45t40 68.5t13 87.5t-13 87.5t-40 68.5t-68.5 45t-98.5 16h-62v-158h151v-121h-151v-155h62z" />
<glyph unicode="&#xd1;" horiz-adv-x="701" d="M273 316q-13 12 -27 28t-26 30q-14 17 -28 35q3 -24 5 -44q2 -19 3.5 -40.5t1.5 -39.5v-285h-131v686h14l343 -322q12 -12 26 -27.5t26 -30.5q14 -17 28 -35q-3 27 -5 49q-2 19 -3 38t-1 37v285h131v-686h-14zM164 751q5 71 39.5 105.5t83.5 34.5q23 0 40 -5.5t33 -15 t29 -17t27 -7.5q15 0 22 11t10 34l96 -9q-5 -71 -39 -105.5t-84 -34.5q-22 0 -41.5 5.5t-35.5 15t-28 17t-24 7.5q-26 0 -32 -45z" />
<glyph unicode="&#xd2;" horiz-adv-x="800" d="M400 -9q-74 0 -138 26.5t-111.5 73t-75 110.5t-27.5 139t27.5 139t75 110.5t111.5 73t138 26.5q73 0 137.5 -26.5t112 -73t75 -110.5t27.5 -139t-27.5 -139t-75 -110.5t-112 -73t-137.5 -26.5zM400 116q46 0 84.5 17t66 47t42.5 71t15 89t-15 89t-42.5 71t-66 47 t-84.5 17q-47 0 -85 -17t-65.5 -47t-42.5 -71t-15 -89t15 -89t42.5 -71t65.5 -47t85 -17zM247 926h154l52 -188h-102z" />
<glyph unicode="&#xd3;" horiz-adv-x="800" d="M400 -9q-74 0 -138 26.5t-111.5 73t-75 110.5t-27.5 139t27.5 139t75 110.5t111.5 73t138 26.5q73 0 137.5 -26.5t112 -73t75 -110.5t27.5 -139t-27.5 -139t-75 -110.5t-112 -73t-137.5 -26.5zM400 116q46 0 84.5 17t66 47t42.5 71t15 89t-15 89t-42.5 71t-66 47 t-84.5 17q-47 0 -85 -17t-65.5 -47t-42.5 -71t-15 -89t15 -89t42.5 -71t65.5 -47t85 -17zM401 926h154l-104 -188h-102z" />
<glyph unicode="&#xd4;" horiz-adv-x="800" d="M400 -9q-74 0 -138 26.5t-111.5 73t-75 110.5t-27.5 139t27.5 139t75 110.5t111.5 73t138 26.5q73 0 137.5 -26.5t112 -73t75 -110.5t27.5 -139t-27.5 -139t-75 -110.5t-112 -73t-137.5 -26.5zM400 116q46 0 84.5 17t66 47t42.5 71t15 89t-15 89t-42.5 71t-66 47 t-84.5 17q-47 0 -85 -17t-65.5 -47t-42.5 -71t-15 -89t15 -89t42.5 -71t65.5 -47t85 -17zM393 954h11l159 -216h-108l-56 65l-57 -65h-108z" />
<glyph unicode="&#xd5;" horiz-adv-x="800" d="M400 -9q-74 0 -138 26.5t-111.5 73t-75 110.5t-27.5 139t27.5 139t75 110.5t111.5 73t138 26.5q73 0 137.5 -26.5t112 -73t75 -110.5t27.5 -139t-27.5 -139t-75 -110.5t-112 -73t-137.5 -26.5zM400 116q46 0 84.5 17t66 47t42.5 71t15 89t-15 89t-42.5 71t-66 47 t-84.5 17q-47 0 -85 -17t-65.5 -47t-42.5 -71t-15 -89t15 -89t42.5 -71t65.5 -47t85 -17zM210 751q5 71 39.5 105.5t83.5 34.5q23 0 40 -5.5t33 -15t29 -17t27 -7.5q15 0 22 11t10 34l96 -9q-5 -71 -39 -105.5t-84 -34.5q-22 0 -41.5 5.5t-35.5 15t-28 17t-24 7.5 q-26 0 -32 -45z" />
<glyph unicode="&#xd6;" horiz-adv-x="800" d="M504 739q-15 0 -28.5 6t-24 16.5t-17 24t-6.5 29.5t6.5 29.5t17 24t24 16.5t28.5 6q30 0 53 -22t23 -54t-23 -54t-53 -22zM296 739q-15 0 -28.5 6t-24 16.5t-17 24t-6.5 29.5t6.5 29.5t17 24t24 16.5t28.5 6q30 0 53 -22t23 -54t-23 -54t-53 -22zM400 -9q-74 0 -138 26.5 t-111.5 73t-75 110.5t-27.5 139t27.5 139t75 110.5t111.5 73t138 26.5q73 0 137.5 -26.5t112 -73t75 -110.5t27.5 -139t-27.5 -139t-75 -110.5t-112 -73t-137.5 -26.5zM400 116q46 0 84.5 17t66 47t42.5 71t15 89t-15 89t-42.5 71t-66 47t-84.5 17q-47 0 -85 -17t-65.5 -47 t-42.5 -71t-15 -89t15 -89t42.5 -71t65.5 -47t85 -17z" />
<glyph unicode="&#xd7;" horiz-adv-x="411" d="M293 428l76 -77l-86 -85l86 -85l-77 -76l-85 84l-88 -87l-77 76l88 88l-88 88l76 77l89 -89z" />
<glyph unicode="&#xd8;" horiz-adv-x="800" d="M36 67l74 70q-29 43 -45.5 94t-16.5 109q0 75 27.5 139t75 110.5t111.5 73t138 26.5q61 0 115 -18t99 -51l72 69l78 -77l-74 -70q29 -42 45.5 -93t16.5 -109q0 -75 -27.5 -139t-75 -110.5t-112 -73t-137.5 -26.5q-60 0 -114 18t-99 50l-73 -69zM519 529q-50 36 -119 36 q-47 0 -85 -17.5t-66 -47.5t-43 -71t-15 -89q0 -59 21 -105zM400 115q46 0 84.5 17.5t66.5 47.5t43 71t15 89q0 58 -20 104l-308 -294q50 -35 119 -35z" />
<glyph unicode="&#xd9;" horiz-adv-x="686" d="M344 -9q-59 0 -109.5 15.5t-87.5 47.5t-58 79.5t-21 112.5v434h140v-426q0 -75 33 -106t103 -31q69 0 101.5 31t32.5 106v426h140v-434q0 -65 -21 -112.5t-58 -79.5t-87 -47.5t-108 -15.5zM190 926h154l52 -188h-102z" />
<glyph unicode="&#xda;" horiz-adv-x="686" d="M344 -9q-59 0 -109.5 15.5t-87.5 47.5t-58 79.5t-21 112.5v434h140v-426q0 -75 33 -106t103 -31q69 0 101.5 31t32.5 106v426h140v-434q0 -65 -21 -112.5t-58 -79.5t-87 -47.5t-108 -15.5zM344 926h154l-104 -188h-102z" />
<glyph unicode="&#xdb;" horiz-adv-x="686" d="M344 -9q-59 0 -109.5 15.5t-87.5 47.5t-58 79.5t-21 112.5v434h140v-426q0 -75 33 -106t103 -31q69 0 101.5 31t32.5 106v426h140v-434q0 -65 -21 -112.5t-58 -79.5t-87 -47.5t-108 -15.5zM336 954h11l159 -216h-108l-56 65l-57 -65h-108z" />
<glyph unicode="&#xdc;" horiz-adv-x="686" d="M447 739q-15 0 -28.5 6t-24 16.5t-17 24t-6.5 29.5t6.5 29.5t17 24t24 16.5t28.5 6q30 0 53 -22t23 -54t-23 -54t-53 -22zM239 739q-15 0 -28.5 6t-24 16.5t-17 24t-6.5 29.5t6.5 29.5t17 24t24 16.5t28.5 6q30 0 53 -22t23 -54t-23 -54t-53 -22zM344 -9 q-59 0 -109.5 15.5t-87.5 47.5t-58 79.5t-21 112.5v434h140v-426q0 -75 33 -106t103 -31q69 0 101.5 31t32.5 106v426h140v-434q0 -65 -21 -112.5t-58 -79.5t-87 -47.5t-108 -15.5z" />
<glyph unicode="&#xdd;" horiz-adv-x="637" d="M329 926h154l-104 -188h-102zM256 249l-236 431h157l96 -185q9 -18 19 -40t18.5 -43t17.5 -45q9 25 16.5 44t17 42t19.5 42l92 185h144l-220 -421v-259h-141v249z" />
<glyph unicode="&#xde;" horiz-adv-x="601" d="M71 680h140v-108h99q52 0 98 -13.5t80.5 -41t54.5 -70.5t20 -103t-20 -103t-54.5 -71t-80.5 -41.5t-98 -13.5h-99v-115h-140v680zM306 238q52 0 82.5 24.5t30.5 81.5t-31 81t-82 24h-95v-211h95z" />
<glyph unicode="&#xdf;" horiz-adv-x="582" d="M327 -6q-30 0 -53 3.5t-34 7.5l15 111q11 -4 21.5 -6t26.5 -2q103 0 103 106q0 65 -40 92t-105 25v106q18 2 33.5 8t27.5 17.5t18.5 29.5t6.5 44q0 47 -20 67.5t-57 20.5t-59.5 -25.5t-22.5 -77.5v-521h-135v517q0 53 16 94t45 68.5t69 41.5t87 14q50 0 88.5 -14 t64.5 -39.5t39.5 -61t13.5 -78.5q0 -51 -21 -85t-57 -54q66 -20 106 -67.5t40 -125.5q0 -48 -14 -87.5t-42 -68t-68.5 -44.5t-92.5 -16z" />
<glyph unicode="&#xe0;" horiz-adv-x="540" d="M264 528h11l246 -528h-141l-25 59h-179l-25 -59h-132zM322 151l-15 34q-8 18 -15.5 37t-13 34.5t-11.5 37.5q-6 -21 -11.5 -36.5t-12.5 -34.5t-15 -38l-15 -34h109zM117 773h154l52 -188h-102z" />
<glyph unicode="&#xe1;" horiz-adv-x="540" d="M264 528h11l246 -528h-141l-25 59h-179l-25 -59h-132zM322 151l-15 34q-8 18 -15.5 37t-13 34.5t-11.5 37.5q-6 -21 -11.5 -36.5t-12.5 -34.5t-15 -38l-15 -34h109zM271 773h154l-104 -188h-102z" />
<glyph unicode="&#xe2;" horiz-adv-x="540" d="M264 528h11l246 -528h-141l-25 59h-179l-25 -59h-132zM322 151l-15 34q-8 18 -15.5 37t-13 34.5t-11.5 37.5q-6 -21 -11.5 -36.5t-12.5 -34.5t-15 -38l-15 -34h109zM263 791h11l159 -216h-108l-56 65l-57 -65h-108z" />
<glyph unicode="&#xe3;" horiz-adv-x="540" d="M264 528h11l246 -528h-141l-25 59h-179l-25 -59h-132zM322 151l-15 34q-8 18 -15.5 37t-13 34.5t-11.5 37.5q-6 -21 -11.5 -36.5t-12.5 -34.5t-15 -38l-15 -34h109zM99 600q4 71 35 105.5t76 34.5q20 0 35.5 -6t27.5 -14q17 -11 28 -18t20 -7q14 0 20.5 11t8.5 34l91 -9 q-4 -71 -35 -105.5t-76 -34.5q-20 0 -35.5 6t-27.5 14q-17 11 -27.5 18t-20.5 7q-25 0 -29 -45z" />
<glyph unicode="&#xe4;" horiz-adv-x="540" d="M264 528h11l246 -528h-141l-25 59h-179l-25 -59h-132zM322 151l-15 34q-8 18 -15.5 37t-13 34.5t-11.5 37.5q-6 -21 -11.5 -36.5t-12.5 -34.5t-15 -38l-15 -34h109zM374 581q-15 0 -28.5 6t-24 16.5t-17 24t-6.5 29.5t6.5 29.5t17 24t24 16.5t28.5 6q30 0 53 -22t23 -54 t-23 -54t-53 -22zM166 581q-15 0 -28.5 6t-24 16.5t-17 24t-6.5 29.5t6.5 29.5t17 24t24 16.5t28.5 6q30 0 53 -22t23 -54t-23 -54t-53 -22z" />
<glyph unicode="&#xe5;" horiz-adv-x="540" d="M264 528h11l246 -528h-141l-25 59h-179l-25 -59h-132zM322 151l-15 34q-8 18 -15.5 37t-13 34.5t-11.5 37.5q-6 -21 -11.5 -36.5t-12.5 -34.5t-15 -38l-15 -34h109zM270 559q-27 0 -51 9.5t-41 26t-27 38t-10 45.5t10 46t27 38t41 25.5t51 9.5t51 -9.5t41 -25.5t27 -38 t10 -46t-10 -45.5t-27 -38t-41 -26t-51 -9.5zM270 633q18 0 30.5 11.5t12.5 33.5t-12.5 33.5t-30.5 11.5t-30.5 -11.5t-12.5 -33.5t12.5 -33.5t30.5 -11.5z" />
<glyph unicode="&#xe6;" horiz-adv-x="795" d="M388 522h354v-117h-235v-87h196v-111h-196v-90h245v-117h-377v62h-173l-44 -62h-144zM375 164v81q0 13 1 28t2.5 29t4.5 38q-10 -22 -16.5 -34.5t-14 -26t-14.5 -23.5l-65 -92h102z" />
<glyph unicode="&#xe7;" horiz-adv-x="588" d="M294 -240q-44 0 -73.5 17t-44.5 43l64 39q6 -11 16 -19.5t27 -8.5q14 0 25 8.5t11 25.5t-11.5 25.5t-29.5 8.5h-34v100q-47 11 -84.5 35t-63.5 58t-39.5 77t-13.5 92q0 58 19.5 107.5t55.5 85.5t86 56.5t110 20.5q78 0 133 -29.5t90 -84.5l-108 -72q-17 28 -43.5 47 t-71.5 19q-31 0 -55.5 -11t-41.5 -31t-26 -47.5t-9 -60.5q0 -32 9 -59.5t26.5 -47.5t42.5 -31.5t57 -11.5q49 0 79.5 21t46.5 53l110 -63q-29 -60 -90 -95.5t-150 -35.5v-30q17 -3 33 -11t28.5 -21t20 -31t7.5 -41t-9.5 -40.5t-24.5 -30.5t-34.5 -19.5t-39.5 -6.5z" />
<glyph unicode="&#xe8;" horiz-adv-x="480" d="M56 522h371v-117h-235v-87h196v-111h-196v-90h245v-117h-381v522zM93 773h154l52 -188h-102z" />
<glyph unicode="&#xe9;" horiz-adv-x="480" d="M56 522h371v-117h-235v-87h196v-111h-196v-90h245v-117h-381v522zM247 773h154l-104 -188h-102z" />
<glyph unicode="&#xea;" horiz-adv-x="480" d="M56 522h371v-117h-235v-87h196v-111h-196v-90h245v-117h-381v522zM239 791h11l159 -216h-108l-56 65l-57 -65h-108z" />
<glyph unicode="&#xeb;" horiz-adv-x="480" d="M56 522h371v-117h-235v-87h196v-111h-196v-90h245v-117h-381v522zM350 581q-15 0 -28.5 6t-24 16.5t-17 24t-6.5 29.5t6.5 29.5t17 24t24 16.5t28.5 6q30 0 53 -22t23 -54t-23 -54t-53 -22zM142 581q-15 0 -28.5 6t-24 16.5t-17 24t-6.5 29.5t6.5 29.5t17 24t24 16.5 t28.5 6q30 0 53 -22t23 -54t-23 -54t-53 -22z" />
<glyph unicode="&#xec;" horiz-adv-x="252" d="M58 522h136v-522h-136v522zM-27 773h154l52 -188h-102z" />
<glyph unicode="&#xed;" horiz-adv-x="252" d="M58 522h136v-522h-136v522zM127 773h154l-104 -188h-102z" />
<glyph unicode="&#xee;" horiz-adv-x="252" d="M58 522h136v-522h-136v522zM119 791h11l159 -216h-108l-56 65l-57 -65h-108z" />
<glyph unicode="&#xef;" horiz-adv-x="252" d="M226 581q-15 0 -28.5 6t-24 16.5t-17 24t-6.5 29.5t6.5 29.5t17 24t24 16.5t28.5 6q30 0 53 -22t23 -54t-23 -54t-53 -22zM26 581q-15 0 -28.5 6t-24 16.5t-17 24t-6.5 29.5t6.5 29.5t17 24t24 16.5t28.5 6q30 0 53 -22t23 -54t-23 -54t-53 -22zM58 522h136v-522h-136 v522z" />
<glyph unicode="&#xf0;" horiz-adv-x="559" d="M56 203h-38v113h38v206h188q58 0 107.5 -18t86 -52t57.5 -82.5t21 -108.5t-20.5 -108t-57 -82t-86.5 -52.5t-108 -18.5h-188v203zM237 118q73 0 106.5 38.5t33.5 104.5t-33.5 104.5t-106.5 38.5h-45v-88h103v-113h-103v-85h45z" />
<glyph unicode="&#xf1;" horiz-adv-x="556" d="M246 202q-15 13 -36.5 35t-38.5 43q5 -34 7.5 -64t2.5 -46v-170h-125v529h11l241 -208q16 -14 35.5 -34t39.5 -45q-4 35 -6 64.5t-2 46.5v169h125v-530h-11zM105 600q4 71 35 105.5t76 34.5q20 0 35.5 -6t27.5 -14q17 -11 28 -18t20 -7q14 0 20.5 11t8.5 34l91 -9 q-4 -71 -35 -105.5t-76 -34.5q-20 0 -35.5 6t-27.5 14q-17 11 -27.5 18t-20.5 7q-25 0 -29 -45z" />
<glyph unicode="&#xf2;" horiz-adv-x="648" d="M324 -9q-57 0 -108.5 20t-89.5 56t-60.5 85.5t-22.5 108.5q0 60 22.5 109.5t60.5 85.5t89.5 55.5t108.5 19.5t108.5 -19.5t89.5 -55.5t60.5 -85.5t22.5 -109.5q0 -59 -22.5 -108.5t-60.5 -85.5t-89.5 -56t-108.5 -20zM324 111q31 0 57.5 11t45 30.5t29 47t10.5 61.5 q0 33 -10.5 60.5t-29 47.5t-45 31t-57.5 11q-32 0 -58 -11t-44.5 -31t-29 -47.5t-10.5 -60.5q0 -34 10.5 -61.5t29 -47t44.5 -30.5t58 -11zM171 773h154l52 -188h-102z" />
<glyph unicode="&#xf3;" horiz-adv-x="648" d="M324 -9q-57 0 -108.5 20t-89.5 56t-60.5 85.5t-22.5 108.5q0 60 22.5 109.5t60.5 85.5t89.5 55.5t108.5 19.5t108.5 -19.5t89.5 -55.5t60.5 -85.5t22.5 -109.5q0 -59 -22.5 -108.5t-60.5 -85.5t-89.5 -56t-108.5 -20zM324 111q31 0 57.5 11t45 30.5t29 47t10.5 61.5 q0 33 -10.5 60.5t-29 47.5t-45 31t-57.5 11q-32 0 -58 -11t-44.5 -31t-29 -47.5t-10.5 -60.5q0 -34 10.5 -61.5t29 -47t44.5 -30.5t58 -11zM325 773h154l-104 -188h-102z" />
<glyph unicode="&#xf4;" horiz-adv-x="648" d="M324 -9q-57 0 -108.5 20t-89.5 56t-60.5 85.5t-22.5 108.5q0 60 22.5 109.5t60.5 85.5t89.5 55.5t108.5 19.5t108.5 -19.5t89.5 -55.5t60.5 -85.5t22.5 -109.5q0 -59 -22.5 -108.5t-60.5 -85.5t-89.5 -56t-108.5 -20zM324 111q31 0 57.5 11t45 30.5t29 47t10.5 61.5 q0 33 -10.5 60.5t-29 47.5t-45 31t-57.5 11q-32 0 -58 -11t-44.5 -31t-29 -47.5t-10.5 -60.5q0 -34 10.5 -61.5t29 -47t44.5 -30.5t58 -11zM317 791h11l159 -216h-108l-56 65l-57 -65h-108z" />
<glyph unicode="&#xf5;" horiz-adv-x="648" d="M324 -9q-57 0 -108.5 20t-89.5 56t-60.5 85.5t-22.5 108.5q0 60 22.5 109.5t60.5 85.5t89.5 55.5t108.5 19.5t108.5 -19.5t89.5 -55.5t60.5 -85.5t22.5 -109.5q0 -59 -22.5 -108.5t-60.5 -85.5t-89.5 -56t-108.5 -20zM324 111q31 0 57.5 11t45 30.5t29 47t10.5 61.5 q0 33 -10.5 60.5t-29 47.5t-45 31t-57.5 11q-32 0 -58 -11t-44.5 -31t-29 -47.5t-10.5 -60.5q0 -34 10.5 -61.5t29 -47t44.5 -30.5t58 -11zM153 600q4 71 35 105.5t76 34.5q20 0 35.5 -6t27.5 -14q17 -11 28 -18t20 -7q14 0 20.5 11t8.5 34l91 -9q-4 -71 -35 -105.5 t-76 -34.5q-20 0 -35.5 6t-27.5 14q-17 11 -27.5 18t-20.5 7q-25 0 -29 -45z" />
<glyph unicode="&#xf6;" horiz-adv-x="648" d="M324 -9q-57 0 -108.5 20t-89.5 56t-60.5 85.5t-22.5 108.5q0 60 22.5 109.5t60.5 85.5t89.5 55.5t108.5 19.5t108.5 -19.5t89.5 -55.5t60.5 -85.5t22.5 -109.5q0 -59 -22.5 -108.5t-60.5 -85.5t-89.5 -56t-108.5 -20zM324 111q31 0 57.5 11t45 30.5t29 47t10.5 61.5 q0 33 -10.5 60.5t-29 47.5t-45 31t-57.5 11q-32 0 -58 -11t-44.5 -31t-29 -47.5t-10.5 -60.5q0 -34 10.5 -61.5t29 -47t44.5 -30.5t58 -11zM428 581q-15 0 -28.5 6t-24 16.5t-17 24t-6.5 29.5t6.5 29.5t17 24t24 16.5t28.5 6q30 0 53 -22t23 -54t-23 -54t-53 -22zM220 581 q-15 0 -28.5 6t-24 16.5t-17 24t-6.5 29.5t6.5 29.5t17 24t24 16.5t28.5 6q30 0 53 -22t23 -54t-23 -54t-53 -22z" />
<glyph unicode="&#xf7;" horiz-adv-x="332" d="M0 207v118h333v-118h-333zM166 355q-32 0 -55 22t-23 57q0 32 23 53.5t55 21.5t54.5 -21.5t22.5 -53.5q0 -35 -22.5 -57t-54.5 -22zM166 23q-32 0 -55 21.5t-23 54.5q0 35 23 56.5t55 21.5t54.5 -21.5t22.5 -56.5q0 -33 -22.5 -54.5t-54.5 -21.5z" />
<glyph unicode="&#xf8;" horiz-adv-x="648" d="M558 415q22 -32 34.5 -70.5t12.5 -83.5q0 -59 -22.5 -108.5t-60.5 -85.5t-89.5 -56t-108.5 -20q-48 0 -91 13.5t-78 38.5l-58 -53l-62 65l56 52q-23 32 -35.5 70.5t-12.5 83.5q0 60 22.5 109.5t60.5 85.5t89.5 55.5t108.5 19.5q48 0 91.5 -13.5t78.5 -38.5l57 52l62 -65z M402 394q-33 21 -78 21q-66 0 -106 -42.5t-40 -111.5q0 -34 11 -64zM246 127q34 -20 78 -20q66 0 106 42t40 112q0 33 -11 63z" />
<glyph unicode="&#xf9;" horiz-adv-x="556" d="M279 -9q-50 0 -91.5 14t-71.5 41t-46.5 67t-16.5 93v316h136v-314q0 -96 89 -96t89 96v314h136v-316q0 -53 -16.5 -93t-46.5 -67t-71 -41t-90 -14zM125 773h154l52 -188h-102z" />
<glyph unicode="&#xfa;" horiz-adv-x="556" d="M279 -9q-50 0 -91.5 14t-71.5 41t-46.5 67t-16.5 93v316h136v-314q0 -96 89 -96t89 96v314h136v-316q0 -53 -16.5 -93t-46.5 -67t-71 -41t-90 -14zM279 773h154l-104 -188h-102z" />
<glyph unicode="&#xfb;" horiz-adv-x="556" d="M279 -9q-50 0 -91.5 14t-71.5 41t-46.5 67t-16.5 93v316h136v-314q0 -96 89 -96t89 96v314h136v-316q0 -53 -16.5 -93t-46.5 -67t-71 -41t-90 -14zM271 791h11l159 -216h-108l-56 65l-57 -65h-108z" />
<glyph unicode="&#xfc;" horiz-adv-x="556" d="M279 -9q-50 0 -91.5 14t-71.5 41t-46.5 67t-16.5 93v316h136v-314q0 -96 89 -96t89 96v314h136v-316q0 -53 -16.5 -93t-46.5 -67t-71 -41t-90 -14zM382 581q-15 0 -28.5 6t-24 16.5t-17 24t-6.5 29.5t6.5 29.5t17 24t24 16.5t28.5 6q30 0 53 -22t23 -54t-23 -54t-53 -22z M174 581q-15 0 -28.5 6t-24 16.5t-17 24t-6.5 29.5t6.5 29.5t17 24t24 16.5t28.5 6q30 0 53 -22t23 -54t-23 -54t-53 -22z" />
<glyph unicode="&#xfd;" horiz-adv-x="521" d="M270 773h154l-104 -188h-102zM196 191l-181 331h155l50 -100q10 -19 18.5 -41t14.5 -41t15 -49q8 29 14 48t14.5 41.5t18.5 41.5l47 100h144l-174 -329v-193h-136v191z" />
<glyph unicode="&#xfe;" horiz-adv-x="505" d="M56 522h136v-72h62q48 0 87.5 -10.5t68 -32.5t44.5 -56t16 -82q0 -47 -16 -81.5t-44.5 -57t-68 -33t-87.5 -10.5h-62v-87h-136v522zM251 202q42 0 60.5 18t18.5 49t-20 48t-59 17h-59v-132h59z" />
<glyph unicode="&#xff;" horiz-adv-x="521" d="M196 191l-181 331h155l50 -100q10 -19 18.5 -41t14.5 -41t15 -49q8 29 14 48t14.5 41.5t18.5 41.5l47 100h144l-174 -329v-193h-136v191zM373 581q-15 0 -28.5 6t-24 16.5t-17 24t-6.5 29.5t6.5 29.5t17 24t24 16.5t28.5 6q30 0 53 -22t23 -54t-23 -54t-53 -22zM165 581 q-15 0 -28.5 6t-24 16.5t-17 24t-6.5 29.5t6.5 29.5t17 24t24 16.5t28.5 6q30 0 53 -22t23 -54t-23 -54t-53 -22z" />
<glyph unicode="&#x100;" horiz-adv-x="664" d="M320 686h12l311 -686h-147l-38 92h-264l-38 -92h-135zM408 209l-43 103q-7 17 -14 37t-13 38t-14 46q-8 -28 -13.5 -45.5t-12.5 -37.5t-14 -38l-43 -103h167zM194 848h264v-99h-264v99z" />
<glyph unicode="&#x101;" horiz-adv-x="540" d="M264 528h11l246 -528h-141l-25 59h-179l-25 -59h-132zM322 151l-15 34q-8 18 -15.5 37t-13 34.5t-11.5 37.5q-6 -21 -11.5 -36.5t-12.5 -34.5t-15 -38l-15 -34h109zM138 700h264v-99h-264v99z" />
<glyph unicode="&#x102;" horiz-adv-x="664" d="M320 686h12l311 -686h-147l-38 92h-264l-38 -92h-135zM408 209l-43 103q-7 17 -14 37t-13 38t-14 46q-8 -28 -13.5 -45.5t-12.5 -37.5t-14 -38l-43 -103h167zM326 737q-72 0 -114 40t-48 100l103 15q4 -26 17.5 -41.5t41.5 -15.5t41.5 15.5t17.5 41.5l103 -15 q-6 -60 -48 -100t-114 -40z" />
<glyph unicode="&#x103;" horiz-adv-x="540" d="M264 528h11l246 -528h-141l-25 59h-179l-25 -59h-132zM322 151l-15 34q-8 18 -15.5 37t-13 34.5t-11.5 37.5q-6 -21 -11.5 -36.5t-12.5 -34.5t-15 -38l-15 -34h109zM270 580q-72 0 -114 40t-48 100l103 15q4 -26 17.5 -41.5t41.5 -15.5t41.5 15.5t17.5 41.5l103 -15 q-6 -60 -48 -100t-114 -40z" />
<glyph unicode="&#x104;" horiz-adv-x="664" d="M580 -240q-43 0 -75 25t-32 76q0 26 11.5 49t28.5 45l35 45h-52l-38 92h-264l-38 -92h-135l299 686h12l304 -671l-50 -84q-15 -25 -20.5 -38t-5.5 -30q1 -28 28 -29q14 0 24 7t17 19l66 -38q-17 -30 -43.5 -46t-71.5 -16zM408 209l-43 103q-7 17 -14 37t-13 38t-14 46 q-8 -26 -13.5 -44t-12.5 -38.5t-14 -38.5l-43 -103h167z" />
<glyph unicode="&#x105;" horiz-adv-x="540" d="M449 -240q-43 0 -75 25t-32 76q0 26 11.5 49t28.5 45l35 45h-37l-25 59h-179l-25 -59h-132l245 528h11l235 -504l-55 -93q-8 -13 -13 -22t-7.5 -16t-4 -14t-1.5 -16q1 -28 28 -29q14 0 24 7t17 19l66 -38q-17 -30 -43.5 -46t-71.5 -16zM322 151l-15 34q-9 19 -16 37.5 t-12.5 34t-11.5 37.5q-6 -21 -11.5 -36.5t-12.5 -34.5t-15 -38l-15 -34h109z" />
<glyph unicode="&#x106;" horiz-adv-x="715" d="M398 -9q-73 0 -137 26.5t-111 73t-74.5 110.5t-27.5 139t27.5 139t74.5 110.5t111 72.5t137 26q93 0 159.5 -33.5t112.5 -105.5l-107 -76q-24 39 -65 64t-100 25q-46 0 -84 -17t-65 -46.5t-42 -70t-15 -88.5t15 -89t42 -71t65 -47t84 -17q66 0 106 28t69 72l109 -75 q-45 -69 -115 -109.5t-169 -40.5zM382 926h154l-104 -188h-102z" />
<glyph unicode="&#x107;" horiz-adv-x="588" d="M318 -9q-64 0 -115 20.5t-86.5 57t-54.5 86t-19 106.5q0 58 19.5 107.5t55.5 85.5t86 56.5t110 20.5q78 0 133 -29.5t90 -84.5l-108 -72q-17 28 -43.5 47t-71.5 19q-31 0 -55.5 -11t-41.5 -31t-26 -47.5t-9 -60.5q0 -32 9 -59.5t26.5 -47.5t42.5 -31.5t57 -11.5 q49 0 79.5 21t46.5 53l110 -63q-29 -60 -89 -95.5t-146 -35.5zM306 773h154l-104 -188h-102z" />
<glyph unicode="&#x108;" horiz-adv-x="715" d="M398 -9q-73 0 -137 26.5t-111 73t-74.5 110.5t-27.5 139t27.5 139t74.5 110.5t111 72.5t137 26q93 0 159.5 -33.5t112.5 -105.5l-107 -76q-24 39 -65 64t-100 25q-46 0 -84 -17t-65 -46.5t-42 -70t-15 -88.5t15 -89t42 -71t65 -47t84 -17q66 0 106 28t69 72l109 -75 q-45 -69 -115 -109.5t-169 -40.5zM374 954h11l159 -216h-108l-56 65l-57 -65h-108z" />
<glyph unicode="&#x109;" horiz-adv-x="588" d="M318 -9q-64 0 -115 20.5t-86.5 57t-54.5 86t-19 106.5q0 58 19.5 107.5t55.5 85.5t86 56.5t110 20.5q78 0 133 -29.5t90 -84.5l-108 -72q-17 28 -43.5 47t-71.5 19q-31 0 -55.5 -11t-41.5 -31t-26 -47.5t-9 -60.5q0 -32 9 -59.5t26.5 -47.5t42.5 -31.5t57 -11.5 q49 0 79.5 21t46.5 53l110 -63q-29 -60 -89 -95.5t-146 -35.5zM298 791h11l159 -216h-108l-56 65l-57 -65h-108z" />
<glyph unicode="&#x10a;" horiz-adv-x="715" d="M398 -9q-73 0 -137 26.5t-111 73t-74.5 110.5t-27.5 139t27.5 139t74.5 110.5t111 72.5t137 26q93 0 159.5 -33.5t112.5 -105.5l-107 -76q-24 39 -65 64t-100 25q-46 0 -84 -17t-65 -46.5t-42 -70t-15 -88.5t15 -89t42 -71t65 -47t84 -17q66 0 106 28t69 72l109 -75 q-45 -69 -115 -109.5t-169 -40.5zM382 730q-35 0 -60.5 23.5t-25.5 61.5q0 37 25.5 60.5t60.5 23.5t60 -23.5t25 -60.5q0 -38 -25 -61.5t-60 -23.5z" />
<glyph unicode="&#x10b;" horiz-adv-x="588" d="M318 -9q-64 0 -115 20.5t-86.5 57t-54.5 86t-19 106.5q0 58 19.5 107.5t55.5 85.5t86 56.5t110 20.5q78 0 133 -29.5t90 -84.5l-108 -72q-17 28 -43.5 47t-71.5 19q-31 0 -55.5 -11t-41.5 -31t-26 -47.5t-9 -60.5q0 -32 9 -59.5t26.5 -47.5t42.5 -31.5t57 -11.5 q49 0 79.5 21t46.5 53l110 -63q-29 -60 -89 -95.5t-146 -35.5zM306 576q-35 0 -60.5 23.5t-25.5 61.5q0 37 25.5 60.5t60.5 23.5t60 -23.5t25 -60.5q0 -38 -25 -61.5t-60 -23.5z" />
<glyph unicode="&#x10c;" horiz-adv-x="715" d="M398 -9q-73 0 -137 26.5t-111 73t-74.5 110.5t-27.5 139t27.5 139t74.5 110.5t111 72.5t137 26q93 0 159.5 -33.5t112.5 -105.5l-107 -76q-24 39 -65 64t-100 25q-46 0 -84 -17t-65 -46.5t-42 -70t-15 -88.5t15 -89t42 -71t65 -47t84 -17q66 0 106 28t69 72l109 -75 q-45 -69 -115 -109.5t-169 -40.5zM215 945h108l56 -65l57 65h108l-159 -216h-11z" />
<glyph unicode="&#x10d;" horiz-adv-x="588" d="M318 -9q-64 0 -115 20.5t-86.5 57t-54.5 86t-19 106.5q0 58 19.5 107.5t55.5 85.5t86 56.5t110 20.5q78 0 133 -29.5t90 -84.5l-108 -72q-17 28 -43.5 47t-71.5 19q-31 0 -55.5 -11t-41.5 -31t-26 -47.5t-9 -60.5q0 -32 9 -59.5t26.5 -47.5t42.5 -31.5t57 -11.5 q49 0 79.5 21t46.5 53l110 -63q-29 -60 -89 -95.5t-146 -35.5zM139 782h108l56 -65l57 65h108l-159 -216h-11z" />
<glyph unicode="&#x10e;" horiz-adv-x="685" d="M71 680h209q78 0 144 -25t113.5 -70t74 -107.5t26.5 -137.5t-26.5 -137.5t-74 -107.5t-113 -70t-144.5 -25h-209v680zM273 123q57 0 98.5 16t68.5 45t40 68.5t13 87.5t-13 87.5t-40 68.5t-68.5 45t-98.5 16h-62v-434h62zM127 945h108l56 -65l57 65h108l-159 -216h-11z " />
<glyph unicode="&#x10f;" horiz-adv-x="559" d="M56 522h188q58 0 107.5 -18t86 -52t57.5 -82.5t21 -108.5t-20.5 -108t-57 -82t-86.5 -52.5t-108 -18.5h-188v522zM237 118q73 0 106.5 38.5t33.5 104.5t-33.5 104.5t-106.5 38.5h-45v-286h45zM85 782h108l56 -65l57 65h108l-159 -216h-11z" />
<glyph unicode="&#x110;" horiz-adv-x="685" d="M71 278h-59v121h59v281h209q78 0 144 -25t113.5 -70t74 -107.5t26.5 -137.5t-26.5 -137.5t-74 -107.5t-113 -70t-144.5 -25h-209v278zM273 123q57 0 98.5 16t68.5 45t40 68.5t13 87.5t-13 87.5t-40 68.5t-68.5 45t-98.5 16h-62v-158h151v-121h-151v-155h62z" />
<glyph unicode="&#x111;" horiz-adv-x="559" d="M56 203h-38v113h38v206h188q58 0 107.5 -18t86 -52t57.5 -82.5t21 -108.5t-20.5 -108t-57 -82t-86.5 -52.5t-108 -18.5h-188v203zM237 118q73 0 106.5 38.5t33.5 104.5t-33.5 104.5t-106.5 38.5h-45v-88h103v-113h-103v-85h45z" />
<glyph unicode="&#x112;" horiz-adv-x="594" d="M71 680h450v-123h-310v-156h273v-120h-273v-158h324v-123h-464v680zM170 848h264v-99h-264v99z" />
<glyph unicode="&#x113;" horiz-adv-x="480" d="M56 522h371v-117h-235v-87h196v-111h-196v-90h245v-117h-381v522zM114 700h264v-99h-264v99z" />
<glyph unicode="&#x114;" horiz-adv-x="594" d="M71 680h450v-123h-310v-156h273v-120h-273v-158h324v-123h-464v680zM301 737q-72 0 -114 40t-48 100l103 15q4 -26 17.5 -41.5t41.5 -15.5t41.5 15.5t17.5 41.5l103 -15q-6 -60 -48 -100t-114 -40z" />
<glyph unicode="&#x115;" horiz-adv-x="480" d="M56 522h371v-117h-235v-87h196v-111h-196v-90h245v-117h-381v522zM244 586q-72 0 -114 40t-48 100l103 15q4 -26 17.5 -41.5t41.5 -15.5t41.5 15.5t17.5 41.5l103 -15q-6 -60 -48 -100t-114 -40z" />
<glyph unicode="&#x116;" horiz-adv-x="594" d="M71 680h450v-123h-310v-156h273v-120h-273v-158h324v-123h-464v680zM303 730q-35 0 -60.5 23.5t-25.5 61.5q0 37 25.5 60.5t60.5 23.5t60 -23.5t25 -60.5q0 -38 -25 -61.5t-60 -23.5z" />
<glyph unicode="&#x117;" horiz-adv-x="480" d="M56 522h371v-117h-235v-87h196v-111h-196v-90h245v-117h-381v522zM247 572q-35 0 -60.5 23.5t-25.5 61.5q0 37 25.5 60.5t60.5 23.5t60 -23.5t25 -60.5q0 -38 -25 -61.5t-60 -23.5z" />
<glyph unicode="&#x118;" horiz-adv-x="594" d="M417 -240q-43 0 -75 25t-32 76q0 26 11.5 49t28.5 45l35 45h-314v680h450v-123h-310v-156h273v-120h-273v-158h324v-123h-71l-41 -69q-8 -13 -13 -22t-9 -20.5t-4 -25.5q1 -28 28 -29q14 0 24 7t17 19l66 -38q-17 -30 -43.5 -46t-71.5 -16z" />
<glyph unicode="&#x119;" horiz-adv-x="480" d="M338 -240q-43 0 -75 25t-32 76q0 26 11.5 49t28.5 45l35 45h-250v522h371v-117h-235v-87h196v-111h-196v-90h245v-117h-52l-41 -69q-8 -13 -13 -22t-8 -17t-4 -14t-1 -15q1 -28 28 -29q14 0 24 7t17 19l66 -38q-17 -30 -43.5 -46t-71.5 -16z" />
<glyph unicode="&#x11a;" horiz-adv-x="594" d="M71 680h450v-123h-310v-156h273v-120h-273v-158h324v-123h-464v680zM136 945h108l56 -65l57 65h108l-159 -216h-11z" />
<glyph unicode="&#x11b;" horiz-adv-x="480" d="M56 522h371v-117h-235v-87h196v-111h-196v-90h245v-117h-381v522zM80 782h108l56 -65l57 65h108l-159 -216h-11z" />
<glyph unicode="&#x11c;" horiz-adv-x="739" d="M417 -9q-83 0 -151 26.5t-116.5 73t-75 110.5t-26.5 139t25.5 139t71 110.5t109.5 72.5t141 26q165 0 247 -94l-95 -94q-13 13 -27 24.5t-32 19.5t-40.5 13t-52.5 5q-46 0 -83.5 -17t-64 -46.5t-41 -70t-14.5 -88.5t15 -89t44 -71t70.5 -47t95.5 -17q33 0 70 6t63 19v100 h-164v123h292v-294q-15 -12 -40 -26t-58.5 -25.5t-75 -19.5t-87.5 -8zM372 954h11l159 -216h-108l-56 65l-57 -65h-108z" />
<glyph unicode="&#x11d;" horiz-adv-x="585" d="M331 -9q-67 0 -120.5 20t-90.5 56t-57 85.5t-20 108.5q0 60 21.5 110t58.5 85.5t87 55t108 19.5q79 0 125 -23.5t75 -54.5l-87 -90q-16 18 -41.5 33t-71.5 15q-32 0 -57.5 -12t-43 -32t-26.5 -47.5t-9 -58.5q0 -32 7.5 -60t25 -49t46 -33.5t70.5 -12.5q23 0 44.5 4 t36.5 10v60h-106v109h230v-246q-25 -17 -79 -34.5t-126 -17.5zM294 791h11l159 -216h-108l-56 65l-57 -65h-108z" />
<glyph unicode="&#x11e;" horiz-adv-x="739" d="M417 -9q-83 0 -151 26.5t-116.5 73t-75 110.5t-26.5 139t25.5 139t71 110.5t109.5 72.5t141 26q165 0 247 -94l-95 -94q-13 13 -27 24.5t-32 19.5t-40.5 13t-52.5 5q-46 0 -83.5 -17t-64 -46.5t-41 -70t-14.5 -88.5t15 -89t44 -71t70.5 -47t95.5 -17q33 0 70 6t63 19v100 h-164v123h292v-294q-15 -12 -40 -26t-58.5 -25.5t-75 -19.5t-87.5 -8zM379 737q-72 0 -114 40t-48 100l103 15q4 -26 17.5 -41.5t41.5 -15.5t41.5 15.5t17.5 41.5l103 -15q-6 -60 -48 -100t-114 -40z" />
<glyph unicode="&#x11f;" horiz-adv-x="585" d="M331 -9q-67 0 -120.5 20t-90.5 56t-57 85.5t-20 108.5q0 60 21.5 110t58.5 85.5t87 55t108 19.5q79 0 125 -23.5t75 -54.5l-87 -90q-16 18 -41.5 33t-71.5 15q-32 0 -57.5 -12t-43 -32t-26.5 -47.5t-9 -58.5q0 -32 7.5 -60t25 -49t46 -33.5t70.5 -12.5q23 0 44.5 4 t36.5 10v60h-106v109h230v-246q-25 -17 -79 -34.5t-126 -17.5zM301 581q-72 0 -114 40t-48 100l103 15q4 -26 17.5 -41.5t41.5 -15.5t41.5 15.5t17.5 41.5l103 -15q-6 -60 -48 -100t-114 -40z" />
<glyph unicode="&#x120;" horiz-adv-x="739" d="M417 -9q-83 0 -151 26.5t-116.5 73t-75 110.5t-26.5 139t25.5 139t71 110.5t109.5 72.5t141 26q165 0 247 -94l-95 -94q-13 13 -27 24.5t-32 19.5t-40.5 13t-52.5 5q-46 0 -83.5 -17t-64 -46.5t-41 -70t-14.5 -88.5t15 -89t44 -71t70.5 -47t95.5 -17q33 0 70 6t63 19v100 h-164v123h292v-294q-15 -12 -40 -26t-58.5 -25.5t-75 -19.5t-87.5 -8zM396 730q-35 0 -60.5 23.5t-25.5 61.5q0 37 25.5 60.5t60.5 23.5t60 -23.5t25 -60.5q0 -38 -25 -61.5t-60 -23.5z" />
<glyph unicode="&#x121;" horiz-adv-x="585" d="M331 -9q-67 0 -120.5 20t-90.5 56t-57 85.5t-20 108.5q0 60 21.5 110t58.5 85.5t87 55t108 19.5q79 0 125 -23.5t75 -54.5l-87 -90q-16 18 -41.5 33t-71.5 15q-32 0 -57.5 -12t-43 -32t-26.5 -47.5t-9 -58.5q0 -32 7.5 -60t25 -49t46 -33.5t70.5 -12.5q23 0 44.5 4 t36.5 10v60h-106v109h230v-246q-25 -17 -79 -34.5t-126 -17.5zM316 576q-35 0 -60.5 23.5t-25.5 61.5q0 37 25.5 60.5t60.5 23.5t60 -23.5t25 -60.5q0 -38 -25 -61.5t-60 -23.5z" />
<glyph unicode="&#x122;" horiz-adv-x="739" d="M417 -9q-83 0 -151 26.5t-116.5 73t-75 110.5t-26.5 139t25.5 139t71 110.5t109.5 72.5t141 26q165 0 247 -94l-95 -94q-13 13 -27 24.5t-32 19.5t-40.5 13t-52.5 5q-46 0 -83.5 -17t-64 -46.5t-41 -70t-14.5 -88.5t15 -89t44 -71t70.5 -47t95.5 -17q33 0 70 6t63 19v100 h-164v123h292v-294q-15 -12 -40 -26t-58.5 -25.5t-75 -19.5t-87.5 -8zM343 -186q-17 8 -29 26t-12 43q0 33 23 54.5t53 21.5q31 0 54.5 -21.5t23.5 -53.5q0 -23 -7 -42.5t-19 -39.5l-52 -85h-66z" />
<glyph unicode="&#x123;" horiz-adv-x="585" d="M331 -9q-67 0 -120.5 20t-90.5 56t-57 85.5t-20 108.5q0 60 21.5 110t58.5 85.5t87 55t108 19.5q79 0 125 -23.5t75 -54.5l-87 -90q-16 18 -41.5 33t-71.5 15q-32 0 -57.5 -12t-43 -32t-26.5 -47.5t-9 -58.5q0 -32 7.5 -60t25 -49t46 -33.5t70.5 -12.5q23 0 44.5 4 t36.5 10v60h-106v109h230v-246q-25 -17 -79 -34.5t-126 -17.5zM265 -186q-17 8 -29 26t-12 43q0 33 23 54.5t53 21.5q31 0 54.5 -21.5t23.5 -53.5q0 -23 -7 -42.5t-19 -39.5l-52 -85h-66z" />
<glyph unicode="&#x124;" horiz-adv-x="713" d="M71 680h140v-288h291v288h140v-680h-140v267h-291v-267h-140v680zM349 954h11l159 -216h-108l-56 65l-57 -65h-108z" />
<glyph unicode="&#x125;" horiz-adv-x="577" d="M56 522h136v-203h193v203h136v-522h-136v198h-193v-198h-136v522zM281 791h11l159 -216h-108l-56 65l-57 -65h-108z" />
<glyph unicode="&#x126;" horiz-adv-x="713" d="M1 558h70v122h140v-122h291v122h140v-122h70v-95h-70v-463h-140v267h-291v-267h-140v463h-70v95zM502 392v71h-291v-71h291z" />
<glyph unicode="&#x127;" horiz-adv-x="577" d="M1 446h55v76h136v-76h193v76h136v-76h55v-87h-55v-359h-136v198h-193v-198h-136v359h-55v87zM385 312v47h-193v-47h193z" />
<glyph unicode="&#x128;" horiz-adv-x="287" d="M74 680h140v-680h-140v680zM-27 757q4 71 35 105.5t76 34.5q20 0 35.5 -6t27.5 -14q17 -11 28 -18t20 -7q14 0 20.5 11t8.5 34l91 -9q-4 -71 -35 -105.5t-76 -34.5q-20 0 -35.5 6t-27.5 14q-17 11 -27.5 18t-20.5 7q-25 0 -29 -45z" />
<glyph unicode="&#x129;" horiz-adv-x="252" d="M58 522h136v-522h-136v522zM-45 600q4 71 35 105.5t76 34.5q20 0 35.5 -6t27.5 -14q17 -11 28 -18t20 -7q14 0 20.5 11t8.5 34l91 -9q-4 -71 -35 -105.5t-76 -34.5q-20 0 -35.5 6t-27.5 14q-17 11 -27.5 18t-20.5 7q-25 0 -29 -45z" />
<glyph unicode="&#x12a;" horiz-adv-x="287" d="M12 848h264v-99h-264v99zM74 680h140v-680h-140v680z" />
<glyph unicode="&#x12b;" horiz-adv-x="252" d="M4 700h244v-99h-244v99zM58 522h136v-522h-136v522z" />
<glyph unicode="&#x12c;" horiz-adv-x="287" d="M74 680h140v-680h-140v680zM144 737q-72 0 -114 40t-48 100l103 15q4 -26 17.5 -41.5t41.5 -15.5t41.5 15.5t17.5 41.5l103 -15q-6 -60 -48 -100t-114 -40z" />
<glyph unicode="&#x12d;" horiz-adv-x="252" d="M58 522h136v-522h-136v522zM126 580q-72 0 -114 40t-48 100l103 15q4 -26 17.5 -41.5t41.5 -15.5t41.5 15.5t17.5 41.5l103 -15q-6 -60 -48 -100t-114 -40z" />
<glyph unicode="&#x12e;" horiz-adv-x="287" d="M74 0v680h140v-648l-60 -101q-17 -29 -21.5 -41t-4.5 -27q2 -29 28 -29q16 0 25 7.5t16 18.5l66 -38q-17 -30 -43.5 -46t-71.5 -16q-43 0 -75 25.5t-32 75.5q0 26 11.5 49t28.5 45l35 45h-42z" />
<glyph unicode="&#x12f;" horiz-adv-x="252" d="M58 0v522h136v-485l-63 -106q-19 -32 -22.5 -44.5t-3.5 -23.5q1 -28 28 -29q15 0 24.5 7.5t16.5 18.5l66 -38q-17 -30 -43.5 -46t-71.5 -16q-43 0 -75 25t-32 76q0 26 11.5 49t28.5 45l35 45h-35z" />
<glyph unicode="&#x130;" horiz-adv-x="287" d="M145 730q-35 0 -60.5 23.5t-25.5 61.5q0 37 25.5 60.5t60.5 23.5t60 -23.5t25 -60.5q0 -38 -25 -61.5t-60 -23.5zM74 680h140v-680h-140v680z" />
<glyph unicode="&#x131;" horiz-adv-x="252" d="M58 522h136v-522h-136v522z" />
<glyph unicode="&#x132;" horiz-adv-x="783" d="M74 680h140v-680h-140v680zM510 -9q-42 0 -75.5 10t-59 27.5t-44.5 41t-31 49.5l114 69q16 -32 36.5 -52t53.5 -20q17 0 31 4t23.5 14t15 27t5.5 43v476h140v-478q0 -54 -15 -94t-43 -66t-66.5 -38.5t-84.5 -12.5z" />
<glyph unicode="&#x133;" horiz-adv-x="654" d="M58 522h136v-522h-136v522zM421 -9q-71 0 -114 32t-64 79l110 62q14 -28 28 -41.5t37 -13.5t35 13.5t12 44.5v355h136v-359q0 -46 -13.5 -78.5t-37.5 -53.5t-57 -30.5t-72 -9.5z" />
<glyph unicode="&#x134;" horiz-adv-x="496" d="M223 -9q-42 0 -75.5 10t-59 27.5t-44.5 41t-31 49.5l114 69q16 -32 36.5 -52t53.5 -20q17 0 31 4t23.5 14t15 27t5.5 43v476h140v-478q0 -54 -15 -94t-43 -66t-66.5 -38.5t-84.5 -12.5zM353 954h11l159 -216h-108l-56 65l-57 -65h-108z" />
<glyph unicode="&#x135;" horiz-adv-x="424" d="M191 -9q-71 0 -114 32t-64 79l110 62q14 -28 28 -41.5t37 -13.5t35 13.5t12 44.5v355h136v-359q0 -46 -13.5 -78.5t-37.5 -53.5t-57 -30.5t-72 -9.5zM295 791h11l159 -216h-108l-56 65l-57 -65h-108z" />
<glyph unicode="&#x136;" horiz-adv-x="645" d="M71 680h140v-225q0 -25 -3 -56.5t-6 -57.5q12 27 27 55t33 51l182 233h159l-232 -298l256 -382h-169l-181 277l-66 -79v-198h-140v680zM294 -186q-17 8 -29 26t-12 43q0 33 23 54.5t53 21.5q31 0 54.5 -21.5t23.5 -53.5q0 -23 -7 -42.5t-19 -39.5l-52 -85h-66z" />
<glyph unicode="&#x137;" horiz-adv-x="546" d="M56 522h136v-127q0 -16 -1 -34.5t-4.5 -50.5t-5.5 -46q6 12 14.5 27.5t18.5 32.5t20 32.5t19 27.5l108 138h149l-179 -224l203 -298h-161l-135 203l-46 -53v-150h-136v522zM237 -186q-17 8 -29 26t-12 43q0 33 23 54.5t53 21.5q31 0 54.5 -21.5t23.5 -53.5 q0 -23 -7 -42.5t-19 -39.5l-52 -85h-66z" />
<glyph unicode="&#x139;" horiz-adv-x="561" d="M71 680h140v-557h308v-123h-448v680zM139 926h154l-104 -188h-102z" />
<glyph unicode="&#x13a;" horiz-adv-x="462" d="M56 522h136v-404h230v-118h-366v522zM129 774h154l-104 -188h-102z" />
<glyph unicode="&#x13b;" horiz-adv-x="561" d="M71 680h140v-557h308v-123h-448v680zM249 -186q-17 8 -29 26t-12 43q0 33 23 54.5t53 21.5q31 0 54.5 -21.5t23.5 -53.5q0 -23 -7 -42.5t-19 -39.5l-52 -85h-66z" />
<glyph unicode="&#x13c;" horiz-adv-x="462" d="M56 522h136v-404h230v-118h-366v522zM195 -186q-17 8 -29 26t-12 43q0 33 23 54.5t53 21.5q31 0 54.5 -21.5t23.5 -53.5q0 -23 -7 -42.5t-19 -39.5l-52 -85h-66z" />
<glyph unicode="&#x13d;" horiz-adv-x="561" d="M362 534q-18 8 -31.5 27.5t-13.5 45.5q0 35 24 57.5t56 22.5q33 0 57.5 -22.5t24.5 -56.5q0 -23 -8 -43t-22 -43l-60 -102h-65zM71 680h140v-557h308v-123h-448v680z" />
<glyph unicode="&#x13e;" horiz-adv-x="462" d="M325 378q-18 8 -31.5 27.5t-13.5 45.5q0 35 24 57.5t56 22.5q33 0 57.5 -22.5t24.5 -56.5q0 -23 -8 -43t-22 -43l-60 -102h-65zM56 522h136v-404h230v-118h-366v522z" />
<glyph unicode="&#x13f;" horiz-adv-x="561" d="M71 680h140v-557h308v-123h-448v680zM409 235q-35 0 -60 23.5t-25 61.5q0 37 25 60.5t60 23.5q34 0 59 -23.5t25 -60.5q0 -38 -25 -61.5t-59 -23.5z" />
<glyph unicode="&#x140;" horiz-adv-x="462" d="M56 522h136v-404h230v-118h-366v522zM335 214q-35 0 -60 23.5t-25 61.5q0 37 25 60.5t60 23.5q34 0 59 -23.5t25 -60.5q0 -38 -25 -61.5t-59 -23.5z" />
<glyph unicode="&#x141;" horiz-adv-x="571" d="M81 217l-74 -25v122l74 25v341h140v-292l180 62v-122l-180 -62v-143h308v-123h-448v217z" />
<glyph unicode="&#x142;" horiz-adv-x="475" d="M66 156l-56 -24v113l56 24v253h136v-195l128 55v-113l-128 -55v-96h230v-118h-366v156z" />
<glyph unicode="&#x143;" horiz-adv-x="701" d="M273 316q-13 12 -27 28t-26 30q-14 17 -28 35q3 -24 5 -44q2 -19 3.5 -40.5t1.5 -39.5v-285h-131v686h14l343 -322q12 -12 26 -27.5t26 -30.5q14 -17 28 -35q-3 27 -5 49q-2 19 -3 38t-1 37v285h131v-686h-14zM348 926h154l-104 -188h-102z" />
<glyph unicode="&#x144;" horiz-adv-x="556" d="M246 202q-15 13 -36.5 35t-38.5 43q5 -34 7.5 -64t2.5 -46v-170h-125v529h11l241 -208q16 -14 35.5 -34t39.5 -45q-4 35 -6 64.5t-2 46.5v169h125v-530h-11zM277 773h154l-104 -188h-102z" />
<glyph unicode="&#x145;" horiz-adv-x="701" d="M273 316q-13 12 -27 28t-26 30q-14 17 -28 35q3 -24 5 -44q2 -19 3.5 -40.5t1.5 -39.5v-285h-131v686h14l343 -322q12 -12 26 -27.5t26 -30.5q14 -17 28 -35q-3 27 -5 49q-2 19 -3 38t-1 37v285h131v-686h-14zM339 -186q-17 8 -29 26t-12 43q0 33 23 54.5t53 21.5 q31 0 54.5 -21.5t23.5 -53.5q0 -23 -7 -42.5t-19 -39.5l-52 -85h-66z" />
<glyph unicode="&#x146;" horiz-adv-x="556" d="M246 202q-15 13 -36.5 35t-38.5 43q5 -34 7.5 -64t2.5 -46v-170h-125v529h11l241 -208q16 -14 35.5 -34t39.5 -45q-4 35 -6 64.5t-2 46.5v169h125v-530h-11zM257 -186q-17 8 -29 26t-12 43q0 33 23 54.5t53 21.5q31 0 54.5 -21.5t23.5 -53.5q0 -23 -7 -42.5t-19 -39.5 l-52 -85h-66z" />
<glyph unicode="&#x147;" horiz-adv-x="701" d="M273 316q-13 12 -27 28t-26 30q-14 17 -28 35q3 -24 5 -44q2 -19 3.5 -40.5t1.5 -39.5v-285h-131v686h14l343 -322q12 -12 26 -27.5t26 -30.5q14 -17 28 -35q-3 27 -5 49q-2 19 -3 38t-1 37v285h131v-686h-14zM180 945h108l56 -65l57 65h108l-159 -216h-11z" />
<glyph unicode="&#x148;" horiz-adv-x="556" d="M246 202q-15 13 -36.5 35t-38.5 43q5 -34 7.5 -64t2.5 -46v-170h-125v529h11l241 -208q16 -14 35.5 -34t39.5 -45q-4 35 -6 64.5t-2 46.5v169h125v-530h-11zM110 782h108l56 -65l57 65h108l-159 -216h-11z" />
<glyph unicode="&#x14c;" horiz-adv-x="800" d="M268 848h264v-99h-264v99zM400 -9q-74 0 -138 26.5t-111.5 73t-75 110.5t-27.5 139t27.5 139t75 110.5t111.5 73t138 26.5q73 0 137.5 -26.5t112 -73t75 -110.5t27.5 -139t-27.5 -139t-75 -110.5t-112 -73t-137.5 -26.5zM400 116q46 0 84.5 17t66 47t42.5 71t15 89 t-15 89t-42.5 71t-66 47t-84.5 17q-47 0 -85 -17t-65.5 -47t-42.5 -71t-15 -89t15 -89t42.5 -71t65.5 -47t85 -17z" />
<glyph unicode="&#x14d;" horiz-adv-x="648" d="M192 700h264v-99h-264v99zM324 -9q-57 0 -108.5 20t-89.5 56t-60.5 85.5t-22.5 108.5q0 60 22.5 109.5t60.5 85.5t89.5 55.5t108.5 19.5t108.5 -19.5t89.5 -55.5t60.5 -85.5t22.5 -109.5q0 -59 -22.5 -108.5t-60.5 -85.5t-89.5 -56t-108.5 -20zM324 111q31 0 57.5 11 t45 30.5t29 47t10.5 61.5q0 33 -10.5 60.5t-29 47.5t-45 31t-57.5 11q-32 0 -58 -11t-44.5 -31t-29 -47.5t-10.5 -60.5q0 -34 10.5 -61.5t29 -47t44.5 -30.5t58 -11z" />
<glyph unicode="&#x14e;" horiz-adv-x="800" d="M400 -9q-74 0 -138 26.5t-111.5 73t-75 110.5t-27.5 139t27.5 139t75 110.5t111.5 73t138 26.5q73 0 137.5 -26.5t112 -73t75 -110.5t27.5 -139t-27.5 -139t-75 -110.5t-112 -73t-137.5 -26.5zM400 116q46 0 84.5 17t66 47t42.5 71t15 89t-15 89t-42.5 71t-66 47 t-84.5 17q-47 0 -85 -17t-65.5 -47t-42.5 -71t-15 -89t15 -89t42.5 -71t65.5 -47t85 -17zM400 737q-72 0 -114 40t-48 100l103 15q4 -26 17.5 -41.5t41.5 -15.5t41.5 15.5t17.5 41.5l103 -15q-6 -60 -48 -100t-114 -40z" />
<glyph unicode="&#x14f;" horiz-adv-x="648" d="M324 -9q-57 0 -108.5 20t-89.5 56t-60.5 85.5t-22.5 108.5q0 60 22.5 109.5t60.5 85.5t89.5 55.5t108.5 19.5t108.5 -19.5t89.5 -55.5t60.5 -85.5t22.5 -109.5q0 -59 -22.5 -108.5t-60.5 -85.5t-89.5 -56t-108.5 -20zM324 111q31 0 57.5 11t45 30.5t29 47t10.5 61.5 q0 33 -10.5 60.5t-29 47.5t-45 31t-57.5 11q-32 0 -58 -11t-44.5 -31t-29 -47.5t-10.5 -60.5q0 -34 10.5 -61.5t29 -47t44.5 -30.5t58 -11zM324 580q-72 0 -114 40t-48 100l103 15q4 -26 17.5 -41.5t41.5 -15.5t41.5 15.5t17.5 41.5l103 -15q-6 -60 -48 -100t-114 -40z" />
<glyph unicode="&#x150;" horiz-adv-x="800" d="M400 -9q-74 0 -138 26.5t-111.5 73t-75 110.5t-27.5 139t27.5 139t75 110.5t111.5 73t138 26.5q73 0 137.5 -26.5t112 -73t75 -110.5t27.5 -139t-27.5 -139t-75 -110.5t-112 -73t-137.5 -26.5zM400 116q46 0 84.5 17t66 47t42.5 71t15 89t-15 89t-42.5 71t-66 47 t-84.5 17q-47 0 -85 -17t-65.5 -47t-42.5 -71t-15 -89t15 -89t42.5 -71t65.5 -47t85 -17zM492 946h140l-89 -188h-102zM307 946h140l-89 -188h-102z" />
<glyph unicode="&#x151;" horiz-adv-x="648" d="M324 -9q-57 0 -108.5 20t-89.5 56t-60.5 85.5t-22.5 108.5q0 60 22.5 109.5t60.5 85.5t89.5 55.5t108.5 19.5t108.5 -19.5t89.5 -55.5t60.5 -85.5t22.5 -109.5q0 -59 -22.5 -108.5t-60.5 -85.5t-89.5 -56t-108.5 -20zM324 111q31 0 57.5 11t45 30.5t29 47t10.5 61.5 q0 33 -10.5 60.5t-29 47.5t-45 31t-57.5 11q-32 0 -58 -11t-44.5 -31t-29 -47.5t-10.5 -60.5q0 -34 10.5 -61.5t29 -47t44.5 -30.5t58 -11zM416 773h140l-89 -188h-102zM231 773h140l-89 -188h-102z" />
<glyph unicode="&#x152;" horiz-adv-x="997" d="M405 0q-78 0 -144 25t-113.5 70t-74 107.5t-26.5 137.5t26.5 137.5t74 107.5t113 70t144.5 25h519v-123h-310v-156h273v-120h-273v-158h324v-123h-533zM474 123v434h-62q-57 0 -98.5 -16t-68.5 -45t-40 -68.5t-13 -87.5t13 -87.5t40 -68.5t68.5 -45t98.5 -16h62z" />
<glyph unicode="&#x153;" horiz-adv-x="791" d="M315 0q-58 0 -107.5 18t-86 52t-57.5 82.5t-21 108.5t20.5 108t57 82t86.5 52.5t108 18.5h423v-117h-235v-87h196v-111h-196v-90h245v-117h-433zM367 118v286h-45q-73 0 -106.5 -38.5t-33.5 -104.5t33.5 -104.5t106.5 -38.5h45z" />
<glyph unicode="&#x154;" horiz-adv-x="629" d="M71 680h252q52 0 98 -12.5t80.5 -39.5t54.5 -69.5t20 -102.5q0 -78 -36.5 -127t-96.5 -72l155 -257h-160l-138 236h-89v-236h-140v680zM319 354q52 0 82.5 22.5t30.5 79.5t-31 79t-82 22h-108v-203h108zM303 926h154l-104 -188h-102z" />
<glyph unicode="&#x155;" horiz-adv-x="521" d="M56 522h203q48 0 87.5 -10.5t68 -33t44.5 -57.5t16 -83q0 -58 -26.5 -95.5t-71.5 -57.5l115 -185h-153l-98 164h-49v-164h-136v522zM256 271q42 0 60.5 17.5t18.5 49.5t-20 50t-59 18h-64v-135h64zM243 773h154l-104 -188h-102z" />
<glyph unicode="&#x156;" horiz-adv-x="629" d="M71 680h252q52 0 98 -12.5t80.5 -39.5t54.5 -69.5t20 -102.5q0 -78 -36.5 -127t-96.5 -72l155 -257h-160l-138 236h-89v-236h-140v680zM319 354q52 0 82.5 22.5t30.5 79.5t-31 79t-82 22h-108v-203h108zM287 -186q-17 8 -29 26t-12 43q0 33 23 54.5t53 21.5 q31 0 54.5 -21.5t23.5 -53.5q0 -23 -7 -42.5t-19 -39.5l-52 -85h-66z" />
<glyph unicode="&#x157;" horiz-adv-x="521" d="M56 522h203q48 0 87.5 -10.5t68 -33t44.5 -57.5t16 -83q0 -58 -26.5 -95.5t-71.5 -57.5l115 -185h-153l-98 164h-49v-164h-136v522zM256 271q42 0 60.5 17.5t18.5 49.5t-20 50t-59 18h-64v-135h64zM225 -186q-17 8 -29 26t-12 43q0 33 23 54.5t53 21.5q31 0 54.5 -21.5 t23.5 -53.5q0 -23 -7 -42.5t-19 -39.5l-52 -85h-66z" />
<glyph unicode="&#x158;" horiz-adv-x="629" d="M71 680h252q52 0 98 -12.5t80.5 -39.5t54.5 -69.5t20 -102.5q0 -78 -36.5 -127t-96.5 -72l155 -257h-160l-138 236h-89v-236h-140v680zM319 354q52 0 82.5 22.5t30.5 79.5t-31 79t-82 22h-108v-203h108zM136 945h108l56 -65l57 65h108l-159 -216h-11z" />
<glyph unicode="&#x159;" horiz-adv-x="521" d="M56 522h203q48 0 87.5 -10.5t68 -33t44.5 -57.5t16 -83q0 -58 -26.5 -95.5t-71.5 -57.5l115 -185h-153l-98 164h-49v-164h-136v522zM256 271q42 0 60.5 17.5t18.5 49.5t-20 50t-59 18h-64v-135h64zM76 782h108l56 -65l57 65h108l-159 -216h-11z" />
<glyph unicode="&#x15a;" horiz-adv-x="537" d="M267 -9q-49 0 -89 11t-72 30t-55.5 45.5t-38.5 56.5l114 66q23 -37 54.5 -61t83.5 -24q44 0 69.5 19.5t25.5 49.5q0 36 -27 54t-75 39l-35 15q-38 16 -69 35t-53 44t-34 57t-12 75q0 39 14.5 73t41 59t64.5 39t85 14q67 0 115.5 -25.5t83.5 -86.5l-109 -70q-18 32 -39 46 t-51 14q-31 0 -49 -17t-18 -43q0 -32 20.5 -48.5t65.5 -36.5l35 -15q45 -19 79.5 -39.5t58 -46t36 -58t12.5 -76.5q0 -47 -17.5 -83.5t-48.5 -61.5t-73.5 -37.5t-92.5 -12.5zM254 926h154l-104 -188h-102z" />
<glyph unicode="&#x15b;" horiz-adv-x="459" d="M230 -9q-80 0 -135.5 34t-81.5 87l106 62q17 -30 43.5 -49t65.5 -19q28 0 46 10t18 28q0 19 -16 30t-55 27l-22 9q-32 13 -58.5 28t-45.5 35t-29.5 46t-10.5 61q0 34 12.5 62t35 47.5t54 30.5t69.5 11q57 0 97.5 -19.5t72.5 -70.5l-103 -59q-14 22 -28.5 29.5t-34.5 7.5 t-32.5 -10t-12.5 -27q0 -21 15.5 -31t38.5 -20l22 -9q36 -15 66.5 -30.5t52.5 -35.5t34.5 -47t12.5 -64q0 -73 -52 -113.5t-145 -40.5zM228 773h154l-104 -188h-102z" />
<glyph unicode="&#x15c;" horiz-adv-x="537" d="M267 -9q-49 0 -89 11t-72 30t-55.5 45.5t-38.5 56.5l114 66q23 -37 54.5 -61t83.5 -24q44 0 69.5 19.5t25.5 49.5q0 36 -27 54t-75 39l-35 15q-38 16 -69 35t-53 44t-34 57t-12 75q0 39 14.5 73t41 59t64.5 39t85 14q67 0 115.5 -25.5t83.5 -86.5l-109 -70q-18 32 -39 46 t-51 14q-31 0 -49 -17t-18 -43q0 -32 20.5 -48.5t65.5 -36.5l35 -15q45 -19 79.5 -39.5t58 -46t36 -58t12.5 -76.5q0 -47 -17.5 -83.5t-48.5 -61.5t-73.5 -37.5t-92.5 -12.5zM250 954h11l159 -216h-108l-56 65l-57 -65h-108z" />
<glyph unicode="&#x15d;" horiz-adv-x="459" d="M230 -9q-80 0 -135.5 34t-81.5 87l106 62q17 -30 43.5 -49t65.5 -19q28 0 46 10t18 28q0 19 -16 30t-55 27l-22 9q-32 13 -58.5 28t-45.5 35t-29.5 46t-10.5 61q0 34 12.5 62t35 47.5t54 30.5t69.5 11q57 0 97.5 -19.5t72.5 -70.5l-103 -59q-14 22 -28.5 29.5t-34.5 7.5 t-32.5 -10t-12.5 -27q0 -21 15.5 -31t38.5 -20l22 -9q36 -15 66.5 -30.5t52.5 -35.5t34.5 -47t12.5 -64q0 -73 -52 -113.5t-145 -40.5zM220 791h11l159 -216h-108l-56 65l-57 -65h-108z" />
<glyph unicode="&#x15e;" horiz-adv-x="537" d="M269 -240q-47 0 -75 17t-43 43l64 39q6 -11 16 -19.5t27 -8.5q14 0 25 8.5t11 25.5t-11.5 25.5t-29.5 8.5h-34v95q-78 10 -129.5 48t-77.5 92l114 66q23 -37 54.5 -61t83.5 -24q44 0 69.5 19.5t25.5 49.5q0 36 -27 54t-75 39l-35 15q-38 16 -69 35t-53 44t-34 57t-12 75 q0 39 14.5 73t41 59t64.5 39t85 14q67 0 115.5 -25.5t83.5 -86.5l-109 -70q-18 32 -39 46t-51 14q-31 0 -49 -17t-18 -43q0 -32 20.5 -48.5t65.5 -36.5l35 -15q45 -19 79.5 -39.5t58 -46t36 -58t12.5 -76.5q0 -45 -16 -80t-44 -59.5t-66.5 -38t-84.5 -16.5v-31q17 -3 33 -11 t28.5 -21t20 -31t7.5 -41t-9.5 -40.5t-24.5 -30.5t-34.5 -19.5t-39.5 -6.5z" />
<glyph unicode="&#x15f;" horiz-adv-x="459" d="M242 -240q-47 0 -75 17t-43 43l64 39q6 -11 16 -19.5t27 -8.5q14 0 25 8.5t11 25.5t-11.5 25.5t-29.5 8.5h-34v95q-66 8 -111 39.5t-68 78.5l106 62q17 -29 42.5 -48.5t66.5 -19.5q28 0 46 10t18 28q0 19 -16 30t-55 27l-22 9q-32 13 -58.5 28t-45.5 35t-29.5 46 t-10.5 61q0 34 12.5 62t35 47.5t54 30.5t69.5 11q57 0 97.5 -19.5t72.5 -70.5l-103 -59q-14 22 -28.5 29.5t-34.5 7.5t-32.5 -10t-12.5 -27q0 -21 15.5 -31t38.5 -20l22 -9q36 -15 66.5 -30.5t52.5 -35.5t34.5 -47t12.5 -64q0 -67 -44 -106.5t-122 -46.5v-31q17 -3 33 -11 t28.5 -21t20 -31t7.5 -41t-9.5 -40.5t-24.5 -30.5t-34.5 -19.5t-39.5 -6.5z" />
<glyph unicode="&#x160;" horiz-adv-x="537" d="M267 -9q-49 0 -89 11t-72 30t-55.5 45.5t-38.5 56.5l114 66q23 -37 54.5 -61t83.5 -24q44 0 69.5 19.5t25.5 49.5q0 36 -27 54t-75 39l-35 15q-38 16 -69 35t-53 44t-34 57t-12 75q0 39 14.5 73t41 59t64.5 39t85 14q67 0 115.5 -25.5t83.5 -86.5l-109 -70q-18 32 -39 46 t-51 14q-31 0 -49 -17t-18 -43q0 -32 20.5 -48.5t65.5 -36.5l35 -15q45 -19 79.5 -39.5t58 -46t36 -58t12.5 -76.5q0 -47 -17.5 -83.5t-48.5 -61.5t-73.5 -37.5t-92.5 -12.5zM91 945h108l56 -65l57 65h108l-159 -216h-11z" />
<glyph unicode="&#x161;" horiz-adv-x="459" d="M230 -9q-80 0 -135.5 34t-81.5 87l106 62q17 -30 43.5 -49t65.5 -19q28 0 46 10t18 28q0 19 -16 30t-55 27l-22 9q-32 13 -58.5 28t-45.5 35t-29.5 46t-10.5 61q0 34 12.5 62t35 47.5t54 30.5t69.5 11q57 0 97.5 -19.5t72.5 -70.5l-103 -59q-14 22 -28.5 29.5t-34.5 7.5 t-32.5 -10t-12.5 -27q0 -21 15.5 -31t38.5 -20l22 -9q36 -15 66.5 -30.5t52.5 -35.5t34.5 -47t12.5 -64q0 -73 -52 -113.5t-145 -40.5zM61 782h108l56 -65l57 65h108l-159 -216h-11z" />
<glyph unicode="&#x162;" horiz-adv-x="592" d="M226 557h-194v123h528v-123h-194v-557h-34v-39q17 -3 33 -11t28.5 -21t20 -31t7.5 -41t-9.5 -40.5t-24.5 -30.5t-34.5 -19.5t-39.5 -6.5q-47 0 -75 17t-43 43l64 39q6 -11 16 -19.5t27 -8.5q14 0 25 8.5t11 25.5t-11.5 25.5t-29.5 8.5h-34v101h-37v557z" />
<glyph unicode="&#x163;" horiz-adv-x="505" d="M184 404h-148v118h433v-118h-148v-404h-34v-39q17 -3 33 -11t28.5 -21t20 -31t7.5 -41t-9.5 -40.5t-24.5 -30.5t-34.5 -19.5t-39.5 -6.5q-47 0 -75 17t-43 43l64 39q6 -11 16 -19.5t27 -8.5q14 0 25 8.5t11 25.5t-11.5 25.5t-29.5 8.5h-34v101h-34v404z" />
<glyph unicode="&#x164;" horiz-adv-x="592" d="M226 557h-194v123h528v-123h-194v-557h-140v557zM130 945h108l56 -65l57 65h108l-159 -216h-11z" />
<glyph unicode="&#x165;" horiz-adv-x="505" d="M184 404h-148v118h433v-118h-148v-404h-137v404zM86 782h108l56 -65l57 65h108l-159 -216h-11z" />
<glyph unicode="&#x168;" horiz-adv-x="686" d="M344 -9q-59 0 -109.5 15.5t-87.5 47.5t-58 79.5t-21 112.5v434h140v-426q0 -75 33 -106t103 -31q69 0 101.5 31t32.5 106v426h140v-434q0 -65 -21 -112.5t-58 -79.5t-87 -47.5t-108 -15.5zM176 751q4 71 35 105.5t76 34.5q20 0 35.5 -6t27.5 -14q17 -11 28 -18t20 -7 q14 0 20.5 11t8.5 34l91 -9q-4 -71 -35 -105.5t-76 -34.5q-20 0 -35.5 6t-27.5 14q-17 11 -27.5 18t-20.5 7q-25 0 -29 -45z" />
<glyph unicode="&#x169;" horiz-adv-x="556" d="M279 -9q-50 0 -91.5 14t-71.5 41t-46.5 67t-16.5 93v316h136v-314q0 -96 89 -96t89 96v314h136v-316q0 -53 -16.5 -93t-46.5 -67t-71 -41t-90 -14zM113 600q4 71 35 105.5t76 34.5q20 0 35.5 -6t27.5 -14q17 -11 28 -18t20 -7q14 0 20.5 11t8.5 34l91 -9 q-4 -71 -35 -105.5t-76 -34.5q-20 0 -35.5 6t-27.5 14q-17 11 -27.5 18t-20.5 7q-25 0 -29 -45z" />
<glyph unicode="&#x16a;" horiz-adv-x="686" d="M211 848h264v-99h-264v99zM344 -9q-59 0 -109.5 15.5t-87.5 47.5t-58 79.5t-21 112.5v434h140v-426q0 -75 33 -106t103 -31q69 0 101.5 31t32.5 106v426h140v-434q0 -65 -21 -112.5t-58 -79.5t-87 -47.5t-108 -15.5z" />
<glyph unicode="&#x16b;" horiz-adv-x="556" d="M146 700h264v-99h-264v99zM279 -9q-50 0 -91.5 14t-71.5 41t-46.5 67t-16.5 93v316h136v-314q0 -96 89 -96t89 96v314h136v-316q0 -53 -16.5 -93t-46.5 -67t-71 -41t-90 -14z" />
<glyph unicode="&#x16c;" horiz-adv-x="686" d="M344 -9q-59 0 -109.5 15.5t-87.5 47.5t-58 79.5t-21 112.5v434h140v-426q0 -75 33 -106t103 -31q69 0 101.5 31t32.5 106v426h140v-434q0 -65 -21 -112.5t-58 -79.5t-87 -47.5t-108 -15.5zM343 738q-72 0 -114 40t-48 100l103 15q4 -26 17.5 -41.5t41.5 -15.5t41.5 15.5 t17.5 41.5l103 -15q-6 -60 -48 -100t-114 -40z" />
<glyph unicode="&#x16d;" horiz-adv-x="556" d="M279 -9q-50 0 -91.5 14t-71.5 41t-46.5 67t-16.5 93v316h136v-314q0 -96 89 -96t89 96v314h136v-316q0 -53 -16.5 -93t-46.5 -67t-71 -41t-90 -14zM278 580q-72 0 -114 40t-48 100l103 15q4 -26 17.5 -41.5t41.5 -15.5t41.5 15.5t17.5 41.5l103 -15q-6 -60 -48 -100 t-114 -40z" />
<glyph unicode="&#x16e;" horiz-adv-x="686" d="M343 702q-27 0 -51 9.5t-41 26t-27 38t-10 45.5t10 46t27 38t41 25.5t51 9.5t51 -9.5t41 -25.5t27 -38t10 -46t-10 -45.5t-27 -38t-41 -26t-51 -9.5zM343 776q18 0 30.5 11.5t12.5 33.5t-12.5 33.5t-30.5 11.5t-30.5 -11.5t-12.5 -33.5t12.5 -33.5t30.5 -11.5zM344 -9 q-59 0 -109.5 15.5t-87.5 47.5t-58 79.5t-21 112.5v434h140v-426q0 -75 33 -106t103 -31q69 0 101.5 31t32.5 106v426h140v-434q0 -65 -21 -112.5t-58 -79.5t-87 -47.5t-108 -15.5z" />
<glyph unicode="&#x16f;" horiz-adv-x="556" d="M279 -9q-50 0 -91.5 14t-71.5 41t-46.5 67t-16.5 93v316h136v-314q0 -96 89 -96t89 96v314h136v-316q0 -53 -16.5 -93t-46.5 -67t-71 -41t-90 -14zM278 549q-27 0 -51 9.5t-41 26t-27 38t-10 45.5t10 46t27 38t41 25.5t51 9.5t51 -9.5t41 -25.5t27 -38t10 -46t-10 -45.5 t-27 -38t-41 -26t-51 -9.5zM278 623q18 0 30.5 11.5t12.5 33.5t-12.5 33.5t-30.5 11.5t-30.5 -11.5t-12.5 -33.5t12.5 -33.5t30.5 -11.5z" />
<glyph unicode="&#x170;" horiz-adv-x="686" d="M344 -9q-59 0 -109.5 15.5t-87.5 47.5t-58 79.5t-21 112.5v434h140v-426q0 -75 33 -106t103 -31q69 0 101.5 31t32.5 106v426h140v-434q0 -65 -21 -112.5t-58 -79.5t-87 -47.5t-108 -15.5zM435 946h140l-89 -188h-102zM250 946h140l-89 -188h-102z" />
<glyph unicode="&#x171;" horiz-adv-x="556" d="M279 -9q-50 0 -91.5 14t-71.5 41t-46.5 67t-16.5 93v316h136v-314q0 -96 89 -96t89 96v314h136v-316q0 -53 -16.5 -93t-46.5 -67t-71 -41t-90 -14zM370 773h140l-89 -188h-102zM185 773h140l-89 -188h-102z" />
<glyph unicode="&#x172;" horiz-adv-x="686" d="M316 -8q-54 3 -99.5 20.5t-78.5 49t-51.5 77.5t-18.5 107v434h140v-426q0 -75 33 -106t103 -31q69 0 101.5 31t32.5 106v426h140v-434q0 -57 -16.5 -100.5t-45.5 -75t-69.5 -50.5t-88.5 -25l-38 -64q-8 -13 -14.5 -25t-9 -23t-2.5 -20q1 -28 28 -29q14 0 24 7t17 19 l66 -38q-17 -30 -43.5 -46t-71.5 -16q-43 0 -75 25t-32 76q0 26 11.5 49t28.5 45l29 37v0z" />
<glyph unicode="&#x173;" horiz-adv-x="556" d="M248 -8q-88 8 -141.5 62t-53.5 152v316h136v-314q0 -96 89 -96t89 96v314h136v-316q0 -92 -47.5 -144.5t-125.5 -66.5l-38 -64q-20 -35 -23 -46t-3 -22q1 -28 28 -29q15 0 24.5 7.5t16.5 18.5l66 -38q-17 -30 -43.5 -46t-71.5 -16q-43 0 -75 25t-32 76q0 26 11.5 49 t28.5 45l29 37v0z" />
<glyph unicode="&#x174;" horiz-adv-x="958" d="M22 680h148l99 -273q6 -17 12.5 -38t11.5 -40q6 -21 12 -45q6 22 13 45q6 19 13.5 40t15.5 38l131 279h14l133 -279q8 -17 15.5 -38t13.5 -40q7 -22 13 -45q6 23 12 45q5 19 11 39t13 39l98 273h136l-247 -686h-14l-153 328q-7 16 -14 33.5t-12 31.5l-12 36 q-7 -20 -13 -37q-6 -16 -12.5 -33t-13.5 -31l-159 -328h-14zM479 954h11l159 -216h-108l-56 65l-57 -65h-108z" />
<glyph unicode="&#x175;" horiz-adv-x="750" d="M17 522h146l59 -161q7 -20 16 -49.5t17 -65.5q6 27 17.5 61t21.5 55l79 166h11l82 -166q11 -22 23 -55.5t18 -60.5q6 27 15.5 60.5t17.5 54.5l58 161h135l-200 -529h-12l-101 199q-9 18 -19.5 45.5t-21.5 63.5q-11 -39 -21.5 -65.5t-19.5 -43.5l-106 -199h-12zM373 791 h11l159 -216h-108l-56 65l-57 -65h-108z" />
<glyph unicode="&#x176;" horiz-adv-x="637" d="M256 249l-236 431h157l96 -185q9 -18 19 -40t18.5 -43t17.5 -45q9 25 16.5 44t17 42t19.5 42l92 185h144l-220 -421v-259h-141v249zM321 954h11l159 -216h-108l-56 65l-57 -65h-108z" />
<glyph unicode="&#x177;" horiz-adv-x="521" d="M196 191l-181 331h155l50 -100q10 -19 18.5 -41t14.5 -41t15 -49q8 29 14 48t14.5 41.5t18.5 41.5l47 100h144l-174 -329v-193h-136v191zM260 802h11l159 -216h-108l-56 65l-57 -65h-108z" />
<glyph unicode="&#x178;" horiz-adv-x="637" d="M432 739q-15 0 -28.5 6t-24 16.5t-17 24t-6.5 29.5t6.5 29.5t17 24t24 16.5t28.5 6q30 0 53 -22t23 -54t-23 -54t-53 -22zM224 739q-15 0 -28.5 6t-24 16.5t-17 24t-6.5 29.5t6.5 29.5t17 24t24 16.5t28.5 6q30 0 53 -22t23 -54t-23 -54t-53 -22zM256 249l-236 431h157 l96 -185q9 -18 19 -40t18.5 -43t17.5 -45q9 25 16.5 44t17 42t19.5 42l92 185h144l-220 -421v-259h-141v249z" />
<glyph unicode="&#x179;" horiz-adv-x="590" d="M27 12l312 545h-257v123h473v-12l-311 -545h294v-123h-511v12zM308 926h154l-104 -188h-102z" />
<glyph unicode="&#x17a;" horiz-adv-x="496" d="M32 11l223 394h-184v117h391v-11l-223 -394h207v-117h-414v11zM260 773h154l-104 -188h-102z" />
<glyph unicode="&#x17b;" horiz-adv-x="590" d="M308 730q-35 0 -60.5 23.5t-25.5 61.5q0 37 25.5 60.5t60.5 23.5t60 -23.5t25 -60.5q0 -38 -25 -61.5t-60 -23.5zM27 12l312 545h-257v123h473v-12l-311 -545h294v-123h-511v12z" />
<glyph unicode="&#x17c;" horiz-adv-x="496" d="M260 572q-35 0 -60.5 23.5t-25.5 61.5q0 37 25.5 60.5t60.5 23.5t60 -23.5t25 -60.5q0 -38 -25 -61.5t-60 -23.5zM32 11l223 394h-184v117h391v-11l-223 -394h207v-117h-414v11z" />
<glyph unicode="&#x17d;" horiz-adv-x="590" d="M27 12l312 545h-257v123h473v-12l-311 -545h294v-123h-511v12zM141 945h108l56 -65l57 65h108l-159 -216h-11z" />
<glyph unicode="&#x17e;" horiz-adv-x="496" d="M32 11l223 394h-184v117h391v-11l-223 -394h207v-117h-414v11zM93 782h108l56 -65l57 65h108l-159 -216h-11z" />
<glyph unicode="&#x192;" horiz-adv-x="418" d="M93 186h-60v103h72l8 74q10 88 52.5 128t114.5 40q48 0 77.5 -16.5t49.5 -44.5l-80 -77q-8 12 -16.5 18t-22.5 6q-17 0 -28 -10t-14 -33l-10 -85h96v-103h-108l-31 -280h-132z" />
<glyph unicode="&#x1f0;" horiz-adv-x="250" d="M40 -222q-38 0 -68 16t-45 35l67 80q18 -16 33 -16q31 0 31 34v499h135v-494q0 -74 -39 -114t-114 -40zM-39 697h108l56 -65l57 65h108l-159 -216h-11z" />
<glyph unicode="&#x218;" horiz-adv-x="537" d="M267 -9q-49 0 -89 11t-72 30t-55.5 45.5t-38.5 56.5l114 66q23 -37 54.5 -61t83.5 -24q44 0 69.5 19.5t25.5 49.5q0 36 -27 54t-75 39l-35 15q-38 16 -69 35t-53 44t-34 57t-12 75q0 39 14.5 73t41 59t64.5 39t85 14q67 0 115.5 -25.5t83.5 -86.5l-109 -70q-18 32 -39 46 t-51 14q-31 0 -49 -17t-18 -43q0 -32 20.5 -48.5t65.5 -36.5l35 -15q45 -19 79.5 -39.5t58 -46t36 -58t12.5 -76.5q0 -47 -17.5 -83.5t-48.5 -61.5t-73.5 -37.5t-92.5 -12.5zM221 -186q-17 8 -29 26t-12 43q0 33 23 54.5t53 21.5q31 0 54.5 -21.5t23.5 -53.5q0 -23 -7 -42.5 t-19 -39.5l-52 -85h-66z" />
<glyph unicode="&#x219;" horiz-adv-x="459" d="M230 -9q-80 0 -135.5 34t-81.5 87l106 62q17 -30 43.5 -49t65.5 -19q28 0 46 10t18 28q0 19 -16 30t-55 27l-22 9q-32 13 -58.5 28t-45.5 35t-29.5 46t-10.5 61q0 34 12.5 62t35 47.5t54 30.5t69.5 11q57 0 97.5 -19.5t72.5 -70.5l-103 -59q-14 22 -28.5 29.5t-34.5 7.5 t-32.5 -10t-12.5 -27q0 -21 15.5 -31t38.5 -20l22 -9q36 -15 66.5 -30.5t52.5 -35.5t34.5 -47t12.5 -64q0 -73 -52 -113.5t-145 -40.5zM191 -186q-17 8 -29 26t-12 43q0 33 23 54.5t53 21.5q31 0 54.5 -21.5t23.5 -53.5q0 -23 -7 -42.5t-19 -39.5l-52 -85h-66z" />
<glyph unicode="&#x21a;" horiz-adv-x="505" d="M184 404h-148v118h433v-118h-148v-404h-137v404zM215 -206q-17 8 -29 26t-12 43q0 33 23 54.5t53 21.5q31 0 54.5 -21.5t23.5 -53.5q0 -23 -7 -42.5t-19 -39.5l-52 -85h-66z" />
<glyph unicode="&#x21b;" horiz-adv-x="382" d="M242 -11q-32 0 -59.5 8.5t-47 29t-30.5 53t-11 80.5v154h-63v112h63v152h134v-152h109v-112h-109v-158q0 -32 9.5 -42t25.5 -10q14 0 26.5 5.5t20.5 12.5l51 -94q-17 -15 -46.5 -27t-72.5 -12zM173 -186q-17 8 -29 26t-12 43q0 33 23 54.5t53 21.5q31 0 54.5 -21.5 t23.5 -53.5q0 -23 -7 -42.5t-19 -39.5l-52 -85h-66z" />
<glyph unicode="&#x237;" horiz-adv-x="250" d="M40 -222q-38 0 -68 16t-45 35l67 80q18 -16 33 -16q31 0 31 34v499h135v-494q0 -74 -39 -114t-114 -40z" />
<glyph unicode="&#x2b9;" d="M252 688h154l-104 -188h-102z" />
<glyph unicode="&#x2bb;" d="M251 420q-33 0 -57.5 22.5t-24.5 56.5q0 23 8 43t22 43l60 102h65l-38 -114q18 -8 31.5 -27.5t13.5 -45.5q0 -35 -24 -57.5t-56 -22.5z" />
<glyph unicode="&#x2c6;" d="M244 716h11l159 -216h-108l-56 65l-57 -65h-108z" />
<glyph unicode="&#x2c7;" d="M86 697h108l56 -65l57 65h108l-159 -216h-11z" />
<glyph unicode="&#x2d8;" d="M250 500q-72 0 -114 40t-48 100l103 15q4 -26 17.5 -41.5t41.5 -15.5t41.5 15.5t17.5 41.5l103 -15q-6 -60 -48 -100t-114 -40z" />
<glyph unicode="&#x2d9;" d="M250 497q-35 0 -60.5 23.5t-25.5 61.5q0 37 25.5 60.5t60.5 23.5t60 -23.5t25 -60.5q0 -38 -25 -61.5t-60 -23.5z" />
<glyph unicode="&#x2da;" d="M250 474q-27 0 -51 9.5t-41 26t-27 38t-10 45.5t10 46t27 38t41 25.5t51 9.5t51 -9.5t41 -25.5t27 -38t10 -46t-10 -45.5t-27 -38t-41 -26t-51 -9.5zM250 548q18 0 30.5 11.5t12.5 33.5t-12.5 33.5t-30.5 11.5t-30.5 -11.5t-12.5 -33.5t12.5 -33.5t30.5 -11.5z" />
<glyph unicode="&#x2db;" d="M243 -240q-43 0 -75 25t-32 76q0 26 11.5 49t28.5 45l35 45h79l-41 -69q-18 -30 -22 -42t-4 -26q1 -28 28 -29q14 0 24 7t17 19l66 -38q-17 -30 -43.5 -46t-71.5 -16z" />
<glyph unicode="&#x2dc;" d="M79 515q4 71 35 105.5t76 34.5q20 0 35.5 -6t27.5 -14q17 -11 28 -18t20 -7q14 0 20.5 11t8.5 34l91 -9q-4 -71 -35 -105.5t-76 -34.5q-20 0 -35.5 6t-27.5 14q-17 11 -27.5 18t-20.5 7q-25 0 -29 -45z" />
<glyph unicode="&#x2dd;" d="M343 688h140l-89 -188h-102zM158 688h140l-89 -188h-102z" />
<glyph unicode="&#x300;" d="M94 688h154l52 -188h-102z" />
<glyph unicode="&#x301;" d="M252 688h154l-104 -188h-102z" />
<glyph unicode="&#x303;" d="M79 509q4 71 35 105.5t76 34.5q20 0 35.5 -6t27.5 -14q17 -11 28 -18t20 -7q14 0 20.5 11t8.5 34l91 -9q-4 -71 -35 -105.5t-76 -34.5q-20 0 -35.5 6t-27.5 14q-17 11 -27.5 18t-20.5 7q-25 0 -29 -45z" />
<glyph unicode="&#x2013;" horiz-adv-x="406" d="M30 287h346v-120h-346v120z" />
<glyph unicode="&#x2014;" horiz-adv-x="657" d="M30 287h597v-120h-597v120z" />
<glyph unicode="&#x2018;" horiz-adv-x="242" d="M122 413q-33 0 -57.5 22.5t-24.5 56.5q0 23 8 43t22 43l60 102h65l-38 -114q18 -8 31.5 -27.5t13.5 -45.5q0 -35 -24 -57.5t-56 -22.5z" />
<glyph unicode="&#x2019;" horiz-adv-x="242" d="M85 534q-18 8 -31.5 27.5t-13.5 45.5q0 35 24 57.5t56 22.5q33 0 57.5 -22.5t24.5 -56.5q0 -23 -8 -43t-22 -43l-60 -102h-65z" />
<glyph unicode="&#x201a;" horiz-adv-x="242" d="M85 12q-18 8 -31.5 27.5t-13.5 45.5q0 35 24 57.5t56 22.5q33 0 57.5 -22.5t24.5 -56.5q0 -23 -8 -43t-22 -43l-60 -102h-65z" />
<glyph unicode="&#x201c;" horiz-adv-x="459" d="M339 413q-33 0 -57.5 22.5t-24.5 56.5q0 23 8 43t22 43l60 102h65l-38 -114q18 -8 31.5 -27.5t13.5 -45.5q0 -35 -24 -57.5t-56 -22.5zM122 413q-33 0 -57.5 22.5t-24.5 56.5q0 23 8 43t22 43l60 102h65l-38 -114q18 -8 31.5 -27.5t13.5 -45.5q0 -35 -24 -57.5t-56 -22.5 z" />
<glyph unicode="&#x201d;" horiz-adv-x="459" d="M302 534q-18 8 -31.5 27.5t-13.5 45.5q0 35 24 57.5t56 22.5q33 0 57.5 -22.5t24.5 -56.5q0 -23 -8 -43t-22 -43l-60 -102h-65zM85 534q-18 8 -31.5 27.5t-13.5 45.5q0 35 24 57.5t56 22.5q33 0 57.5 -22.5t24.5 -56.5q0 -23 -8 -43t-22 -43l-60 -102h-65z" />
<glyph unicode="&#x201e;" horiz-adv-x="459" d="M302 12q-18 8 -31.5 27.5t-13.5 45.5q0 35 24 57.5t56 22.5q33 0 57.5 -22.5t24.5 -56.5q0 -23 -8 -43t-22 -43l-60 -102h-65zM85 12q-18 8 -31.5 27.5t-13.5 45.5q0 35 24 57.5t56 22.5q33 0 57.5 -22.5t24.5 -56.5q0 -23 -8 -43t-22 -43l-60 -102h-65z" />
<glyph unicode="&#x2020;" horiz-adv-x="362" d="M120 472h-89v111h89v97h122v-97h89v-111h-89v-231h-122v231z" />
<glyph unicode="&#x2021;" horiz-adv-x="362" d="M120 338h-89v99h89v47h-89v99h89v97h122v-97h89v-99h-89v-47h89v-99h-89v-97h-122v97z" />
<glyph unicode="&#x2022;" horiz-adv-x="277" d="M138 170q-21 0 -40.5 8.5t-34.5 23t-23.5 34t-8.5 42.5t8.5 43t23.5 34.5t34.5 22.5t40.5 8t40.5 -8t34.5 -22.5t24 -34.5t9 -43t-9 -42.5t-24 -34t-34.5 -23t-40.5 -8.5z" />
<glyph unicode="&#x2026;" horiz-adv-x="739" d="M125 -6q-35 0 -60 23.5t-25 61.5q0 37 25 60.5t60 23.5q34 0 59 -23.5t25 -60.5q0 -38 -25 -61.5t-59 -23.5zM368 -6q-35 0 -60 23.5t-25 61.5q0 37 25 60.5t60 23.5q34 0 59 -23.5t25 -60.5q0 -38 -25 -61.5t-59 -23.5zM615 -6q-35 0 -60 23.5t-25 61.5q0 37 25 60.5 t60 23.5q34 0 59 -23.5t25 -60.5q0 -38 -25 -61.5t-59 -23.5z" />
<glyph unicode="&#x2030;" horiz-adv-x="1224" d="M189 217q-34 0 -63.5 11.5t-52 32.5t-35.5 49.5t-13 63.5q0 34 13 63t35.5 50t52 32.5t63.5 11.5q33 0 63 -11.5t52 -32.5t35 -50t13 -63q0 -35 -13 -63.5t-35 -49.5t-52 -32.5t-63 -11.5zM526 522h133l-330 -522h-133zM1036 -9q-34 0 -63.5 11.5t-52 32.5t-35.5 49.5 t-13 63.5q0 34 13 63t35.5 50t52 32.5t63.5 11.5q33 0 63 -11.5t52 -32.5t35 -50t13 -63q0 -35 -13 -63.5t-35 -49.5t-52 -32.5t-63 -11.5zM667 -9q-34 0 -63.5 11.5t-52 32.5t-35.5 49.5t-13 63.5q0 34 13 63t35.5 50t52 32.5t63.5 11.5q33 0 63 -11.5t52 -32.5t35 -50 t13 -63q0 -35 -13 -63.5t-35 -49.5t-52 -32.5t-63 -11.5zM189 318q20 0 36 15t16 41t-16 41t-36 15t-36 -15t-16 -41t16 -41t36 -15zM1036 92q20 0 36 15t16 41t-16 41t-36 15t-36 -15t-16 -41t16 -41t36 -15zM667 92q20 0 36 15t16 41t-16 41t-36 15t-36 -15t-16 -41 t16 -41t36 -15z" />
<glyph unicode="&#x2039;" horiz-adv-x="289" d="M32 200v8l95 165h130l-98 -169l98 -172h-130z" />
<glyph unicode="&#x203a;" horiz-adv-x="289" d="M130 201l-98 172h130l95 -168v-8l-95 -165h-130z" />
<glyph unicode="&#x2044;" horiz-adv-x="452" d="M360 680h134l-402 -680h-134z" />
<glyph unicode="&#x20ac;" horiz-adv-x="532" d="M317 -9q-85 0 -144 46t-84 123h-64v81h49q-1 16 -1 35h-48v81h61q25 79 85 126.5t145 47.5q70 0 115.5 -25.5t76.5 -72.5l-98 -74q-17 25 -37.5 40.5t-55.5 15.5q-33 0 -55 -15.5t-35 -42.5h122v-81h-139q0 -20 1 -35h138v-81h-120q25 -53 89 -53q38 0 61.5 20.5 t37.5 45.5l104 -63q-28 -52 -76 -85.5t-128 -33.5z" />
<glyph unicode="&#x2117;" horiz-adv-x="800" d="M403 -12q-71 0 -135 26.5t-113 73t-77.5 110.5t-28.5 140t28.5 141t77.5 111.5t113 73t135 26.5q69 0 132 -26.5t111 -73t76.5 -111.5t28.5 -141t-28.5 -140t-76.5 -110.5t-111 -73t-132 -26.5zM403 61q55 0 104.5 19.5t87 56t59 87.5t21.5 114q0 64 -21.5 115.5t-59 88 t-87 56t-104.5 19.5q-57 0 -108 -19.5t-88.5 -56t-59.5 -88t-22 -115.5q0 -63 22 -114t59.5 -87.5t88.5 -56t108 -19.5zM276 518h121q78 0 124.5 -37t46.5 -108q0 -69 -46.5 -107t-124.5 -38h-16v-60h-105v350zM395 321q34 0 50 11.5t16 40.5t-17 40.5t-49 11.5h-14v-104h14 z" />
<glyph unicode="&#x2120;" horiz-adv-x="711" d="M341 684h10l147 -147l147 147h10v-306h-90v123l-62 -71h-9l-63 71v-123h-90v306zM166 372q-50 0 -83 19t-54 51l67 49q31 -42 68 -42q15 0 23 5t8 13q0 7 -7 12.5t-27 12.5l-34 11q-72 24 -72 93q0 39 29 66t79 27q40 0 64.5 -12t47.5 -37l-53 -53q-9 11 -22 18t-29 7 q-12 0 -18 -4t-6 -12q0 -7 7.5 -12.5t23.5 -10.5l36 -11q40 -12 57.5 -34t17.5 -59q0 -48 -32 -72.5t-91 -24.5z" />
<glyph unicode="&#x2122;" horiz-adv-x="711" d="M341 684h10l147 -147l147 147h10v-306h-90v123l-62 -71h-9l-63 71v-123h-90v306zM116 606h-81v74h254v-74h-81v-228h-92v228z" />
<glyph unicode="&#x2153;" horiz-adv-x="1113" d="M124 567h-99v113h226v-477h-127v364zM644 680h134l-402 -680h-134zM888 -8q-77 0 -125 31t-71 86l111 51q10 -25 30.5 -40t53.5 -15q30 0 49 17t19 46q-2 64 -72 64q-24 0 -39.5 -2.5t-27.5 -6.5l-7 13l65 93q7 9 17 20t23 25q-17 -2 -34 -3.5t-27 -1.5h-110v108h342v-11 l-83 -118q-7 -10 -17 -20t-21 -17q25 -5 47 -17t38.5 -31t26 -45t9.5 -57q0 -42 -16.5 -74t-43.5 -53t-62.5 -31.5t-74.5 -10.5z" />
<glyph unicode="&#x2154;" horiz-adv-x="1203" d="M13 215l208 212q32 33 42.5 55t10.5 43q0 22 -15.5 35.5t-41.5 13.5q-54 0 -82 -65l-114 40q24 65 73.5 102t123.5 37q43 0 77 -11.5t58 -33t36.5 -51t12.5 -65.5q0 -38 -20.5 -75.5t-57.5 -75.5l-24 -25q-8 -8 -23.5 -20t-36.5 -24q19 2 40 3.5t32 1.5h87v-109h-386v12z M734 680h134l-402 -680h-134zM978 -8q-77 0 -125 31t-71 86l111 51q10 -25 30.5 -40t53.5 -15q30 0 49 17t19 46q-2 64 -72 64q-24 0 -39.5 -2.5t-27.5 -6.5l-7 13l65 93q7 9 17 20t23 25q-17 -2 -34 -3.5t-27 -1.5h-110v108h342v-11l-83 -118q-7 -10 -17 -20t-21 -17 q25 -5 47 -17t38.5 -31t26 -45t9.5 -57q0 -42 -16.5 -74t-43.5 -53t-62.5 -31.5t-74.5 -10.5z" />
<glyph unicode="&#x2155;" horiz-adv-x="1125" d="M124 567h-99v113h226v-477h-127v364zM644 680h134l-402 -680h-134zM893 -8q-148 0 -204 113l106 55q11 -23 32.5 -38t56.5 -15q33 0 54 14t21 39q0 29 -24 44t-62 15q-43 0 -69.5 -10t-50.5 -24l-12 7v285h302v-109h-194v-61q12 4 27.5 6.5t32.5 2.5q81 0 131 -40 t50 -118q0 -75 -52 -120.5t-145 -45.5z" />
<glyph unicode="&#x2156;" horiz-adv-x="1215" d="M13 215l208 212q32 33 42.5 55t10.5 43q0 22 -15.5 35.5t-41.5 13.5q-54 0 -82 -65l-114 40q24 65 73.5 102t123.5 37q43 0 77 -11.5t58 -33t36.5 -51t12.5 -65.5q0 -38 -20.5 -75.5t-57.5 -75.5l-24 -25q-8 -8 -23.5 -20t-36.5 -24q19 2 40 3.5t32 1.5h87v-109h-386v12z M734 680h134l-402 -680h-134zM983 -8q-148 0 -204 113l106 55q11 -23 32.5 -38t56.5 -15q33 0 54 14t21 39q0 29 -24 44t-62 15q-43 0 -69.5 -10t-50.5 -24l-12 7v285h302v-109h-194v-61q12 4 27.5 6.5t32.5 2.5q81 0 131 -40t50 -118q0 -75 -52 -120.5t-145 -45.5z" />
<glyph unicode="&#x2157;" horiz-adv-x="1215" d="M207 195q-77 0 -125 31t-71 86l111 51q10 -25 30.5 -40t53.5 -15q30 0 49 17t19 46q-2 64 -72 64q-24 0 -39.5 -2.5t-27.5 -6.5l-7 13l65 93q7 9 17 20t23 25q-17 -2 -34 -3.5t-27 -1.5h-110v108h342v-11l-83 -118q-7 -10 -17 -20t-21 -17q25 -5 47 -17t38.5 -31t26 -45 t9.5 -57q0 -42 -16.5 -74t-43.5 -53t-62.5 -31.5t-74.5 -10.5zM734 680h134l-402 -680h-134zM983 -8q-148 0 -204 113l106 55q11 -23 32.5 -38t56.5 -15q33 0 54 14t21 39q0 29 -24 44t-62 15q-43 0 -69.5 -10t-50.5 -24l-12 7v285h302v-109h-194v-61q12 4 27.5 6.5 t32.5 2.5q81 0 131 -40t50 -118q0 -75 -52 -120.5t-145 -45.5z" />
<glyph unicode="&#x2158;" horiz-adv-x="1245" d="M267 261h-234v98l347 329h10v-331h62v-96h-62v-58h-123v58zM155 353q23 2 41.5 3t29.5 1h41v44q0 11 1.5 32.5t2.5 32.5q-12 -16 -23 -29t-24 -25l-18 -17q-10 -9 -25 -21.5t-26 -20.5zM764 680h134l-402 -680h-134zM1013 -8q-148 0 -204 113l106 55q11 -23 32.5 -38 t56.5 -15q33 0 54 14t21 39q0 29 -24 44t-62 15q-43 0 -69.5 -10t-50.5 -24l-12 7v285h302v-109h-194v-61q12 4 27.5 6.5t32.5 2.5q81 0 131 -40t50 -118q0 -75 -52 -120.5t-145 -45.5z" />
<glyph unicode="&#x2159;" horiz-adv-x="1109" d="M124 567h-99v113h226v-477h-127v364zM644 680h134l-402 -680h-134zM884 -8q-44 0 -80.5 13.5t-62.5 36.5t-40.5 53.5t-14.5 65.5q0 36 14 69.5t41 71.5l125 175h139l-65 -92q-12 -17 -31.5 -34.5t-37.5 -27.5q8 2 17.5 3.5t17.5 1.5q38 0 70.5 -11.5t56.5 -32.5 t37.5 -50.5t13.5 -66.5q0 -36 -14 -67.5t-40 -55.5t-63 -38t-83 -14zM885 96q35 0 54 21t19 49t-19 49t-54 21t-54 -21t-19 -49t19 -49t54 -21z" />
<glyph unicode="&#x215a;" horiz-adv-x="1199" d="M216 195q-148 0 -204 113l106 55q11 -23 32.5 -38t56.5 -15q33 0 54 14t21 39q0 29 -24 44t-62 15q-43 0 -69.5 -10t-50.5 -24l-12 7v285h302v-109h-194v-61q12 4 27.5 6.5t32.5 2.5q81 0 131 -40t50 -118q0 -75 -52 -120.5t-145 -45.5zM734 680h134l-402 -680h-134z M974 -8q-44 0 -80.5 13.5t-62.5 36.5t-40.5 53.5t-14.5 65.5q0 36 14 69.5t41 71.5l125 175h139l-65 -92q-12 -17 -31.5 -34.5t-37.5 -27.5q8 2 17.5 3.5t17.5 1.5q38 0 70.5 -11.5t56.5 -32.5t37.5 -50.5t13.5 -66.5q0 -36 -14 -67.5t-40 -55.5t-63 -38t-83 -14zM975 96 q35 0 54 21t19 49t-19 49t-54 21t-54 -21t-19 -49t19 -49t54 -21z" />
<glyph unicode="&#x215b;" horiz-adv-x="1113" d="M124 567h-99v113h226v-477h-127v364zM644 680h134l-402 -680h-134zM889 -7q-41 0 -77 11t-62 30.5t-41 47.5t-15 62q0 41 23.5 70.5t64.5 46.5q-59 33 -59 94q0 27 11 51t32 42t52 28t71 10q41 0 72 -10t51.5 -28t31 -42t10.5 -51q0 -30 -14 -54t-43 -40q40 -17 63 -46.5 t23 -70.5q0 -34 -14.5 -62t-40.5 -47.5t-61.5 -30.5t-77.5 -11zM889 97q31 0 50.5 16t19.5 43q0 29 -19.5 45.5t-50.5 16.5q-32 0 -51.5 -16.5t-19.5 -45.5q0 -27 19.5 -43t51.5 -16zM891 303q21 0 34.5 12.5t13.5 33.5q0 22 -15 33.5t-36 11.5q-22 0 -35.5 -11.5 t-13.5 -33.5q0 -21 15 -33.5t37 -12.5z" />
<glyph unicode="&#x215c;" horiz-adv-x="1203" d="M207 195q-77 0 -125 31t-71 86l111 51q10 -25 30.5 -40t53.5 -15q30 0 49 17t19 46q-2 64 -72 64q-24 0 -39.5 -2.5t-27.5 -6.5l-7 13l65 93q7 9 17 20t23 25q-17 -2 -34 -3.5t-27 -1.5h-110v108h342v-11l-83 -118q-7 -10 -17 -20t-21 -17q25 -5 47 -17t38.5 -31t26 -45 t9.5 -57q0 -42 -16.5 -74t-43.5 -53t-62.5 -31.5t-74.5 -10.5zM734 680h134l-402 -680h-134zM979 -7q-41 0 -77 11t-62 30.5t-41 47.5t-15 62q0 41 23.5 70.5t64.5 46.5q-59 33 -59 94q0 27 11 51t32 42t52 28t71 10q41 0 72 -10t51.5 -28t31 -42t10.5 -51q0 -30 -14 -54 t-43 -40q40 -17 63 -46.5t23 -70.5q0 -34 -14.5 -62t-40.5 -47.5t-61.5 -30.5t-77.5 -11zM979 97q31 0 50.5 16t19.5 43q0 29 -19.5 45.5t-50.5 16.5q-32 0 -51.5 -16.5t-19.5 -45.5q0 -27 19.5 -43t51.5 -16zM981 303q21 0 34.5 12.5t13.5 33.5q0 22 -15 33.5t-36 11.5 q-22 0 -35.5 -11.5t-13.5 -33.5q0 -21 15 -33.5t37 -12.5z" />
<glyph unicode="&#x215d;" horiz-adv-x="1203" d="M216 195q-148 0 -204 113l106 55q11 -23 32.5 -38t56.5 -15q33 0 54 14t21 39q0 29 -24 44t-62 15q-43 0 -69.5 -10t-50.5 -24l-12 7v285h302v-109h-194v-61q12 4 27.5 6.5t32.5 2.5q81 0 131 -40t50 -118q0 -75 -52 -120.5t-145 -45.5zM734 680h134l-402 -680h-134z M979 -7q-41 0 -77 11t-62 30.5t-41 47.5t-15 62q0 41 23.5 70.5t64.5 46.5q-59 33 -59 94q0 27 11 51t32 42t52 28t71 10q41 0 72 -10t51.5 -28t31 -42t10.5 -51q0 -30 -14 -54t-43 -40q40 -17 63 -46.5t23 -70.5q0 -34 -14.5 -62t-40.5 -47.5t-61.5 -30.5t-77.5 -11z M979 97q31 0 50.5 16t19.5 43q0 29 -19.5 45.5t-50.5 16.5q-32 0 -51.5 -16.5t-19.5 -45.5q0 -27 19.5 -43t51.5 -16zM981 303q21 0 34.5 12.5t13.5 33.5q0 22 -15 33.5t-36 11.5q-22 0 -35.5 -11.5t-13.5 -33.5q0 -21 15 -33.5t37 -12.5z" />
<glyph unicode="&#x215e;" horiz-adv-x="1163" d="M244 567h-213v113h390v-11l-222 -466h-130zM694 680h134l-402 -680h-134zM939 -7q-41 0 -77 11t-62 30.5t-41 47.5t-15 62q0 41 23.5 70.5t64.5 46.5q-59 33 -59 94q0 27 11 51t32 42t52 28t71 10q41 0 72 -10t51.5 -28t31 -42t10.5 -51q0 -30 -14 -54t-43 -40 q40 -17 63 -46.5t23 -70.5q0 -34 -14.5 -62t-40.5 -47.5t-61.5 -30.5t-77.5 -11zM939 97q31 0 50.5 16t19.5 43q0 29 -19.5 45.5t-50.5 16.5q-32 0 -51.5 -16.5t-19.5 -45.5q0 -27 19.5 -43t51.5 -16zM941 303q21 0 34.5 12.5t13.5 33.5q0 22 -15 33.5t-36 11.5 q-22 0 -35.5 -11.5t-13.5 -33.5q0 -21 15 -33.5t37 -12.5z" />
<glyph unicode="&#x2202;" horiz-adv-x="545" d="M337 411q-28 71 -81.5 131t-114.5 112l70 85q60 -44 114 -96.5t94.5 -115t64 -135.5t23.5 -159q0 -60 -18 -105t-49.5 -75.5t-74.5 -46t-92 -15.5q-50 0 -92.5 16.5t-74.5 45.5t-50 70t-18 89q0 49 18 90t47.5 70.5t67.5 46t78 16.5q28 0 49.5 -5.5t38.5 -18.5zM273 105 q45 0 70.5 29.5t25.5 77.5t-25.5 77.5t-70.5 29.5t-71 -29.5t-26 -77.5t26 -77.5t71 -29.5z" />
<glyph unicode="&#x220f;" horiz-adv-x="691" d="M620 680v-680h-140v555h-269v-555h-140v680h549z" />
<glyph unicode="&#x2211;" horiz-adv-x="510" d="M29 11l196 251l-199 249v11h427v-117h-128q-11 0 -30.5 1t-36.5 3q8 -8 23 -25.5t22 -26.5l67 -90v-9l-70 -95q-8 -11 -22 -26t-23 -24q20 2 38 3t29 1h143v-117h-436v11z" />
<glyph unicode="&#x2212;" horiz-adv-x="411" d="M39 207v118h333v-118h-333z" />
<glyph unicode="&#x221a;" horiz-adv-x="606" d="M219 0l-111 314h-77v112h166l57 -190l210 544h132l-311 -780h-66z" />
<glyph unicode="&#x221e;" horiz-adv-x="573" d="M174 400q37 0 63.5 -15.5t46.5 -38.5q7 7 19 16.5t27.5 17.5t35 13.5t43.5 5.5q60 0 94.5 -39t34.5 -100q0 -30 -10 -55.5t-28.5 -44t-44.5 -29t-57 -10.5q-34 0 -60.5 16t-46.5 39q-7 -7 -18.5 -16.5t-27.5 -18t-36.5 -14.5t-44.5 -6q-60 0 -94.5 39t-34.5 100 t36.5 100.5t102.5 39.5zM177 212q20 0 38 10.5t27 21.5q-18 27 -33 46t-32 19t-27 -13t-10 -36q0 -22 10 -35t27 -13zM433 260q0 22 -10 35t-27 13q-18 0 -35.5 -10t-28.5 -22q16 -28 32 -46t33 -18q18 0 27 10t9 38z" />
<glyph unicode="&#x222b;" horiz-adv-x="313" d="M229 -55q0 -87 -39.5 -126.5t-132.5 -39.5h-52v116h52q17 0 27 10t10 33v676q0 87 39.5 126.5t132.5 39.5h42v-116h-42q-17 0 -27 -10t-10 -33v-676z" />
<glyph unicode="&#x2248;" horiz-adv-x="412" d="M377 417q-2 -76 -33.5 -110.5t-75.5 -34.5q-19 0 -34.5 5.5t-30 14t-24.5 14.5t-20 6q-24 0 -28 -40l-96 9q2 76 33.5 110.5t75.5 34.5q20 0 35 -5.5t28.5 -13.5t25 -14.5t20.5 -6.5q24 0 28 40zM377 252q-2 -76 -33.5 -110.5t-75.5 -34.5q-19 0 -34.5 5.5t-30 14 t-24.5 14.5t-20 6q-24 0 -28 -40l-96 9q2 76 33.5 110.5t75.5 34.5q20 0 35 -5.5t28.5 -13.5t25 -14.5t20.5 -6.5q24 0 28 40z" />
<glyph unicode="&#x2260;" horiz-adv-x="411" d="M39 406h161l28 75h115l-28 -75h57v-115h-100l-18 -49h118v-115h-161l-28 -75h-115l28 75h-57v115h100l18 49h-118v115z" />
<glyph unicode="&#x2264;" horiz-adv-x="358" d="M23 282v10l298 165v-118l-107 -53l107 -54v-117zM28 0v98h293v-98h-293z" />
<glyph unicode="&#x2265;" horiz-adv-x="358" d="M37 115v117l107 54l-107 53v118l298 -165v-10zM37 0v98h293v-98h-293z" />
<glyph unicode="&#x25ca;" horiz-adv-x="490" d="M9 346l231 435h13l228 -435l-228 -435h-13zM247 595l-121 -249l121 -252l117 252z" />
<glyph unicode="&#x25fc;" horiz-adv-x="520" d="M0 520h520v-520h-520v520z" />
<glyph horiz-adv-x="492" d="M472 427v-96h-63q15 -23 15 -52q0 -34 -12.5 -63t-36 -50t-56.5 -33t-74 -12q-53 0 -87 17q-11 -9 -11 -26q0 -15 10.5 -24t33.5 -10l105 -5q88 -5 135 -39.5t47 -97.5q0 -34 -13 -63t-41 -50t-73 -33t-108 -12q-115 0 -172 39.5t-57 100.5q0 35 21 57.5t57 36.5 q-51 28 -51 86t59 84q-38 41 -38 97q0 34 13.5 62.5t37.5 49.5t57.5 32.5t74.5 11.5q33 0 63 -8h164zM243 219q31 0 47 16.5t16 43.5q0 26 -16 41.5t-47 15.5t-47 -15.5t-16 -41.5q0 -27 16 -43.5t47 -16.5zM157 -32q-12 -14 -12 -33q0 -26 21 -41t77 -15q59 0 78 13.5 t19 33.5q0 18 -14.5 25.5t-56.5 9.5z" />
<glyph horiz-adv-x="492" d="M472 427v-96h-63q15 -23 15 -52q0 -34 -12.5 -63t-36 -50t-56.5 -33t-74 -12q-53 0 -87 17q-11 -9 -11 -26q0 -15 10.5 -24t33.5 -10l105 -5q88 -5 135 -39.5t47 -97.5q0 -34 -13 -63t-41 -50t-73 -33t-108 -12q-115 0 -172 39.5t-57 100.5q0 35 21 57.5t57 36.5 q-51 28 -51 86t59 84q-38 41 -38 97q0 34 13.5 62.5t37.5 49.5t57.5 32.5t74.5 11.5q33 0 63 -8h164zM243 219q31 0 47 16.5t16 43.5q0 26 -16 41.5t-47 15.5t-47 -15.5t-16 -41.5q0 -27 16 -43.5t47 -16.5zM157 -32q-12 -14 -12 -33q0 -26 21 -41t77 -15q59 0 78 13.5 t19 33.5q0 18 -14.5 25.5t-56.5 9.5zM256 716h11l159 -216h-108l-56 65l-57 -65h-108z" />
<glyph horiz-adv-x="492" d="M472 427v-96h-63q15 -23 15 -52q0 -34 -12.5 -63t-36 -50t-56.5 -33t-74 -12q-53 0 -87 17q-11 -9 -11 -26q0 -15 10.5 -24t33.5 -10l105 -5q88 -5 135 -39.5t47 -97.5q0 -34 -13 -63t-41 -50t-73 -33t-108 -12q-115 0 -172 39.5t-57 100.5q0 35 21 57.5t57 36.5 q-51 28 -51 86t59 84q-38 41 -38 97q0 34 13.5 62.5t37.5 49.5t57.5 32.5t74.5 11.5q33 0 63 -8h164zM243 219q31 0 47 16.5t16 43.5q0 26 -16 41.5t-47 15.5t-47 -15.5t-16 -41.5q0 -27 16 -43.5t47 -16.5zM157 -32q-12 -14 -12 -33q0 -26 21 -41t77 -15q59 0 78 13.5 t19 33.5q0 18 -14.5 25.5t-56.5 9.5zM260 500q-72 0 -114 40t-48 100l103 15q4 -26 17.5 -41.5t41.5 -15.5t41.5 15.5t17.5 41.5l103 -15q-6 -60 -48 -100t-114 -40z" />
<glyph horiz-adv-x="492" d="M472 427v-96h-63q15 -23 15 -52q0 -34 -12.5 -63t-36 -50t-56.5 -33t-74 -12q-53 0 -87 17q-11 -9 -11 -26q0 -15 10.5 -24t33.5 -10l105 -5q88 -5 135 -39.5t47 -97.5q0 -34 -13 -63t-41 -50t-73 -33t-108 -12q-115 0 -172 39.5t-57 100.5q0 35 21 57.5t57 36.5 q-51 28 -51 86t59 84q-38 41 -38 97q0 34 13.5 62.5t37.5 49.5t57.5 32.5t74.5 11.5q33 0 63 -8h164zM243 219q31 0 47 16.5t16 43.5q0 26 -16 41.5t-47 15.5t-47 -15.5t-16 -41.5q0 -27 16 -43.5t47 -16.5zM157 -32q-12 -14 -12 -33q0 -26 21 -41t77 -15q59 0 78 13.5 t19 33.5q0 18 -14.5 25.5t-56.5 9.5zM247 497q-35 0 -60.5 23.5t-25.5 61.5q0 37 25.5 60.5t60.5 23.5t60 -23.5t25 -60.5q0 -38 -25 -61.5t-60 -23.5z" />
<glyph horiz-adv-x="492" d="M284 641q17 -8 29 -26t12 -43q0 -33 -23 -54.5t-53 -21.5q-31 0 -54.5 21.5t-23.5 53.5q0 23 7 42.5t19 39.5l52 85h66zM472 427v-96h-63q15 -23 15 -52q0 -34 -12.5 -63t-36 -50t-56.5 -33t-74 -12q-53 0 -87 17q-11 -9 -11 -26q0 -15 10.5 -24t33.5 -10l105 -5 q88 -5 135 -39.5t47 -97.5q0 -34 -13 -63t-41 -50t-73 -33t-108 -12q-115 0 -172 39.5t-57 100.5q0 35 21 57.5t57 36.5q-51 28 -51 86t59 84q-38 41 -38 97q0 34 13.5 62.5t37.5 49.5t57.5 32.5t74.5 11.5q33 0 63 -8h164zM243 219q31 0 47 16.5t16 43.5q0 26 -16 41.5 t-47 15.5t-47 -15.5t-16 -41.5q0 -27 16 -43.5t47 -16.5zM157 -32q-12 -14 -12 -33q0 -26 21 -41t77 -15q59 0 78 13.5t19 33.5q0 18 -14.5 25.5t-56.5 9.5z" />
<glyph horiz-adv-x="520" d="M74 325h373v-118h-373v118z" />
<glyph horiz-adv-x="648" d="M384 -113h-120v112q-47 9 -87.5 32t-70 57t-46.5 78t-17 95q0 60 22.5 109.5t60.5 85.5t89.5 55.5t108.5 19.5t108.5 -19.5t89.5 -55.5t60.5 -85.5t22.5 -109.5q0 -51 -17 -95t-46.5 -78t-70 -57t-87.5 -32v-112zM264 202h120v-85q38 16 60 53t22 91q0 33 -10.5 60.5 t-29 47.5t-45 31t-57.5 11q-32 0 -58 -11t-44.5 -31t-29 -47.5t-10.5 -60.5q0 -54 22 -91t60 -53v85z" />
<glyph horiz-adv-x="677" d="M104 527h11l180 -217q9 -11 20 -27t22 -35q12 19 23.5 35.5t20.5 26.5l179 217h11l46 -527h-132l-11 148q-1 18 -2.5 46t-1.5 56q-11 -23 -26.5 -47t-28.5 -39l-73 -88h-10l-74 87q-12 14 -23.5 30t-19.5 29q-10 15 -17 28q1 -16 1 -33v-33t-2 -38l-11 -146h-128z" />
<glyph horiz-adv-x="624" d="M324 -9q-57 0 -107.5 19.5t-88.5 55.5t-60 85.5t-22 109.5q0 59 22 108.5t60 85.5t88.5 56t108.5 20q148 0 221 -109l-107 -73q-18 29 -46 45.5t-70 16.5q-30 0 -55.5 -11.5t-44 -31.5t-28.5 -47.5t-10 -59.5q0 -33 10 -60.5t28.5 -48t44 -32t56.5 -11.5q45 0 79.5 18 t46.5 58h-113v108h249q6 -67 -9 -122.5t-49 -95.5t-85.5 -62t-118.5 -22z" />
<glyph horiz-adv-x="800" d="M475 13q20 -20 42.5 -32t54.5 -12q28 0 48 13.5t32 29.5l91 -79q-29 -40 -69 -63t-101 -23q-38 0 -69 11.5t-58.5 29t-51.5 39.5t-47 43q-26 24 -51 42t-54 18q-37 0 -61.5 -20.5t-43.5 -47.5l-93 78q34 53 88 76q-39 44 -61.5 100.5t-22.5 124.5q0 75 27.5 139t75 110.5 t111.5 72.5t138 26q73 0 137.5 -26t112 -72.5t75 -110.5t27.5 -139q0 -66 -21 -121t-58 -97.5t-87.5 -70.5t-110.5 -39zM400 122q46 0 84.5 16.5t66 45.5t42.5 69t15 88t-15 88.5t-42.5 70.5t-66 47t-84.5 17q-47 0 -85 -17t-65.5 -47t-42.5 -70.5t-15 -88.5t15 -88 t42.5 -69t65.5 -45.5t85 -16.5z" />
<glyph horiz-adv-x="520" d="M154 77l-82 82l105 105l-105 105l82 82l105 -105l105 105l82 -82l-105 -105l105 -105l-82 -82l-105 105z" />
<glyph horiz-adv-x="624" d="M324 -9q-57 0 -107.5 19.5t-88.5 55.5t-60 85.5t-22 109.5q0 59 22 108.5t60 85.5t88.5 56t108.5 20q148 0 221 -109l-107 -73q-18 29 -46 45.5t-70 16.5q-30 0 -55.5 -11.5t-44 -31.5t-28.5 -47.5t-10 -59.5q0 -33 10 -60.5t28.5 -48t44 -32t56.5 -11.5q45 0 79.5 18 t46.5 58h-113v108h249q6 -67 -9 -122.5t-49 -95.5t-85.5 -62t-118.5 -22zM310 802h11l159 -216h-108l-56 65l-57 -65h-108z" />
<glyph horiz-adv-x="624" d="M324 -9q-57 0 -107.5 19.5t-88.5 55.5t-60 85.5t-22 109.5q0 59 22 108.5t60 85.5t88.5 56t108.5 20q148 0 221 -109l-107 -73q-18 29 -46 45.5t-70 16.5q-30 0 -55.5 -11.5t-44 -31.5t-28.5 -47.5t-10 -59.5q0 -33 10 -60.5t28.5 -48t44 -32t56.5 -11.5q45 0 79.5 18 t46.5 58h-113v108h249q6 -67 -9 -122.5t-49 -95.5t-85.5 -62t-118.5 -22zM313 586q-72 0 -114 40t-48 100l103 15q4 -26 17.5 -41.5t41.5 -15.5t41.5 15.5t17.5 41.5l103 -15q-6 -60 -48 -100t-114 -40z" />
<glyph horiz-adv-x="252" d="M126 572q-35 0 -60.5 23.5t-25.5 61.5q0 37 25.5 60.5t60.5 23.5t60 -23.5t25 -60.5q0 -38 -25 -61.5t-60 -23.5zM58 522h136v-522h-136v522z" />
<glyph horiz-adv-x="624" d="M324 -9q-57 0 -107.5 19.5t-88.5 55.5t-60 85.5t-22 109.5q0 59 22 108.5t60 85.5t88.5 56t108.5 20q148 0 221 -109l-107 -73q-18 29 -46 45.5t-70 16.5q-30 0 -55.5 -11.5t-44 -31.5t-28.5 -47.5t-10 -59.5q0 -33 10 -60.5t28.5 -48t44 -32t56.5 -11.5q45 0 79.5 18 t46.5 58h-113v108h249q6 -67 -9 -122.5t-49 -95.5t-85.5 -62t-118.5 -22zM281 -186q-17 8 -29 26t-12 43q0 33 23 54.5t53 21.5q31 0 54.5 -21.5t23.5 -53.5q0 -23 -7 -42.5t-19 -39.5l-52 -85h-66z" />
<glyph horiz-adv-x="520" d="M86 243h-54v102h79l19 75h-54v102h79l25 97h105l-25 -97h75l25 97h105l-24 -97h53v-102h-78l-19 -75h53v-102h-79l-25 -101h-105l25 101h-75l-25 -101h-105zM292 345l19 75h-75l-19 -75h75z" />
<glyph horiz-adv-x="520" d="M225 -7q-44 4 -77.5 16t-58.5 29t-41.5 37t-26.5 40l99 56q14 -25 37.5 -45.5t67.5 -27.5v115q-95 22 -134.5 64.5t-39.5 98.5q0 28 10 54.5t31.5 48t54.5 35t78 16.5v101h67v-103q57 -9 95 -35.5t58 -52.5l-87 -66q-8 12 -24 26.5t-42 22.5v-100q92 -21 139 -63t47 -105 q0 -74 -45 -116t-141 -47v-108h-67v109zM225 429q-29 -3 -40.5 -14.5t-11.5 -27.5q0 -17 9 -28t43 -20v90zM292 96q38 5 49.5 17.5t11.5 27.5q0 17 -11.5 31.5t-49.5 25.5v-102z" />
<glyph horiz-adv-x="780" d="M488 522h133l-330 -522h-133zM614 -9q-33 0 -61 11.5t-49 32.5t-32.5 49.5t-11.5 63.5q0 34 11.5 63t32.5 50t49 32.5t61 11.5q32 0 60 -11.5t48.5 -32.5t32 -50t11.5 -63q0 -35 -11.5 -63.5t-32 -49.5t-48.5 -32.5t-60 -11.5zM613 88q23 0 35.5 16t12.5 44t-12.5 44 t-35.5 16t-35 -16t-12 -44t12 -44t35 -16zM168 217q-33 0 -61 11.5t-49 32.5t-32.5 49.5t-11.5 63.5q0 34 11.5 63t32.5 50t49 32.5t61 11.5q32 0 60 -11.5t48.5 -32.5t32 -50t11.5 -63q0 -35 -11.5 -63.5t-32 -49.5t-48.5 -32.5t-60 -11.5zM167 314q23 0 35.5 16t12.5 44 t-12.5 44t-35.5 16t-35 -16t-12 -44t12 -44t35 -16z" />
<glyph horiz-adv-x="300" d="M213 -137q-33 32 -66.5 73.5t-61 94t-44.5 117.5t-17 143t17 142.5t44.5 117.5t61 94.5t66.5 73.5l81 -65q-30 -36 -54 -75t-40.5 -83t-25 -94.5t-8.5 -110.5q0 -59 8.5 -109.5t25 -95t40.5 -83.5t54 -75l-81 -65v0z" />
<glyph horiz-adv-x="300" d="M1 -72q30 36 53.5 75t40 83t25.5 94.5t9 110.5q0 59 -9 109.5t-25.5 95t-40 83.5t-53.5 75l81 65q33 -32 66.5 -73.5t61 -94t44.5 -117.5t17 -143t-17 -142.5t-44.5 -117.5t-61 -94.5t-66.5 -73.5z" />
<glyph horiz-adv-x="520" d="M199 207h-126v118h126v130h121v-130h126v-118h-126v-130h-121v130z" />
<glyph horiz-adv-x="200" d="M65 5q-23 11 -36.5 30t-13.5 46q0 18 7 33t18.5 26t27 17t32.5 6q34 0 59 -23.5t25 -60.5q0 -25 -9.5 -45t-20.5 -40l-59 -109h-68z" />
<glyph horiz-adv-x="200" d="M100 -6q-35 0 -60 23.5t-25 61.5q0 37 25 60.5t60 23.5q34 0 59 -23.5t25 -60.5q0 -38 -25 -61.5t-59 -23.5z" />
<glyph horiz-adv-x="520" d="M201 410h-108v112h245v-410h107v-112h-360v112h116v298z" />
<glyph horiz-adv-x="520" d="M37 12l199 211q21 22 37 39t26.5 31.5t15.5 28.5t5 30q0 26 -17 41.5t-46 15.5q-35 0 -55.5 -23.5t-31.5 -56.5l-126 34q9 40 29 71.5t47.5 53t62 32.5t73.5 11q52 0 90.5 -14.5t64 -38t37.5 -54t12 -63.5q0 -48 -29.5 -94t-75.5 -95l-15 -16q-8 -8 -18 -16t-20 -15 q-11 -8 -22 -15q12 1 25 2q11 1 24 2t20 1h116v-115h-428v12z" />
<glyph horiz-adv-x="520" d="M244 -103q-48 0 -85 11.5t-64.5 31t-46.5 45t-31 52.5l118 59q16 -41 42 -60t67 -19q42 0 66.5 27t24.5 76q0 50 -31 75.5t-78 25.5q-32 0 -49 -5t-31 -13l-10 12l113 161q5 7 13.5 17.5t19.5 21.5q-11 -2 -30.5 -3.5t-30.5 -1.5h-149v112h400v-11l-119 -164 q-9 -12 -17 -20.5t-13 -12.5q30 -6 58 -22t49.5 -41t34.5 -59t13 -75q0 -40 -14 -79t-42.5 -70.5t-72.5 -51t-105 -19.5z" />
<glyph horiz-adv-x="520" d="M250 -103q-46 0 -83 11t-64.5 29.5t-47 42t-29.5 49.5l118 59q11 -29 35 -50t69 -21q44 0 68 26.5t24 64.5q0 42 -26.5 67.5t-78.5 25.5q-45 0 -77.5 -15.5t-55.5 -33.5l-12 5v365h340v-112h-228v-110q10 6 30 10.5t43 4.5q47 0 85.5 -16.5t66 -44.5t42.5 -66t15 -81 q0 -42 -14 -80t-43 -67t-73 -46t-104 -17z" />
<glyph horiz-adv-x="520" d="M262 -9q-44 0 -83.5 13.5t-69.5 39.5t-47.5 62.5t-17.5 83.5q0 54 19.5 100.5t57.5 99.5l155 219h152l-132 -187q-13 -17 -33.5 -33.5t-34.5 -25.5q16 9 31.5 13.5t33.5 4.5q39 0 72.5 -13t59 -37.5t40 -59.5t14.5 -78q0 -47 -17 -84.5t-46.5 -63.5t-69 -40t-84.5 -14z M261 108q41 0 62.5 25.5t21.5 59.5t-21.5 60t-62.5 26q-40 0 -61.5 -26t-21.5 -60t21.5 -59.5t61.5 -25.5z" />
<glyph horiz-adv-x="520" d="M296 410h-250v112h431v-11l-263 -605h-139z" />
<glyph horiz-adv-x="520" d="M261 -10q-49 0 -91.5 14t-73.5 39t-49 60.5t-18 78.5q0 52 28 90.5t78 59.5q-74 38 -74 118q0 34 13 65t38 53.5t62.5 36t87.5 13.5t87.5 -13.5t62.5 -36t37.5 -53.5t12.5 -65q0 -39 -18 -69.5t-55 -49.5q49 -21 76.5 -59t27.5 -90q0 -43 -17.5 -78.5t-48.5 -60.5 t-73.5 -39t-92.5 -14zM261 111q42 0 68.5 21.5t26.5 60.5q0 40 -26.5 63t-68.5 23t-68.5 -23t-26.5 -63q0 -39 26.5 -60.5t68.5 -21.5zM261 382q28 0 45.5 17t17.5 46q0 31 -17.5 47t-45.5 16t-47 -16t-19 -47q0 -29 19 -46t47 -17z" />
<glyph horiz-adv-x="520" d="M224 100q8 11 24.5 26t43.5 33q-17 -9 -31.5 -13.5t-33.5 -4.5q-39 0 -72.5 13t-59 37.5t-40 59t-14.5 78.5q0 47 17 84.5t46.5 63.5t69 40t84.5 14q44 0 83.5 -13.5t69.5 -39.5t47.5 -63t17.5 -83q0 -54 -19.5 -100.5t-57.5 -99.5l-160 -226h-152zM259 243q40 0 61.5 26 t21.5 60t-21.5 59.5t-61.5 25.5q-41 0 -62.5 -25.5t-21.5 -59.5t21.5 -60t62.5 -26z" />
<glyph horiz-adv-x="200" d="M100 224q-35 0 -60 23.5t-25 61.5q0 37 25 60.5t60 23.5q34 0 59 -23.5t25 -60.5q0 -38 -25 -61.5t-59 -23.5zM100 -6q-35 0 -60 23.5t-25 61.5q0 37 25 60.5t60 23.5q34 0 59 -23.5t25 -60.5q0 -38 -25 -61.5t-59 -23.5z" />
<glyph horiz-adv-x="200" />
<glyph horiz-adv-x="200" d="M100 224q-35 0 -60 23.5t-25 61.5q0 37 25 60.5t60 23.5q34 0 59 -23.5t25 -60.5q0 -38 -25 -61.5t-59 -23.5zM65 5q-23 11 -36.5 30t-13.5 46q0 18 7 33t18.5 26t27 17t32.5 6q34 0 59 -23.5t25 -60.5q0 -25 -9.5 -45t-20.5 -40l-59 -109h-68z" />
<glyph horiz-adv-x="520" d="M74 239v10l338 185v-117l-147 -74l147 -74v-117z" />
<glyph horiz-adv-x="520" d="M70 406h380v-115h-380v115zM70 242h380v-115h-380v115z" />
<glyph horiz-adv-x="520" d="M110 169l147 74l-147 74v117l338 -187v-10l-338 -185v117z" />
<glyph horiz-adv-x="300" d="M41 722h237v-114h-102v-622h102v-114h-237v850z" />
<glyph horiz-adv-x="300" d="M21 -14h102v622h-102v114h237v-850h-237v114z" />
<glyph horiz-adv-x="750" d="M160 217q-31 0 -58 11.5t-46.5 32.5t-30.5 49.5t-11 63.5q0 34 11 63t30.5 50t46.5 32.5t58 11.5t57.5 -11.5t46 -32.5t30.5 -50t11 -63q0 -35 -11 -63.5t-30.5 -49.5t-46 -32.5t-57.5 -11.5zM473 522h133l-330 -522h-133zM591 -9q-31 0 -58 11.5t-46.5 32.5t-30.5 49.5 t-11 63.5q0 34 11 63t30.5 50t46.5 32.5t58 11.5t57.5 -11.5t46 -32.5t30.5 -50t11 -63q0 -35 -11 -63.5t-30.5 -49.5t-46 -32.5t-57.5 -11.5zM160 314q20 0 30 16t10 44t-10 44t-30 16t-30 -16t-10 -44t10 -44t30 -16zM591 88q20 0 30 16t10 44t-10 44t-30 16t-30 -16 t-10 -44t10 -44t30 -16z" />
<glyph horiz-adv-x="648" d="M397 0q14 -12 29.5 -19.5t34.5 -7.5q24 0 40 9.5t28 23.5l82 -80q-27 -37 -63 -54t-85 -17q-31 0 -58 9t-51.5 24t-47.5 35.5t-46 44.5t-42 35t-45 11q-15 0 -27 -5t-21.5 -12.5t-16.5 -15.5t-12 -15l-84 82q12 18 32 34t47 25q-23 32 -35.5 70.5t-12.5 83.5 q0 60 22.5 109.5t60.5 85.5t89.5 55.5t108.5 19.5t108.5 -19.5t89.5 -55.5t60.5 -85.5t22.5 -109.5q0 -50 -16 -92.5t-44 -76.5t-66 -57.5t-82 -34.5zM324 111q31 0 57.5 11t45 30.5t29 47t10.5 61.5q0 33 -10.5 60.5t-29 47.5t-45 31t-57.5 11q-32 0 -58 -11t-44.5 -31 t-29 -47.5t-10.5 -60.5q0 -34 10.5 -61.5t29 -47t44.5 -30.5t58 -11z" />
<glyph horiz-adv-x="350" d="M175 268q-29 0 -54 10.5t-44.5 28.5t-30.5 42t-11 51q0 28 11 52t30.5 41.5t44.5 27.5t54 10t54.5 -10t44.5 -27.5t30 -41.5t11 -52q0 -27 -11 -51t-30 -42t-44.5 -28.5t-54.5 -10.5zM175 348q22 0 36 14.5t14 37.5t-14 37t-36 14t-36 -14t-14 -37t14 -37.5t36 -14.5z " />
<glyph horiz-adv-x="520" d="M255 -7q-43 6 -79.5 24.5t-63 47t-41.5 66.5t-15 83q0 44 15 82t41 66.5t62.5 47t80.5 23.5v108h67v-108q50 -5 85.5 -26t64.5 -57l-94 -76q-8 14 -22.5 25t-33.5 16v-207q20 5 33 15t26 23l89 -78q-28 -32 -63 -51t-85 -24v-109h-67v109zM255 315q-30 -10 -47 -36.5 t-17 -64.5q0 -39 17 -66.5t47 -38.5v206z" />
<glyph horiz-adv-x="520" d="M56 245v102h50q-8 22 -13.5 44t-5.5 44q0 38 13 71.5t38.5 58t63 39t87.5 14.5q72 0 117 -29.5t72 -84.5l-111 -63q-14 30 -32 43.5t-46 13.5q-29 0 -47.5 -18t-18.5 -55q0 -19 4.5 -38.5t11.5 -39.5h127v-102h-91q12 -37 15.5 -66.5t1.5 -49.5q17 -9 35 -15t38 -6 q26 0 40 7.5t31 25.5l79 -81q-27 -37 -62 -53t-82 -16q-40 0 -70 13.5t-54 31.5q-20 -20 -48.5 -32.5t-61.5 -12.5q-63 0 -97.5 31t-34.5 79t32.5 75t77.5 27q29 0 55 -9q-8 26 -20 51h-94zM176 102q-12 11 -23.5 17t-24.5 6q-14 0 -22 -7.5t-8 -20.5t8.5 -20.5t22.5 -7.5 q18 0 29.5 9.5t17.5 23.5z" />
<glyph horiz-adv-x="520" d="M118 379q-29 38 -29 89q0 33 13 61t36 47.5t54.5 30.5t68.5 11q68 0 109 -25.5t68 -76.5l-107 -52q-10 21 -25 33.5t-39 12.5q-28 0 -39.5 -11.5t-11.5 -25.5q0 -16 8 -26.5t29 -18.5l103 -38q70 -26 105.5 -62.5t35.5 -88.5q0 -45 -24 -73t-61 -45q12 -17 18.5 -37 t6.5 -46q0 -66 -48 -103.5t-136 -37.5q-37 0 -69.5 9t-58 23.5t-43 34t-26.5 40.5l105 55q11 -23 32 -38t53 -15q28 0 42 8t14 22q0 12 -7.5 21t-30.5 17l-94 36q-73 28 -107.5 64.5t-34.5 92.5q0 42 26.5 70t63.5 42zM344 173q29 14 29 42q0 20 -12 33.5t-40 24.5l-103 39 q-11 4 -21 8.5t-19 9.5q-26 -12 -26 -42q0 -20 10.5 -34t38.5 -25l97 -36q24 -9 46 -20z" />
<glyph horiz-adv-x="520" d="M63 181v108h99l17 152q10 88 55.5 132.5t120.5 44.5q103 0 152 -81l-90 -69q-9 16 -21.5 26t-33.5 10q-18 0 -32.5 -12.5t-18.5 -47.5l-17 -155h124v-108h-137l-44 -393h-132l44 393h-86z" />
<glyph horiz-adv-x="520" d="M260 360q-33 0 -57 23t-24 58t24 57.5t57 22.5q32 0 56 -22.5t24 -57.5t-24 -58t-56 -23zM73 325h373v-118h-373v118zM260 11q-33 0 -57 23t-24 58t24 57.5t57 22.5q32 0 56 -22.5t24 -57.5t-24 -58t-56 -23z" />
<glyph horiz-adv-x="1170" d="M178 217q-33 0 -62 11.5t-50.5 32.5t-34 49.5t-12.5 63.5q0 34 12.5 63t34 50t50.5 32.5t62 11.5t61.5 -11.5t50 -32.5t33.5 -50t12 -63q0 -35 -12 -63.5t-33.5 -49.5t-50 -32.5t-61.5 -11.5zM506 522h133l-330 -522h-133zM994 -9q-33 0 -62 11.5t-50.5 32.5t-34 49.5 t-12.5 63.5q0 34 12.5 63t34 50t50.5 32.5t62 11.5t61.5 -11.5t49.5 -32.5t33.5 -50t12.5 -63q0 -35 -12.5 -63.5t-33.5 -49.5t-49.5 -32.5t-61.5 -11.5zM639 -9q-33 0 -62 11.5t-50.5 32.5t-33.5 49.5t-12 63.5q0 34 12 63t33.5 50t50.5 32.5t62 11.5t62 -11.5t50 -32.5 t33.5 -50t12.5 -63q0 -35 -12.5 -63.5t-33.5 -49.5t-50 -32.5t-62 -11.5zM178 316q21 0 35 15.5t14 42.5t-14 42.5t-35 15.5q-22 0 -36 -15.5t-14 -42.5t14 -42.5t36 -15.5zM993 90q22 0 36 15.5t14 42.5t-14 42.5t-36 15.5q-21 0 -35 -15.5t-14 -42.5t14 -42.5t35 -15.5z M639 90q22 0 36 15.5t14 42.5t-14 42.5t-36 15.5q-21 0 -35 -15.5t-14 -42.5t14 -42.5t35 -15.5z" />
<glyph d="M63 325h373v-118h-373v118z" />
<glyph d="M144 77l-82 82l105 105l-105 105l82 82l105 -105l105 105l82 -82l-105 -105l105 -105l-82 -82l-105 105z" />
<glyph horiz-adv-x="200" />
<glyph d="M76 243h-54v102h79l19 75h-54v102h79l25 97h105l-25 -97h75l25 97h105l-24 -97h53v-102h-78l-19 -75h53v-102h-79l-25 -101h-105l25 101h-75l-25 -101h-105zM282 345l19 75h-75l-19 -75h75z" />
<glyph d="M218 -7q-44 4 -77.5 16t-58.5 29t-41.5 37t-26.5 40l99 56q14 -25 37.5 -45.5t67.5 -27.5v115q-95 22 -134.5 64.5t-39.5 98.5q0 28 10 54.5t31.5 48t54.5 35t78 16.5v101h67v-103q57 -9 95 -35.5t58 -52.5l-87 -66q-8 12 -24 26.5t-42 22.5v-100q92 -21 139 -63t47 -105 q0 -74 -45 -116t-141 -47v-108h-67v109zM218 429q-29 -3 -40.5 -14.5t-11.5 -27.5q0 -17 9 -28t43 -20v90zM285 96q38 5 49.5 17.5t11.5 27.5q0 17 -11.5 31.5t-49.5 25.5v-102z" />
<glyph horiz-adv-x="200" d="M100 -6q-35 0 -60 23.5t-25 61.5q0 37 25 60.5t60 23.5q34 0 59 -23.5t25 -60.5q0 -38 -25 -61.5t-59 -23.5z" />
<glyph horiz-adv-x="200" d="M65 5q-23 11 -36.5 30t-13.5 46q0 18 7 33t18.5 26t27 17t32.5 6q34 0 59 -23.5t25 -60.5q0 -25 -9.5 -45t-20.5 -40l-59 -109h-68z" />
<glyph d="M189 207h-126v118h126v130h121v-130h126v-118h-126v-130h-121v130z" />
<glyph horiz-adv-x="300" d="M10 -2q30 36 53.5 73.5t40 78t25.5 86.5t9 100t-9 100t-25.5 87t-40 78t-53.5 73l81 65q33 -32 66.5 -71t61 -88t44.5 -109.5t17 -134.5q0 -75 -17 -135t-44.5 -109t-61 -88t-66.5 -71z" />
<glyph horiz-adv-x="300" d="M208 -67q-33 32 -66.5 71t-61 88t-44.5 109t-17 135q0 74 17 134.5t44.5 109.5t61 88t66.5 71l81 -65q-30 -36 -54 -73t-40.5 -78t-25 -87t-8.5 -100t8.5 -100t25 -86.5t40.5 -78t54 -73.5l-81 -65v0z" />
<glyph horiz-adv-x="289" d="M130 261l-98 172h130l95 -168v-8l-95 -165h-130z" />
<glyph horiz-adv-x="289" d="M32 260v8l95 165h130l-98 -169l98 -172h-130z" />
<glyph horiz-adv-x="757" d="M40 332h677v-120h-677v120z" />
<glyph horiz-adv-x="476" d="M40 332h396v-120h-396v120z" />
<glyph horiz-adv-x="504" d="M345 261l-98 172h130l95 -168v-8l-95 -165h-130zM130 261l-98 172h130l95 -168v-8l-95 -165h-130z" />
<glyph horiz-adv-x="504" d="M247 260v8l95 165h130l-98 -169l98 -172h-130zM32 260v8l95 165h130l-98 -169l98 -172h-130z" />
<glyph horiz-adv-x="322" d="M36 332h250v-120h-250v120z" />
<glyph horiz-adv-x="221" />
<glyph horiz-adv-x="1159" d="M237 314v-314h-135v314h-71v112h71v123q0 83 38.5 124.5t113.5 41.5q36 0 62 -10t49 -30l-56 -97q-5 6 -14 11t-23 5q-16 0 -25.5 -10t-9.5 -33v-125h153v133q0 83 38.5 124.5t113.5 41.5q36 0 62 -10t49 -30l-56 -97q-5 6 -14.5 11t-22.5 5q-16 0 -25.5 -10t-9.5 -33 v-135h153v143q0 166 151 166q34 0 59 -9.5t45 -27.5l-56 -97q-5 5 -14 9t-19 4q-31 0 -31 -43v-145h101v-112h-101v-314h-135v314h-153v-314h-135v314h-153zM966 722h134v-722h-134v722z" />
<glyph horiz-adv-x="1119" d="M102 314h-71v112h71v123q0 83 38.5 124.5t113.5 41.5q36 0 62 -10t49 -30l-56 -97q-5 6 -14.5 11t-22.5 5q-16 0 -25.5 -10t-9.5 -33v-125h153v143q0 166 151 166q34 0 59 -9.5t45 -27.5l-56 -97q-5 5 -14 9t-19 4q-31 0 -31 -43v-145h101v-112h-101v-314h-135v314h-153 v-314h-135v314zM812 0h-135v722h135v-368q0 -24 -2 -48t-5 -44l140 164h150l-151 -174l167 -252h-157l-106 161l-36 -38v-123z" />
<glyph horiz-adv-x="1155" d="M102 314h-71v112h71v123q0 83 38.5 124.5t113.5 41.5q36 0 62 -10t49 -30l-56 -97q-5 6 -14 11t-23 5q-16 0 -25.5 -10t-9.5 -33v-125h153v143q0 166 151 166q34 0 59 -9.5t45 -27.5l-56 -97q-5 5 -14 9t-19 4q-31 0 -31 -43v-145h101v-112h-101v-314h-135v314h-153v-314 h-135v314zM678 722h135v-363q20 37 53.5 56.5t78.5 19.5q70 0 115 -49t45 -140v-246h-135v237q0 36 -17.5 55.5t-53.5 19.5q-41 0 -63.5 -21.5t-22.5 -62.5v-228h-135v722z" />
<glyph horiz-adv-x="1176" d="M102 314h-71v112h71v123q0 83 38.5 124.5t113.5 41.5q36 0 62 -10t49 -30l-56 -97q-5 6 -14.5 11t-22.5 5q-16 0 -25.5 -10t-9.5 -33v-125h153v143q0 166 151 166q34 0 59 -9.5t45 -27.5l-56 -97q-5 5 -14 9t-19 4q-31 0 -31 -43v-145h101v-112h-101v-314h-135v314h-153 v-314h-135v314zM944 -9q-49 0 -82.5 18.5t-51.5 52.5l3 -62h-135v722h135v-356q21 32 53 50.5t81 18.5q39 0 73.5 -16t60.5 -45.5t41 -70t15 -89.5t-15.5 -90t-42 -70.5t-61.5 -46t-74 -16.5zM905 109q43 0 68 27t25 78q0 48 -25 75t-68 27q-44 0 -70 -27t-26 -75 q0 -51 26 -78t70 -27z" />
<glyph horiz-adv-x="831" d="M102 314h-71v112h71v143q0 166 151 166q34 0 59 -9.5t45 -27.5l-56 -97q-5 5 -14 9t-19 4q-31 0 -31 -43v-145h101v-112h-101v-314h-135v314zM525 0h-135v722h135v-368q0 -24 -2 -48t-5 -44l140 164h150l-151 -174l167 -252h-157l-106 161l-36 -38v-123z" />
<glyph horiz-adv-x="867" d="M102 314h-71v112h71v143q0 166 151 166q34 0 59 -9.5t45 -27.5l-56 -97q-5 5 -14 9t-19 4q-31 0 -31 -43v-145h101v-112h-101v-314h-135v314zM390 722h135v-363q20 37 53.5 56.5t78.5 19.5q70 0 115 -49t45 -140v-246h-135v237q0 36 -17.5 55.5t-53.5 19.5 q-41 0 -63.5 -21.5t-22.5 -62.5v-228h-135v722z" />
<glyph horiz-adv-x="888" d="M102 314h-71v112h71v143q0 166 151 166q34 0 59 -9.5t45 -27.5l-56 -97q-5 5 -14 9t-19 4q-31 0 -31 -43v-145h101v-112h-101v-314h-135v314zM657 -9q-49 0 -82.5 18.5t-51.5 52.5l3 -62h-135v722h135v-356q21 32 53 50.5t81 18.5q39 0 73.5 -16t60.5 -45.5t41 -70 t15 -89.5t-15.5 -90t-42 -70.5t-61.5 -46t-74 -16.5zM618 109q43 0 68 27t25 78q0 48 -25 75t-68 27q-44 0 -70 -27t-26 -75q0 -51 26 -78t70 -27z" />
<glyph horiz-adv-x="925" d="M477 -127q-94 0 -174 27.5t-138.5 79.5t-92 127t-33.5 170q0 93 35.5 168.5t95 129.5t137.5 83.5t164 29.5q93 0 169.5 -26.5t131 -75.5t84.5 -117.5t30 -152.5q0 -118 -48 -179.5t-137 -61.5q-50 0 -85.5 16.5t-53.5 60.5q-22 -43 -57 -62t-79 -19q-37 0 -69 14.5 t-55.5 40.5t-37 63t-13.5 81t13.5 81t36.5 63.5t55 41.5t68 15q42 0 67.5 -16.5t40.5 -43.5l-2 50h130v-225q0 -33 10.5 -48t35.5 -15q32 0 49 33t17 108q0 71 -21 122.5t-60.5 84.5t-95 49t-124.5 16t-125.5 -22t-97.5 -62.5t-63.5 -97t-22.5 -126.5q0 -69 20.5 -125 t60 -95.5t98 -61t134.5 -21.5q42 0 82.5 7.5t76.5 20.5l42 -94q-47 -19 -93 -27.5t-106 -8.5zM464 180q30 0 49.5 26t19.5 64t-19.5 64t-49.5 26q-35 0 -55 -24.5t-20 -65.5t20 -65.5t55 -24.5z" />
<glyph horiz-adv-x="517" d="M253 -11q-102 0 -152.5 54.5t-50.5 148.5v234h135v-231q0 -44 16.5 -66.5t56.5 -22.5q41 0 57.5 22.5t16.5 66.5v231h135v-234q0 -94 -55.5 -148.5t-158.5 -54.5zM258 500q-72 0 -114 40t-48 100l103 15q4 -26 17.5 -41.5t41.5 -15.5t41.5 15.5t17.5 41.5l103 -15 q-6 -60 -48 -100t-114 -40z" />
<glyph horiz-adv-x="782" d="M402 -9q-77 0 -142 26.5t-112 73t-73.5 110.5t-26.5 139t27.5 139t75 110.5t111.5 72.5t138 26q90 0 159 -33t117 -108l-110 -78q-27 44 -67.5 68.5t-98.5 24.5q-47 0 -85 -17t-65.5 -46.5t-42.5 -70t-15 -88.5t15 -89t42.5 -71t66 -47.5t85.5 -17.5q39 0 71 10t56 27.5 t39.5 40.5t21.5 49h-170v122h318q4 -84 -15.5 -153t-62 -118t-107.5 -75.5t-150 -26.5zM387 954h11l159 -216h-108l-56 65l-57 -65h-108z" />
<glyph horiz-adv-x="782" d="M402 -9q-77 0 -142 26.5t-112 73t-73.5 110.5t-26.5 139t27.5 139t75 110.5t111.5 72.5t138 26q90 0 159 -33t117 -108l-110 -78q-27 44 -67.5 68.5t-98.5 24.5q-47 0 -85 -17t-65.5 -46.5t-42.5 -70t-15 -88.5t15 -89t42.5 -71t66 -47.5t85.5 -17.5q39 0 71 10t56 27.5 t39.5 40.5t21.5 49h-170v122h318q4 -84 -15.5 -153t-62 -118t-107.5 -75.5t-150 -26.5zM394 738q-72 0 -114 40t-48 100l103 15q4 -26 17.5 -41.5t41.5 -15.5t41.5 15.5t17.5 41.5l103 -15q-6 -60 -48 -100t-114 -40z" />
<glyph horiz-adv-x="782" d="M402 -9q-77 0 -142 26.5t-112 73t-73.5 110.5t-26.5 139t27.5 139t75 110.5t111.5 72.5t138 26q90 0 159 -33t117 -108l-110 -78q-27 44 -67.5 68.5t-98.5 24.5q-47 0 -85 -17t-65.5 -46.5t-42.5 -70t-15 -88.5t15 -89t42.5 -71t66 -47.5t85.5 -17.5q39 0 71 10t56 27.5 t39.5 40.5t21.5 49h-170v122h318q4 -84 -15.5 -153t-62 -118t-107.5 -75.5t-150 -26.5zM358 -186q-17 8 -29 26t-12 43q0 33 23 54.5t53 21.5q31 0 54.5 -21.5t23.5 -53.5q0 -23 -7 -42.5t-19 -39.5l-52 -85h-66z" />
<glyph horiz-adv-x="517" d="M234 -10q-92 5 -138 58.5t-46 143.5v234h135v-231q0 -44 16.5 -66.5t56.5 -22.5q41 0 57.5 22.5t16.5 66.5v231h135v-234q0 -78 -38 -128.5t-110 -67.5l-39 -65q-8 -13 -13 -22t-8 -17t-4 -14t-1 -15q1 -28 28 -29q14 0 24 7t17 19l66 -38q-17 -30 -43.5 -46t-71.5 -16 q-43 0 -75 25t-32 76q0 26 11.5 49t28.5 45l27 35v0z" />
<glyph horiz-adv-x="517" d="M253 -11q-102 0 -152.5 54.5t-50.5 148.5v234h135v-231q0 -44 16.5 -66.5t56.5 -22.5q41 0 57.5 22.5t16.5 66.5v231h135v-234q0 -94 -55.5 -148.5t-158.5 -54.5zM350 688h140l-89 -188h-102zM165 688h140l-89 -188h-102z" />
<glyph horiz-adv-x="517" d="M253 -11q-102 0 -152.5 54.5t-50.5 148.5v234h135v-231q0 -44 16.5 -66.5t56.5 -22.5q41 0 57.5 22.5t16.5 66.5v231h135v-234q0 -94 -55.5 -148.5t-158.5 -54.5zM258 474q-27 0 -51 9.5t-41 26t-27 38t-10 45.5t10 46t27 38t41 25.5t51 9.5t51 -9.5t41 -25.5t27 -38 t10 -46t-10 -45.5t-27 -38t-41 -26t-51 -9.5zM258 548q18 0 30.5 11.5t12.5 33.5t-12.5 33.5t-30.5 11.5t-30.5 -11.5t-12.5 -33.5t12.5 -33.5t30.5 -11.5z" />
<glyph horiz-adv-x="517" d="M127 615h264v-99h-264v99zM253 -11q-102 0 -152.5 54.5t-50.5 148.5v234h135v-231q0 -44 16.5 -66.5t56.5 -22.5q41 0 57.5 22.5t16.5 66.5v231h135v-234q0 -94 -55.5 -148.5t-158.5 -54.5z" />
<glyph horiz-adv-x="544" d="M227 -9q-38 0 -72.5 16.5t-60 46t-40.5 70.5t-15 90q0 48 14.5 89t40 70t60.5 45.5t75 16.5q48 0 80 -19t50 -54l-2 64h134v-426h-134l2 65q-17 -32 -50 -53t-82 -21zM268 109q44 0 67.5 28t23.5 77q0 48 -23.5 75t-67.5 27q-43 0 -66 -27t-23 -75q0 -49 23 -77t66 -28z M285 500q-72 0 -114 40t-48 100l103 15q4 -26 17.5 -41.5t41.5 -15.5t41.5 15.5t17.5 41.5l103 -15q-6 -60 -48 -100t-114 -40z" />
<glyph horiz-adv-x="544" d="M431 -69q-15 -25 -20.5 -38t-5.5 -30q1 -28 28 -29q14 0 24 7t17 19l66 -38q-17 -30 -43.5 -46t-71.5 -16q-43 0 -75 25t-32 76q0 26 11.5 49t28.5 45l35 45h-36l2 65q-17 -32 -50 -53t-82 -21q-38 0 -72.5 16.5t-60 46t-40.5 70.5t-15 90q0 48 14.5 89t40 70t60.5 45.5 t75 16.5q48 0 80 -19t50 -54l-2 64h134v-394zM268 109q44 0 67.5 28t23.5 77q0 48 -23.5 75t-67.5 27q-43 0 -66 -27t-23 -75q0 -49 23 -77t66 -28z" />
<glyph horiz-adv-x="544" d="M153 615h264v-99h-264v99zM227 -9q-38 0 -72.5 16.5t-60 46t-40.5 70.5t-15 90q0 48 14.5 89t40 70t60.5 45.5t75 16.5q48 0 80 -19t50 -54l-2 64h134v-426h-134l2 65q-17 -32 -50 -53t-82 -21zM268 109q44 0 67.5 28t23.5 77q0 48 -23.5 75t-67.5 27q-43 0 -66 -27 t-23 -75q0 -49 23 -77t66 -28z" />
<glyph horiz-adv-x="871" d="M102 314h-71v112h71v123q0 83 38.5 124.5t113.5 41.5q36 0 62 -10t49 -30l-56 -97q-5 6 -14.5 11t-22.5 5q-16 0 -25.5 -10t-9.5 -33v-125h153v143q0 166 151 166q34 0 59 -9.5t45 -27.5l-56 -97q-5 5 -14 9t-19 4q-31 0 -31 -43v-145h101v-112h-101v-314h-135v314h-153 v-314h-135v314zM678 722h134v-722h-134v722z" />
<glyph horiz-adv-x="583" d="M102 314h-71v112h71v143q0 166 151 166q34 0 59 -9.5t45 -27.5l-56 -97q-5 5 -13.5 9t-19.5 4q-31 0 -31 -43v-145h101v-112h-101v-314h-135v314zM389 722h134v-722h-134v722z" />
<glyph horiz-adv-x="1371" d="M216 322q-38 0 -72 14t-59.5 38.5t-41 58t-15.5 72.5q0 40 15.5 73.5t41 58t59.5 38t72 13.5q37 0 71.5 -13.5t60.5 -38t41.5 -58t15.5 -73.5q0 -39 -15.5 -72.5t-41.5 -58t-60.5 -38.5t-71.5 -14zM1154 -9q-38 0 -72 14t-59.5 38.5t-41 58t-15.5 72.5q0 40 15.5 73.5 t41 58t59.5 38t72 13.5q37 0 71.5 -13.5t60.5 -38t41.5 -58t15.5 -73.5q0 -39 -15.5 -72.5t-41.5 -58t-60.5 -38.5t-71.5 -14zM730 -9q-38 0 -72 14t-59.5 38.5t-41 58t-15.5 72.5q0 40 15.5 73.5t41 58t59.5 38t72 13.5q37 0 71.5 -13.5t60.5 -38t41.5 -58t15.5 -73.5 q0 -39 -15.5 -72.5t-41.5 -58t-60.5 -38.5t-71.5 -14zM216 428q30 0 50 22t20 55q0 35 -20 56t-50 21t-49.5 -21t-19.5 -56q0 -33 19.5 -55t49.5 -22zM1154 97q30 0 50 22t20 55q0 35 -20 56t-50 21t-49.5 -21t-19.5 -56q0 -33 19.5 -55t49.5 -22zM730 97q30 0 50 22t20 55 q0 35 -20 56t-50 21t-49.5 -21t-19.5 -56q0 -33 19.5 -55t49.5 -22zM609 680h134l-402 -680h-134z" />
<glyph horiz-adv-x="451" d="M226 410q-33 0 -57 23t-24 58t24 57.5t57 22.5q32 0 56 -22.5t24 -57.5t-24 -58t-56 -23zM39 375h373v-118h-373v118zM226 61q-33 0 -57 23t-24 58t24 57.5t57 22.5q32 0 56 -22.5t24 -57.5t-24 -58t-56 -23z" />
<glyph horiz-adv-x="410" d="M99 216h-66v108h78l23 196q10 88 52.5 128t114.5 40q48 0 78 -16.5t50 -44.5l-81 -77q-8 12 -16.5 18t-22.5 6q-17 0 -28 -10t-14 -33l-24 -207h105v-108h-117l-49 -428h-132z" />
<glyph horiz-adv-x="575" d="M274 -180q-84 0 -142.5 33.5t-89.5 78.5l106 76q20 -29 49 -47.5t70 -18.5q40 0 57.5 12t17.5 29t-14.5 29t-53.5 31l-111 52q-66 31 -98 68.5t-32 93.5q0 30 8.5 52t22 37.5t31.5 25.5t37 17q-20 24 -31 53t-11 64q0 37 13.5 70t39.5 58t63.5 39.5t86.5 14.5 q74 0 118.5 -29t73.5 -72l-110 -74q-21 32 -40 43t-42 11q-29 0 -43.5 -16.5t-14.5 -36.5t10.5 -35t42.5 -30l111 -51q75 -35 109 -75.5t34 -100.5q0 -51 -26 -82t-69 -50q40 -47 40 -110q0 -73 -56 -116.5t-157 -43.5zM372 151q35 17 35 50q0 27 -17 40.5t-49 28.5l-111 51 l-24 12q-15 -6 -26.5 -17.5t-11.5 -31.5q0 -23 13 -35t39 -24l111 -52q11 -5 21.5 -10.5t19.5 -11.5z" />
<glyph horiz-adv-x="644" d="M88 273v96h57q-12 26 -20 54.5t-8 59.5q0 45 16.5 82.5t47 65t73.5 42.5t96 15q86 0 138.5 -36.5t81.5 -93.5l-113 -60q-17 32 -41.5 51.5t-65.5 19.5q-40 0 -65.5 -20t-25.5 -66q0 -30 9 -57.5t22 -56.5h201v-96h-162q7 -20 11 -42t4 -46q0 -26 -6 -50q22 -11 45 -19 t51 -8q29 0 52.5 12.5t43.5 37.5l85 -80q-18 -23 -38 -40.5t-41 -27.5t-45.5 -14.5t-56.5 -4.5q-49 0 -84 16t-61 38q-26 -26 -62.5 -40t-80.5 -14q-55 0 -91 31t-36 82q0 25 9.5 46t26.5 36.5t40.5 24t50.5 8.5q39 0 72 -14q-6 34 -24 68h-106zM210 116q-14 10 -27.5 16 t-29.5 6q-20 0 -30.5 -9t-10.5 -23t11 -23t29 -9q41 0 58 42z" />
<glyph horiz-adv-x="483" d="M237 -7q-43 6 -79.5 24.5t-63 47t-41.5 66.5t-15 83q0 44 15 82t41 66.5t62.5 47t80.5 23.5v108h67v-108q50 -5 85.5 -26t64.5 -57l-94 -76q-8 14 -22.5 25t-33.5 16v-207q20 5 33 15t26 23l89 -78q-28 -32 -63 -51t-85 -24v-109h-67v109zM237 315q-30 -10 -47 -36.5 t-17 -64.5q0 -39 17 -66.5t47 -38.5v206z" />
<glyph horiz-adv-x="374" d="M187 393q-32 0 -60.5 11.5t-50 31.5t-34 47t-12.5 58t12.5 58t34 47t50 31t60.5 11t60.5 -11t50 -31t34 -47t12.5 -58t-12.5 -58t-34 -47t-50 -31.5t-60.5 -11.5zM187 480q26 0 42.5 17t16.5 44t-16.5 43.5t-42.5 16.5t-42.5 -16.5t-16.5 -43.5t16.5 -44t42.5 -17z" />
<glyph horiz-adv-x="337" d="M30 -14h112v622h-112v114h247v-850h-247v114z" />
<glyph horiz-adv-x="337" d="M60 722h247v-114h-112v-622h112v-114h-247v850z" />
<glyph horiz-adv-x="398" d="M37 239l147 74l-147 74v117l338 -187v-10l-338 -185v117z" />
<glyph horiz-adv-x="451" d="M39 461h373v-115h-373v115zM39 286h373v-115h-373v115z" />
<glyph horiz-adv-x="398" d="M23 309v10l338 185v-117l-147 -74l147 -74v-117z" />
<glyph horiz-adv-x="259" d="M130 224q-35 0 -60 23.5t-25 61.5q0 37 25 60.5t60 23.5q34 0 59 -23.5t25 -60.5q0 -38 -25 -61.5t-59 -23.5zM95 5q-23 11 -36.5 30t-13.5 46q0 18 7 33t18.5 26t27 17t32.5 6q34 0 59 -23.5t25 -60.5q0 -25 -9.5 -45t-20.5 -40l-59 -109h-68z" />
<glyph horiz-adv-x="259" d="M130 224q-35 0 -60 23.5t-25 61.5q0 37 25 60.5t60 23.5q34 0 59 -23.5t25 -60.5q0 -38 -25 -61.5t-59 -23.5zM130 -6q-35 0 -60 23.5t-25 61.5q0 37 25 60.5t60 23.5q34 0 59 -23.5t25 -60.5q0 -38 -25 -61.5t-59 -23.5z" />
<glyph horiz-adv-x="249" d="M125 -6q-35 0 -60 23.5t-25 61.5q0 37 25 60.5t60 23.5q34 0 59 -23.5t25 -60.5q0 -38 -25 -61.5t-59 -23.5z" />
<glyph horiz-adv-x="249" d="M90 5q-23 11 -36.5 30t-13.5 46q0 18 7 33t18.5 26t27 17t32.5 6q34 0 59 -23.5t25 -60.5q0 -25 -9.5 -45t-20.5 -40l-59 -109h-68z" />
<glyph horiz-adv-x="451" d="M165 257h-126v118h126v130h121v-130h126v-118h-126v-130h-121v130z" />
<glyph horiz-adv-x="344" d="M25 -72q30 36 53.5 75t40 83t25.5 94.5t9 110.5q0 59 -9 109.5t-25.5 95t-40 83.5t-53.5 75l81 65q33 -32 66.5 -73.5t61 -94t44.5 -117.5t17 -143t-17 -142.5t-44.5 -117.5t-61 -94.5t-66.5 -73.5z" />
<glyph horiz-adv-x="344" d="M238 -137q-33 32 -66.5 73.5t-61 94t-44.5 117.5t-17 143t17 142.5t44.5 117.5t61 94.5t66.5 73.5l81 -65q-30 -36 -54 -75t-40.5 -83t-25 -94.5t-8.5 -110.5q0 -59 8.5 -109.5t25 -95t40.5 -83.5t54 -75l-81 -65v0z" />
<glyph horiz-adv-x="947" d="M216 322q-38 0 -72 14t-59.5 38.5t-41 58t-15.5 72.5q0 40 15.5 73.5t41 58t59.5 38t72 13.5q37 0 71.5 -13.5t60.5 -38t41.5 -58t15.5 -73.5q0 -39 -15.5 -72.5t-41.5 -58t-60.5 -38.5t-71.5 -14zM730 -9q-38 0 -72 14t-59.5 38.5t-41 58t-15.5 72.5q0 40 15.5 73.5 t41 58t59.5 38t72 13.5q37 0 71.5 -13.5t60.5 -38t41.5 -58t15.5 -73.5q0 -39 -15.5 -72.5t-41.5 -58t-60.5 -38.5t-71.5 -14zM216 428q30 0 50 22t20 55q0 35 -20 56t-50 21t-49.5 -21t-19.5 -56q0 -33 19.5 -55t49.5 -22zM730 97q30 0 50 22t20 55q0 35 -20 56t-50 21 t-49.5 -21t-19.5 -56q0 -33 19.5 -55t49.5 -22zM608 680h134l-402 -680h-134z" />
<glyph horiz-adv-x="550" d="M244 -8q-80 6 -137.5 43.5t-89.5 96.5l113 65q22 -36 47 -58t67 -27v172q-45 16 -81 35.5t-61 46t-38.5 60t-13.5 77.5q0 37 13.5 69t39 56.5t61.5 40t80 18.5v86h67v-88q57 -7 100 -33t73 -77l-108 -69q-13 23 -29 36.5t-36 20.5v-155q46 -17 83.5 -36.5t64 -45.5 t41 -59t14.5 -77q0 -48 -15.5 -83t-42.5 -59t-64.5 -37.5t-80.5 -17.5v-109h-67v108zM244 567q-26 -4 -41 -21.5t-15 -37.5q0 -30 13 -46.5t43 -29.5v135zM311 116q30 8 46.5 25.5t16.5 43.5q0 29 -17.5 46t-45.5 29v-144z" />
<glyph horiz-adv-x="526" d="M86 303h-54v102h79l19 75h-54v102h79l25 97h105l-25 -97h75l25 97h105l-24 -97h53v-102h-78l-19 -75h53v-102h-79l-25 -101h-105l25 101h-75l-25 -101h-105zM292 405l19 75h-75l-19 -75h75z" />
<glyph horiz-adv-x="221" />
<glyph horiz-adv-x="414" d="M102 129l-82 82l105 105l-105 105l82 82l105 -105l105 105l82 -82l-105 -105l105 -105l-82 -82l-105 105z" />
<glyph horiz-adv-x="451" d="M39 375h373v-118h-373v118z" />
<glyph horiz-adv-x="598" d="M264 153q11 16 28 37.5t34 38.5q-13 -6 -32.5 -9t-31.5 -3q-48 0 -89 16.5t-71.5 47t-48 72.5t-17.5 93q0 50 19 94.5t53.5 77.5t83 52t107.5 19q58 0 106 -18.5t83 -51t54.5 -75.5t19.5 -92t-18.5 -95.5t-48.5 -91.5l-179 -265h-155zM299 326q28 0 50 9.5t37.5 26 t23.5 38.5t8 46q0 23 -8 44.5t-23.5 37.5t-37.5 25.5t-50 9.5q-29 0 -51 -9.5t-37 -25.5t-23 -37.5t-8 -44.5q0 -24 7.5 -45.5t22.5 -38t37 -26.5t52 -10z" />
<glyph horiz-adv-x="581" d="M291 -9q-59 0 -106 16.5t-80 45.5t-50.5 69t-17.5 87q0 58 30 101t87 66q-32 21 -51.5 54t-19.5 78q0 39 17 72t45.5 57t67 37.5t80.5 13.5t80.5 -13.5t67 -37.5t45.5 -57t17 -72q0 -46 -20 -79t-53 -54q55 -24 84.5 -66.5t29.5 -99.5q0 -47 -17.5 -87t-50.5 -69 t-80 -45.5t-105 -16.5zM291 115q51 0 81 28t30 73t-30 72.5t-81 27.5t-81 -27.5t-30 -72.5t30 -73t81 -28zM293 424q32 0 53 20.5t21 50.5q0 32 -21 51t-53 19t-53 -19t-21 -51q0 -30 21 -50.5t53 -20.5z" />
<glyph horiz-adv-x="572" d="M352 555h-327v125h532v-12l-320 -668h-149z" />
<glyph horiz-adv-x="598" d="M299 -9q-58 0 -106 18.5t-83 51t-54.5 75.5t-19.5 92t18.5 95.5t48.5 91.5l179 265h158l-100 -148q-14 -21 -32.5 -41t-42.5 -41q14 5 34.5 8.5t34.5 3.5q47 0 88.5 -16.5t72.5 -46.5t49 -72t18 -93q0 -50 -19 -94.5t-53.5 -77.5t-83 -52t-107.5 -19zM298 117 q29 0 51 9.5t37 25.5t23 37.5t8 44.5q0 24 -7.5 45.5t-22.5 38t-37 26.5t-52 10q-28 0 -50 -9.5t-37.5 -26t-23.5 -38.5t-8 -46q0 -23 8 -44.5t23.5 -37.5t37.5 -25.5t50 -9.5z" />
<glyph horiz-adv-x="581" d="M281 -9q-49 0 -91 11.5t-76 32t-59.5 48.5t-41.5 60l120 62q9 -16 21 -31.5t29.5 -28t41.5 -20t56 -7.5q56 0 87.5 32t31.5 82q0 54 -37.5 83.5t-101.5 29.5q-62 0 -101 -19t-69 -43l-12 5v392h405v-123h-283v-111q19 9 40 12.5t48 3.5q58 0 105.5 -16.5t81 -46.5t52 -72 t18.5 -93q0 -58 -19.5 -103.5t-54.5 -76.5t-83.5 -47t-107.5 -16z" />
<glyph horiz-adv-x="648" d="M380 99h-342v106l471 489h12v-480h89v-115h-89v-99h-141v99zM191 205q17 4 37 6.5t33 2.5h119v127q0 16 2.5 36t4.5 31q-11 -16 -24 -32t-23 -26l-92 -96q-10 -11 -24.5 -23.5t-32.5 -25.5z" />
<glyph horiz-adv-x="567" d="M275 -9q-47 0 -89.5 12t-78 33t-62 50.5t-41.5 64.5l120 62q9 -18 22 -35t30.5 -30.5t40.5 -21.5t52 -8q55 0 88 32t33 83t-33.5 85t-99.5 34q-36 0 -60 -6t-38 -11l-7 11l131 175q5 7 15 18t19 21q-11 -1 -28 -2t-26 -1h-196v123h462v-12l-126 -170q-9 -12 -17 -21.5 t-27 -27.5q36 -8 68 -27t55.5 -47t37 -65.5t13.5 -83.5q0 -57 -20 -101t-55 -74t-82 -45t-101 -15z" />
<glyph horiz-adv-x="565" d="M8 12l280 292q27 28 45 51t29 43t15.5 37.5t4.5 34.5q0 36 -22 62.5t-69 26.5q-46 0 -76 -30.5t-45 -81.5l-142 28q10 46 32.5 85t55.5 67.5t77.5 44.5t98.5 16t97 -16t73.5 -45t46.5 -69t16 -87q0 -57 -27 -109.5t-87 -115.5l-84 -88q-8 -8 -21 -18.5t-27 -20.5 q20 2 33 3t23 1h186v-123h-513v12z" />
<glyph horiz-adv-x="366" d="M153 555h-122v125h263v-680h-141v555z" />
<glyph horiz-adv-x="517" d="M253 -11q-102 0 -152.5 54.5t-50.5 148.5v234h135v-231q0 -44 16.5 -66.5t56.5 -22.5q41 0 57.5 22.5t16.5 66.5v231h135v-234q0 -94 -55.5 -148.5t-158.5 -54.5zM362 506q-15 0 -28.5 6t-24 16.5t-17 24t-6.5 29.5t6.5 29.5t17 24t24 16.5t28.5 6q30 0 53 -22t23 -54 t-23 -54t-53 -22zM154 506q-15 0 -28.5 6t-24 16.5t-17 24t-6.5 29.5t6.5 29.5t17 24t24 16.5t28.5 6q30 0 53 -22t23 -54t-23 -54t-53 -22z" />
<glyph horiz-adv-x="517" d="M253 -11q-102 0 -152.5 54.5t-50.5 148.5v234h135v-231q0 -44 16.5 -66.5t56.5 -22.5q41 0 57.5 22.5t16.5 66.5v231h135v-234q0 -94 -55.5 -148.5t-158.5 -54.5zM251 716h11l159 -216h-108l-56 65l-57 -65h-108z" />
<glyph horiz-adv-x="517" d="M253 -11q-102 0 -152.5 54.5t-50.5 148.5v234h135v-231q0 -44 16.5 -66.5t56.5 -22.5q41 0 57.5 22.5t16.5 66.5v231h135v-234q0 -94 -55.5 -148.5t-158.5 -54.5zM105 688h154l52 -188h-102z" />
<glyph horiz-adv-x="517" d="M253 -11q-102 0 -152.5 54.5t-50.5 148.5v234h135v-231q0 -44 16.5 -66.5t56.5 -22.5q41 0 57.5 22.5t16.5 66.5v231h135v-234q0 -94 -55.5 -148.5t-158.5 -54.5zM259 688h154l-104 -188h-102z" />
<glyph horiz-adv-x="544" d="M227 -9q-38 0 -72.5 16.5t-60 46t-40.5 70.5t-15 90q0 48 14.5 89t40 70t60.5 45.5t75 16.5q48 0 80 -19t50 -54l-2 64h134v-426h-134l2 65q-17 -32 -50 -53t-82 -21zM268 109q44 0 67.5 28t23.5 77q0 48 -23.5 75t-67.5 27q-43 0 -66 -27t-23 -75q0 -49 23 -77t66 -28z M285 474q-27 0 -51 9.5t-41 26t-27 38t-10 45.5t10 46t27 38t41 25.5t51 9.5t51 -9.5t41 -25.5t27 -38t10 -46t-10 -45.5t-27 -38t-41 -26t-51 -9.5zM285 548q18 0 30.5 11.5t12.5 33.5t-12.5 33.5t-30.5 11.5t-30.5 -11.5t-12.5 -33.5t12.5 -33.5t30.5 -11.5z" />
<glyph horiz-adv-x="544" d="M227 -9q-38 0 -72.5 16.5t-60 46t-40.5 70.5t-15 90q0 48 14.5 89t40 70t60.5 45.5t75 16.5q48 0 80 -19t50 -54l-2 64h134v-426h-134l2 65q-17 -32 -50 -53t-82 -21zM268 109q44 0 67.5 28t23.5 77q0 48 -23.5 75t-67.5 27q-43 0 -66 -27t-23 -75q0 -49 23 -77t66 -28z M114 515q4 71 35 105.5t76 34.5q20 0 35.5 -6t27.5 -14q17 -11 28 -18t20 -7q14 0 20.5 11t8.5 34l91 -9q-4 -71 -35 -105.5t-76 -34.5q-20 0 -35.5 6t-27.5 14q-17 11 -27.5 18t-20.5 7q-25 0 -29 -45z" />
<glyph horiz-adv-x="544" d="M227 -9q-38 0 -72.5 16.5t-60 46t-40.5 70.5t-15 90q0 48 14.5 89t40 70t60.5 45.5t75 16.5q48 0 80 -19t50 -54l-2 64h134v-426h-134l2 65q-17 -32 -50 -53t-82 -21zM268 109q44 0 67.5 28t23.5 77q0 48 -23.5 75t-67.5 27q-43 0 -66 -27t-23 -75q0 -49 23 -77t66 -28z M389 506q-15 0 -28.5 6t-24 16.5t-17 24t-6.5 29.5t6.5 29.5t17 24t24 16.5t28.5 6q30 0 53 -22t23 -54t-23 -54t-53 -22zM181 506q-15 0 -28.5 6t-24 16.5t-17 24t-6.5 29.5t6.5 29.5t17 24t24 16.5t28.5 6q30 0 53 -22t23 -54t-23 -54t-53 -22z" />
<glyph horiz-adv-x="544" d="M227 -9q-38 0 -72.5 16.5t-60 46t-40.5 70.5t-15 90q0 48 14.5 89t40 70t60.5 45.5t75 16.5q48 0 80 -19t50 -54l-2 64h134v-426h-134l2 65q-17 -32 -50 -53t-82 -21zM268 109q44 0 67.5 28t23.5 77q0 48 -23.5 75t-67.5 27q-43 0 -66 -27t-23 -75q0 -49 23 -77t66 -28z M278 716h11l159 -216h-108l-56 65l-57 -65h-108z" />
<glyph horiz-adv-x="544" d="M227 -9q-38 0 -72.5 16.5t-60 46t-40.5 70.5t-15 90q0 48 14.5 89t40 70t60.5 45.5t75 16.5q48 0 80 -19t50 -54l-2 64h134v-426h-134l2 65q-17 -32 -50 -53t-82 -21zM268 109q44 0 67.5 28t23.5 77q0 48 -23.5 75t-67.5 27q-43 0 -66 -27t-23 -75q0 -49 23 -77t66 -28z M132 688h154l52 -188h-102z" />
<glyph horiz-adv-x="544" d="M227 -9q-38 0 -72.5 16.5t-60 46t-40.5 70.5t-15 90q0 48 14.5 89t40 70t60.5 45.5t75 16.5q48 0 80 -19t50 -54l-2 64h134v-426h-134l2 65q-17 -32 -50 -53t-82 -21zM268 109q44 0 67.5 28t23.5 77q0 48 -23.5 75t-67.5 27q-43 0 -66 -27t-23 -75q0 -49 23 -77t66 -28z M286 688h154l-104 -188h-102z" />
<glyph horiz-adv-x="517" d="M253 -11q-102 0 -152.5 54.5t-50.5 148.5v234h135v-231q0 -44 16.5 -66.5t56.5 -22.5q41 0 57.5 22.5t16.5 66.5v231h135v-234q0 -94 -55.5 -148.5t-158.5 -54.5z" />
<glyph horiz-adv-x="544" d="M227 -9q-38 0 -72.5 16.5t-60 46t-40.5 70.5t-15 90q0 48 14.5 89t40 70t60.5 45.5t75 16.5q48 0 80 -19t50 -54l-2 64h134v-426h-134l2 65q-17 -32 -50 -53t-82 -21zM268 109q44 0 67.5 28t23.5 77q0 48 -23.5 75t-67.5 27q-43 0 -66 -27t-23 -75q0 -49 23 -77t66 -28z " />
<glyph horiz-adv-x="800" d="M464 -154h-128v151q-62 10 -114.5 40t-91 75t-60.5 103t-22 125q0 75 27.5 139t75 110.5t111.5 72.5t138 26q73 0 137.5 -26t112 -72.5t75 -110.5t27.5 -139q0 -67 -22 -125t-60.5 -103t-91 -75t-114.5 -40v-151zM336 236h128v-118q66 20 105 78.5t39 143.5 q0 48 -15 88.5t-42.5 70t-66 46.5t-84.5 17q-47 0 -85 -17t-65.5 -46.5t-42.5 -70t-15 -88.5q0 -85 39 -143.5t105 -78.5v118z" />
<glyph horiz-adv-x="843" d="M123 687h14l238 -321q10 -13 23 -33t26 -41q11 18 24 38.5t24 35.5l234 321h14l55 -687h-139l-18 241q-1 14 -3 51t-3 70q-15 -28 -33.5 -58.5t-29.5 -44.5l-123 -165h-12l-124 164q-11 14 -33 48.5t-34 54.5q-1 -42 -2.5 -73t-2.5 -48l-18 -240h-132z" />
<glyph horiz-adv-x="782" d="M402 -9q-77 0 -142 26.5t-112 73t-73.5 110.5t-26.5 139t27.5 139t75 110.5t111.5 72.5t138 26q90 0 159 -33t117 -108l-110 -78q-27 44 -67.5 68.5t-98.5 24.5q-47 0 -85 -17t-65.5 -46.5t-42.5 -70t-15 -88.5t15 -89t42.5 -71t66 -47.5t85.5 -17.5q39 0 71 10t56 27.5 t39.5 40.5t21.5 49h-170v122h318q4 -84 -15.5 -153t-62 -118t-107.5 -75.5t-150 -26.5z" />
<glyph horiz-adv-x="454" d="M173 94q11 14 22.5 25.5t21.5 19.5q12 9 22 16q-7 -2 -17 -3.5t-18 -1.5q-38 0 -70.5 11.5t-56.5 32.5t-37.5 50.5t-13.5 66.5q0 36 14 67.5t40 55.5t63 38t83 14q44 0 80.5 -13.5t62.5 -36.5t40.5 -53.5t14.5 -65.5q0 -36 -13.5 -70.5t-42.5 -72.5l-129 -173h-138z M225 242q35 0 54 21.5t19 48.5t-19 48.5t-54 21.5t-54 -21.5t-19 -48.5t19 -48.5t54 -21.5z" />
<glyph horiz-adv-x="448" d="M224 -7q-41 0 -77 11t-62 30.5t-41 47.5t-15 62q0 41 23.5 70.5t64.5 46.5q-59 33 -59 94q0 27 11 51t32 42t52 28t71 10q41 0 72 -10t51.5 -28t31 -42t10.5 -51q0 -30 -14 -54t-43 -40q40 -17 63 -46.5t23 -70.5q0 -34 -14.5 -62t-40.5 -47.5t-61.5 -30.5t-77.5 -11z M224 97q31 0 50.5 16t19.5 43q0 29 -19.5 45.5t-50.5 16.5q-32 0 -51.5 -16.5t-19.5 -45.5q0 -27 19.5 -43t51.5 -16zM226 303q21 0 34.5 12.5t13.5 33.5q0 22 -15 33.5t-36 11.5q-22 0 -35.5 -11.5t-13.5 -33.5q0 -21 15 -33.5t37 -12.5z" />
<glyph horiz-adv-x="435" d="M244 364h-213v113h390v-11l-222 -466h-130z" />
<glyph horiz-adv-x="454" d="M228 -8q-44 0 -80.5 13.5t-62.5 36.5t-40.5 53.5t-14.5 65.5q0 36 14 69.5t41 71.5l125 175h139l-65 -92q-12 -17 -31.5 -34.5t-37.5 -27.5q8 2 17.5 3.5t17.5 1.5q38 0 70.5 -11.5t56.5 -32.5t37.5 -50.5t13.5 -66.5q0 -36 -14 -67.5t-40 -55.5t-63 -38t-83 -14zM229 96 q35 0 54 21t19 49t-19 49t-54 21t-54 -21t-19 -49t19 -49t54 -21z" />
<glyph horiz-adv-x="448" d="M216 -8q-148 0 -204 113l106 55q11 -23 32.5 -38t56.5 -15q33 0 54 14t21 39q0 29 -24 44t-62 15q-43 0 -69.5 -10t-50.5 -24l-12 7v285h302v-109h-194v-61q12 4 27.5 6.5t32.5 2.5q81 0 131 -40t50 -118q0 -75 -52 -120.5t-145 -45.5z" />
<glyph horiz-adv-x="477" d="M267 58h-234v98l347 329h10v-331h62v-96h-62v-58h-123v58zM155 150q23 2 41.5 3t29.5 1h41v44q0 11 1.5 32.5t2.5 32.5q-12 -16 -23 -29t-24 -25l-18 -17q-10 -9 -25 -21.5t-26 -20.5z" />
<glyph horiz-adv-x="433" d="M207 -8q-77 0 -125 31t-71 86l111 51q10 -25 30.5 -40t53.5 -15q30 0 49 17t19 46q-2 64 -72 64q-24 0 -39.5 -2.5t-27.5 -6.5l-7 13l65 93q7 9 17 20t23 25q-17 -2 -34 -3.5t-27 -1.5h-110v108h342v-11l-83 -118q-7 -10 -17 -20t-21 -17q25 -5 47 -17t38.5 -31t26 -45 t9.5 -57q0 -42 -16.5 -74t-43.5 -53t-62.5 -31.5t-74.5 -10.5z" />
<glyph horiz-adv-x="445" d="M13 13l208 212q32 33 42.5 55t10.5 43q0 22 -15.5 35.5t-41.5 13.5q-54 0 -82 -65l-114 40q24 65 73.5 102t123.5 37q43 0 77 -11.5t58 -33t36.5 -51t12.5 -65.5q0 -38 -20.5 -75.5t-57.5 -75.5l-24 -25q-8 -8 -23.5 -20t-36.5 -24q19 2 40 3.5t32 1.5h87v-109h-386v12z " />
<glyph horiz-adv-x="313" d="M124 364h-99v113h226v-477h-127v364z" />
<glyph horiz-adv-x="454" d="M173 296q11 14 22.5 25.5t21.5 19.5q12 9 22 16q-7 -2 -17 -3.5t-18 -1.5q-38 0 -70.5 11.5t-56.5 32.5t-37.5 50.5t-13.5 66.5q0 36 14 67.5t40 55.5t63 38t83 14q44 0 80.5 -13.5t62.5 -36.5t40.5 -53.5t14.5 -65.5q0 -36 -13.5 -70.5t-42.5 -72.5l-129 -173h-138z M225 444q35 0 54 21.5t19 48.5t-19 48.5t-54 21.5t-54 -21.5t-19 -48.5t19 -48.5t54 -21.5z" />
<glyph horiz-adv-x="448" d="M224 195q-41 0 -77 11t-62 30.5t-41 47.5t-15 62q0 41 23.5 70.5t64.5 46.5q-59 33 -59 94q0 27 11 51t32 42t52 28t71 10q41 0 72 -10t51.5 -28t31 -42t10.5 -51q0 -30 -14 -54t-43 -40q40 -17 63 -46.5t23 -70.5q0 -34 -14.5 -62t-40.5 -47.5t-61.5 -30.5t-77.5 -11z M224 299q31 0 50.5 16t19.5 43q0 29 -19.5 45.5t-50.5 16.5q-32 0 -51.5 -16.5t-19.5 -45.5q0 -27 19.5 -43t51.5 -16zM226 505q21 0 34.5 12.5t13.5 33.5q0 22 -15 33.5t-36 11.5q-22 0 -35.5 -11.5t-13.5 -33.5q0 -21 15 -33.5t37 -12.5z" />
<glyph horiz-adv-x="435" d="M244 567h-213v113h390v-11l-222 -466h-130z" />
<glyph horiz-adv-x="454" d="M228 195q-44 0 -80.5 13.5t-62.5 36.5t-40.5 53.5t-14.5 65.5q0 36 14 69.5t41 71.5l125 175h139l-65 -92q-12 -17 -31.5 -34.5t-37.5 -27.5q8 2 17.5 3.5t17.5 1.5q38 0 70.5 -11.5t56.5 -32.5t37.5 -50.5t13.5 -66.5q0 -36 -14 -67.5t-40 -55.5t-63 -38t-83 -14z M229 299q35 0 54 21t19 49t-19 49t-54 21t-54 -21t-19 -49t19 -49t54 -21z" />
<glyph horiz-adv-x="448" d="M216 195q-148 0 -204 113l106 55q11 -23 32.5 -38t56.5 -15q33 0 54 14t21 39q0 29 -24 44t-62 15q-43 0 -69.5 -10t-50.5 -24l-12 7v285h302v-109h-194v-61q12 4 27.5 6.5t32.5 2.5q81 0 131 -40t50 -118q0 -75 -52 -120.5t-145 -45.5z" />
<glyph horiz-adv-x="477" d="M267 261h-234v98l347 329h10v-331h62v-96h-62v-58h-123v58zM155 353q23 2 41.5 3t29.5 1h41v44q0 11 1.5 32.5t2.5 32.5q-12 -16 -23 -29t-24 -25l-18 -17q-10 -9 -25 -21.5t-26 -20.5z" />
<glyph horiz-adv-x="433" d="M207 195q-77 0 -125 31t-71 86l111 51q10 -25 30.5 -40t53.5 -15q30 0 49 17t19 46q-2 64 -72 64q-24 0 -39.5 -2.5t-27.5 -6.5l-7 13l65 93q7 9 17 20t23 25q-17 -2 -34 -3.5t-27 -1.5h-110v108h342v-11l-83 -118q-7 -10 -17 -20t-21 -17q25 -5 47 -17t38.5 -31t26 -45 t9.5 -57q0 -42 -16.5 -74t-43.5 -53t-62.5 -31.5t-74.5 -10.5z" />
<glyph horiz-adv-x="445" d="M13 215l208 212q32 33 42.5 55t10.5 43q0 22 -15.5 35.5t-41.5 13.5q-54 0 -82 -65l-114 40q24 65 73.5 102t123.5 37q43 0 77 -11.5t58 -33t36.5 -51t12.5 -65.5q0 -38 -20.5 -75.5t-57.5 -75.5l-24 -25q-8 -8 -23.5 -20t-36.5 -24q19 2 40 3.5t32 1.5h87v-109h-386v12z " />
<glyph horiz-adv-x="313" d="M124 567h-99v113h226v-477h-127v364z" />
<glyph horiz-adv-x="520" d="M497 101v-101h-66v-94h-134v94h-275v89l395 439h14v-427h66zM301 195q0 8 1.5 26.5t3.5 35.5q-8 -14 -16.5 -25.5t-15.5 -19.5l-72 -80q-8 -9 -18.5 -18.5t-24.5 -19.5q11 1 26 2t26 1h90v98z" />
<glyph d="M64 751q5 71 39.5 105.5t83.5 34.5q23 0 40 -5.5t33 -15t29 -17t27 -7.5q15 0 22 11t10 34l96 -9q-5 -71 -39 -105.5t-84 -34.5q-22 0 -41.5 5.5t-35.5 15t-28 17t-24 7.5q-26 0 -32 -45z" />
<glyph horiz-adv-x="265" d="M105 59h-84v96h192v-405h-108v309z" />
<glyph horiz-adv-x="1160" d="M181 322q-34 0 -63.5 13.5t-51.5 37.5t-35 57.5t-13 74.5t13 75t35 58t51.5 37t63.5 13t63.5 -13t51.5 -37t35 -58t13 -75t-13 -74.5t-35 -57.5t-51.5 -37.5t-63.5 -13.5zM548 680h131l-428 -680h-131zM979 -9q-34 0 -63.5 13.5t-51.5 37.5t-35 57.5t-13 74.5t13 75 t35 58t51.5 37t63.5 13t63.5 -13t51.5 -37t35 -58t13 -75t-13 -74.5t-35 -57.5t-51.5 -37.5t-63.5 -13.5zM619 -9q-34 0 -63.5 13.5t-51.5 37.5t-35 57.5t-13 74.5t13 75t35 58t51.5 37t63.5 13t63.5 -13t51.5 -37t35 -58t13 -75t-13 -74.5t-35 -57.5t-51.5 -37.5 t-63.5 -13.5zM181 424q26 0 38 23t12 58q0 36 -12 58.5t-38 22.5t-38 -22.5t-12 -58.5q0 -35 12 -58t38 -23zM979 93q26 0 38 23t12 58q0 36 -12 58.5t-38 22.5t-38 -22.5t-12 -58.5q0 -35 12 -58t38 -23zM619 93q26 0 38 23t12 58q0 36 -12 58.5t-38 22.5t-38 -22.5 t-12 -58.5q0 -35 12 -58t38 -23z" />
<glyph horiz-adv-x="580" d="M290 421q-35 0 -59.5 23.5t-24.5 61.5q0 37 24.5 60.5t59.5 23.5q34 0 59 -23.5t25 -60.5q0 -38 -25 -61.5t-59 -23.5zM83 375h413v-118h-413v118zM290 42q-35 0 -59.5 23.5t-24.5 61.5q0 37 24.5 60.5t59.5 23.5q34 0 59 -23.5t25 -60.5q0 -38 -25 -61.5t-59 -23.5z" />
<glyph horiz-adv-x="580" d="M98 216v108h98l22 187q10 88 55.5 132.5t120.5 44.5q103 0 152 -81l-90 -69q-9 16 -21.5 26t-33.5 10q-18 0 -32.5 -12.5t-18.5 -47.5l-22 -190h125v-108h-137l-49 -428h-132l49 428h-86z" />
<glyph horiz-adv-x="580" d="M274 -180q-84 0 -142.5 33.5t-89.5 78.5l106 76q20 -29 49 -47.5t70 -18.5q40 0 57.5 12t17.5 29t-14.5 29t-53.5 31l-111 52q-66 31 -98 68.5t-32 93.5q0 30 8.5 52t22 37.5t31.5 25.5t37 17q-20 24 -31 53t-11 64q0 37 13.5 70t39.5 58t63.5 39.5t86.5 14.5 q74 0 118.5 -29t73.5 -72l-110 -74q-21 32 -40 43t-42 11q-29 0 -43.5 -16.5t-14.5 -36.5t10.5 -35t42.5 -30l111 -51q75 -35 109 -75.5t34 -100.5q0 -51 -26 -82t-69 -50q40 -47 40 -110q0 -73 -56 -116.5t-157 -43.5zM372 151q35 17 35 50q0 27 -17 40.5t-49 28.5l-111 51 l-24 12q-15 -6 -26.5 -17.5t-11.5 -31.5q0 -23 13 -35t39 -24l111 -52q11 -5 21.5 -10.5t19.5 -11.5z" />
<glyph horiz-adv-x="580" d="M69 273v96h58q-11 26 -18.5 54.5t-7.5 59.5q0 45 15 82.5t43.5 65t69.5 42.5t92 15q78 0 124.5 -32.5t71.5 -85.5l-112 -59q-15 32 -33.5 45t-50.5 13q-34 0 -56 -20.5t-22 -65.5q0 -29 7.5 -57t18.5 -57h176v-96h-143q6 -21 9.5 -43t3.5 -45q0 -13 -1.5 -25t-3.5 -24 q19 -12 39 -20t43 -8q29 0 52.5 14.5t39.5 33.5l86 -81q-34 -42 -74 -63t-96 -21q-44 0 -76.5 16t-58.5 39q-23 -26 -56 -40.5t-73 -14.5q-25 0 -48 8t-40.5 23t-28 36t-10.5 46q0 51 34.5 83t88.5 32q32 0 62 -11q-3 16 -8.5 32t-13.5 33h-103zM189 117q-12 10 -24 15.5 t-26 5.5q-17 0 -27 -9t-10 -23t10.5 -23t25.5 -9q38 0 51 43z" />
<glyph horiz-adv-x="580" d="M278 -7q-43 6 -79.5 24.5t-63 47t-41.5 66.5t-15 83q0 44 15 82t41 66.5t62.5 47t80.5 23.5v108h67v-108q50 -5 85.5 -26t64.5 -57l-94 -76q-8 14 -22.5 25t-33.5 16v-207q20 5 33 15t26 23l89 -78q-28 -32 -63 -51t-85 -24v-109h-67v109zM278 315q-30 -10 -47 -36.5 t-17 -64.5q0 -39 17 -66.5t47 -38.5v206z" />
<glyph horiz-adv-x="400" d="M200 393q-32 0 -60.5 11.5t-50 31.5t-34 47t-12.5 58t12.5 58t34 47t50 31t60.5 11t60.5 -11t50 -31t34 -47t12.5 -58t-12.5 -58t-34 -47t-50 -31.5t-60.5 -11.5zM200 480q26 0 42.5 17t16.5 44t-16.5 43.5t-42.5 16.5t-42.5 -16.5t-16.5 -43.5t16.5 -44t42.5 -17z" />
<glyph horiz-adv-x="300" d="M21 -14h102v622h-102v114h237v-850h-237v114z" />
<glyph horiz-adv-x="300" d="M41 722h237v-114h-102v-622h102v-114h-237v850z" />
<glyph horiz-adv-x="580" d="M109 224l181 89l-181 89v117l388 -200v-10l-388 -202v117z" />
<glyph horiz-adv-x="580" d="M83 461h413v-115h-413v115zM83 286h413v-115h-413v115z" />
<glyph horiz-adv-x="580" d="M83 309v10l388 200v-117l-181 -89l181 -89v-117z" />
<glyph horiz-adv-x="200" d="M100 224q-35 0 -60 23.5t-25 61.5q0 37 25 60.5t60 23.5q34 0 59 -23.5t25 -60.5q0 -38 -25 -61.5t-59 -23.5zM65 5q-23 11 -36.5 30t-13.5 46q0 18 7 33t18.5 26t27 17t32.5 6q34 0 59 -23.5t25 -60.5q0 -25 -9.5 -45t-20.5 -40l-59 -109h-68z" />
<glyph horiz-adv-x="200" d="M100 224q-35 0 -60 23.5t-25 61.5q0 37 25 60.5t60 23.5q34 0 59 -23.5t25 -60.5q0 -38 -25 -61.5t-59 -23.5zM100 -6q-35 0 -60 23.5t-25 61.5q0 37 25 60.5t60 23.5q34 0 59 -23.5t25 -60.5q0 -38 -25 -61.5t-59 -23.5z" />
<glyph horiz-adv-x="580" d="M254 173q9 13 27 33.5t35 35.5q-13 -6 -29 -9t-26 -3q-48 0 -88.5 16t-70 45.5t-46 70t-16.5 90.5q0 49 17.5 92t50 75t79 50.5t103.5 18.5q56 0 102 -18t79 -49.5t51 -73t18 -89.5t-16 -94t-47 -91l-189 -273h-155zM290 338q52 0 79.5 33t27.5 81q0 45 -27.5 78.5 t-79.5 33.5t-79.5 -33.5t-27.5 -78.5q0 -23 7 -43.5t20.5 -36.5t33.5 -25t46 -9z" />
<glyph horiz-adv-x="580" d="M291 -9q-59 0 -106 16.5t-80 45.5t-50.5 69t-17.5 87q0 58 30 101t87 66q-32 21 -51.5 54t-19.5 78q0 39 17 72t45.5 57t67 37.5t80.5 13.5t80.5 -13.5t67 -37.5t45.5 -57t17 -72q0 -46 -20 -79t-53 -54q55 -24 84.5 -66.5t29.5 -99.5q0 -47 -17.5 -87t-50.5 -69 t-80 -45.5t-105 -16.5zM291 115q51 0 81 28t30 73t-30 72.5t-81 27.5t-81 -27.5t-30 -72.5t30 -73t81 -28zM293 424q32 0 53 20.5t21 50.5q0 32 -21 51t-53 19t-53 -19t-21 -51q0 -30 21 -50.5t53 -20.5z" />
<glyph horiz-adv-x="580" d="M349 555h-302v125h499v-12l-290 -668h-149z" />
<glyph horiz-adv-x="580" d="M290 -9q-56 0 -102 18t-79 49.5t-51 73t-18 89.5t15.5 94t44.5 89l184 276h158l-114 -174q-17 -25 -35 -42.5t-29 -26.5q13 6 28.5 9t25.5 3q48 0 88.5 -16t70 -45.5t46.5 -70.5t17 -90t-17.5 -92t-50 -75t-79 -50.5t-103.5 -18.5zM290 115q26 0 46 9t34 24.5t21 35.5 t7 43t-7 43.5t-21 36.5t-34 25t-46 9q-52 0 -80 -33t-28 -81q0 -23 7 -43t21 -35.5t34 -24.5t46 -9z" />
<glyph horiz-adv-x="580" d="M274 -9q-45 0 -84.5 11.5t-71.5 31t-55.5 46.5t-38.5 59l120 62q16 -34 45.5 -59.5t84.5 -25.5q51 0 81.5 30.5t30.5 85.5t-36.5 84t-89.5 29q-28 0 -50 -5t-40.5 -13.5t-34 -19.5t-29.5 -23l-12 5v391h381v-123h-259v-111q14 7 35.5 11.5t47.5 4.5q53 0 96 -16.5 t73.5 -46.5t47 -72t16.5 -93q0 -58 -19 -103.5t-53.5 -76.5t-82 -47t-103.5 -16z" />
<glyph horiz-adv-x="580" d="M559 214v-115h-83v-99h-139v99h-308v102l435 493h12v-480h83zM337 328q0 15 2.5 36t4.5 32q-9 -15 -21 -31.5t-20 -24.5l-74 -82q-10 -11 -28 -27.5t-26 -22.5q13 2 34.5 4t39.5 2h88v114z" />
<glyph horiz-adv-x="580" d="M282 -9q-47 0 -89.5 12t-78 33t-62 50.5t-41.5 64.5l120 62q9 -18 22 -35t30.5 -30.5t40.5 -21.5t52 -8q55 0 88 32t33 83t-33.5 85t-99.5 34q-36 0 -60 -6t-38 -11l-7 11l131 175q5 7 15 18t19 21q-11 -1 -28 -2t-26 -1h-196v123h462v-12l-126 -170q-9 -12 -17 -21.5 t-27 -27.5q36 -8 68 -27t55.5 -47t37 -65.5t13.5 -83.5q0 -57 -20 -101t-55 -74t-82 -45t-101 -15z" />
<glyph horiz-adv-x="580" d="M8 12l280 292q27 28 45 51t29 43t15.5 37.5t4.5 34.5q0 36 -22 62.5t-69 26.5q-46 0 -76 -30.5t-45 -81.5l-142 28q10 46 32.5 85t55.5 67.5t77.5 44.5t98.5 16t97 -16t73.5 -45t46.5 -69t16 -87q0 -57 -27 -109.5t-87 -115.5l-84 -88q-8 -8 -21 -18.5t-27 -20.5 q20 2 33 3t23 1h186v-123h-513v12z" />
<glyph horiz-adv-x="580" d="M260 555h-162v125h303v-680h-141v555z" />
<glyph horiz-adv-x="200" d="M100 -6q-35 0 -60 23.5t-25 61.5q0 37 25 60.5t60 23.5q34 0 59 -23.5t25 -60.5q0 -38 -25 -61.5t-59 -23.5z" />
<glyph horiz-adv-x="200" d="M65 5q-23 11 -36.5 30t-13.5 46q0 18 7 33t18.5 26t27 17t32.5 6q34 0 59 -23.5t25 -60.5q0 -25 -9.5 -45t-20.5 -40l-59 -109h-68z" />
<glyph horiz-adv-x="580" d="M350 107h-121v150h-146v118h146v150h121v-150h146v-118h-146v-150z" />
<glyph horiz-adv-x="300" d="M7 -72q30 36 53.5 75t40 83t25.5 94.5t9 110.5q0 59 -9 109.5t-25.5 95t-40 83.5t-53.5 75l81 65q33 -32 66.5 -73.5t61 -94t44.5 -117.5t17 -143t-17 -142.5t-44.5 -117.5t-61 -94.5t-66.5 -73.5z" />
<glyph horiz-adv-x="300" d="M212 -137q-33 32 -66.5 73.5t-61 94t-44.5 117.5t-17 143t17 142.5t44.5 117.5t61 94.5t66.5 73.5l81 -65q-30 -36 -54 -75t-40.5 -83t-25 -94.5t-8.5 -110.5q0 -59 8.5 -109.5t25 -95t40.5 -83.5t54 -75l-81 -65v0z" />
<glyph horiz-adv-x="870" d="M198 322q-36 0 -67.5 13.5t-55.5 38t-38 58t-14 73.5t14 74t38 58t55.5 37.5t67.5 13.5t67.5 -13.5t55.5 -37.5t38 -58t14 -74t-14 -73.5t-38 -58t-55.5 -38t-67.5 -13.5zM198 426q28 0 43.5 22.5t15.5 56.5q0 35 -15.5 57t-43.5 22t-43.5 -22t-15.5 -57 q0 -34 15.5 -56.5t43.5 -22.5zM672 358q36 0 67.5 -13.5t55.5 -38t38 -58t14 -73.5q0 -41 -14 -74.5t-38 -57.5t-55.5 -37.5t-67.5 -13.5t-67.5 13.5t-55.5 37.5t-38 57.5t-14 74.5q0 40 14 73.5t38 58t55.5 38t67.5 13.5zM672 254q-28 0 -43.5 -22.5t-15.5 -56.5 q0 -35 15.5 -57t43.5 -22t43.5 22t15.5 57q0 34 -15.5 56.5t-43.5 22.5zM570 680h134l-402 -680h-134z" />
<glyph horiz-adv-x="580" d="M256 -8q-80 6 -137.5 43.5t-89.5 96.5l113 65q22 -36 47 -58t67 -27v172q-45 16 -81 35.5t-61 46t-38.5 60t-13.5 77.5q0 37 13.5 69t39 56.5t61.5 40t80 18.5v86h67v-88q57 -7 100 -33t73 -77l-108 -69q-13 23 -29 36.5t-36 20.5v-155q46 -17 83.5 -36.5t64 -45.5 t41 -59t14.5 -77q0 -48 -15.5 -83t-42.5 -59t-64.5 -37.5t-80.5 -17.5v-109h-67v108zM256 567q-26 -4 -41 -21.5t-15 -37.5q0 -30 13 -46.5t43 -29.5v135zM323 116q30 8 46.5 25.5t16.5 43.5q0 29 -17.5 46t-45.5 29v-144z" />
<glyph horiz-adv-x="580" d="M116 303h-54v102h79l19 75h-54v102h79l25 97h105l-25 -97h75l25 97h105l-24 -97h53v-102h-78l-19 -75h53v-102h-79l-25 -101h-105l25 101h-75l-25 -101h-105zM322 405l19 75h-75l-19 -75h75z" />
<glyph horiz-adv-x="200" />
<glyph horiz-adv-x="580" d="M185 116l-82 82l105 105l-105 105l82 82l105 -105l105 105l82 -82l-105 -105l105 -105l-82 -82l-105 105z" />
<glyph horiz-adv-x="580" d="M83 375h413v-118h-413v118z" />
<glyph horiz-adv-x="1125" d="M169 217q-32 0 -59.5 11.5t-48 32.5t-32 49.5t-11.5 63.5q0 34 11.5 63t32 50t48 32.5t59.5 11.5t59.5 -11.5t48 -32.5t32 -50t11.5 -63q0 -35 -11.5 -63.5t-32 -49.5t-48 -32.5t-59.5 -11.5zM490 522h133l-330 -522h-133zM956 -9q-32 0 -59.5 11.5t-48 32.5t-32 49.5 t-11.5 63.5q0 34 11.5 63t32 50t48 32.5t59.5 11.5t59.5 -11.5t48 -32.5t32 -50t11.5 -63q0 -35 -11.5 -63.5t-32 -49.5t-48 -32.5t-59.5 -11.5zM615 -9q-32 0 -59.5 11.5t-48 32.5t-32 49.5t-11.5 63.5q0 34 11.5 63t32 50t48 32.5t59.5 11.5t59.5 -11.5t48 -32.5t32 -50 t11.5 -63q0 -35 -11.5 -63.5t-32 -49.5t-48 -32.5t-59.5 -11.5zM169 315q20 0 32 16t12 43t-12 43t-32 16t-32 -16t-12 -43t12 -43t32 -16zM956 89q20 0 32 16t12 43t-12 43t-32 16t-31.5 -16t-11.5 -43t11.5 -43t31.5 -16zM615 89q20 0 32 16t12 43t-12 43t-32 16t-32 -16 t-12 -43t12 -43t32 -16z" />
<glyph d="M250 360q-33 0 -57 23t-24 58t24 57.5t57 22.5q32 0 56 -22.5t24 -57.5t-24 -58t-56 -23zM63 325h373v-118h-373v118zM250 11q-33 0 -57 23t-24 58t24 57.5t57 22.5q32 0 56 -22.5t24 -57.5t-24 -58t-56 -23z" />
<glyph d="M60 186v103h88l8 65q10 88 55.5 132.5t120.5 44.5q103 0 152 -81l-90 -69q-9 16 -21.5 26t-33.5 10q-18 0 -32.5 -12.5t-18.5 -47.5l-8 -68h115v-103h-127l-31 -280h-132l32 280h-77z" />
<glyph d="M134 288q-37 38 -37 102q0 29 11 55t31.5 45t50.5 30t69 11q61 0 97 -23.5t56 -52.5l-100 -65q-8 13 -20 21t-27 8q-16 0 -24 -7t-8 -18q0 -13 7.5 -19.5t21.5 -12.5l89 -40q47 -21 76 -50.5t29 -76.5q0 -41 -24.5 -67.5t-60.5 -42.5q17 -20 27 -43.5t10 -49.5 q0 -66 -45.5 -102.5t-129.5 -36.5q-63 0 -113.5 27t-74.5 68l103 67q10 -19 30.5 -34t43.5 -15q27 0 36 7.5t9 16.5q0 10 -7.5 16.5t-18.5 11.5l-103 46q-45 20 -69.5 48t-24.5 69q0 24 8.5 42t21.5 30.5t29 21t31 13.5zM303 134q14 5 21 12t7 19q0 17 -10.5 24.5 t-24.5 13.5l-99 44q-12 -2 -20.5 -10t-8.5 -20q0 -14 6.5 -21t19.5 -13z" />
<glyph d="M59 213v88h48q-7 17 -11 35t-4 38q0 34 12 62.5t35.5 49.5t58.5 33t80 12q39 0 69 -8t52 -21t37 -31t25 -37l-108 -65q-23 46 -68 46q-50 0 -50 -53q0 -14 4.5 -29t10.5 -32h134v-88h-101q8 -30 8 -61q0 -7 -0.5 -14t-1.5 -14q14 -5 29 -8.5t31 -3.5q22 0 35 7t27 22 l81 -87q-28 -34 -58 -48.5t-75 -14.5q-36 0 -64 13t-52 31q-21 -20 -49 -32t-63 -12q-51 0 -82.5 27t-31.5 69t27 69t73 27q14 0 26 -2t24 -5q-6 18 -15 37h-93zM168 96q-20 14 -40 14q-27 0 -27 -20q0 -10 7 -18t20 -8q28 0 40 32z" />
<glyph d="M250 -7q-40 5 -74 22t-58.5 42.5t-38.5 59.5t-14 74t14 74.5t38.5 60.5t58.5 42.5t74 21.5v100h67v-100q48 -6 81 -26t53 -47l-87 -75q-9 14 -20 22.5t-27 13.5v-174q19 5 31 13.5t22 19.5l84 -77q-24 -26 -56.5 -44t-80.5 -23v-109h-67v109zM250 276q-24 -9 -38 -31 t-14 -54q0 -65 52 -84v169z" />
<glyph horiz-adv-x="332" d="M166 268q-29 0 -54 10.5t-44.5 28.5t-30.5 42t-11 51q0 28 11 52t30.5 41.5t44.5 27.5t54 10t54.5 -10t44.5 -27.5t30 -41.5t11 -52q0 -27 -11 -51t-30 -42t-44.5 -28.5t-54.5 -10.5zM166 348q22 0 36 14.5t14 37.5t-14 37t-36 14t-36 -14t-14 -37t14 -37.5t36 -14.5z " />
<glyph horiz-adv-x="300" d="M21 52h102v566h-102v114h237v-794h-237v114z" />
<glyph horiz-adv-x="300" d="M41 732h237v-114h-102v-566h102v-114h-237v794z" />
<glyph d="M96 169l147 74l-147 74v117l338 -187v-10l-338 -185v117z" />
<glyph d="M62 410h373v-115h-373v115zM62 235h373v-115h-373v115z" />
<glyph d="M66 239v10l338 185v-117l-147 -74l147 -74v-117z" />
<glyph horiz-adv-x="200" d="M100 224q-35 0 -60 23.5t-25 61.5q0 37 25 60.5t60 23.5q34 0 59 -23.5t25 -60.5q0 -38 -25 -61.5t-59 -23.5zM65 5q-23 11 -36.5 30t-13.5 46q0 18 7 33t18.5 26t27 17t32.5 6q34 0 59 -23.5t25 -60.5q0 -25 -9.5 -45t-20.5 -40l-59 -109h-68z" />
<glyph horiz-adv-x="200" d="M100 224q-35 0 -60 23.5t-25 61.5q0 37 25 60.5t60 23.5q34 0 59 -23.5t25 -60.5q0 -38 -25 -61.5t-59 -23.5zM100 -6q-35 0 -60 23.5t-25 61.5q0 37 25 60.5t60 23.5q34 0 59 -23.5t25 -60.5q0 -38 -25 -61.5t-59 -23.5z" />
<glyph d="M197 107q12 16 27 31t31 28q-7 -2 -16.5 -3.5t-16.5 -1.5q-38 0 -72 12.5t-59.5 36t-40.5 56t-15 73.5q0 39 15.5 74t44 61.5t68.5 41.5t88 15q47 0 86 -15t67.5 -41.5t44 -61.5t15.5 -75q0 -39 -16 -78t-44 -76l-139 -184h-151zM252 262q37 0 57 22t20 53q0 28 -20 51.5 t-57 23.5q-41 0 -59.5 -23.5t-18.5 -51.5q0 -30 18 -52.5t60 -22.5z" />
<glyph d="M250 -9q-45 0 -84.5 12t-68 33.5t-45 52t-16.5 67.5q0 45 24.5 77t68.5 51q-64 35 -64 102q0 30 12 56.5t35 46t58 31t80 11.5q46 0 80.5 -11.5t57.5 -31t34.5 -46t11.5 -56.5q0 -68 -63 -102q43 -19 67 -51t24 -77q0 -37 -16 -67.5t-44.5 -52t-67 -33.5t-84.5 -12z M250 107q34 0 55 17t21 47q0 32 -21 50t-55 18q-35 0 -56.5 -18t-21.5 -50q0 -30 21.5 -47t56.5 -17zM252 330q23 0 38 13.5t15 36.5q0 24 -16.5 36.5t-39.5 12.5q-24 0 -39.5 -12.5t-15.5 -36.5q0 -23 17 -36.5t41 -13.5z" />
<glyph d="M271 404h-231v118h427v-11l-245 -511h-146z" />
<glyph d="M249 -9q-47 0 -86 15t-67.5 41.5t-44 61.5t-15.5 75q0 39 14 73t41 75l129 190h153l-74 -107q-18 -24 -32.5 -37.5t-24.5 -21.5q8 2 18.5 3.5t17.5 1.5q38 0 72 -12.5t59 -36t39.5 -56.5t14.5 -73q0 -39 -15.5 -74t-43.5 -61.5t-67.5 -41.5t-87.5 -15zM248 110 q40 0 58 23.5t18 51.5q0 30 -17 52.5t-59 22.5q-37 0 -57 -22t-20 -53q0 -28 20 -51.5t57 -23.5z" />
<glyph d="M246 -9q-43 0 -77.5 10.5t-61.5 28t-46 38.5t-30 42l113 62q14 -25 37 -42.5t58 -17.5q33 0 54.5 18t21.5 47q0 32 -24.5 50.5t-72.5 18.5q-39 0 -73.5 -12t-57.5 -25l-8 4v309h329v-117h-214v-61q11 5 27 7t30 2q97 0 150 -49.5t53 -129.5q0 -42 -15 -75.5t-42 -57.5 t-65.5 -37t-85.5 -13z" />
<glyph d="M465 172v-107h-64v-65h-130v65h-244v105l363 357h11v-355h64zM277 225q0 11 1.5 29.5t3.5 33.5q-9 -12 -21.5 -26t-20.5 -22l-46 -43q-8 -8 -22 -18t-27 -18q15 2 32 3.5t28 1.5h72v59z" />
<glyph d="M249 -9q-84 0 -140 36.5t-81 95.5l116 54q13 -29 35.5 -47t64.5 -18q36 0 57 20t21 50t-22 52t-67 22q-26 0 -46 -4.5t-31 -9.5l-6 9l73 108q5 7 16 19.5t32 32.5q-21 -3 -43.5 -5t-34.5 -2h-120v118h384v-11l-84 -123q-8 -12 -20 -24t-26 -21q28 -6 52.5 -20t43 -35.5 t29 -50.5t10.5 -64q0 -46 -17.5 -80t-47 -56.5t-68 -34t-80.5 -11.5z" />
<glyph d="M22 11l212 220q37 38 54 66.5t17 55.5q0 24 -15.5 39.5t-44.5 15.5q-55 0 -85 -75l-123 34q20 77 75.5 120.5t137.5 43.5q44 0 80 -12.5t61.5 -35.5t39 -54.5t13.5 -69.5q0 -45 -24.5 -87.5t-68.5 -88.5l-32 -34q-6 -7 -19 -17t-28 -20q17 2 32 3t25 1h115v-116h-422v11z " />
<glyph d="M191 410h-108v112h245v-410h107v-112h-360v112h116v298z" />
<glyph horiz-adv-x="385" d="M147 354q9 12 19 21.5t18 16.5q10 8 19 14q-7 -2 -15 -3t-15 -1q-33 0 -60.5 9.5t-47.5 27.5t-31.5 43.5t-11.5 56.5q0 30 12 57t34 47.5t53.5 32t70.5 11.5q37 0 68 -11t53.5 -30.5t34.5 -45.5t12 -56q0 -31 -11 -60.5t-36 -61.5l-110 -147h-117zM191 480q30 0 46 18 t16 41t-16 41.5t-46 18.5t-46 -18.5t-16 -41.5t16 -41t46 -18z" />
<glyph horiz-adv-x="379" d="M191 268q-35 0 -65.5 9t-53 26t-35 40.5t-12.5 52.5q0 35 20 61t54 40q-49 28 -49 79q0 47 36 79t105 32q70 0 105 -32t35 -79q0 -52 -48 -80q34 -14 53.5 -39.5t19.5 -60.5q0 -29 -12.5 -52.5t-34.5 -40.5t-52 -26t-66 -9zM191 356q26 0 42.5 13.5t16.5 36.5 q0 26 -16.5 39.5t-42.5 13.5q-28 0 -44.5 -13.5t-16.5 -39.5q0 -23 16.5 -36.5t44.5 -13.5zM192 531q18 0 29.5 11t11.5 29t-12.5 28t-30.5 10q-19 0 -30.5 -10t-11.5 -28t13 -29t31 -11z" />
<glyph horiz-adv-x="369" d="M207 584h-181v96h332v-9l-189 -396h-110z" />
<glyph horiz-adv-x="385" d="M193 268q-38 0 -68.5 11.5t-53 31t-34.5 45.5t-12 56q0 31 11.5 59.5t34.5 60.5l107 148h118l-56 -78q-9 -12 -19 -21.5t-19 -16.5q-11 -8 -20 -14q7 2 15 3t15 1q33 0 60.5 -9.5t47.5 -27.5t31.5 -43.5t11.5 -56.5q0 -30 -12 -57.5t-34 -47.5t-53.5 -32t-70.5 -12z M194 357q30 0 46 18t16 41t-16 41.5t-46 18.5t-46 -18.5t-16 -41.5t16 -41t46 -18z" />
<glyph horiz-adv-x="380" d="M184 268q-127 0 -174 96l90 47q9 -20 27.5 -32.5t48.5 -12.5q28 0 46 12t18 33q0 25 -20.5 37.5t-52.5 12.5q-36 0 -59 -8.5t-43 -20.5l-11 6v242h257v-92h-165v-52q11 3 23.5 5.5t27.5 2.5q69 0 111.5 -34.5t42.5 -100.5q0 -63 -44 -102t-123 -39z" />
<glyph horiz-adv-x="405" d="M227 324h-199v84l295 279h9v-281h52v-82h-52v-49h-105v49zM132 403q9 0 20 1q9 1 19.5 1.5t20.5 0.5h35v37v19t1 18q1 10 2 19q-6 -9 -13 -17q-6 -7 -13 -15t-14 -14l-15 -15q-8 -8 -15.5 -14t-13.5 -11z" />
<glyph horiz-adv-x="367" d="M176 268q-66 0 -106.5 26.5t-60.5 73.5l95 43q8 -20 24.5 -33.5t46.5 -13.5q26 0 42 14.5t16 39.5q0 54 -61 54q-21 0 -34 -2t-23 -5l-6 11l55 79q2 3 8 9.5t12 12.5q7 7 14 16q-11 -1 -21 -2q-8 -1 -17 -1.5t-14 -0.5h-93v91h290v-9l-70 -100q-6 -8 -11.5 -14t-10.5 -10 l-10 -8q43 -8 72.5 -40.5t29.5 -86.5q0 -36 -13.5 -63t-37 -45t-53.5 -27t-63 -9z" />
<glyph horiz-adv-x="378" d="M11 285l177 180q28 28 36.5 47t8.5 37q0 19 -13.5 30t-35.5 11q-45 0 -69 -55l-97 34q20 55 62 86.5t105 31.5q73 0 115 -37.5t42 -99.5q0 -32 -17.5 -64t-49.5 -64l-20 -21q-7 -8 -15.5 -14.5t-16.5 -11.5q-10 -6 -19 -12q10 1 21 2q9 1 20 2t20 1h74v-93h-328v10z" />
<glyph horiz-adv-x="265" d="M105 584h-84v96h192v-405h-108v309z" />
<glyph horiz-adv-x="385" d="M147 -171q9 12 19 21.5t18 16.5q10 8 19 14q-7 -2 -15 -3t-15 -1q-33 0 -60.5 9.5t-47.5 27.5t-31.5 43.5t-11.5 56.5q0 30 12 57t34 47.5t53.5 32t70.5 11.5q37 0 68 -11t53.5 -30.5t34.5 -45.5t12 -56q0 -31 -11 -60.5t-36 -61.5l-110 -147h-117zM191 -45q30 0 46 18 t16 41t-16 41.5t-46 18.5t-46 -18.5t-16 -41.5t16 -41t46 -18z" />
<glyph horiz-adv-x="379" d="M191 -257q-35 0 -65.5 9t-53 26t-35 40.5t-12.5 52.5q0 35 20 61t54 40q-49 28 -49 79q0 47 36 79t105 32q70 0 105 -32t35 -79q0 -52 -48 -80q34 -14 53.5 -39.5t19.5 -60.5q0 -29 -12.5 -52.5t-34.5 -40.5t-52 -26t-66 -9zM191 -169q26 0 42.5 13.5t16.5 36.5 q0 26 -16.5 39.5t-42.5 13.5q-28 0 -44.5 -13.5t-16.5 -39.5q0 -23 16.5 -36.5t44.5 -13.5zM192 6q18 0 29.5 11t11.5 29t-12.5 28t-30.5 10q-19 0 -30.5 -10t-11.5 -28t13 -29t31 -11z" />
<glyph horiz-adv-x="369" d="M207 59h-181v96h332v-9l-189 -396h-110z" />
<glyph horiz-adv-x="385" d="M193 -257q-38 0 -68.5 11.5t-53 31t-34.5 45.5t-12 56q0 31 11.5 59.5t34.5 60.5l107 148h118l-56 -78q-9 -12 -19 -21.5t-19 -16.5q-11 -8 -20 -14q7 2 15 3t15 1q33 0 60.5 -9.5t47.5 -27.5t31.5 -43.5t11.5 -56.5q0 -30 -12 -57.5t-34 -47.5t-53.5 -32t-70.5 -12z M194 -168q30 0 46 18t16 41t-16 41.5t-46 18.5t-46 -18.5t-16 -41.5t16 -41t46 -18z" />
<glyph horiz-adv-x="380" d="M184 -257q-127 0 -174 96l90 47q9 -20 27.5 -32.5t48.5 -12.5q28 0 46 12t18 33q0 25 -20.5 37.5t-52.5 12.5q-36 0 -59 -8.5t-43 -20.5l-11 6v242h257v-92h-165v-52q11 3 23.5 5.5t27.5 2.5q69 0 111.5 -34.5t42.5 -100.5q0 -63 -44 -102t-123 -39z" />
<glyph horiz-adv-x="405" d="M227 -201h-199v84l295 279h9v-281h52v-82h-52v-49h-105v49zM132 -122q9 0 20 1q9 1 19.5 1.5t20.5 0.5h35v37v19t1 18q1 10 2 19q-6 -9 -13 -17q-6 -7 -13 -15t-14 -14l-15 -15q-8 -8 -15.5 -14t-13.5 -11z" />
<glyph horiz-adv-x="561" d="M71 680h140v-557h308v-123h-177v-39q17 -3 33 -11t28.5 -21t20 -31t7.5 -41t-9.5 -40.5t-24.5 -30.5t-34.5 -19.5t-39.5 -6.5q-47 0 -75 17t-43 43l64 39q6 -11 16 -19.5t27 -8.5q14 0 25 8.5t11 25.5t-11.5 25.5t-29.5 8.5h-34v101h-202v680z" />
<glyph horiz-adv-x="246" d="M56 722h134v-722h-33v-39q17 -3 33 -11t28.5 -21t20 -31t7.5 -41t-9.5 -40.5t-24.5 -30.5t-34.5 -19.5t-39.5 -6.5q-47 0 -75 17t-43 43l64 39q6 -11 16 -19.5t27 -8.5q14 0 25 8.5t11 25.5t-11.5 25.5t-29.5 8.5h-34v101h-32v722z" />
<glyph horiz-adv-x="701" d="M611 -240q-47 0 -75 17t-43 43l64 39q6 -11 16 -19.5t27 -8.5q14 0 25 8.5t11 25.5t-11.5 25.5t-29.5 8.5h-34v146l-288 271q-13 12 -36.5 39t-44.5 54q4 -31 7 -66.5t3 -57.5v-285h-131v686h14l343 -322q19 -18 42.5 -46.5t37.5 -46.5q-3 25 -6 63t-3 61v285h131v-719 q17 -3 33 -11t28.5 -21t20 -31t7.5 -41t-9.5 -40.5t-24.5 -30.5t-34.5 -19.5t-39.5 -6.5z" />
<glyph horiz-adv-x="530" d="M53 426h135l-3 -70q20 38 55 58.5t80 20.5q70 0 115 -49t45 -140v-246h-32v-39q17 -3 33 -11t28.5 -21t20 -31t7.5 -41t-9.5 -40.5t-24.5 -30.5t-34.5 -19.5t-39.5 -6.5q-47 0 -75 17t-43 43l64 39q6 -11 16 -19.5t27 -8.5q14 0 25 8.5t11 25.5t-11.5 25.5t-29.5 8.5h-34 v101h-34v237q0 36 -17.5 55.5t-53.5 19.5q-41 0 -63.5 -21.5t-22.5 -62.5v-228h-135v426z" />
<glyph horiz-adv-x="462" d="M56 522h136v-404h230v-118h-139v-39q17 -3 33 -11t28.5 -21t20 -31t7.5 -41t-9.5 -40.5t-24.5 -30.5t-34.5 -19.5t-39.5 -6.5q-47 0 -75 17t-43 43l64 39q6 -11 16 -19.5t27 -8.5q14 0 25 8.5t11 25.5t-11.5 25.5t-29.5 8.5h-34v101h-158v522z" />
<glyph horiz-adv-x="556" d="M481 -240q-47 0 -75 17t-43 43l64 39q6 -11 16 -19.5t27 -8.5q14 0 25 8.5t11 25.5t-11.5 25.5t-29.5 8.5h-34v143l-185 160q-15 13 -35 33.5t-40 44.5q5 -34 7.5 -64t2.5 -46v-170h-125v529h11l241 -208q15 -13 36 -34.5t39 -44.5q-3 22 -5.5 54.5t-2.5 56.5v169h125 v-561q17 -3 33 -11t28.5 -21t20 -31t7.5 -41t-9.5 -40.5t-24.5 -30.5t-34.5 -19.5t-39.5 -6.5z" />
<glyph horiz-adv-x="520" d="M317 140h-115v121h-120v112h120v121h115v-121h120v-112h-120v-121zM73 0v98h373v-98h-373z" />
<glyph horiz-adv-x="520" d="M103 216l135 60l-135 60v109l348 -163v-12l-348 -163v109zM103 0v98h343v-98h-343z" />
<glyph horiz-adv-x="520" d="M417 107l-348 163v12l348 163v-109l-135 -60l135 -60v-109zM74 0v98h343v-98h-343z" />
<glyph horiz-adv-x="520" d="M369 406h81v-115h-124l-18 -49h142v-115h-185l-28 -75h-115l28 75h-80v115h123l18 49h-141v115h184l28 75h115z" />
<glyph horiz-adv-x="520" d="M454 417q-2 -76 -38 -110.5t-85 -34.5q-22 0 -39.5 5.5t-33.5 13.5t-28 14.5t-23 6.5q-28 0 -32 -40l-109 9q3 76 38.5 110.5t85.5 34.5q22 0 39 -5.5t32.5 -13.5t28.5 -14.5t25 -6.5q26 0 30 40zM454 252q-2 -76 -38 -110.5t-85 -34.5q-21 0 -39 5.5t-34 13.5 t-27.5 14.5t-23.5 6.5q-28 0 -32 -40l-109 9q3 76 38.5 110.5t85.5 34.5q22 0 39 -5.5t32.5 -13.5t29 -14.5t24.5 -6.5q26 0 30 40z" />
<glyph horiz-adv-x="451" d="M165 271h-126v118h126v127h121v-127h126v-118h-126v-127h-121v127zM39 113h373v-113h-373v113z" />
<glyph horiz-adv-x="398" d="M37 247l147 74l-147 74v117l338 -187v-10l-338 -185v117zM37 113h333v-113h-333v113z" />
<glyph horiz-adv-x="398" d="M361 0h-333v113h333v-113zM23 317v10l338 185v-117l-147 -74l147 -74v-117z" />
<glyph horiz-adv-x="451" d="M334 461h78v-115h-120l-21 -60h141v-115h-182l-28 -78h-115l28 78h-76v115h117l21 60h-138v115h180l28 78h115z" />
<glyph horiz-adv-x="445" d="M417 467q-2 -76 -38 -110.5t-85 -34.5q-22 0 -39.5 5.5t-33.5 13.5t-28 14.5t-23 6.5q-28 0 -32 -40l-109 9q3 76 38.5 110.5t85.5 34.5q22 0 39 -5.5t32.5 -13.5t28.5 -14.5t25 -6.5q26 0 30 40zM417 302q-2 -76 -38 -110.5t-85 -34.5q-21 0 -39 5.5t-34 13.5 t-27.5 14.5t-23.5 6.5q-28 0 -32 -40l-109 9q3 76 38.5 110.5t85.5 34.5q22 0 39 -5.5t32.5 -13.5t29 -14.5t24.5 -6.5q26 0 30 40z" />
<glyph horiz-adv-x="580" d="M347 141h-115v143h-139v112h139v143h115v-143h139v-112h-139v-143zM103 113h373v-113h-373v113z" />
<glyph horiz-adv-x="580" d="M109 254l181 89l-181 89v117l388 -200v-10l-388 -202v117zM109 113h382v-113h-382v113z" />
<glyph horiz-adv-x="580" d="M89 0v113h382v-113h-382zM83 339v10l388 200v-117l-181 -89l181 -89v-117z" />
<glyph horiz-adv-x="580" d="M398 461h98v-115h-140l-21 -60h161v-115h-202l-28 -78h-115l28 78h-96v115h137l21 60h-158v115h200l28 78h115z" />
<glyph horiz-adv-x="580" d="M496 476q-2 -81 -41 -118t-93 -37q-24 0 -43 7t-36 17.5t-29.5 18t-26.5 7.5q-31 0 -35 -50l-109 9q2 81 41 118t93 37q24 0 43 -7t34 -16.5t30 -18t28 -8.5q31 0 35 50zM496 301q-2 -81 -41 -118t-93 -37q-24 0 -43 7t-36 17.5t-29.5 18t-26.5 7.5q-31 0 -35 -50l-109 9 q2 81 41 118t93 37q24 0 43 -7t34 -16.5t30 -18t28 -8.5q31 0 35 50z" />
<glyph d="M307 140h-115v121h-120v112h120v121h115v-121h120v-112h-120v-121zM63 0v98h373v-98h-373z" />
<glyph d="M93 216l135 60l-135 60v109l348 -163v-12l-348 -163v109zM93 0v98h343v-98h-343z" />
<glyph d="M406 107l-348 163v12l348 163v-109l-135 -60l135 -60v-109zM63 0v98h343v-98h-343z" />
<glyph d="M359 406h81v-115h-124l-18 -49h142v-115h-185l-28 -75h-115l28 75h-80v115h123l18 49h-141v115h184l28 75h115z" />
<glyph d="M447 417q-2 -76 -38 -110.5t-85 -34.5q-22 0 -39.5 5.5t-33.5 13.5t-28 14.5t-23 6.5q-28 0 -32 -40l-109 9q3 76 38.5 110.5t85.5 34.5q22 0 39 -5.5t32.5 -13.5t28.5 -14.5t25 -6.5q26 0 30 40zM447 252q-2 -76 -38 -110.5t-85 -34.5q-21 0 -39 5.5t-34 13.5 t-27.5 14.5t-23.5 6.5q-28 0 -32 -40l-109 9q3 76 38.5 110.5t85.5 34.5q22 0 39 -5.5t32.5 -13.5t29 -14.5t24.5 -6.5q26 0 30 40z" />
<glyph horiz-adv-x="471" d="M49 303v118h373v-228h-126v110h-247z" />
<glyph horiz-adv-x="664" d="M381 -9q-48 0 -92.5 14.5t-81.5 43.5t-65.5 71.5t-43.5 98.5h-72v96h58q-1 13 -1 24t1 24h-58v96h72q14 54 41.5 97t64 72t81.5 44.5t94 15.5q87 0 146.5 -35t98.5 -111l-121 -66q-21 45 -49 67t-76 22t-82 -27.5t-53 -78.5h196v-96h-214q-1 -12 -1 -24.5t1 -23.5h214 v-96h-195q21 -53 56.5 -79.5t80.5 -26.5q51 0 81.5 26.5t53.5 74.5l121 -62q-38 -84 -101 -122.5t-155 -38.5z" />
<glyph horiz-adv-x="659" d="M267 123h-202v96h202v30l-16 28h-186v96h134l-168 307h157l98 -187q9 -18 19 -40t18.5 -43.5t17.5 -44.5q8 22 16.5 43.5t17.5 43.5t19 41l90 187h144l-157 -307h139v-96h-188l-14 -27v-31h202v-96h-202v-123h-141v123z" />
<glyph horiz-adv-x="520" d="M21 283v86h64q27 73 86.5 117.5t139.5 44.5q67 0 113 -24t80 -72l-94 -74q-20 28 -42 42t-57 14q-58 0 -86 -48h111v-86h-133q-1 -11 -1 -21.5t1 -20.5h133v-86h-113q26 -49 88 -49q39 0 61 18t38 44l102 -64q-29 -51 -76 -82t-123 -31q-40 0 -75.5 12t-65 33.5t-52 52 t-35.5 66.5h-64v86h46q-1 10 -1 21t1 21h-46z" />
<glyph horiz-adv-x="520" d="M35 182h156v7l-25 49h-131v86h86l-103 198h150l67 -144q10 -21 17.5 -45t12.5 -50q5 25 12 48t19 47l68 144h138l-103 -198h85v-86h-130l-26 -50v-6h156v-86h-156v-96h-137v96h-156v86z" />
<glyph horiz-adv-x="580" d="M329 -9q-42 0 -82 13.5t-73.5 41.5t-59 71t-38.5 102h-62v96h51q-1 10 -1 23t1 25h-51v96h62q13 57 37.5 100t57.5 71.5t73 43t84 14.5q82 0 138.5 -37.5t88.5 -118.5l-121 -57q-19 48 -44 69.5t-64 21.5t-66 -28t-41 -79h142v-96h-155q-1 -11 -1 -24t1 -24h155v-96h-141 q15 -54 44 -80t64 -26q39 0 66 24.5t47 75.5l124 -53q-36 -92 -95 -130.5t-141 -38.5z" />
<glyph horiz-adv-x="300" d="M232 -128q-30 0 -58.5 6.5t-50.5 23t-35.5 44.5t-13.5 70v156q0 35 -14 50.5t-43 15.5h-18v114h18q29 0 43 15.5t14 50.5v160q0 42 13.5 70t35.5 44.5t50.5 23t58.5 6.5h47v-114h-35q-21 0 -27.5 -8.5t-6.5 -25.5v-173q0 -54 -26 -76.5t-67 -29.5q41 -7 67 -29.5 t26 -76.5v-169q0 -17 6.5 -25.5t27.5 -8.5h35v-114h-47v0z" />
<glyph horiz-adv-x="300" d="M21 -14h35q21 0 27.5 8.5t6.5 25.5v169q0 54 26 76.5t67 29.5q-41 7 -67 29.5t-26 76.5v173q0 17 -6.5 25.5t-27.5 8.5h-35v114h47q30 0 58.5 -6.5t50.5 -23t35.5 -44.5t13.5 -70v-160q0 -35 14 -50.5t43 -15.5h18v-114h-18q-29 0 -43 -15.5t-14 -50.5v-156 q0 -42 -13.5 -70t-35.5 -44.5t-50.5 -23t-58.5 -6.5h-47v114z" />
<glyph d="M301 -9q-81 0 -139 45.5t-82 123.5h-60v81h45v35h-45v81h57q23 80 81 127t140 47q66 0 110 -24t74 -69l-93 -71q-17 26 -37 38t-52 12t-53 -15.5t-32 -44.5h116v-81h-130v-35h130v-81h-115q11 -26 32 -40t54 -14q32 0 53.5 18t35.5 43l102 -62q-27 -49 -71.5 -81.5 t-120.5 -32.5z" />
<glyph d="M38 160h145v21l-7 14h-138v87h94l-121 240h153l60 -134q7 -17 12.5 -35t9.5 -33.5t8 -39.5q5 24 9 39.5t9.5 33t13.5 35.5l61 134h141l-119 -240h95v-87h-138l-7 -14v-21h145v-87h-145v-73h-136v73h-145v87z" />
<glyph horiz-adv-x="300" d="M232 -62q-30 0 -58.5 6.5t-50.5 23t-35.5 44.5t-13.5 70v125q0 35 -14 50.5t-43 15.5h-18v114h18q29 0 43 15.5t14 50.5v135q0 42 13.5 70t35.5 44.5t50.5 23t58.5 6.5h47v-114h-35q-21 0 -27.5 -8.5t-6.5 -25.5v-148q0 -54 -26 -76.5t-67 -29.5q41 -7 67 -29.5t26 -76.5 v-138q0 -17 6.5 -25.5t27.5 -8.5h35v-114h-47v0z" />
<glyph horiz-adv-x="300" d="M21 52h35q21 0 27.5 8.5t6.5 25.5v138q0 54 26 76.5t67 29.5q-41 7 -67 29.5t-26 76.5v148q0 17 -6.5 25.5t-27.5 8.5h-35v114h47q30 0 58.5 -6.5t50.5 -23t35.5 -44.5t13.5 -70v-135q0 -35 14 -50.5t43 -15.5h18v-114h-18q-29 0 -43 -15.5t-14 -50.5v-125 q0 -42 -13.5 -70t-35.5 -44.5t-50.5 -23t-58.5 -6.5h-47v114z" />
<glyph horiz-adv-x="580" d="M45 219h178v33l-12 25h-166v96h123l-145 307h150l85 -197q7 -17 13.5 -37.5t11 -38t11.5 -46.5q6 27 11 45t11.5 38.5t14.5 38.5l85 197h140l-144 -307h123v-96h-165l-12 -25v-33h177v-96h-177v-123h-135v123h-178v96z" />
<glyph horiz-adv-x="414" d="M299 -128q-30 0 -58.5 6.5t-50.5 23t-35.5 44.5t-13.5 70v156q0 35 -14 50.5t-43 15.5h-58v114h58q29 0 43 15.5t14 50.5v160q0 42 13.5 70t35.5 44.5t50.5 23t58.5 6.5h85v-114h-73q-21 0 -27.5 -8.5t-6.5 -25.5v-173q0 -54 -26 -76.5t-67 -29.5q41 -7 67 -29.5 t26 -76.5v-169q0 -17 6.5 -25.5t27.5 -8.5h73v-114h-85v0z" />
<glyph horiz-adv-x="414" d="M30 -14h73q21 0 27.5 8.5t6.5 25.5v169q0 54 26 76.5t67 29.5q-41 7 -67 29.5t-26 76.5v173q0 17 -6.5 25.5t-27.5 8.5h-73v114h85q30 0 58.5 -6.5t50.5 -23t35.5 -44.5t13.5 -70v-160q0 -35 14 -50.5t43 -15.5h58v-114h-58q-29 0 -43 -15.5t-14 -50.5v-156 q0 -42 -13.5 -70t-35.5 -44.5t-50.5 -23t-58.5 -6.5h-85v114z" />
<glyph horiz-adv-x="300" d="M232 -128q-30 0 -58.5 6.5t-50.5 23t-35.5 44.5t-13.5 70v156q0 35 -14 50.5t-43 15.5h-18v114h18q29 0 43 15.5t14 50.5v160q0 42 13.5 70t35.5 44.5t50.5 23t58.5 6.5h47v-114h-35q-21 0 -27.5 -8.5t-6.5 -25.5v-173q0 -54 -26 -76.5t-67 -29.5q41 -7 67 -29.5 t26 -76.5v-169q0 -17 6.5 -25.5t27.5 -8.5h35v-114h-47v0z" />
<glyph horiz-adv-x="300" d="M21 -14h35q21 0 27.5 8.5t6.5 25.5v169q0 54 26 76.5t67 29.5q-41 7 -67 29.5t-26 76.5v173q0 17 -6.5 25.5t-27.5 8.5h-35v114h47q30 0 58.5 -6.5t50.5 -23t35.5 -44.5t13.5 -70v-160q0 -35 14 -50.5t43 -15.5h18v-114h-18q-29 0 -43 -15.5t-14 -50.5v-156 q0 -42 -13.5 -70t-35.5 -44.5t-50.5 -23t-58.5 -6.5h-47v114z" />
<glyph horiz-adv-x="678" d="M339 -9q-57 0 -110.5 20.5t-95.5 63t-67.5 108.5t-25.5 157t25.5 156.5t67.5 108.5t95.5 63.5t110.5 20.5t110.5 -20.5t95.5 -63.5t67.5 -108.5t25.5 -156.5t-25.5 -157t-67.5 -108.5t-95.5 -63t-110.5 -20.5zM339 115q33 0 61 13.5t48.5 41t32 70t11.5 100.5 t-11.5 100.5t-32 70t-48.5 41t-61 13.5t-61 -13.5t-48.5 -41t-32 -70t-11.5 -100.5t11.5 -100.5t32 -70t48.5 -41t61 -13.5z" />
<glyph horiz-adv-x="520" d="M260 -9q-50 0 -92 19.5t-73.5 54.5t-49 85t-17.5 112t17.5 111.5t49 84.5t73.5 54t92 19t92.5 -19t73.5 -54t48.5 -84.5t17.5 -111.5t-17.5 -112t-48.5 -85t-73.5 -54.5t-92.5 -19.5zM260 111q43 0 66 39t23 112t-23 111t-66 38q-42 0 -65.5 -38t-23.5 -111t23.5 -112 t65.5 -39z" />
<glyph horiz-adv-x="580" d="M290 -9q-55 0 -102.5 22t-82 65.5t-54.5 109t-20 152.5t20 152.5t54.5 109t82 65.5t102.5 22t102.5 -22t82 -65.5t54.5 -109t20 -152.5t-20 -152.5t-54.5 -109t-82 -65.5t-102.5 -22zM290 115q29 0 50.5 16t35.5 45.5t20.5 71t6.5 92.5t-6.5 92.5t-20.5 71t-35.5 45.5 t-50.5 16t-50.5 -16t-35.5 -45.5t-20.5 -71t-6.5 -92.5t6.5 -92.5t20.5 -71t35.5 -45.5t50.5 -16z" />
<glyph horiz-adv-x="520" d="M260 194q-47 0 -89 17.5t-73 49.5t-49 77.5t-18 102.5t18 102.5t49 78t73 49.5t89 17t89 -17t73 -49.5t49 -78t18 -102.5t-18 -102.5t-49 -77.5t-73 -49.5t-89 -17.5zM260 306q45 0 71.5 34t26.5 101t-26.5 101t-71.5 34t-71.5 -34t-26.5 -101t26.5 -101t71.5 -34z" />
<glyph horiz-adv-x="520" d="M260 -7q-47 0 -89 17.5t-73 49.5t-49 77.5t-18 102.5t18 102.5t49 78t73 49.5t89 17t89 -17t73 -49.5t49 -78t18 -102.5t-18 -102.5t-49 -77.5t-73 -49.5t-89 -17.5zM260 105q45 0 71.5 34t26.5 101t-26.5 101t-71.5 34t-71.5 -34t-26.5 -101t26.5 -101t71.5 -34z" />
<glyph horiz-adv-x="446" d="M223 -257q-40 0 -75.5 15t-62 42t-42 66t-15.5 87t15.5 87t42 66.5t62 42t75.5 14.5t75.5 -14.5t62 -42t42 -66.5t15.5 -87t-15.5 -87t-42 -66t-62 -42t-75.5 -15zM223 -162q38 0 60.5 29t22.5 86t-22.5 86t-60.5 29t-60.5 -29t-22.5 -86t22.5 -86t60.5 -29z" />
<glyph horiz-adv-x="446" d="M223 267q-40 0 -75.5 15t-62 42t-42 66t-15.5 87t15.5 87t42 66.5t62 42t75.5 14.5t75.5 -14.5t62 -42t42 -66.5t15.5 -87t-15.5 -87t-42 -66t-62 -42t-75.5 -15zM223 362q38 0 60.5 29t22.5 86t-22.5 86t-60.5 29t-60.5 -29t-22.5 -86t22.5 -86t60.5 -29z" />
<glyph d="M250 -9q-50 0 -91 19.5t-70.5 54.5t-46 85t-16.5 112t16.5 111.5t46 84.5t70.5 54t91 19t91 -19t70.5 -54t46 -84.5t16.5 -111.5t-16.5 -112t-46 -85t-70.5 -54.5t-91 -19.5zM250 111q42 0 61.5 39t19.5 112t-19.5 111t-61.5 38q-41 0 -61 -38t-20 -111t20 -112t61 -39z " />
<glyph horiz-adv-x="367" d="M176 -257q-66 0 -106.5 26.5t-60.5 73.5l95 43q8 -20 24.5 -33.5t46.5 -13.5q26 0 42 14.5t16 39.5q0 54 -61 54q-21 0 -34 -2t-23 -5l-6 11l55 79q2 3 8 9.5t12 12.5q7 7 14 16q-11 -1 -21 -2q-8 -1 -17 -1.5t-14 -0.5h-93v91h290v-9l-70 -100q-6 -8 -11.5 -14 t-10.5 -10l-10 -8q43 -8 72.5 -40.5t29.5 -86.5q0 -36 -13.5 -63t-37 -45t-53.5 -27t-63 -9z" />
<glyph horiz-adv-x="782" d="M402 -9q-77 0 -142 26.5t-112 73t-73.5 110.5t-26.5 139t27.5 139t75 110.5t111.5 72.5t138 26q90 0 159 -33t117 -108l-110 -78q-27 44 -67.5 68.5t-98.5 24.5q-47 0 -85 -17t-65.5 -46.5t-42.5 -70t-15 -88.5t15 -89t42.5 -71t66 -47.5t85.5 -17.5q39 0 71 10t56 27.5 t39.5 40.5t21.5 49h-170v122h318q4 -84 -15.5 -153t-62 -118t-107.5 -75.5t-150 -26.5zM401 730q-35 0 -60.5 23.5t-25.5 61.5q0 37 25.5 60.5t60.5 23.5t60 -23.5t25 -60.5q0 -38 -25 -61.5t-60 -23.5z" />
<glyph horiz-adv-x="624" d="M324 -9q-57 0 -107.5 19.5t-88.5 55.5t-60 85.5t-22 109.5q0 59 22 108.5t60 85.5t88.5 56t108.5 20q148 0 221 -109l-107 -73q-18 29 -46 45.5t-70 16.5q-30 0 -55.5 -11.5t-44 -31.5t-28.5 -47.5t-10 -59.5q0 -33 10 -60.5t28.5 -48t44 -32t56.5 -11.5q45 0 79.5 18 t46.5 58h-113v108h249q6 -67 -9 -122.5t-49 -95.5t-85.5 -62t-118.5 -22zM327 576q-35 0 -60.5 23.5t-25.5 61.5q0 37 25.5 60.5t60.5 23.5t60 -23.5t25 -60.5q0 -38 -25 -61.5t-60 -23.5z" />
<glyph horiz-adv-x="378" d="M11 -240l177 180q28 28 36.5 47t8.5 37q0 19 -13.5 30t-35.5 11q-45 0 -69 -55l-97 34q20 55 62 86.5t105 31.5q73 0 115 -37.5t42 -99.5q0 -32 -17.5 -64t-49.5 -64l-20 -21q-7 -8 -15.5 -14.5t-16.5 -11.5q-10 -6 -19 -12q10 1 21 2q9 1 20 2t20 1h74v-93h-328v10z" />
<glyph horiz-adv-x="182" />
</font>
</defs>
</svg>
